<svg xmlns="http://www.w3.org/2000/svg" xmlns:xlink="http://www.w3.org/1999/xlink" width="108" height="108" viewBox="0 0 108 108">
  <defs>
    <filter id="Fondo" x="0" y="0" width="108" height="108" filterUnits="userSpaceOnUse">
      <feOffset dy="3" input="SourceAlpha"/>
      <feGaussianBlur stdDeviation="3" result="blur"/>
      <feFlood flood-opacity="0.161"/>
      <feComposite operator="in" in2="blur"/>
      <feComposite in="SourceGraphic"/>
    </filter>
    <clipPath id="clip-path">
      <rect id="Rectángulo_408289" data-name="Rectángulo 408289" width="60" height="60" fill="none"/>
    </clipPath>
  </defs>
  <g id="Icono" transform="translate(8.5 -689)">
    <g transform="matrix(1, 0, 0, 1, -8.5, 689)" filter="url(#Fondo)">
      <g id="Fondo-2" data-name="Fondo" transform="translate(9 6)" fill="#e6d567">
        <path d="M 45 88.5 C 39.12687683105469 88.5 33.43022537231445 87.35007476806641 28.06830024719238 85.08217620849609 C 22.88852500915527 82.89131164550781 18.23629951477051 79.75458526611328 14.2408504486084 75.75914764404297 C 10.24541282653809 71.76370239257812 7.108687400817871 67.11147308349609 4.917825222015381 61.93170166015625 C 2.649924993515015 56.56977462768555 1.5 50.87312316894531 1.5 45 C 1.5 39.12687683105469 2.649924993515015 33.43022537231445 4.917825222015381 28.06830024719238 C 7.108687400817871 22.88852500915527 10.24541282653809 18.23629951477051 14.2408504486084 14.2408504486084 C 18.23629951477051 10.24541282653809 22.88852500915527 7.108687400817871 28.06830024719238 4.917825222015381 C 33.43022537231445 2.649924993515015 39.12687683105469 1.5 45 1.5 C 50.87312316894531 1.5 56.56977462768555 2.649924993515015 61.93170166015625 4.917825222015381 C 67.11147308349609 7.108687400817871 71.76370239257812 10.24541282653809 75.75914764404297 14.2408504486084 C 79.75458526611328 18.23629951477051 82.89131164550781 22.88852500915527 85.08217620849609 28.06830024719238 C 87.35007476806641 33.43022537231445 88.5 39.12687683105469 88.5 45 C 88.5 50.87312316894531 87.35007476806641 56.56977462768555 85.08217620849609 61.93170166015625 C 82.89131164550781 67.11147308349609 79.75458526611328 71.76370239257812 75.75914764404297 75.75914764404297 C 71.76370239257812 79.75458526611328 67.11147308349609 82.89131164550781 61.93170166015625 85.08217620849609 C 56.56977462768555 87.35007476806641 50.87312316894531 88.5 45 88.5 Z" stroke="none"/>
        <path d="M 45 3 C 39.32871246337891 3 33.82865524291992 4.110054016113281 28.65262985229492 6.299339294433594 C 23.65165710449219 8.414573669433594 19.15968322753906 11.44334411621094 15.301513671875 15.301513671875 C 11.44334411621094 19.15968322753906 8.414573669433594 23.65165710449219 6.299339294433594 28.65262985229492 C 4.110054016113281 33.82865524291992 3 39.32871246337891 3 45 C 3 50.67128753662109 4.110054016113281 56.17134475708008 6.299339294433594 61.34737396240234 C 8.414573669433594 66.34834289550781 11.44334411621094 70.84031677246094 15.301513671875 74.698486328125 C 19.15968322753906 78.55665588378906 23.65165710449219 81.58542633056641 28.65262985229492 83.70066070556641 C 33.82865524291992 85.88994598388672 39.32871246337891 87 45 87 C 50.67128753662109 87 56.17134475708008 85.88994598388672 61.34737396240234 83.70066070556641 C 66.34834289550781 81.58542633056641 70.84031677246094 78.55665588378906 74.698486328125 74.698486328125 C 78.55665588378906 70.84031677246094 81.58542633056641 66.34834289550781 83.70066070556641 61.34737396240234 C 85.88994598388672 56.17134475708008 87 50.67128753662109 87 45 C 87 39.32871246337891 85.88994598388672 33.82865524291992 83.70066070556641 28.65262985229492 C 81.58542633056641 23.65165710449219 78.55665588378906 19.15968322753906 74.698486328125 15.301513671875 C 70.84031677246094 11.44334411621094 66.34834289550781 8.414573669433594 61.34737396240234 6.299339294433594 C 56.17134475708008 4.110054016113281 50.67128753662109 3 45 3 M 45 0 C 69.85281372070312 0 90 20.14718627929688 90 45 C 90 69.85281372070312 69.85281372070312 90 45 90 C 20.14718627929688 90 0 69.85281372070312 0 45 C 0 20.14718627929688 20.14718627929688 0 45 0 Z" stroke="none" fill="#bca724"/>
      </g>
    </g>
    <g id="Grupo_1151793" data-name="Grupo 1151793" transform="translate(15.109 709.623)">
      <path id="Trazado_986476" data-name="Trazado 986476" d="M47,9v6H1V9L24,1Z" fill="#c6c5ca"/>
      <g id="Grupo_1151792" data-name="Grupo 1151792">
        <g id="Grupo_1151791" data-name="Grupo 1151791" clip-path="url(#clip-path)">
          <path id="Trazado_986477" data-name="Trazado 986477" d="M24,5a3,3,0,1,1-3,3,3,3,0,0,1,3-3" fill="#d8d7da"/>
          <rect id="Rectángulo_408280" data-name="Rectángulo 408280" width="6" height="4" transform="translate(6 37)" fill="#d8d7da"/>
          <rect id="Rectángulo_408281" data-name="Rectángulo 408281" width="6" height="4" transform="translate(21 37)" fill="#d8d7da"/>
          <path id="Trazado_986478" data-name="Trazado 986478" d="M47,45v6H1V45H47Z" fill="#acabb1"/>
          <rect id="Rectángulo_408282" data-name="Rectángulo 408282" width="6" height="4" transform="translate(36 37)" fill="#d8d7da"/>
          <rect id="Rectángulo_408283" data-name="Rectángulo 408283" width="6" height="4" transform="translate(36 15)" fill="#d8d7da"/>
          <rect id="Rectángulo_408284" data-name="Rectángulo 408284" width="6" height="4" transform="translate(21 15)" fill="#d8d7da"/>
          <rect id="Rectángulo_408285" data-name="Rectángulo 408285" width="6" height="4" transform="translate(6 15)" fill="#d8d7da"/>
          <path id="Trazado_986479" data-name="Trazado 986479" d="M45,41v4H3V41H45Z" fill="#c6c5ca"/>
          <rect id="Rectángulo_408286" data-name="Rectángulo 408286" width="6" height="18" transform="translate(36 19)" fill="#c6c5ca"/>
          <rect id="Rectángulo_408287" data-name="Rectángulo 408287" width="6" height="18" transform="translate(6 19)" fill="#c6c5ca"/>
          <rect id="Rectángulo_408288" data-name="Rectángulo 408288" width="6" height="18" transform="translate(21 19)" fill="#c6c5ca"/>
          <path id="Trazado_986480" data-name="Trazado 986480" d="M35,47h6a2.006,2.006,0,0,1,2,2v2a2.006,2.006,0,0,1-2,2H29a2.006,2.006,0,0,1-2-2V49a2.006,2.006,0,0,1,2-2h6Z" fill="#ffa733"/>
          <path id="Trazado_986481" data-name="Trazado 986481" d="M51,53h6a2.006,2.006,0,0,1,2,2v2a2.006,2.006,0,0,1-2,2H45a2.006,2.006,0,0,1-2-2V55a2.006,2.006,0,0,1,2-2h6Z" fill="#ffa733"/>
          <path id="Trazado_986482" data-name="Trazado 986482" d="M43,41h6a2.006,2.006,0,0,1,2,2v2a2.006,2.006,0,0,1-2,2H37a2.006,2.006,0,0,1-2-2V43a2.006,2.006,0,0,1,2-2h6Z" fill="#ee8700"/>
          <path id="Trazado_986483" data-name="Trazado 986483" d="M35,53h6a2.006,2.006,0,0,1,2,2v2a2.006,2.006,0,0,1-2,2H29a2.006,2.006,0,0,1-2-2V55a2.006,2.006,0,0,1,2-2h6Z" fill="#ee8700"/>
          <path id="Trazado_986484" data-name="Trazado 986484" d="M51,47h6a2.006,2.006,0,0,1,2,2v2a2.006,2.006,0,0,1-2,2H45a2.006,2.006,0,0,1-2-2V49a2.006,2.006,0,0,1,2-2h6Z" fill="#ee8700"/>
          <path id="Trazado_986485" data-name="Trazado 986485" d="M43,23a9,9,0,1,1-9,9,9.007,9.007,0,0,1,9-9" fill="#ffd422"/>
          <path id="Trazado_986486" data-name="Trazado 986486" d="M24,12a4,4,0,1,0-4-4,4,4,0,0,0,4,4m0-6a2,2,0,1,1-2,2,2,2,0,0,1,2-2"/>
          <path id="Trazado_986487" data-name="Trazado 986487" d="M60,49a3.009,3.009,0,0,0-3-3H51.82A3,3,0,0,0,52,45V43a3.009,3.009,0,0,0-3-3h-.03A9.985,9.985,0,0,0,43,22V16h4a1,1,0,0,0,1-1V9a.992.992,0,0,0-.67-.94l-23-8a.937.937,0,0,0-.66,0l-23,8A.992.992,0,0,0,0,9v6a1,1,0,0,0,1,1H5V40H3a1,1,0,0,0-1,1v3H1a1,1,0,0,0-1,1v6a1,1,0,0,0,1,1H26.18a3.174,3.174,0,0,0,.6,1A2.974,2.974,0,0,0,26,55v2a3.009,3.009,0,0,0,3,3H41a2.974,2.974,0,0,0,2-.78A2.974,2.974,0,0,0,45,60H57a3.009,3.009,0,0,0,3-3V55a2.974,2.974,0,0,0-.78-2A2.974,2.974,0,0,0,60,51ZM51,32a8,8,0,1,1-8-8,8.011,8.011,0,0,1,8,8M37.03,40H37v-.02c.01.01.02.01.03.02M35,37.97V40H28V16h7V26.03a9.91,9.91,0,0,0,0,11.94M41,20v2.2a9.87,9.87,0,0,0-4,1.82V20Zm-4-4h4v2H37ZM2,14V9.71L24,2.06,46,9.71V14Zm20,6h4V36H22Zm4,20H22V38h4ZM22,16h4v2H22ZM20,40H13V16h7ZM7,20h4V36H7Zm4,20H7V38h4ZM7,16h4v2H7ZM4,42H34.18A3,3,0,0,0,34,43v1H4Zm22,7v1H2V46H29a3.009,3.009,0,0,0-3,3m16,8a1,1,0,0,1-1,1H29a1,1,0,0,1-1-1V55a1,1,0,0,1,1-1h1v2h2V54h2v2h2V54h2v2h2V54h1a1,1,0,0,1,1,1Zm0-6a1,1,0,0,1-1,1H29a1,1,0,0,1-1-1V49a1,1,0,0,1,1-1h1v2h2V48h2v2h2V48h2v2h2V48h1a1,1,0,0,1,1,1Zm-5-5a1,1,0,0,1-1-1V43a1,1,0,0,1,1-1h1v2h2V42h2v2h2V42h2v2h2V42h1a1,1,0,0,1,1,1v2a1,1,0,0,1-1,1ZM58,57a1,1,0,0,1-1,1H45a1,1,0,0,1-1-1V55a1,1,0,0,1,1-1h1v2h2V54h2v2h2V54h2v2h2V54h1a1,1,0,0,1,1,1Zm0-6a1,1,0,0,1-1,1H45a1,1,0,0,1-1-1V49a1,1,0,0,1,1-1h1v2h2V48h2v2h2V48h2v2h2V48h1a1,1,0,0,1,1,1Z"/>
          <path id="Trazado_986488" data-name="Trazado 986488" d="M42,26v1a3,3,0,0,0,0,6h2a1,1,0,0,1,0,2H42a1,1,0,0,1-1-1H39a3,3,0,0,0,3,3v1h2V37a3,3,0,0,0,0-6H42a1,1,0,0,1,0-2h2a1,1,0,0,1,1,1h2a3,3,0,0,0-3-3V26Z"/>
        </g>
      </g>
    </g>
  </g>
</svg>
