<svg xmlns="http://www.w3.org/2000/svg" xmlns:xlink="http://www.w3.org/1999/xlink" width="108" height="108" viewBox="0 0 108 108">
  <defs>
    <filter id="Fondo" x="0" y="0" width="108" height="108" filterUnits="userSpaceOnUse">
      <feOffset dy="3" input="SourceAlpha"/>
      <feGaussianBlur stdDeviation="3" result="blur"/>
      <feFlood flood-opacity="0.161"/>
      <feComposite operator="in" in2="blur"/>
      <feComposite in="SourceGraphic"/>
    </filter>
    <clipPath id="clip-path">
      <rect id="Rectángulo_408307" data-name="Rectángulo 408307" width="57.22" height="56.607" transform="translate(0 0)" fill="none"/>
    </clipPath>
  </defs>
  <g id="Icono" transform="translate(8.5 -689)">
    <g transform="matrix(1, 0, 0, 1, -8.5, 689)" filter="url(#Fondo)">
      <g id="Fondo-2" data-name="Fondo" transform="translate(9 6)" fill="#e6d567">
        <path d="M 45 88.5 C 39.12687683105469 88.5 33.43022537231445 87.35007476806641 28.06830024719238 85.08217620849609 C 22.88852500915527 82.89131164550781 18.23629951477051 79.75458526611328 14.2408504486084 75.75914764404297 C 10.24541282653809 71.76370239257812 7.108687400817871 67.11147308349609 4.917825222015381 61.93170166015625 C 2.649924993515015 56.56977462768555 1.5 50.87312316894531 1.5 45 C 1.5 39.12687683105469 2.649924993515015 33.43022537231445 4.917825222015381 28.06830024719238 C 7.108687400817871 22.88852500915527 10.24541282653809 18.23629951477051 14.2408504486084 14.2408504486084 C 18.23629951477051 10.24541282653809 22.88852500915527 7.108687400817871 28.06830024719238 4.917825222015381 C 33.43022537231445 2.649924993515015 39.12687683105469 1.5 45 1.5 C 50.87312316894531 1.5 56.56977462768555 2.649924993515015 61.93170166015625 4.917825222015381 C 67.11147308349609 7.108687400817871 71.76370239257812 10.24541282653809 75.75914764404297 14.2408504486084 C 79.75458526611328 18.23629951477051 82.89131164550781 22.88852500915527 85.08217620849609 28.06830024719238 C 87.35007476806641 33.43022537231445 88.5 39.12687683105469 88.5 45 C 88.5 50.87312316894531 87.35007476806641 56.56977462768555 85.08217620849609 61.93170166015625 C 82.89131164550781 67.11147308349609 79.75458526611328 71.76370239257812 75.75914764404297 75.75914764404297 C 71.76370239257812 79.75458526611328 67.11147308349609 82.89131164550781 61.93170166015625 85.08217620849609 C 56.56977462768555 87.35007476806641 50.87312316894531 88.5 45 88.5 Z" stroke="none"/>
        <path d="M 45 3 C 39.32871246337891 3 33.82865524291992 4.110054016113281 28.65262985229492 6.299339294433594 C 23.65165710449219 8.414573669433594 19.15968322753906 11.44334411621094 15.301513671875 15.301513671875 C 11.44334411621094 19.15968322753906 8.414573669433594 23.65165710449219 6.299339294433594 28.65262985229492 C 4.110054016113281 33.82865524291992 3 39.32871246337891 3 45 C 3 50.67128753662109 4.110054016113281 56.17134475708008 6.299339294433594 61.34737396240234 C 8.414573669433594 66.34834289550781 11.44334411621094 70.84031677246094 15.301513671875 74.698486328125 C 19.15968322753906 78.55665588378906 23.65165710449219 81.58542633056641 28.65262985229492 83.70066070556641 C 33.82865524291992 85.88994598388672 39.32871246337891 87 45 87 C 50.67128753662109 87 56.17134475708008 85.88994598388672 61.34737396240234 83.70066070556641 C 66.34834289550781 81.58542633056641 70.84031677246094 78.55665588378906 74.698486328125 74.698486328125 C 78.55665588378906 70.84031677246094 81.58542633056641 66.34834289550781 83.70066070556641 61.34737396240234 C 85.88994598388672 56.17134475708008 87 50.67128753662109 87 45 C 87 39.32871246337891 85.88994598388672 33.82865524291992 83.70066070556641 28.65262985229492 C 81.58542633056641 23.65165710449219 78.55665588378906 19.15968322753906 74.698486328125 15.301513671875 C 70.84031677246094 11.44334411621094 66.34834289550781 8.414573669433594 61.34737396240234 6.299339294433594 C 56.17134475708008 4.110054016113281 50.67128753662109 3 45 3 M 45 0 C 69.85281372070312 0 90 20.14718627929688 90 45 C 90 69.85281372070312 69.85281372070312 90 45 90 C 20.14718627929688 90 0 69.85281372070312 0 45 C 0 20.14718627929688 20.14718627929688 0 45 0 Z" stroke="none" fill="#bca724"/>
      </g>
    </g>
    <g id="Grupo_1151802" data-name="Grupo 1151802" transform="translate(16.89 711.697)">
      <g id="Grupo_1151801" data-name="Grupo 1151801" clip-path="url(#clip-path)">
        <path id="Trazado_986547" data-name="Trazado 986547" d="M20.61,17.607h6a2.006,2.006,0,0,1,2,2v2a2.006,2.006,0,0,1-2,2h-12a2.006,2.006,0,0,1-2-2v-2a2.006,2.006,0,0,1,2-2h6Z" fill="#ffa733"/>
        <path id="Trazado_986548" data-name="Trazado 986548" d="M36.61,23.607h6a2.006,2.006,0,0,1,2,2v2a2.006,2.006,0,0,1-2,2h-12a2.006,2.006,0,0,1-2-2v-2a2.006,2.006,0,0,1,2-2h6Z" fill="#ffa733"/>
        <path id="Trazado_986549" data-name="Trazado 986549" d="M28.61,11.607h6a2.006,2.006,0,0,1,2,2v2a2.006,2.006,0,0,1-2,2h-12a2.006,2.006,0,0,1-2-2v-2a2.006,2.006,0,0,1,2-2h6Z" fill="#ee8700"/>
        <path id="Trazado_986550" data-name="Trazado 986550" d="M20.61,23.607h6a2.006,2.006,0,0,1,2,2v2a2.006,2.006,0,0,1-2,2h-12a2.006,2.006,0,0,1-2-2v-2a2.006,2.006,0,0,1,2-2h6Z" fill="#ee8700"/>
        <path id="Trazado_986551" data-name="Trazado 986551" d="M36.61,17.607h6a2.006,2.006,0,0,1,2,2v2a2.006,2.006,0,0,1-2,2h-12a2.006,2.006,0,0,1-2-2v-2a2.006,2.006,0,0,1,2-2h6Z" fill="#ee8700"/>
        <path id="Trazado_986552" data-name="Trazado 986552" d="M37.69,1.367l-.68,1.76A5.983,5.983,0,0,1,30.48,6.9l-1.87-.29.68-1.76a5.99,5.99,0,0,1,6.53-3.78Z" fill="#00ccb3"/>
        <path id="Trazado_986553" data-name="Trazado 986553" d="M27.93,4.847l.68,1.76-1.87.29a5.983,5.983,0,0,1-6.53-3.77l-.68-1.76,1.87-.3a5.99,5.99,0,0,1,6.53,3.78" fill="#00ccb3"/>
        <path id="Trazado_986554" data-name="Trazado 986554" d="M48.61,35.607l-.2,2-1.44,14.4a4,4,0,0,1-3.98,3.6H14.23a4,4,0,0,1-3.98-3.6l-1.44-14.4-.2-2Z" fill="#5aaae7"/>
        <path id="Trazado_986555" data-name="Trazado 986555" d="M20.43,49.447a1.992,1.992,0,1,1-3.97.33l-.67-8.01a1.992,1.992,0,1,1,3.97-.33Z" fill="#3d9ae2"/>
        <path id="Trazado_986556" data-name="Trazado 986556" d="M30.61,41.607v8a2,2,0,0,1-4,0v-8a2.006,2.006,0,0,1,2-2,2.015,2.015,0,0,1,2,2" fill="#3d9ae2"/>
        <path id="Trazado_986557" data-name="Trazado 986557" d="M41.44,41.6c0,.05-.01.11-.01.17l-.67,8.01a1.992,1.992,0,1,1-3.97-.33l.67-8.01a1.993,1.993,0,0,1,3.98.16" fill="#3d9ae2"/>
        <path id="Trazado_986558" data-name="Trazado 986558" d="M49.61,29.607a3,3,0,0,1,0,6h-42a3,3,0,0,1,0-6Z" fill="#5aaae7"/>
        <path id="Trazado_986559" data-name="Trazado 986559" d="M48.61,35.607l-.2,2H8.81l-.2-2Z" fill="#3d9ae2"/>
        <path id="Trazado_986560" data-name="Trazado 986560" d="M16.73,34.727,6.12,45.337A3,3,0,0,1,1.88,41.1l10.61-10.61Z" fill="#3d9ae2"/>
        <path id="Trazado_986561" data-name="Trazado 986561" d="M55.34,41.1a3,3,0,1,1-4.24,4.24L40.49,34.727l4.24-4.24Z" fill="#3d9ae2"/>
        <path id="Trazado_986562" data-name="Trazado 986562" d="M42.61,28.607a4,4,0,1,0,4,4,4,4,0,0,0-4-4" fill="#78b9eb"/>
        <path id="Trazado_986563" data-name="Trazado 986563" d="M14.61,28.607a4,4,0,1,0,4,4,4,4,0,0,0-4-4" fill="#78b9eb"/>
        <path id="Trazado_986564" data-name="Trazado 986564" d="M28.61,38.607a3,3,0,0,0-3,3v8a3,3,0,0,0,6,0v-8a3,3,0,0,0-3-3m1,11a1,1,0,0,1-2,0v-8a1,1,0,0,1,2,0Z"/>
        <path id="Trazado_986565" data-name="Trazado 986565" d="M39.444,38.607a3.011,3.011,0,0,0-2.983,2.744l-.668,8.015a2.993,2.993,0,0,0,5.966.5l.668-8.015a2.994,2.994,0,0,0-2.983-3.241m.322,11.09a1,1,0,0,1-.99.91.991.991,0,0,1-.989-1.075l.667-8.015a1,1,0,0,1,.99-.91.992.992,0,0,1,.99,1.075Z"/>
        <path id="Trazado_986566" data-name="Trazado 986566" d="M17.776,38.607a2.994,2.994,0,0,0-2.983,3.242l.668,8.014a2.993,2.993,0,0,0,5.966-.5l-.668-8.015a3.01,3.01,0,0,0-2.983-2.744m1.4,11.68a.985.985,0,0,1-.731.32,1,1,0,0,1-.99-.91l-.668-8.014a.994.994,0,0,1,.99-1.076,1,1,0,0,1,.99.91l.668,8.015a.987.987,0,0,1-.259.755"/>
        <path id="Trazado_986567" data-name="Trazado 986567" d="M56.05,40.387l-4.38-4.37a3.988,3.988,0,0,0-2.06-7.41H45.58c-.04-.03-.08-.07-.12-.1a3.031,3.031,0,0,0,.15-.9v-2a2.974,2.974,0,0,0-.78-2,2.974,2.974,0,0,0,.78-2v-2a3.009,3.009,0,0,0-3-3H37.43a3,3,0,0,0,.18-1v-2a3.009,3.009,0,0,0-3-3h-5V7.777l.71.11a6.559,6.559,0,0,0,1.08.09,7.057,7.057,0,0,0,6.55-4.49l.67-1.76a1,1,0,0,0-.06-.86,1.03,1.03,0,0,0-.71-.49L35.98.087a7,7,0,0,0-7.37,3.87A7.012,7.012,0,0,0,21.24.087l-1.87.29a1.03,1.03,0,0,0-.71.49,1,1,0,0,0-.06.86l.67,1.76a7.057,7.057,0,0,0,6.55,4.49,6.559,6.559,0,0,0,1.08-.09l.71-.11v2.83h-5a3.009,3.009,0,0,0-3,3v2a3,3,0,0,0,.18,1H14.61a3.009,3.009,0,0,0-3,3v2a2.974,2.974,0,0,0,.78,2,2.974,2.974,0,0,0-.78,2v2a3.031,3.031,0,0,0,.15.9c-.04.03-.08.07-.12.1H7.61a3.988,3.988,0,0,0-2.06,7.41l-4.38,4.37a4,4,0,0,0,5.66,5.66l1.65-1.66.78,7.72a4.978,4.978,0,0,0,4.97,4.5H42.99a4.978,4.978,0,0,0,4.97-4.5l.78-7.72,1.65,1.66a4,4,0,0,0,5.66-5.66M30.22,5.207a5.039,5.039,0,0,1,5.45-3.15l.64.1-.23.61a5.033,5.033,0,0,1-5.45,3.15l-.64-.1Zm-3.63.71a5.033,5.033,0,0,1-5.45-3.15l-.23-.61.64-.1A5.033,5.033,0,0,1,27,5.207l.23.61Zm23.02,24.69a2.006,2.006,0,0,1,2,2,2,2,0,0,1-1.43,1.91l-2.64-2.64a5.424,5.424,0,0,0-.35-1.27Zm-4,2a3,3,0,1,1-3-3,3.009,3.009,0,0,1,3,3m-7.58,2H19.19a4.972,4.972,0,0,0,0-4H38.03a4.972,4.972,0,0,0,0,4m-7.42-6a1,1,0,0,1-1-1v-2a1,1,0,0,1,1-1h1v2h2v-2h2v2h2v-2h2v2h2v-2h1a1,1,0,0,1,1,1v2a.355.355,0,0,1-.02.1,5.252,5.252,0,0,0-.98-.1,4.939,4.939,0,0,0-2.97,1Zm7-8v-2h2v2h2v-2h1a1,1,0,0,1,1,1v2a1,1,0,0,1-1,1h-12a1,1,0,0,1-1-1v-2a1,1,0,0,1,1-1h1v2h2v-2h2v2Zm-16-7a1,1,0,0,1,1-1h1v2h2v-2h2v2h2v-2h2v2h2v-2h1a1,1,0,0,1,1,1v2a1,1,0,0,1-1,1h-12a1,1,0,0,1-1-1Zm-8,6a1,1,0,0,1,1-1h1v2h2v-2h2v2h2v-2h2v2h2v-2h1a1,1,0,0,1,1,1v2a1,1,0,0,1-1,1h-12a1,1,0,0,1-1-1Zm0,6a1,1,0,0,1,1-1h1v2h2v-2h2v2h2v-2h2v2h2v-2h1a1,1,0,0,1,1,1v2a1,1,0,0,1-1,1H17.58a4.939,4.939,0,0,0-2.97-1,5.252,5.252,0,0,0-.98.1.355.355,0,0,1-.02-.1Zm1,4a3,3,0,1,1-3,3,3.009,3.009,0,0,1,3-3M6.2,31.2a1.983,1.983,0,0,1,1.41-.59h2.42a5.424,5.424,0,0,0-.35,1.27l-2.64,2.65a2.01,2.01,0,0,1-1.43-1.92A1.983,1.983,0,0,1,6.2,31.2m-.79,13.43a2.029,2.029,0,0,1-2.82,0,1.992,1.992,0,0,1,0-2.82l7.37-7.38a5.047,5.047,0,0,0,2.83,2.83Zm40.56,7.28a2.98,2.98,0,0,1-2.98,2.7H14.23a2.98,2.98,0,0,1-2.98-2.7l-.94-9.35,5.03-5.02a5.072,5.072,0,0,0,2.24-.93H39.64a5.072,5.072,0,0,0,2.24.93l5.03,5.02Zm8.66-7.28a2.029,2.029,0,0,1-2.82,0l-7.38-7.37a5.047,5.047,0,0,0,2.83-2.83l7.37,7.38a1.992,1.992,0,0,1,0,2.82"/>
      </g>
    </g>
  </g>
</svg>
