<svg xmlns="http://www.w3.org/2000/svg" xmlns:xlink="http://www.w3.org/1999/xlink" width="108" height="108" viewBox="0 0 108 108">
  <defs>
    <filter id="Fondo" x="0" y="0" width="108" height="108" filterUnits="userSpaceOnUse">
      <feOffset dy="3" input="SourceAlpha"/>
      <feGaussianBlur stdDeviation="3" result="blur"/>
      <feFlood flood-opacity="0.161"/>
      <feComposite operator="in" in2="blur"/>
      <feComposite in="SourceGraphic"/>
    </filter>
    <clipPath id="clip-path">
      <rect id="Rectángulo_408293" data-name="Rectángulo 408293" width="60" height="60" transform="translate(0 0)" fill="none"/>
    </clipPath>
  </defs>
  <g id="Icono" transform="translate(8.5 -689)">
    <g transform="matrix(1, 0, 0, 1, -8.5, 689)" filter="url(#Fondo)">
      <g id="Fondo-2" data-name="Fondo" transform="translate(9 6)" fill="#e6d567">
        <path d="M 45 88.5 C 39.12687683105469 88.5 33.43022537231445 87.35007476806641 28.06830024719238 85.08217620849609 C 22.88852500915527 82.89131164550781 18.23629951477051 79.75458526611328 14.2408504486084 75.75914764404297 C 10.24541282653809 71.76370239257812 7.108687400817871 67.11147308349609 4.917825222015381 61.93170166015625 C 2.649924993515015 56.56977462768555 1.5 50.87312316894531 1.5 45 C 1.5 39.12687683105469 2.649924993515015 33.43022537231445 4.917825222015381 28.06830024719238 C 7.108687400817871 22.88852500915527 10.24541282653809 18.23629951477051 14.2408504486084 14.2408504486084 C 18.23629951477051 10.24541282653809 22.88852500915527 7.108687400817871 28.06830024719238 4.917825222015381 C 33.43022537231445 2.649924993515015 39.12687683105469 1.5 45 1.5 C 50.87312316894531 1.5 56.56977462768555 2.649924993515015 61.93170166015625 4.917825222015381 C 67.11147308349609 7.108687400817871 71.76370239257812 10.24541282653809 75.75914764404297 14.2408504486084 C 79.75458526611328 18.23629951477051 82.89131164550781 22.88852500915527 85.08217620849609 28.06830024719238 C 87.35007476806641 33.43022537231445 88.5 39.12687683105469 88.5 45 C 88.5 50.87312316894531 87.35007476806641 56.56977462768555 85.08217620849609 61.93170166015625 C 82.89131164550781 67.11147308349609 79.75458526611328 71.76370239257812 75.75914764404297 75.75914764404297 C 71.76370239257812 79.75458526611328 67.11147308349609 82.89131164550781 61.93170166015625 85.08217620849609 C 56.56977462768555 87.35007476806641 50.87312316894531 88.5 45 88.5 Z" stroke="none"/>
        <path d="M 45 3 C 39.32871246337891 3 33.82865524291992 4.110054016113281 28.65262985229492 6.299339294433594 C 23.65165710449219 8.414573669433594 19.15968322753906 11.44334411621094 15.301513671875 15.301513671875 C 11.44334411621094 19.15968322753906 8.414573669433594 23.65165710449219 6.299339294433594 28.65262985229492 C 4.110054016113281 33.82865524291992 3 39.32871246337891 3 45 C 3 50.67128753662109 4.110054016113281 56.17134475708008 6.299339294433594 61.34737396240234 C 8.414573669433594 66.34834289550781 11.44334411621094 70.84031677246094 15.301513671875 74.698486328125 C 19.15968322753906 78.55665588378906 23.65165710449219 81.58542633056641 28.65262985229492 83.70066070556641 C 33.82865524291992 85.88994598388672 39.32871246337891 87 45 87 C 50.67128753662109 87 56.17134475708008 85.88994598388672 61.34737396240234 83.70066070556641 C 66.34834289550781 81.58542633056641 70.84031677246094 78.55665588378906 74.698486328125 74.698486328125 C 78.55665588378906 70.84031677246094 81.58542633056641 66.34834289550781 83.70066070556641 61.34737396240234 C 85.88994598388672 56.17134475708008 87 50.67128753662109 87 45 C 87 39.32871246337891 85.88994598388672 33.82865524291992 83.70066070556641 28.65262985229492 C 81.58542633056641 23.65165710449219 78.55665588378906 19.15968322753906 74.698486328125 15.301513671875 C 70.84031677246094 11.44334411621094 66.34834289550781 8.414573669433594 61.34737396240234 6.299339294433594 C 56.17134475708008 4.110054016113281 50.67128753662109 3 45 3 M 45 0 C 69.85281372070312 0 90 20.14718627929688 90 45 C 90 69.85281372070312 69.85281372070312 90 45 90 C 20.14718627929688 90 0 69.85281372070312 0 45 C 0 20.14718627929688 20.14718627929688 0 45 0 Z" stroke="none" fill="#bca724"/>
      </g>
    </g>
    <g id="Grupo_1151797" data-name="Grupo 1151797" transform="translate(14.718 709.793)">
      <g id="Grupo_1151796" data-name="Grupo 1151796" clip-path="url(#clip-path)">
        <path id="Trazado_986515" data-name="Trazado 986515" d="M24,14h2a2.006,2.006,0,0,1,2,2,2.015,2.015,0,0,1-2,2H24a2.006,2.006,0,0,1,2,2,2.015,2.015,0,0,1-2,2H22a2.006,2.006,0,0,1,2,2,2.015,2.015,0,0,1-2,2H7L3,24l-3,.07V11H3.27L14.46,4.54a2,2,0,0,1,2.74.73,1.967,1.967,0,0,1,.27.99A2,2,0,0,1,16.46,8L13,10H24a2.006,2.006,0,0,1,2,2,2.015,2.015,0,0,1-2,2" fill="#ffc477"/>
        <path id="Trazado_986516" data-name="Trazado 986516" d="M46,30A16,16,0,1,1,30,14,16,16,0,0,1,46,30" fill="#5aaae7"/>
        <path id="Trazado_986517" data-name="Trazado 986517" d="M30,18A12,12,0,1,1,18,30,12,12,0,0,1,30,18" fill="#ffd422"/>
        <path id="Trazado_986518" data-name="Trazado 986518" d="M26,50v6H9v3L1,53l8-6v3Z" fill="#ffa733"/>
        <path id="Trazado_986519" data-name="Trazado 986519" d="M59,7l-8,6V10H35V4H51V1Z" fill="#ffa733"/>
        <path id="Trazado_986520" data-name="Trazado 986520" d="M60,41V54.07L53,54l-4,2H34a2.015,2.015,0,0,1-2-2,2.006,2.006,0,0,1,2-2H32a2.015,2.015,0,0,1-2-2,2.006,2.006,0,0,1,2-2H30a2.015,2.015,0,0,1-2-2,2.006,2.006,0,0,1,2-2h2a2.015,2.015,0,0,1-2-2,2.006,2.006,0,0,1,2-2H43l-3.46-2a2,2,0,0,1-1.01-1.74,1.967,1.967,0,0,1,.27-.99,2,2,0,0,1,2.74-.73L52.73,41Z" fill="#ffc477"/>
        <path id="Trazado_986521" data-name="Trazado 986521" d="M40.93,35.35a.407.407,0,0,1,.11.06l11.19,6.46a1.063,1.063,0,0,0,.5.13H60V40H53l-7.09-4.09A16.731,16.731,0,0,0,47,30,17.024,17.024,0,0,0,30,13a17.225,17.225,0,0,0-3.32.33A2.985,2.985,0,0,0,24,9H16.73l.23-.13a3,3,0,1,0-3-5.2L3,10H0v2H3.27a1.094,1.094,0,0,0,.5-.13L14.96,5.4a1,1,0,0,1,1.37.37.988.988,0,0,1-.37,1.36l-3.46,2A1,1,0,0,0,12,10v1a4,4,0,0,1-4,4H7v2H8a6,6,0,0,0,6-6H24a1,1,0,0,1,1,1,.949.949,0,0,1-.31.71A.928.928,0,0,1,24,13H17a1,1,0,0,0,0,2h5.02a17,17,0,0,0-2.95,2H17a1,1,0,0,0,0,2h.06a17.033,17.033,0,0,0-3.31,6H7.24L3.45,23.11A1,1,0,0,0,3,23H0v2H2.76l3.79,1.89A1,1,0,0,0,7,27h6.28A17.432,17.432,0,0,0,13,30,17.008,17.008,0,0,0,28.14,46.88a3.078,3.078,0,0,0,.73,1.23,2.99,2.99,0,0,0,.52.42,2.983,2.983,0,0,0,.48,3.58,3.063,3.063,0,0,0,1.34.79A2.873,2.873,0,0,0,31,54a3,3,0,0,0,3,3H49a1,1,0,0,0,.45-.11L53.24,55H60V53H53a1,1,0,0,0-.45.11L48.76,55H34a.948.948,0,0,1-.71-.31A.928.928,0,0,1,33,54a1,1,0,0,1,1-1h6a1,1,0,0,0,0-2H32a.948.948,0,0,1-.71-.31A.928.928,0,0,1,31,50a1,1,0,0,1,1-1h8a1,1,0,0,0,0-2H31a.948.948,0,0,1-.71-.31A.928.928,0,0,1,30,46a1,1,0,0,1,1-1h9a1,1,0,0,0,0-2H32a.948.948,0,0,1-.71-.31A.928.928,0,0,1,31,42a1,1,0,0,1,1-1H43a1,1,0,0,0,.97-.74,1.022,1.022,0,0,0-.47-1.13l-3.44-1.98a1.311,1.311,0,0,1-.21-.16,1.007,1.007,0,0,1-.32-.73,1.087,1.087,0,0,1,.13-.49,1.045,1.045,0,0,1,1.27-.42M28.24,44.88A14.992,14.992,0,1,1,45,30a14.755,14.755,0,0,1-.84,4.9L42.4,33.88a13,13,0,1,0-13.23,9.08,2.874,2.874,0,0,0,.21.51,3.1,3.1,0,0,0-1.14,1.41m9.69-10.11a3.025,3.025,0,0,0-.4,1.49,2.975,2.975,0,0,0,.35,1.38A11.532,11.532,0,0,1,36.3,39H32a2.986,2.986,0,0,0-2.8,1.96A10.995,10.995,0,1,1,41,30a10.893,10.893,0,0,1-.5,3.27,3.042,3.042,0,0,0-2.57,1.5"/>
        <path id="Trazado_986522" data-name="Trazado 986522" d="M28,27h4a1,1,0,0,1,1,1h2a3,3,0,0,0-3-3H31V23H29v2H28a3,3,0,0,0,0,6h4a1,1,0,0,1,0,2H28a1,1,0,0,1-1-1H25a3,3,0,0,0,3,3h1v2h2V35h1a3,3,0,0,0,0-6H28a1,1,0,0,1,0-2"/>
        <rect id="Rectángulo_408291" data-name="Rectángulo 408291" width="2" height="2" transform="translate(37 29)"/>
        <rect id="Rectángulo_408292" data-name="Rectángulo 408292" width="2" height="2" transform="translate(21 29)"/>
        <path id="Trazado_986523" data-name="Trazado 986523" d="M50,13a1,1,0,0,0,1.6.8l8-6a1,1,0,0,0,0-1.6l-8-6A1,1,0,0,0,50,1V3H35V5H51a1,1,0,0,0,1-1V3l5.333,4L52,11V10a1,1,0,0,0-1-1H35v2H50Z"/>
        <path id="Trazado_986524" data-name="Trazado 986524" d="M10,47a1,1,0,0,0-1.6-.8l-8,6a1,1,0,0,0,0,1.6l8,6A1,1,0,0,0,9,60a1,1,0,0,0,1-1V57H26V55H9a1,1,0,0,0-1,1v1L2.667,53,8,49v1a1,1,0,0,0,1,1H26V49H10Z"/>
      </g>
    </g>
  </g>
</svg>
