<svg xmlns="http://www.w3.org/2000/svg" xmlns:xlink="http://www.w3.org/1999/xlink" width="108" height="108" viewBox="0 0 108 108">
  <defs>
    <filter id="Fondo" x="0" y="0" width="108" height="108" filterUnits="userSpaceOnUse">
      <feOffset dy="3" input="SourceAlpha"/>
      <feGaussianBlur stdDeviation="3" result="blur"/>
      <feFlood flood-opacity="0.161"/>
      <feComposite operator="in" in2="blur"/>
      <feComposite in="SourceGraphic"/>
    </filter>
    <clipPath id="clip-path">
      <rect id="Rectángulo_408306" data-name="Rectángulo 408306" width="55" height="55" transform="translate(0.037 0.037)" fill="none"/>
    </clipPath>
  </defs>
  <g id="Icono" transform="translate(8.5 -689)">
    <g transform="matrix(1, 0, 0, 1, -8.5, 689)" filter="url(#Fondo)">
      <g id="Fondo-2" data-name="Fondo" transform="translate(9 6)" fill="#e6d567">
        <path d="M 45 88.5 C 39.12687683105469 88.5 33.43022537231445 87.35007476806641 28.06830024719238 85.08217620849609 C 22.88852500915527 82.89131164550781 18.23629951477051 79.75458526611328 14.2408504486084 75.75914764404297 C 10.24541282653809 71.76370239257812 7.108687400817871 67.11147308349609 4.917825222015381 61.93170166015625 C 2.649924993515015 56.56977462768555 1.5 50.87312316894531 1.5 45 C 1.5 39.12687683105469 2.649924993515015 33.43022537231445 4.917825222015381 28.06830024719238 C 7.108687400817871 22.88852500915527 10.24541282653809 18.23629951477051 14.2408504486084 14.2408504486084 C 18.23629951477051 10.24541282653809 22.88852500915527 7.108687400817871 28.06830024719238 4.917825222015381 C 33.43022537231445 2.649924993515015 39.12687683105469 1.5 45 1.5 C 50.87312316894531 1.5 56.56977462768555 2.649924993515015 61.93170166015625 4.917825222015381 C 67.11147308349609 7.108687400817871 71.76370239257812 10.24541282653809 75.75914764404297 14.2408504486084 C 79.75458526611328 18.23629951477051 82.89131164550781 22.88852500915527 85.08217620849609 28.06830024719238 C 87.35007476806641 33.43022537231445 88.5 39.12687683105469 88.5 45 C 88.5 50.87312316894531 87.35007476806641 56.56977462768555 85.08217620849609 61.93170166015625 C 82.89131164550781 67.11147308349609 79.75458526611328 71.76370239257812 75.75914764404297 75.75914764404297 C 71.76370239257812 79.75458526611328 67.11147308349609 82.89131164550781 61.93170166015625 85.08217620849609 C 56.56977462768555 87.35007476806641 50.87312316894531 88.5 45 88.5 Z" stroke="none"/>
        <path d="M 45 3 C 39.32871246337891 3 33.82865524291992 4.110054016113281 28.65262985229492 6.299339294433594 C 23.65165710449219 8.414573669433594 19.15968322753906 11.44334411621094 15.301513671875 15.301513671875 C 11.44334411621094 19.15968322753906 8.414573669433594 23.65165710449219 6.299339294433594 28.65262985229492 C 4.110054016113281 33.82865524291992 3 39.32871246337891 3 45 C 3 50.67128753662109 4.110054016113281 56.17134475708008 6.299339294433594 61.34737396240234 C 8.414573669433594 66.34834289550781 11.44334411621094 70.84031677246094 15.301513671875 74.698486328125 C 19.15968322753906 78.55665588378906 23.65165710449219 81.58542633056641 28.65262985229492 83.70066070556641 C 33.82865524291992 85.88994598388672 39.32871246337891 87 45 87 C 50.67128753662109 87 56.17134475708008 85.88994598388672 61.34737396240234 83.70066070556641 C 66.34834289550781 81.58542633056641 70.84031677246094 78.55665588378906 74.698486328125 74.698486328125 C 78.55665588378906 70.84031677246094 81.58542633056641 66.34834289550781 83.70066070556641 61.34737396240234 C 85.88994598388672 56.17134475708008 87 50.67128753662109 87 45 C 87 39.32871246337891 85.88994598388672 33.82865524291992 83.70066070556641 28.65262985229492 C 81.58542633056641 23.65165710449219 78.55665588378906 19.15968322753906 74.698486328125 15.301513671875 C 70.84031677246094 11.44334411621094 66.34834289550781 8.414573669433594 61.34737396240234 6.299339294433594 C 56.17134475708008 4.110054016113281 50.67128753662109 3 45 3 M 45 0 C 69.85281372070312 0 90 20.14718627929688 90 45 C 90 69.85281372070312 69.85281372070312 90 45 90 C 20.14718627929688 90 0 69.85281372070312 0 45 C 0 20.14718627929688 20.14718627929688 0 45 0 Z" stroke="none" fill="#bca724"/>
      </g>
    </g>
    <g id="Grupo_1151800" data-name="Grupo 1151800" transform="translate(19.682 711.757)">
      <rect id="Rectángulo_408294" data-name="Rectángulo 408294" width="42" height="24" transform="translate(12.037 23.037)" fill="#00ccb3"/>
      <rect id="Rectángulo_408295" data-name="Rectángulo 408295" width="10" height="8" transform="translate(30.037 46.037)" fill="#e6e7e8"/>
      <path id="Trazado_986525" data-name="Trazado 986525" d="M59,51v4H43V51H59Z" transform="translate(-4.963 -4.963)" fill="#00b39d"/>
      <path id="Trazado_986526" data-name="Trazado 986526" d="M33,51v4H17V51H33Z" transform="translate(-1.918 -4.963)" fill="#00b39d"/>
      <rect id="Rectángulo_408296" data-name="Rectángulo 408296" width="16" height="4" transform="translate(38.037 50.037)" fill="#009986"/>
      <rect id="Rectángulo_408297" data-name="Rectángulo 408297" width="16" height="4" transform="translate(15.037 50.037)" fill="#009986"/>
      <g id="Grupo_1151799" data-name="Grupo 1151799">
        <g id="Grupo_1151798" data-name="Grupo 1151798" clip-path="url(#clip-path)">
          <path id="Trazado_986527" data-name="Trazado 986527" d="M37.586,34A4.586,4.586,0,1,1,33,38.586,4.586,4.586,0,0,1,37.586,34" transform="translate(-2.73 -2.813)" fill="#ffd422"/>
          <path id="Trazado_986528" data-name="Trazado 986528" d="M51,27a7.339,7.339,0,0,0,7.338,7.338V27Z" transform="translate(-4.219 -2.234)" fill="#009986"/>
          <path id="Trazado_986529" data-name="Trazado 986529" d="M24.338,27A7.339,7.339,0,0,1,17,34.338V27Z" transform="translate(-1.406 -2.234)" fill="#009986"/>
          <path id="Trazado_986530" data-name="Trazado 986530" d="M51,50.338A7.339,7.339,0,0,1,58.338,43v7.338Z" transform="translate(-4.219 -3.557)" fill="#009986"/>
          <path id="Trazado_986531" data-name="Trazado 986531" d="M24.338,50.338A7.339,7.339,0,0,0,17,43v7.338Z" transform="translate(-1.406 -3.557)" fill="#009986"/>
          <path id="Trazado_986532" data-name="Trazado 986532" d="M24.849,2.835V34.022a1.84,1.84,0,0,1-1.835,1.835H2.835A1.84,1.84,0,0,1,1,34.022V2.835A1.84,1.84,0,0,1,2.835,1h20.18a1.84,1.84,0,0,1,1.835,1.835" transform="translate(-0.083 -0.083)" fill="#5aaae7"/>
          <path id="Trazado_986533" data-name="Trazado 986533" d="M23.511,7.917v5.5a.92.92,0,0,1-.917.917H7.917A.92.92,0,0,1,7,13.421v-5.5A.92.92,0,0,1,7.917,7H22.594a.92.92,0,0,1,.917.917" transform="translate(-0.579 -0.579)" fill="#3d9ae2"/>
          <path id="Trazado_986534" data-name="Trazado 986534" d="M22.594,19H7.917A.92.92,0,0,0,7,19.917V34.594a.92.92,0,0,0,.917.917H22.594a.92.92,0,0,0,.917-.917V19.917A.92.92,0,0,0,22.594,19" transform="translate(-0.579 -1.572)" fill="#3d9ae2"/>
          <rect id="Rectángulo_408298" data-name="Rectángulo 408298" width="5" height="6" transform="translate(16.037 21.037)" fill="#329bed"/>
          <path id="Trazado_986535" data-name="Trazado 986535" d="M22.5,29v4.586a.92.92,0,0,1-.917.917H17V29Z" transform="translate(-1.406 -2.399)" fill="#158be6"/>
          <rect id="Rectángulo_408299" data-name="Rectángulo 408299" width="5" height="6" transform="translate(5.037 21.037)" fill="#329bed"/>
          <rect id="Rectángulo_408300" data-name="Rectángulo 408300" width="6" height="5" transform="translate(10.037 16.037)" fill="#329bed"/>
          <path id="Trazado_986536" data-name="Trazado 986536" d="M10.5,29v5.5H5.917A.92.92,0,0,1,5,33.586V29Z" transform="translate(-0.414 -2.399)" fill="#158be6"/>
          <rect id="Rectángulo_408301" data-name="Rectángulo 408301" width="6" height="6" transform="translate(10.037 21.037)" fill="#158be6"/>
          <rect id="Rectángulo_408302" data-name="Rectángulo 408302" width="6" height="5" transform="translate(10.037 27.037)" fill="#329bed"/>
          <path id="Trazado_986537" data-name="Trazado 986537" d="M22.5,17.917V22.5H17V17h4.586a.92.92,0,0,1,.917.917" transform="translate(-1.406 -1.406)" fill="#158be6"/>
          <path id="Trazado_986538" data-name="Trazado 986538" d="M10.5,17v5.5H5V17.917A.92.92,0,0,1,5.917,17Z" transform="translate(-0.414 -1.406)" fill="#158be6"/>
          <path id="Trazado_986539" data-name="Trazado 986539" d="M21.511,5.917v5.5a.92.92,0,0,1-.917.917H5.917A.92.92,0,0,1,5,11.421v-5.5A.92.92,0,0,1,5.917,5H20.594a.92.92,0,0,1,.917.917" transform="translate(-0.414 -0.414)" fill="#c2dff6"/>
          <path id="Trazado_986540" data-name="Trazado 986540" d="M43.255,4a8.255,8.255,0,1,0,8.255,8.255A8.255,8.255,0,0,0,43.255,4" transform="translate(-2.895 -0.331)" fill="#ffd422"/>
          <path id="Trazado_986541" data-name="Trazado 986541" d="M20.511,16H5.835A1.836,1.836,0,0,0,4,17.835V32.511a1.836,1.836,0,0,0,1.835,1.835H20.511a1.836,1.836,0,0,0,1.835-1.835V17.835A1.836,1.836,0,0,0,20.511,16m0,5.5H16.842V17.835h3.669Zm-9.173,1.835h3.669v3.669H11.338Zm3.669,9.173H11.338V28.842h3.669Zm-5.5-5.5H5.835V23.338H9.5Zm1.835-9.173h3.669V21.5H11.338Zm5.5,5.5h3.67v3.669h-3.67ZM9.5,21.5H5.835V17.835H9.5ZM5.835,28.842H9.5v3.669H5.835Zm11.007,3.669V28.842h3.67v3.669Z" transform="translate(-0.331 -1.324)"/>
          <path id="Trazado_986542" data-name="Trazado 986542" d="M20.511,4H5.835A1.836,1.836,0,0,0,4,5.835v5.5a1.836,1.836,0,0,0,1.835,1.835H20.511a1.836,1.836,0,0,0,1.835-1.835v-5.5A1.836,1.836,0,0,0,20.511,4m0,7.338H5.835v-5.5H20.511Z" transform="translate(-0.331 -0.331)"/>
          <rect id="Rectángulo_408303" data-name="Rectángulo 408303" width="1" height="2" transform="translate(16.037 7.037)"/>
          <rect id="Rectángulo_408304" data-name="Rectángulo 408304" width="2" height="2" transform="translate(12.037 7.037)"/>
          <rect id="Rectángulo_408305" data-name="Rectángulo 408305" width="2" height="2" transform="translate(8.037 7.037)"/>
          <path id="Trazado_986543" data-name="Trazado 986543" d="M54.119,23.849H25.684V2.752A2.76,2.76,0,0,0,22.932,0H2.752A2.76,2.76,0,0,0,0,2.752V33.939a2.76,2.76,0,0,0,2.752,2.752H14.676V54.119a.92.92,0,0,0,.917.917H54.119a.92.92,0,0,0,.917-.917V24.766a.92.92,0,0,0-.917-.917M2.752,34.857a.92.92,0,0,1-.917-.917V2.752a.92.92,0,0,1,.917-.917h20.18a.92.92,0,0,1,.917.917V33.939a.92.92,0,0,1-.917.917Zm13.759,5.577a6.421,6.421,0,0,1,5.43,5.43h-5.43ZM29.353,53.2H16.511V51.368H29.353Zm0-3.669H16.511V47.7H29.353ZM38.526,53.2H31.187V47.7h7.338Zm14.676,0H40.36V51.368H53.2Zm0-3.669H40.36V47.7H53.2Zm0-3.669h-5.43a6.421,6.421,0,0,1,5.43-5.43Zm0-7.283a8.268,8.268,0,0,0-7.283,7.283H23.794a8.268,8.268,0,0,0-7.283-7.283v-1.89h6.421a2.76,2.76,0,0,0,2.752-2.752V25.684H45.919A8.268,8.268,0,0,0,53.2,32.967Zm0-7.467a6.421,6.421,0,0,1-5.43-5.43H53.2Z"/>
          <path id="Trazado_986544" data-name="Trazado 986544" d="M37.5,44.007A5.5,5.5,0,1,0,32,38.5a5.509,5.509,0,0,0,5.5,5.5m0-9.173A3.669,3.669,0,1,1,33.835,38.5,3.673,3.673,0,0,1,37.5,34.835" transform="translate(-2.647 -2.73)"/>
          <path id="Trazado_986545" data-name="Trazado 986545" d="M44.586,15.255H42.752a.918.918,0,0,1-.917-.917H40a2.755,2.755,0,0,0,2.752,2.752v.917h1.835V17.09a2.752,2.752,0,0,0,0-5.5H42.752a.917.917,0,1,1,0-1.835h1.835a.918.918,0,0,1,.917.917h1.835a2.755,2.755,0,0,0-2.752-2.752V7H42.752v.917a2.752,2.752,0,0,0,0,5.5h1.835a.917.917,0,1,1,0,1.835" transform="translate(-3.309 -0.579)"/>
          <path id="Trazado_986546" data-name="Trazado 986546" d="M43.173,21.346A9.173,9.173,0,1,0,34,12.173a9.183,9.183,0,0,0,9.173,9.173m0-16.511a7.338,7.338,0,1,1-7.338,7.338,7.347,7.347,0,0,1,7.338-7.338" transform="translate(-2.813 -0.248)"/>
        </g>
      </g>
    </g>
  </g>
</svg>
