<svg xmlns="http://www.w3.org/2000/svg" xmlns:xlink="http://www.w3.org/1999/xlink" width="108" height="108" viewBox="0 0 108 108">
  <defs>
    <filter id="Trazado_982538" x="0" y="0" width="108" height="108" filterUnits="userSpaceOnUse">
      <feOffset dy="3" input="SourceAlpha"/>
      <feGaussianBlur stdDeviation="3" result="blur"/>
      <feFlood flood-opacity="0.161"/>
      <feComposite operator="in" in2="blur"/>
      <feComposite in="SourceGraphic"/>
    </filter>
    <clipPath id="clip-path">
      <rect id="Rectángulo_408313" data-name="Rectángulo 408313" width="53" height="53" transform="translate(0.324 0.324)" fill="none"/>
    </clipPath>
  </defs>
  <g id="Grupo_1151806" data-name="Grupo 1151806" transform="translate(-1291.75 -8242.707)">
    <g id="Grupo_1151707" data-name="Grupo 1151707" transform="translate(1300.75 8248.707)">
      <g id="Grupo_1150893" data-name="Grupo 1150893">
        <g transform="matrix(1, 0, 0, 1, -9, -6)" filter="url(#Trazado_982538)">
          <g id="Trazado_982538-2" data-name="Trazado 982538" transform="translate(9 6)" fill="#f3f3f3">
            <path d="M 45 88.5 C 39.12687683105469 88.5 33.43022537231445 87.35007476806641 28.06830024719238 85.08217620849609 C 22.88852500915527 82.89131164550781 18.23629951477051 79.75458526611328 14.2408504486084 75.75914764404297 C 10.24541282653809 71.76370239257812 7.108687400817871 67.11147308349609 4.917825222015381 61.93170166015625 C 2.649924993515015 56.56977462768555 1.5 50.87312316894531 1.5 45 C 1.5 39.12687683105469 2.649924993515015 33.43022537231445 4.917825222015381 28.06830024719238 C 7.108687400817871 22.88852500915527 10.24541282653809 18.23629951477051 14.2408504486084 14.2408504486084 C 18.23629951477051 10.24541282653809 22.88852500915527 7.108687400817871 28.06830024719238 4.917825222015381 C 33.43022537231445 2.649924993515015 39.12687683105469 1.5 45 1.5 C 50.87312316894531 1.5 56.56977462768555 2.649924993515015 61.93170166015625 4.917825222015381 C 67.11147308349609 7.108687400817871 71.76370239257812 10.24541282653809 75.75914764404297 14.2408504486084 C 79.75458526611328 18.23629951477051 82.89131164550781 22.88852500915527 85.08217620849609 28.06830024719238 C 87.35007476806641 33.43022537231445 88.5 39.12687683105469 88.5 45 C 88.5 50.87312316894531 87.35007476806641 56.56977462768555 85.08217620849609 61.93170166015625 C 82.89131164550781 67.11147308349609 79.75458526611328 71.76370239257812 75.75914764404297 75.75914764404297 C 71.76370239257812 79.75458526611328 67.11147308349609 82.89131164550781 61.93170166015625 85.08217620849609 C 56.56977462768555 87.35007476806641 50.87312316894531 88.5 45 88.5 Z" stroke="none"/>
            <path d="M 45 3 C 39.32871246337891 3 33.82865524291992 4.110054016113281 28.65262985229492 6.299339294433594 C 23.65165710449219 8.414573669433594 19.15968322753906 11.44334411621094 15.301513671875 15.301513671875 C 11.44334411621094 19.15968322753906 8.414573669433594 23.65165710449219 6.299339294433594 28.65262985229492 C 4.110054016113281 33.82865524291992 3 39.32871246337891 3 45 C 3 50.67128753662109 4.110054016113281 56.17134475708008 6.299339294433594 61.34737396240234 C 8.414573669433594 66.34834289550781 11.44334411621094 70.84031677246094 15.301513671875 74.698486328125 C 19.15968322753906 78.55665588378906 23.65165710449219 81.58542633056641 28.65262985229492 83.70066070556641 C 33.82865524291992 85.88994598388672 39.32871246337891 87 45 87 C 50.67128753662109 87 56.17134475708008 85.88994598388672 61.34737396240234 83.70066070556641 C 66.34834289550781 81.58542633056641 70.84031677246094 78.55665588378906 74.698486328125 74.698486328125 C 78.55665588378906 70.84031677246094 81.58542633056641 66.34834289550781 83.70066070556641 61.34737396240234 C 85.88994598388672 56.17134475708008 87 50.67128753662109 87 45 C 87 39.32871246337891 85.88994598388672 33.82865524291992 83.70066070556641 28.65262985229492 C 81.58542633056641 23.65165710449219 78.55665588378906 19.15968322753906 74.698486328125 15.301513671875 C 70.84031677246094 11.44334411621094 66.34834289550781 8.414573669433594 61.34737396240234 6.299339294433594 C 56.17134475708008 4.110054016113281 50.67128753662109 3 45 3 M 45 0 C 69.85281372070312 0 90 20.14718627929688 90 45 C 90 69.85281372070312 69.85281372070312 90 45 90 C 20.14718627929688 90 0 69.85281372070312 0 45 C 0 20.14718627929688 20.14718627929688 0 45 0 Z" stroke="none" fill="#fd7940"/>
          </g>
        </g>
      </g>
    </g>
    <g id="Grupo_1151805" data-name="Grupo 1151805" transform="translate(1321.676 8265.676)">
      <rect id="Rectángulo_408308" data-name="Rectángulo 408308" width="16" height="28" transform="translate(20.324 24.324)" fill="#e6e7e8"/>
      <path id="Trazado_986568" data-name="Trazado 986568" d="M7.666,31H21v3.555H5V31Z" transform="translate(-0.556 -3.449)" fill="#00b39d"/>
      <path id="Trazado_986569" data-name="Trazado 986569" d="M21,39v3.555H5V39H21Z" transform="translate(-0.556 -4.339)" fill="#00b39d"/>
      <path id="Trazado_986570" data-name="Trazado 986570" d="M7.666,47H21v3.555H5V47Z" transform="translate(-0.556 -5.229)" fill="#00b39d"/>
      <path id="Trazado_986571" data-name="Trazado 986571" d="M57,47v3.555H41V47H57Z" transform="translate(-4.562 -5.229)" fill="#00b39d"/>
      <path id="Trazado_986572" data-name="Trazado 986572" d="M43.666,39H57v3.555H41V39Z" transform="translate(-4.562 -4.339)" fill="#00b39d"/>
      <path id="Trazado_986573" data-name="Trazado 986573" d="M57,31v3.555H41V31H57Z" transform="translate(-4.562 -3.449)" fill="#00b39d"/>
      <path id="Trazado_986574" data-name="Trazado 986574" d="M57,43v3.555H41V43Z" transform="translate(-4.562 -4.784)" fill="#00ccb3"/>
      <path id="Trazado_986575" data-name="Trazado 986575" d="M57,35v3.555H41V35Z" transform="translate(-4.562 -3.894)" fill="#00ccb3"/>
      <g id="Grupo_1151804" data-name="Grupo 1151804">
        <g id="Grupo_1151803" data-name="Grupo 1151803" clip-path="url(#clip-path)">
          <path id="Trazado_986576" data-name="Trazado 986576" d="M57,27.889v2.666H41V27H56.109a.891.891,0,0,1,.889.889" transform="translate(-4.562 -3.004)" fill="#00ccb3"/>
          <path id="Trazado_986577" data-name="Trazado 986577" d="M21,43v3.555H5V43Z" transform="translate(-0.556 -4.784)" fill="#00ccb3"/>
          <path id="Trazado_986578" data-name="Trazado 986578" d="M7.666,55H21v3.555H5.889A.891.891,0,0,1,5,57.666V55Z" transform="translate(-0.556 -6.119)" fill="#00b39d"/>
          <path id="Trazado_986579" data-name="Trazado 986579" d="M57,55v2.666a.891.891,0,0,1-.889.889H41V55H57Z" transform="translate(-4.562 -6.119)" fill="#00b39d"/>
          <path id="Trazado_986580" data-name="Trazado 986580" d="M57,51v3.555H41V51Z" transform="translate(-4.562 -5.674)" fill="#00ccb3"/>
          <path id="Trazado_986581" data-name="Trazado 986581" d="M21,51v3.555H5V51Z" transform="translate(-0.556 -5.674)" fill="#00ccb3"/>
          <path id="Trazado_986582" data-name="Trazado 986582" d="M21,35v3.555H5V35Z" transform="translate(-0.556 -3.894)" fill="#00ccb3"/>
          <path id="Trazado_986583" data-name="Trazado 986583" d="M21,27v3.555H5V27.889A.891.891,0,0,1,5.889,27H21Z" transform="translate(-0.556 -3.004)" fill="#00ccb3"/>
          <path id="Trazado_986584" data-name="Trazado 986584" d="M8.11,1A7.11,7.11,0,1,1,1,8.11,7.116,7.116,0,0,1,8.11,1" transform="translate(-0.111 -0.111)" fill="#ffd422"/>
          <path id="Trazado_986585" data-name="Trazado 986585" d="M15.442,23a1.783,1.783,0,0,1,1.777,1.777v1.777a1.783,1.783,0,0,1-1.777,1.777H4.777A1.783,1.783,0,0,1,3,26.555V24.777A1.783,1.783,0,0,1,4.777,23H15.442Z" transform="translate(-0.334 -2.559)" fill="#ffa733"/>
          <path id="Trazado_986586" data-name="Trazado 986586" d="M15.442,35a1.783,1.783,0,0,1,1.777,1.777v1.777a1.783,1.783,0,0,1-1.777,1.777H4.777A1.783,1.783,0,0,1,3,38.555V36.777A1.783,1.783,0,0,1,4.777,35H15.442Z" transform="translate(-0.334 -3.894)" fill="#ffa733"/>
          <path id="Trazado_986587" data-name="Trazado 986587" d="M13.442,47a1.783,1.783,0,0,1,1.777,1.777v1.777a1.783,1.783,0,0,1-1.777,1.777H2.777A1.783,1.783,0,0,1,1,50.555V48.777A1.783,1.783,0,0,1,2.777,47H13.442Z" transform="translate(-0.111 -5.229)" fill="#ffa733"/>
          <path id="Trazado_986588" data-name="Trazado 986588" d="M13.442,17a1.783,1.783,0,0,1,1.777,1.777v1.777a1.783,1.783,0,0,1-1.777,1.777H2.777A1.783,1.783,0,0,1,1,20.555V18.777A1.783,1.783,0,0,1,2.777,17H13.442Z" transform="translate(-0.111 -1.891)" fill="#ee8700"/>
          <path id="Trazado_986589" data-name="Trazado 986589" d="M13.442,29a1.783,1.783,0,0,1,1.777,1.777v1.777a1.783,1.783,0,0,1-1.777,1.777H2.777A1.783,1.783,0,0,1,1,32.555V30.777A1.783,1.783,0,0,1,2.777,29H13.442Z" transform="translate(-0.111 -3.227)" fill="#ee8700"/>
          <path id="Trazado_986590" data-name="Trazado 986590" d="M15.442,41a1.783,1.783,0,0,1,1.777,1.777v1.777a1.783,1.783,0,0,1-1.777,1.777H4.777A1.783,1.783,0,0,1,3,44.555V42.777A1.783,1.783,0,0,1,4.777,41H15.442Z" transform="translate(-0.334 -4.562)" fill="#ee8700"/>
          <path id="Trazado_986591" data-name="Trazado 986591" d="M13.442,53a1.783,1.783,0,0,1,1.777,1.777v1.777a1.783,1.783,0,0,1-1.777,1.777H2.777A1.783,1.783,0,0,1,1,56.555V54.777A1.783,1.783,0,0,1,2.777,53H13.442Z" transform="translate(-0.111 -5.897)" fill="#ee8700"/>
          <path id="Trazado_986592" data-name="Trazado 986592" d="M9,4V5.777a2.669,2.669,0,0,1,2.666,2.666h1.777A4.449,4.449,0,0,0,9,4" transform="translate(-1.001 -0.445)"/>
          <path id="Trazado_986593" data-name="Trazado 986593" d="M30.666,39.666h1.777a.889.889,0,0,1,.889.889H35.11a2.669,2.669,0,0,0-2.666-2.666V37H30.666v.889a2.666,2.666,0,0,0,0,5.332h1.777a.889.889,0,1,1,0,1.777H30.666a.889.889,0,0,1-.889-.889H28a2.669,2.669,0,0,0,2.666,2.666v.889h1.777v-.889a2.666,2.666,0,1,0,0-5.332H30.666a.889.889,0,0,1,0-1.777" transform="translate(-3.115 -4.117)"/>
          <path id="Trazado_986594" data-name="Trazado 986594" d="M51.547,23.107H17.775v-.889a2.661,2.661,0,0,0-1.973-2.56,2.684,2.684,0,0,0,.2-1V16.886a2.674,2.674,0,0,0-2.666-2.666h-.32a8,8,0,1,0-10.025,0h-.32A2.674,2.674,0,0,0,0,16.886v1.777a2.661,2.661,0,0,0,1.973,2.56,2.684,2.684,0,0,0-.2,1V24a2.684,2.684,0,0,0,.2,1A2.661,2.661,0,0,0,0,27.551v1.777a2.661,2.661,0,0,0,1.973,2.56,2.684,2.684,0,0,0-.2,1v1.777a2.643,2.643,0,0,0,.693,1.777,2.643,2.643,0,0,0-.693,1.777v1.777a2.684,2.684,0,0,0,.2,1A2.661,2.661,0,0,0,0,43.548v1.777A2.643,2.643,0,0,0,.693,47.1,2.643,2.643,0,0,0,0,48.881v1.777a2.674,2.674,0,0,0,2.666,2.666H51.547a1.783,1.783,0,0,0,1.777-1.777V24.885a1.783,1.783,0,0,0-1.777-1.777M16,22.218V24a.891.891,0,0,1-.889.889H4.444A.891.891,0,0,1,3.555,24V22.218a.891.891,0,0,1,.889-.889h.889v1.777H7.11V21.33H8.887v1.777h1.777V21.33h1.777v1.777H14.22V21.33h.889a.891.891,0,0,1,.889.889M7.11,33.772V31.995H8.887v1.777h1.777V31.995h1.777v1.777H14.22V31.995h.889a.891.891,0,0,1,.889.889v1.777a.891.891,0,0,1-.889.889H4.444a.891.891,0,0,1-.889-.889V32.883a.891.891,0,0,1,.889-.889h.889v1.777ZM1.777,8A6.221,6.221,0,1,1,8,14.22,6.228,6.228,0,0,1,1.777,8m0,10.665V16.886A.891.891,0,0,1,2.666,16h.889v1.777H5.332V16H7.11v1.777H8.887V16h1.777v1.777h1.777V16h.889a.891.891,0,0,1,.889.889v1.777a.891.891,0,0,1-.889.889H2.666a.891.891,0,0,1-.889-.889m0,10.665V27.551a.891.891,0,0,1,.889-.889h.889V28.44H5.332V26.662H7.11V28.44H8.887V26.662h1.777V28.44h1.777V26.662h.889a.891.891,0,0,1,.889.889v1.777a.891.891,0,0,1-.889.889H2.666a.891.891,0,0,1-.889-.889M14.22,50.658a.891.891,0,0,1-.889.889H2.666a.891.891,0,0,1-.889-.889V48.881a.891.891,0,0,1,.889-.889h.889v1.777H5.332V47.992H7.11v1.777H8.887V47.992h1.777v1.777h1.777V47.992h.889a.891.891,0,0,1,.889.889Zm0-5.332a.891.891,0,0,1-.889.889H2.666a.891.891,0,0,1-.889-.889V43.548a.891.891,0,0,1,.889-.889h.889v1.777H5.332V42.659H7.11v1.777H8.887V42.659h1.777v1.777h1.777V42.659h.889a.891.891,0,0,1,.889.889ZM4.444,40.882a.891.891,0,0,1-.889-.889V38.216a.891.891,0,0,1,.889-.889h.889V39.1H7.11V37.327H8.887V39.1h1.777V37.327h1.777V39.1H14.22V37.327h.889a.891.891,0,0,1,.889.889v1.777a.891.891,0,0,1-.889.889ZM19.552,51.547H15.837a2.67,2.67,0,0,0,.16-.889V48.881A2.643,2.643,0,0,0,15.3,47.1a2.821,2.821,0,0,0,.533-.889h3.715Zm0-7.11H16v-.889a2.684,2.684,0,0,0-.2-1,2.661,2.661,0,0,0,1.973-2.56V39.1h1.777Zm0-7.11H17.615a2.821,2.821,0,0,0-.533-.889,2.643,2.643,0,0,0,.693-1.777V32.883a2.67,2.67,0,0,0-.16-.889h1.937Zm0-7.11H15.837a2.67,2.67,0,0,0,.16-.889V27.551a2.684,2.684,0,0,0-.2-1,2.65,2.65,0,0,0,1.813-1.671h1.937Zm16,21.33H21.33V24.885h14.22Zm16,0H37.327V49.769h8.887V47.992H37.327V46.214h14.22Zm0-10.665H42.659v1.777h8.887v1.777H37.327V39.1h14.22Zm0-3.555H37.327V35.549h8.887V33.772H37.327V31.995h14.22Zm0-10.665H42.659V28.44h8.887v1.777H37.327V24.885h14.22Z"/>
          <rect id="Rectángulo_408309" data-name="Rectángulo 408309" width="1" height="2" transform="translate(48.324 33.324)"/>
          <rect id="Rectángulo_408310" data-name="Rectángulo 408310" width="1" height="1" transform="translate(48.324 48.324)"/>
          <rect id="Rectángulo_408311" data-name="Rectángulo 408311" width="2" height="1" transform="translate(39.324 41.324)"/>
          <rect id="Rectángulo_408312" data-name="Rectángulo 408312" width="2" height="2" transform="translate(39.324 26.324)"/>
          <path id="Trazado_986595" data-name="Trazado 986595" d="M28.666,14.11h1.777V11.444H33.11V9.666H30.444V7H28.666V9.666H26v1.777h2.666Z" transform="translate(-2.893 -0.779)"/>
          <path id="Trazado_986596" data-name="Trazado 986596" d="M48.666,18.11h1.777V15.444H53.11V13.666H50.444V11H48.666v2.666H46v1.777h2.666Z" transform="translate(-5.118 -1.224)"/>
        </g>
      </g>
    </g>
  </g>
</svg>
