<svg xmlns="http://www.w3.org/2000/svg" xmlns:xlink="http://www.w3.org/1999/xlink" width="108" height="108" viewBox="0 0 108 108">
  <defs>
    <filter id="Fondo" x="0" y="0" width="108" height="108" filterUnits="userSpaceOnUse">
      <feOffset dy="3" input="SourceAlpha"/>
      <feGaussianBlur stdDeviation="3" result="blur"/>
      <feFlood flood-opacity="0.161"/>
      <feComposite operator="in" in2="blur"/>
      <feComposite in="SourceGraphic"/>
    </filter>
    <clipPath id="clip-path">
      <rect id="Rect치ngulo_408279" data-name="Rect치ngulo 408279" width="60" height="60" fill="none"/>
    </clipPath>
  </defs>
  <g id="Grupo_1151821" data-name="Grupo 1151821" transform="translate(-326 -1373.707)">
    <g transform="matrix(1, 0, 0, 1, 326, 1373.71)" filter="url(#Fondo)">
      <g id="Fondo-2" data-name="Fondo" transform="translate(9 6)" fill="#e6d567">
        <path d="M 45 88.5 C 39.12687683105469 88.5 33.43022537231445 87.35007476806641 28.06830024719238 85.08217620849609 C 22.88852500915527 82.89131164550781 18.23629951477051 79.75458526611328 14.2408504486084 75.75914764404297 C 10.24541282653809 71.76370239257812 7.108687400817871 67.11147308349609 4.917825222015381 61.93170166015625 C 2.649924993515015 56.56977462768555 1.5 50.87312316894531 1.5 45 C 1.5 39.12687683105469 2.649924993515015 33.43022537231445 4.917825222015381 28.06830024719238 C 7.108687400817871 22.88852500915527 10.24541282653809 18.23629951477051 14.2408504486084 14.2408504486084 C 18.23629951477051 10.24541282653809 22.88852500915527 7.108687400817871 28.06830024719238 4.917825222015381 C 33.43022537231445 2.649924993515015 39.12687683105469 1.5 45 1.5 C 50.87312316894531 1.5 56.56977462768555 2.649924993515015 61.93170166015625 4.917825222015381 C 67.11147308349609 7.108687400817871 71.76370239257812 10.24541282653809 75.75914764404297 14.2408504486084 C 79.75458526611328 18.23629951477051 82.89131164550781 22.88852500915527 85.08217620849609 28.06830024719238 C 87.35007476806641 33.43022537231445 88.5 39.12687683105469 88.5 45 C 88.5 50.87312316894531 87.35007476806641 56.56977462768555 85.08217620849609 61.93170166015625 C 82.89131164550781 67.11147308349609 79.75458526611328 71.76370239257812 75.75914764404297 75.75914764404297 C 71.76370239257812 79.75458526611328 67.11147308349609 82.89131164550781 61.93170166015625 85.08217620849609 C 56.56977462768555 87.35007476806641 50.87312316894531 88.5 45 88.5 Z" stroke="none"/>
        <path d="M 45 3 C 39.32871246337891 3 33.82865524291992 4.110054016113281 28.65262985229492 6.299339294433594 C 23.65165710449219 8.414573669433594 19.15968322753906 11.44334411621094 15.301513671875 15.301513671875 C 11.44334411621094 19.15968322753906 8.414573669433594 23.65165710449219 6.299339294433594 28.65262985229492 C 4.110054016113281 33.82865524291992 3 39.32871246337891 3 45 C 3 50.67128753662109 4.110054016113281 56.17134475708008 6.299339294433594 61.34737396240234 C 8.414573669433594 66.34834289550781 11.44334411621094 70.84031677246094 15.301513671875 74.698486328125 C 19.15968322753906 78.55665588378906 23.65165710449219 81.58542633056641 28.65262985229492 83.70066070556641 C 33.82865524291992 85.88994598388672 39.32871246337891 87 45 87 C 50.67128753662109 87 56.17134475708008 85.88994598388672 61.34737396240234 83.70066070556641 C 66.34834289550781 81.58542633056641 70.84031677246094 78.55665588378906 74.698486328125 74.698486328125 C 78.55665588378906 70.84031677246094 81.58542633056641 66.34834289550781 83.70066070556641 61.34737396240234 C 85.88994598388672 56.17134475708008 87 50.67128753662109 87 45 C 87 39.32871246337891 85.88994598388672 33.82865524291992 83.70066070556641 28.65262985229492 C 81.58542633056641 23.65165710449219 78.55665588378906 19.15968322753906 74.698486328125 15.301513671875 C 70.84031677246094 11.44334411621094 66.34834289550781 8.414573669433594 61.34737396240234 6.299339294433594 C 56.17134475708008 4.110054016113281 50.67128753662109 3 45 3 M 45 0 C 69.85281372070312 0 90 20.14718627929688 90 45 C 90 69.85281372070312 69.85281372070312 90 45 90 C 20.14718627929688 90 0 69.85281372070312 0 45 C 0 20.14718627929688 20.14718627929688 0 45 0 Z" stroke="none" fill="#bca724"/>
      </g>
    </g>
    <g id="Grupo_1151789" data-name="Grupo 1151789" transform="translate(350 1395)" clip-path="url(#clip-path)">
      <path id="Trazado_986464" data-name="Trazado 986464" d="M50,27.36a19.932,19.932,0,0,1-9.9,16.9A6.138,6.138,0,0,0,37,49.52V51H23V49.51a5.944,5.944,0,0,0-2.95-5.16A19.934,19.934,0,0,1,10,27,20.009,20.009,0,0,1,31.11,7.03,20.154,20.154,0,0,1,50,27.36" fill="#ee9865"/>
      <path id="Trazado_986465" data-name="Trazado 986465" d="M31.11,7.03c-.672-.036-1.334-.028-1.991,0A19.991,19.991,0,0,1,38.1,44.26,6.138,6.138,0,0,0,35,49.52V51h2V49.52a6.138,6.138,0,0,1,3.1-5.26A20,20,0,0,0,31.11,7.03" fill="#83c651"/>
      <path id="Trazado_986466" data-name="Trazado 986466" d="M39.54,30a9.244,9.244,0,0,1-.68,1.62l3.16,3.16-4.24,4.24-3.16-3.16a9.244,9.244,0,0,1-1.62.68V41H27V36.54a9.244,9.244,0,0,1-1.62-.68l-3.16,3.16-4.24-4.24,3.16-3.16A9.244,9.244,0,0,1,20.46,30H16V24h4.46a9.244,9.244,0,0,1,.68-1.62l-3.16-3.16,4.24-4.24,3.16,3.16A9.244,9.244,0,0,1,27,17.46V13h6v4.46a9.244,9.244,0,0,1,1.62.68l3.16-3.16,4.24,4.24-3.16,3.16A9.244,9.244,0,0,1,39.54,24H44v6Z" fill="#a4f1d6"/>
      <path id="Trazado_986467" data-name="Trazado 986467" d="M30,32a5,5,0,1,0-5-5,5,5,0,0,0,5,5" fill="#f1f2f2"/>
      <path id="Trazado_986468" data-name="Trazado 986468" d="M23,57a2,2,0,0,0,2,2H35a2,2,0,0,0,2-2V55H23Z" fill="#cc7400"/>
      <rect id="Rect치ngulo_408278" data-name="Rect치ngulo 408278" width="14" height="4" transform="translate(23 51)" fill="#ff9811"/>
      <path id="Trazado_986469" data-name="Trazado 986469" d="M57,6H55a1,1,0,0,1,0-2h2a1,1,0,0,1,1,1,1,1,0,0,0,2,0,3,3,0,0,0-3-3V1a1,1,0,0,0-2,0V2a3,3,0,0,0,0,6h2a1,1,0,0,1,0,2H55a1,1,0,0,1-1-1,1,1,0,0,0-2,0,3,3,0,0,0,3,3v1a1,1,0,0,0,2,0V12a3,3,0,0,0,0-6" fill="#231f20"/>
      <path id="Trazado_986470" data-name="Trazado 986470" d="M55,44h2a1,1,0,0,1,1,1,1,1,0,0,0,2,0,3,3,0,0,0-3-3V41a1,1,0,0,0-2,0v1a3,3,0,0,0,0,6h2a1,1,0,0,1,0,2H55a1,1,0,0,1-1-1,1,1,0,0,0-2,0,3,3,0,0,0,3,3v1a1,1,0,0,0,2,0V52a3,3,0,0,0,0-6H55a1,1,0,0,1,0-2" fill="#231f20"/>
      <path id="Trazado_986471" data-name="Trazado 986471" d="M3,44H5a1,1,0,0,1,1,1,1,1,0,0,0,2,0,3,3,0,0,0-3-3V41a1,1,0,0,0-2,0v1a3,3,0,0,0,0,6H5a1,1,0,0,1,0,2H3a1,1,0,0,1-1-1,1,1,0,0,0-2,0,3,3,0,0,0,3,3v1a1,1,0,0,0,2,0V52a3,3,0,0,0,0-6H3a1,1,0,0,1,0-2" fill="#231f20"/>
      <path id="Trazado_986472" data-name="Trazado 986472" d="M5,10H3A1,1,0,0,1,2,9,1,1,0,0,0,0,9a3,3,0,0,0,3,3v1a1,1,0,0,0,2,0V12A3,3,0,0,0,5,6H3A1,1,0,0,1,3,4H5A1,1,0,0,1,6,5,1,1,0,0,0,8,5,3,3,0,0,0,5,2V1A1,1,0,0,0,3,1V2A3,3,0,0,0,3,8H5a1,1,0,0,1,0,2" fill="#231f20"/>
      <path id="Trazado_986473" data-name="Trazado 986473" d="M44,23H40.247c-.057-.144-.114-.283-.174-.418l2.655-2.655a1,1,0,0,0,0-1.414l-4.241-4.24a1,1,0,0,0-1.414,0l-2.654,2.654c-.136-.059-.275-.117-.419-.174V13a1,1,0,0,0-1-1H27a1,1,0,0,0-1,1v3.753c-.144.057-.283.115-.419.174l-2.654-2.654a1.029,1.029,0,0,0-1.414,0l-4.24,4.24a1,1,0,0,0,0,1.414l2.654,2.655c-.06.135-.117.274-.174.418H16a1,1,0,0,0-1,1v6a1,1,0,0,0,1,1h3.753c.057.144.114.283.174.418l-2.654,2.655a1,1,0,0,0,0,1.414l4.24,4.24a1,1,0,0,0,1.414,0l2.654-2.654c.136.059.275.117.419.174V41a1,1,0,0,0,1,1h6a1,1,0,0,0,1-1V37.247c.144-.057.283-.115.419-.174l2.654,2.654a1,1,0,0,0,1.414,0l4.241-4.24a1,1,0,0,0,0-1.414l-2.655-2.655c.06-.135.117-.274.174-.418H44a1,1,0,0,0,1-1V24a1,1,0,0,0-1-1m-1,6H39.54a1,1,0,0,0-.952.694,8.225,8.225,0,0,1-.6,1.446,1,1,0,0,0,.17,1.187l2.453,2.453L37.78,37.606l-2.453-2.453a1,1,0,0,0-1.188-.17,8.112,8.112,0,0,1-1.446.6A1,1,0,0,0,32,36.54V40H28V36.54a1,1,0,0,0-.693-.952,8.112,8.112,0,0,1-1.446-.6,1,1,0,0,0-1.188.17L22.22,37.606,19.4,34.78l2.452-2.453a1,1,0,0,0,.17-1.187,8.225,8.225,0,0,1-.6-1.446A1,1,0,0,0,20.46,29H17V25h3.46a1,1,0,0,0,.952-.694,8.225,8.225,0,0,1,.6-1.446,1,1,0,0,0-.17-1.187L19.4,19.22l2.825-2.826,2.453,2.453a1,1,0,0,0,1.188.17,8.112,8.112,0,0,1,1.446-.6A1,1,0,0,0,28,17.46V14h4v3.46a1,1,0,0,0,.693.952,8.112,8.112,0,0,1,1.446.6,1,1,0,0,0,1.188-.17l2.453-2.453,2.826,2.826-2.453,2.453a1,1,0,0,0-.17,1.187,8.225,8.225,0,0,1,.6,1.446A1,1,0,0,0,39.54,25H43Z" fill="#231f20"/>
      <path id="Trazado_986474" data-name="Trazado 986474" d="M30,21a6,6,0,1,0,6,6,6.006,6.006,0,0,0-6-6m0,10a4,4,0,1,1,4-4,4,4,0,0,1-4,4" fill="#231f20"/>
      <path id="Trazado_986475" data-name="Trazado 986475" d="M51.877,40.463l-3.419-3.42A20.96,20.96,0,0,0,51,27.376a20.692,20.692,0,0,0-2.6-10.358l3.481-3.481a1,1,0,1,0-1.414-1.414l-3.144,3.144a20.935,20.935,0,0,0-34.7-.059L9.537,12.123a1,1,0,0,0-1.414,1.414l3.423,3.423a20.957,20.957,0,0,0,.02,20.06L8.123,40.463a1,1,0,1,0,1.414,1.414l3.094-3.093a20.987,20.987,0,0,0,6.923,6.438A4.942,4.942,0,0,1,22,49.515V57a3,3,0,0,0,3,3H35a3,3,0,0,0,3-3V49.517a5.091,5.091,0,0,1,2.611-4.39,21.048,21.048,0,0,0,6.781-6.321l3.071,3.071a1,1,0,0,0,1.414-1.414M36,57a1,1,0,0,1-1,1H25a1,1,0,0,1-1-1V56H36Zm0-3H24V52H36Zm3.6-10.6A7.074,7.074,0,0,0,36,49.517V50H24v-.485a6.948,6.948,0,0,0-3.45-6.028A19.058,19.058,0,0,1,11,27,19,19,0,0,1,31.056,8.028,19.154,19.154,0,0,1,49,27.341,18.869,18.869,0,0,1,39.6,43.4" fill="#231f20"/>
    </g>
  </g>
</svg>
