<svg xmlns="http://www.w3.org/2000/svg" xmlns:xlink="http://www.w3.org/1999/xlink" width="108" height="108" viewBox="0 0 108 108">
  <defs>
    <filter id="Fondo" x="0" y="0" width="108" height="108" filterUnits="userSpaceOnUse">
      <feOffset dy="3" input="SourceAlpha"/>
      <feGaussianBlur stdDeviation="3" result="blur"/>
      <feFlood flood-opacity="0.161"/>
      <feComposite operator="in" in2="blur"/>
      <feComposite in="SourceGraphic"/>
    </filter>
    <clipPath id="clip-path">
      <rect id="Rectángulo_408329" data-name="Rectángulo 408329" width="60" height="60" fill="none"/>
    </clipPath>
  </defs>
  <g id="Icono" transform="translate(-325.719 -689)">
    <g transform="matrix(1, 0, 0, 1, 325.72, 689)" filter="url(#Fondo)">
      <g id="Fondo-2" data-name="Fondo" transform="translate(9 6)" fill="#e6d567">
        <path d="M 45 88.5 C 39.12687683105469 88.5 33.43022537231445 87.35007476806641 28.06830024719238 85.08217620849609 C 22.88852500915527 82.89131164550781 18.23629951477051 79.75458526611328 14.2408504486084 75.75914764404297 C 10.24541282653809 71.76370239257812 7.108687400817871 67.11147308349609 4.917825222015381 61.93170166015625 C 2.649924993515015 56.56977462768555 1.5 50.87312316894531 1.5 45 C 1.5 39.12687683105469 2.649924993515015 33.43022537231445 4.917825222015381 28.06830024719238 C 7.108687400817871 22.88852500915527 10.24541282653809 18.23629951477051 14.2408504486084 14.2408504486084 C 18.23629951477051 10.24541282653809 22.88852500915527 7.108687400817871 28.06830024719238 4.917825222015381 C 33.43022537231445 2.649924993515015 39.12687683105469 1.5 45 1.5 C 50.87312316894531 1.5 56.56977462768555 2.649924993515015 61.93170166015625 4.917825222015381 C 67.11147308349609 7.108687400817871 71.76370239257812 10.24541282653809 75.75914764404297 14.2408504486084 C 79.75458526611328 18.23629951477051 82.89131164550781 22.88852500915527 85.08217620849609 28.06830024719238 C 87.35007476806641 33.43022537231445 88.5 39.12687683105469 88.5 45 C 88.5 50.87312316894531 87.35007476806641 56.56977462768555 85.08217620849609 61.93170166015625 C 82.89131164550781 67.11147308349609 79.75458526611328 71.76370239257812 75.75914764404297 75.75914764404297 C 71.76370239257812 79.75458526611328 67.11147308349609 82.89131164550781 61.93170166015625 85.08217620849609 C 56.56977462768555 87.35007476806641 50.87312316894531 88.5 45 88.5 Z" stroke="none"/>
        <path d="M 45 3 C 39.32871246337891 3 33.82865524291992 4.110054016113281 28.65262985229492 6.299339294433594 C 23.65165710449219 8.414573669433594 19.15968322753906 11.44334411621094 15.301513671875 15.301513671875 C 11.44334411621094 19.15968322753906 8.414573669433594 23.65165710449219 6.299339294433594 28.65262985229492 C 4.110054016113281 33.82865524291992 3 39.32871246337891 3 45 C 3 50.67128753662109 4.110054016113281 56.17134475708008 6.299339294433594 61.34737396240234 C 8.414573669433594 66.34834289550781 11.44334411621094 70.84031677246094 15.301513671875 74.698486328125 C 19.15968322753906 78.55665588378906 23.65165710449219 81.58542633056641 28.65262985229492 83.70066070556641 C 33.82865524291992 85.88994598388672 39.32871246337891 87 45 87 C 50.67128753662109 87 56.17134475708008 85.88994598388672 61.34737396240234 83.70066070556641 C 66.34834289550781 81.58542633056641 70.84031677246094 78.55665588378906 74.698486328125 74.698486328125 C 78.55665588378906 70.84031677246094 81.58542633056641 66.34834289550781 83.70066070556641 61.34737396240234 C 85.88994598388672 56.17134475708008 87 50.67128753662109 87 45 C 87 39.32871246337891 85.88994598388672 33.82865524291992 83.70066070556641 28.65262985229492 C 81.58542633056641 23.65165710449219 78.55665588378906 19.15968322753906 74.698486328125 15.301513671875 C 70.84031677246094 11.44334411621094 66.34834289550781 8.414573669433594 61.34737396240234 6.299339294433594 C 56.17134475708008 4.110054016113281 50.67128753662109 3 45 3 M 45 0 C 69.85281372070312 0 90 20.14718627929688 90 45 C 90 69.85281372070312 69.85281372070312 90 45 90 C 20.14718627929688 90 0 69.85281372070312 0 45 C 0 20.14718627929688 20.14718627929688 0 45 0 Z" stroke="none" fill="#bca724"/>
      </g>
    </g>
    <g id="Grupo_1151811" data-name="Grupo 1151811" transform="translate(348.72 707.848)">
      <g id="Grupo_1151810" data-name="Grupo 1151810" clip-path="url(#clip-path)">
        <path id="Trazado_986598" data-name="Trazado 986598" d="M54,44H40a3,3,0,0,0,0,6H54a3,3,0,0,0,0-6" fill="#cc7400"/>
        <path id="Trazado_986599" data-name="Trazado 986599" d="M54,38H40a3,3,0,0,0,0,6H54a3,3,0,0,0,0-6" fill="#ee8700"/>
        <path id="Trazado_986600" data-name="Trazado 986600" d="M47,20a9,9,0,1,0,9,9,9.01,9.01,0,0,0-9-9" fill="#ff9811"/>
        <path id="Trazado_986601" data-name="Trazado 986601" d="M47,20a8.935,8.935,0,0,0-1,.059,9,9,0,0,1,0,17.882A9,9,0,1,0,47,20" fill="#e5890f"/>
        <rect id="Rectángulo_408326" data-name="Rectángulo 408326" width="58" height="4" transform="translate(1 50)" fill="#8b5e3c"/>
        <path id="Trazado_986602" data-name="Trazado 986602" d="M23,1V13h5v6l8-6H55V1Z" fill="#ffcd00"/>
        <rect id="Rectángulo_408327" data-name="Rectángulo 408327" width="2" height="12" transform="translate(53 1)" fill="#e5b800"/>
        <rect id="Rectángulo_408328" data-name="Rectángulo 408328" width="54" height="5" transform="translate(3 54)" fill="#c49a6c"/>
        <path id="Trazado_986603" data-name="Trazado 986603" d="M15.56,45.21l0,0-4.47-14.893L11,30.349h0A6,6,0,0,0,7,36V50H17l-1.438-4.792Z" fill="#006df0"/>
        <path id="Trazado_986604" data-name="Trazado 986604" d="M24.908,30.316,19,50H29V36a6.005,6.005,0,0,0-4.092-5.684" fill="#005ece"/>
        <path id="Trazado_986605" data-name="Trazado 986605" d="M13,23a5,5,0,1,0,5-5,5,5,0,0,0-5,5" fill="#ff9811"/>
        <path id="Trazado_986606" data-name="Trazado 986606" d="M23,30H13a5.991,5.991,0,0,0-1.908.315l4.062,13.533L17,50h2l1.712-5.7,4.2-13.982A5.991,5.991,0,0,0,23,30" fill="#9bc9ff"/>
        <path id="Trazado_986607" data-name="Trazado 986607" d="M19,34H17l-1.846,9.848L17,50h2l1.712-5.7,0-.007Z" fill="#d80027"/>
        <path id="Trazado_986608" data-name="Trazado 986608" d="M19,34l2-4H15l2,4Z" fill="#c20023"/>
        <path id="Trazado_986609" data-name="Trazado 986609" d="M19,34H18V50h1l1.712-5.7,0-.007Z" fill="#c20023"/>
        <path id="Trazado_986610" data-name="Trazado 986610" d="M19,34l2-4H18v4Z" fill="#ad001f"/>
        <path id="Trazado_986611" data-name="Trazado 986611" d="M46,26h2a1,1,0,0,1,1,1,1,1,0,0,0,2,0,3,3,0,0,0-3-3V23a1,1,0,0,0-2,0v1a3,3,0,0,0,0,6h2a1,1,0,0,1,0,2H46a1,1,0,0,1-1-1,1,1,0,0,0-2,0,3,3,0,0,0,3,3v1a1,1,0,0,0,2,0V34a3,3,0,0,0,0-6H46a1,1,0,0,1,0-2" fill="#231f20"/>
        <path id="Trazado_986612" data-name="Trazado 986612" d="M24,23a6,6,0,1,0-6,6,6.006,6.006,0,0,0,6-6m-6,4a4,4,0,1,1,4-4,4,4,0,0,1-4,4" fill="#231f20"/>
        <path id="Trazado_986613" data-name="Trazado 986613" d="M59,49H57.44A3.906,3.906,0,0,0,58,47a3.967,3.967,0,0,0-1.38-3A3.985,3.985,0,0,0,54,37H52.97a10,10,0,1,0-11.94,0H40a3.985,3.985,0,0,0-2.62,7A3.967,3.967,0,0,0,36,47a3.906,3.906,0,0,0,.56,2H30V36a7.008,7.008,0,0,0-7-7H13a7.008,7.008,0,0,0-7,7V49H1a1,1,0,0,0-1,1v4a1,1,0,0,0,1,1H2v4a1,1,0,0,0,2,0V55H56v4a1,1,0,0,0,2,0V55h1a1,1,0,0,0,1-1V50a1,1,0,0,0-1-1M39,29a8,8,0,1,1,8,8,8.011,8.011,0,0,1-8-8m1,10H54a2,2,0,0,1,0,4V41H52v2H50V41H48v2H46V41H44v2H42V41H40v2a2,2,0,0,1,0-4m0,6H54a2,2,0,0,1,0,4V47H52v2H50V47H48v2H46V47H44v2H42V47H40v2a2,2,0,0,1,0-4M28,36V49H20.34l5.19-17.29A5,5,0,0,1,28,36m-6.38-5H23c.22,0,.43.04.64.06l-2.65,8.83-.95-5.73Zm-2.24,0-1,2h-.76l-1-2Zm-1.53,4h.3l1.54,9.23L18.26,49h-.52l-1.43-4.77ZM13,31h1.38l1.58,3.16-.95,5.73-2.65-8.83c.21-.02.42-.06.64-.06M8,36a5,5,0,0,1,2.47-4.29L15.66,49H8ZM58,53H2V51H58Z" fill="#231f20"/>
        <path id="Trazado_986614" data-name="Trazado 986614" d="M23,14h4v5a1,1,0,0,0,1.6.8L36.333,14H55a1,1,0,0,0,1-1V1a1,1,0,0,0-1-1H23a1,1,0,0,0-1,1V13a1,1,0,0,0,1,1M24,2H54V12H36a1,1,0,0,0-.6.2L29,17V13a1,1,0,0,0-1-1H24Z" fill="#231f20"/>
        <path id="Trazado_986615" data-name="Trazado 986615" d="M27,6h2a1,1,0,0,0,0-2H27a1,1,0,0,0,0,2" fill="#231f20"/>
        <path id="Trazado_986616" data-name="Trazado 986616" d="M30,9a1,1,0,0,0-1-1H27a1,1,0,0,0,0,2h2a1,1,0,0,0,1-1" fill="#231f20"/>
        <path id="Trazado_986617" data-name="Trazado 986617" d="M33,6H51a1,1,0,0,0,0-2H33a1,1,0,0,0,0,2" fill="#231f20"/>
        <path id="Trazado_986618" data-name="Trazado 986618" d="M33,10H51a1,1,0,0,0,0-2H33a1,1,0,0,0,0,2" fill="#231f20"/>
      </g>
    </g>
  </g>
</svg>
