<svg xmlns="http://www.w3.org/2000/svg" xmlns:xlink="http://www.w3.org/1999/xlink" width="108" height="108" viewBox="0 0 108 108">
  <defs>
    <filter id="Fondo" x="0" y="0" width="108" height="108" filterUnits="userSpaceOnUse">
      <feOffset dy="3" input="SourceAlpha"/>
      <feGaussianBlur stdDeviation="3" result="blur"/>
      <feFlood flood-opacity="0.161"/>
      <feComposite operator="in" in2="blur"/>
      <feComposite in="SourceGraphic"/>
    </filter>
    <clipPath id="clip-path">
      <rect id="Rectángulo_408333" data-name="Rectángulo 408333" width="59" height="60" fill="none"/>
    </clipPath>
  </defs>
  <g id="Icono" transform="translate(-325.719 -689)">
    <g transform="matrix(1, 0, 0, 1, 325.72, 689)" filter="url(#Fondo)">
      <g id="Fondo-2" data-name="Fondo" transform="translate(9 6)" fill="#e6d567">
        <path d="M 45 88.5 C 39.12687683105469 88.5 33.43022537231445 87.35007476806641 28.06830024719238 85.08217620849609 C 22.88852500915527 82.89131164550781 18.23629951477051 79.75458526611328 14.2408504486084 75.75914764404297 C 10.24541282653809 71.76370239257812 7.108687400817871 67.11147308349609 4.917825222015381 61.93170166015625 C 2.649924993515015 56.56977462768555 1.5 50.87312316894531 1.5 45 C 1.5 39.12687683105469 2.649924993515015 33.43022537231445 4.917825222015381 28.06830024719238 C 7.108687400817871 22.88852500915527 10.24541282653809 18.23629951477051 14.2408504486084 14.2408504486084 C 18.23629951477051 10.24541282653809 22.88852500915527 7.108687400817871 28.06830024719238 4.917825222015381 C 33.43022537231445 2.649924993515015 39.12687683105469 1.5 45 1.5 C 50.87312316894531 1.5 56.56977462768555 2.649924993515015 61.93170166015625 4.917825222015381 C 67.11147308349609 7.108687400817871 71.76370239257812 10.24541282653809 75.75914764404297 14.2408504486084 C 79.75458526611328 18.23629951477051 82.89131164550781 22.88852500915527 85.08217620849609 28.06830024719238 C 87.35007476806641 33.43022537231445 88.5 39.12687683105469 88.5 45 C 88.5 50.87312316894531 87.35007476806641 56.56977462768555 85.08217620849609 61.93170166015625 C 82.89131164550781 67.11147308349609 79.75458526611328 71.76370239257812 75.75914764404297 75.75914764404297 C 71.76370239257812 79.75458526611328 67.11147308349609 82.89131164550781 61.93170166015625 85.08217620849609 C 56.56977462768555 87.35007476806641 50.87312316894531 88.5 45 88.5 Z" stroke="none"/>
        <path d="M 45 3 C 39.32871246337891 3 33.82865524291992 4.110054016113281 28.65262985229492 6.299339294433594 C 23.65165710449219 8.414573669433594 19.15968322753906 11.44334411621094 15.301513671875 15.301513671875 C 11.44334411621094 19.15968322753906 8.414573669433594 23.65165710449219 6.299339294433594 28.65262985229492 C 4.110054016113281 33.82865524291992 3 39.32871246337891 3 45 C 3 50.67128753662109 4.110054016113281 56.17134475708008 6.299339294433594 61.34737396240234 C 8.414573669433594 66.34834289550781 11.44334411621094 70.84031677246094 15.301513671875 74.698486328125 C 19.15968322753906 78.55665588378906 23.65165710449219 81.58542633056641 28.65262985229492 83.70066070556641 C 33.82865524291992 85.88994598388672 39.32871246337891 87 45 87 C 50.67128753662109 87 56.17134475708008 85.88994598388672 61.34737396240234 83.70066070556641 C 66.34834289550781 81.58542633056641 70.84031677246094 78.55665588378906 74.698486328125 74.698486328125 C 78.55665588378906 70.84031677246094 81.58542633056641 66.34834289550781 83.70066070556641 61.34737396240234 C 85.88994598388672 56.17134475708008 87 50.67128753662109 87 45 C 87 39.32871246337891 85.88994598388672 33.82865524291992 83.70066070556641 28.65262985229492 C 81.58542633056641 23.65165710449219 78.55665588378906 19.15968322753906 74.698486328125 15.301513671875 C 70.84031677246094 11.44334411621094 66.34834289550781 8.414573669433594 61.34737396240234 6.299339294433594 C 56.17134475708008 4.110054016113281 50.67128753662109 3 45 3 M 45 0 C 69.85281372070312 0 90 20.14718627929688 90 45 C 90 69.85281372070312 69.85281372070312 90 45 90 C 20.14718627929688 90 0 69.85281372070312 0 45 C 0 20.14718627929688 20.14718627929688 0 45 0 Z" stroke="none" fill="#bca724"/>
      </g>
    </g>
    <g id="Grupo_1151813" data-name="Grupo 1151813" transform="translate(355.72 709.848)">
      <g id="Grupo_1151812" data-name="Grupo 1151812" clip-path="url(#clip-path)">
        <path id="Trazado_986619" data-name="Trazado 986619" d="M37,11h8L35,1V9a2,2,0,0,0,2,2" fill="#ff6243"/>
        <path id="Trazado_986620" data-name="Trazado 986620" d="M46,59H1V1H35V9a2.006,2.006,0,0,0,2,2h8Z" fill="#ffde55"/>
        <path id="Trazado_986621" data-name="Trazado 986621" d="M45,11H43.042L43.4,28.417A28,28,0,0,1,15.411,57H1v2H46Z" fill="#e5c84d"/>
        <path id="Trazado_986622" data-name="Trazado 986622" d="M48.95,32H41.06C35.81,34.66,32,42.19,32,48c0,7.18,5.82,11,13,11s13-3.82,13-11c0-5.8-3.8-13.33-9.05-16" fill="#a97c50"/>
        <path id="Trazado_986623" data-name="Trazado 986623" d="M41,32h8V29H41Z" fill="#c49a6c"/>
        <path id="Trazado_986624" data-name="Trazado 986624" d="M41,29h8l3-6H38Z" fill="#8b5e3c"/>
        <path id="Trazado_986625" data-name="Trazado 986625" d="M48.95,32h-2C52.2,34.67,56,42.2,56,48c0,6.842-5.289,10.625-12,10.966.331.017.662.034,1,.034,7.18,0,13-3.82,13-11,0-5.8-3.8-13.33-9.05-16" fill="#8b5e3c"/>
        <path id="Trazado_986626" data-name="Trazado 986626" d="M50,23l-3,6h2l3-6Z" fill="#754c29"/>
        <rect id="Rectángulo_408330" data-name="Rectángulo 408330" width="4" height="8" transform="translate(7 43)" fill="#d80027"/>
        <rect id="Rectángulo_408331" data-name="Rectángulo 408331" width="4" height="12" transform="translate(15 39)" fill="#5eac24"/>
        <rect id="Rectángulo_408332" data-name="Rectángulo 408332" width="4" height="18" transform="translate(23 33)" fill="#006df0"/>
        <path id="Trazado_986627" data-name="Trazado 986627" d="M44,43h2a1,1,0,0,1,1,1,1,1,0,0,0,2,0,3,3,0,0,0-3-3V40a1,1,0,0,0-2,0v1a3,3,0,0,0,0,6h2a1,1,0,0,1,0,2H44a1,1,0,0,1-1-1,1,1,0,0,0-2,0,3,3,0,0,0,3,3v1a1,1,0,0,0,2,0V51a3,3,0,0,0,0-6H44a1,1,0,0,1,0-2" fill="#231f20"/>
        <path id="Trazado_986628" data-name="Trazado 986628" d="M9,14H7a1,1,0,0,1-1-1,1,1,0,0,0-2,0,3,3,0,0,0,3,3v1a1,1,0,0,0,2,0V16a3,3,0,0,0,0-6H7A1,1,0,0,1,7,8H9a1,1,0,0,1,1,1,1,1,0,0,0,2,0A3,3,0,0,0,9,6V5A1,1,0,0,0,7,5V6a3,3,0,0,0,0,6H9a1,1,0,0,1,0,2" fill="#231f20"/>
        <path id="Trazado_986629" data-name="Trazado 986629" d="M50,31.45V29.24l2.89-5.79A1,1,0,0,0,52,22H46V11a1.033,1.033,0,0,0-.29-.71l-10-10A1.033,1.033,0,0,0,35,0H1A1,1,0,0,0,0,1V59a1,1,0,0,0,1,1H45c8.37,0,14-4.82,14-12,0-5.58-3.43-13.31-9-16.55M50.38,24l-2,4H41.62l-2-4ZM48,31H42V30h6ZM36,3.41,42.59,10H37a1,1,0,0,1-1-1ZM2,58V2H34V9a3.009,3.009,0,0,0,3,3h7V22H38a1,1,0,0,0-.89,1.45L40,29.24v2.22C34.43,34.69,31,42.42,31,48a11.116,11.116,0,0,0,5.74,10Zm43,0c-5.54,0-12-2.62-12-10,0-5.15,3.34-12.34,8.32-15h7.36C53.67,35.67,57,42.86,57,48c0,7.38-6.46,10-12,10" fill="#231f20"/>
        <path id="Trazado_986630" data-name="Trazado 986630" d="M29,6H15a1,1,0,0,0,0,2H29a1,1,0,0,0,0-2" fill="#231f20"/>
        <path id="Trazado_986631" data-name="Trazado 986631" d="M29,10H15a1,1,0,0,0,0,2H29a1,1,0,0,0,0-2" fill="#231f20"/>
        <path id="Trazado_986632" data-name="Trazado 986632" d="M29,14H15a1,1,0,0,0,0,2H29a1,1,0,0,0,0-2" fill="#231f20"/>
        <path id="Trazado_986633" data-name="Trazado 986633" d="M29,50H28V33a1,1,0,0,0-1-1H23a1,1,0,0,0-1,1V50H20V39a1,1,0,0,0-1-1H15a1,1,0,0,0-1,1V50H12V43a1,1,0,0,0-1-1H7a1,1,0,0,0-1,1v7H5a1,1,0,0,0,0,2H29a1,1,0,0,0,0-2M8,44h2v6H8Zm8-4h2V50H16Zm8-6h2V50H24Z" fill="#231f20"/>
        <path id="Trazado_986634" data-name="Trazado 986634" d="M8.219,36.625a1,1,0,0,0,1.4.156L24,25.281V27a1,1,0,0,0,2,0V23a1,1,0,0,0-1-1H21a1,1,0,0,0,0,2h1.4L8.375,35.219a1,1,0,0,0-.156,1.406" fill="#231f20"/>
      </g>
    </g>
  </g>
</svg>
