<svg xmlns="http://www.w3.org/2000/svg" xmlns:xlink="http://www.w3.org/1999/xlink" width="108" height="108" viewBox="0 0 108 108">
  <defs>
    <filter id="Fondo" x="0" y="0" width="108" height="108" filterUnits="userSpaceOnUse">
      <feOffset dy="3" input="SourceAlpha"/>
      <feGaussianBlur stdDeviation="3" result="blur"/>
      <feFlood flood-opacity="0.161"/>
      <feComposite operator="in" in2="blur"/>
      <feComposite in="SourceGraphic"/>
    </filter>
    <clipPath id="clip-path">
      <rect id="Rect치ngulo_408335" data-name="Rect치ngulo 408335" width="50" height="60.06" transform="translate(0 0)" fill="none"/>
    </clipPath>
  </defs>
  <g id="Icono" transform="translate(-325.719 -689)">
    <g transform="matrix(1, 0, 0, 1, 325.72, 689)" filter="url(#Fondo)">
      <g id="Fondo-2" data-name="Fondo" transform="translate(9 6)" fill="#e6d567">
        <path d="M 45 88.5 C 39.12687683105469 88.5 33.43022537231445 87.35007476806641 28.06830024719238 85.08217620849609 C 22.88852500915527 82.89131164550781 18.23629951477051 79.75458526611328 14.2408504486084 75.75914764404297 C 10.24541282653809 71.76370239257812 7.108687400817871 67.11147308349609 4.917825222015381 61.93170166015625 C 2.649924993515015 56.56977462768555 1.5 50.87312316894531 1.5 45 C 1.5 39.12687683105469 2.649924993515015 33.43022537231445 4.917825222015381 28.06830024719238 C 7.108687400817871 22.88852500915527 10.24541282653809 18.23629951477051 14.2408504486084 14.2408504486084 C 18.23629951477051 10.24541282653809 22.88852500915527 7.108687400817871 28.06830024719238 4.917825222015381 C 33.43022537231445 2.649924993515015 39.12687683105469 1.5 45 1.5 C 50.87312316894531 1.5 56.56977462768555 2.649924993515015 61.93170166015625 4.917825222015381 C 67.11147308349609 7.108687400817871 71.76370239257812 10.24541282653809 75.75914764404297 14.2408504486084 C 79.75458526611328 18.23629951477051 82.89131164550781 22.88852500915527 85.08217620849609 28.06830024719238 C 87.35007476806641 33.43022537231445 88.5 39.12687683105469 88.5 45 C 88.5 50.87312316894531 87.35007476806641 56.56977462768555 85.08217620849609 61.93170166015625 C 82.89131164550781 67.11147308349609 79.75458526611328 71.76370239257812 75.75914764404297 75.75914764404297 C 71.76370239257812 79.75458526611328 67.11147308349609 82.89131164550781 61.93170166015625 85.08217620849609 C 56.56977462768555 87.35007476806641 50.87312316894531 88.5 45 88.5 Z" stroke="none"/>
        <path d="M 45 3 C 39.32871246337891 3 33.82865524291992 4.110054016113281 28.65262985229492 6.299339294433594 C 23.65165710449219 8.414573669433594 19.15968322753906 11.44334411621094 15.301513671875 15.301513671875 C 11.44334411621094 19.15968322753906 8.414573669433594 23.65165710449219 6.299339294433594 28.65262985229492 C 4.110054016113281 33.82865524291992 3 39.32871246337891 3 45 C 3 50.67128753662109 4.110054016113281 56.17134475708008 6.299339294433594 61.34737396240234 C 8.414573669433594 66.34834289550781 11.44334411621094 70.84031677246094 15.301513671875 74.698486328125 C 19.15968322753906 78.55665588378906 23.65165710449219 81.58542633056641 28.65262985229492 83.70066070556641 C 33.82865524291992 85.88994598388672 39.32871246337891 87 45 87 C 50.67128753662109 87 56.17134475708008 85.88994598388672 61.34737396240234 83.70066070556641 C 66.34834289550781 81.58542633056641 70.84031677246094 78.55665588378906 74.698486328125 74.698486328125 C 78.55665588378906 70.84031677246094 81.58542633056641 66.34834289550781 83.70066070556641 61.34737396240234 C 85.88994598388672 56.17134475708008 87 50.67128753662109 87 45 C 87 39.32871246337891 85.88994598388672 33.82865524291992 83.70066070556641 28.65262985229492 C 81.58542633056641 23.65165710449219 78.55665588378906 19.15968322753906 74.698486328125 15.301513671875 C 70.84031677246094 11.44334411621094 66.34834289550781 8.414573669433594 61.34737396240234 6.299339294433594 C 56.17134475708008 4.110054016113281 50.67128753662109 3 45 3 M 45 0 C 69.85281372070312 0 90 20.14718627929688 90 45 C 90 69.85281372070312 69.85281372070312 90 45 90 C 20.14718627929688 90 0 69.85281372070312 0 45 C 0 20.14718627929688 20.14718627929688 0 45 0 Z" stroke="none" fill="#bca724"/>
      </g>
    </g>
    <g id="Grupo_1151816" data-name="Grupo 1151816" transform="translate(355.719 709.97)">
      <rect id="Rect치ngulo_408334" data-name="Rect치ngulo 408334" width="44" height="58" transform="translate(3 1)" fill="#ffde55"/>
      <g id="Grupo_1151815" data-name="Grupo 1151815">
        <g id="Grupo_1151814" data-name="Grupo 1151814" clip-path="url(#clip-path)">
          <path id="Trazado_986635" data-name="Trazado 986635" d="M45,1V41A16,16,0,0,1,29,57H3v2H47V1Z" fill="#e5c84d"/>
          <path id="Trazado_986636" data-name="Trazado 986636" d="M39.364,47.163l-2.121-2.121-9.9-9.9a2,2,0,0,0-2.828,0l-2.243,2.243a2,2,0,0,1-2.828-2.829l4.364-4.364-2.319-2.319L8.818,39.244l5.8,5.8L25.929,56.355l2.121,2.122a2.017,2.017,0,0,0,2.829,0,2.006,2.006,0,0,0,0-2.829l-.707-.707.707.707a2.014,2.014,0,0,0,2.828,0,2.005,2.005,0,0,0,0-2.828L33,52.113l.707.707a2.015,2.015,0,0,0,2.829,0,2.008,2.008,0,0,0,0-2.829l-.708-.707.708.707a2.014,2.014,0,0,0,2.828,0,2.005,2.005,0,0,0,0-2.828" fill="#ffbcab"/>
          <path id="Trazado_986637" data-name="Trazado 986637" d="M23.808,30.192l-4.364,4.364a2,2,0,0,0,2.828,2.828l2.243-2.242a2,2,0,0,1,2.829,0l9.9,9.9L41.486,40.8,29.465,28.778Z" fill="#ff9478"/>
          <path id="Trazado_986638" data-name="Trazado 986638" d="M49,23H31l-3.657,3.657,2.121,2.121L41.485,40.8,42.9,42.213,49,37Z" fill="#006df0"/>
          <path id="Trazado_986639" data-name="Trazado 986639" d="M18.151,44.334a2,2,0,0,0-2.828,0l-.708.707-2.121,2.121a2,2,0,0,0,2.829,2.829l2.828-2.829a2,2,0,0,0,0-2.828" fill="#ff9478"/>
          <path id="Trazado_986640" data-name="Trazado 986640" d="M15.322,52.82a2,2,0,0,0,2.828,0l2.829-2.828a2,2,0,0,0-2.829-2.829l-2.828,2.829a2,2,0,0,0,0,2.828" fill="#ff9478"/>
          <path id="Trazado_986641" data-name="Trazado 986641" d="M18.151,55.648a2,2,0,0,0,2.828,0l2.829-2.828a2,2,0,1,0-2.829-2.829L18.151,52.82a2,2,0,0,0,0,2.828" fill="#ff9478"/>
          <path id="Trazado_986642" data-name="Trazado 986642" d="M20.979,58.477a2,2,0,0,0,2.828,0l2.829-2.828a2,2,0,0,0-2.829-2.829l-2.828,2.829a2,2,0,0,0,0,2.828" fill="#ff9478"/>
          <path id="Trazado_986643" data-name="Trazado 986643" d="M22.979,26.535,19,23H1V34l6.672,6.272Z" fill="#006df0"/>
          <path id="Trazado_986644" data-name="Trazado 986644" d="M49,22H31a1.033,1.033,0,0,0-.71.29l-3.65,3.66a1,1,0,0,0,0,1.41l.87.88-3.4.84-1.17-1.17.71-.63a1.006,1.006,0,0,0,.33-.75.975.975,0,0,0-.34-.74l-3.98-3.54A1,1,0,0,0,19,22H1a1,1,0,0,0-1,1V34a1,1,0,0,0,.31.73L6.99,41a1.007,1.007,0,0,0,1.35.02l.45-.41c.02.02.03.05.05.07l4.36,4.36-1.41,1.42a2.983,2.983,0,0,0,1.96,5.1,2.963,2.963,0,0,0,2.83,2.83,2.943,2.943,0,0,0,2.83,2.83,2.987,2.987,0,0,0,5.1,1.96l1.42-1.41,1.41,1.41a2.928,2.928,0,0,0,2.07.88h.08a2.944,2.944,0,0,0,2.1-.88,3,3,0,0,0,.86-1.96,2.965,2.965,0,0,0,1.96-.86,3.012,3.012,0,0,0,.87-1.98,2.947,2.947,0,0,0,1.96-.85,3.009,3.009,0,0,0,.87-1.97,2.918,2.918,0,0,0,1.96-.86,3,3,0,0,0,0-4.24l-1.41-1.42,2.83-2.83.7.71a1.024,1.024,0,0,0,.71.29,1.006,1.006,0,0,0,.65-.24l6.1-5.21A1.011,1.011,0,0,0,50,37V23a1,1,0,0,0-1-1M7.69,38.91,2,33.57V24H18.62l2.86,2.54Zm6.92,10.37a1.014,1.014,0,0,1-1.41,0,.967.967,0,0,1-.29-.7.99.99,0,0,1,.29-.71l2.83-2.83a1,1,0,0,1,1.41,1.42Zm1.42,2.83a1,1,0,0,1,0-1.41l2.83-2.83a1,1,0,0,1,1.7.71.967.967,0,0,1-.29.7l-2.83,2.83a1,1,0,0,1-1.41,0m2.83,2.83a1,1,0,0,1,0-1.41l2.83-2.83a1,1,0,0,1,1.41,0,1,1,0,0,1,0,1.41l-2.83,2.83a1,1,0,0,1-1.41,0m7.07,0L23.1,57.77a1.005,1.005,0,0,1-1.71-.71.976.976,0,0,1,.3-.7l2.82-2.83a1.01,1.01,0,0,1,.71-.3,1.005,1.005,0,0,1,.71,1.71m12.73-5.66a1.03,1.03,0,0,1-.72.29.929.929,0,0,1-.7-.29l-.7-.7a1.008,1.008,0,0,0-1.42,0,1,1,0,0,0,0,1.41l.71.71a1.019,1.019,0,0,1,.29.7,1.007,1.007,0,0,1-.29.71,1.021,1.021,0,0,1-.72.29,1.01,1.01,0,0,1-.7-.29l-.7-.7a1.008,1.008,0,0,0-1.42,0,1,1,0,0,0,0,1.41l.71.71a1,1,0,0,1,0,1.41,1.057,1.057,0,0,1-.72.29.946.946,0,0,1-.69-.29l-.71-.71a1,1,0,1,0-1.42,1.42l.71.71a1,1,0,0,1,0,1.41,1.183,1.183,0,0,1-.72.29.961.961,0,0,1-.69-.29l-1.42-1.41a2.988,2.988,0,0,0-1.96-5.11,2.963,2.963,0,0,0-2.83-2.83,2.907,2.907,0,0,0-2.83-2.8,2.982,2.982,0,0,0-5.1-1.99l-4.35-4.35L21.45,29.25l.94.94-3.65,3.66a3,3,0,0,0,0,4.24,3.056,3.056,0,0,0,4.24,0l2.24-2.24a1.008,1.008,0,0,1,1.42,0l9.9,9.9,2.12,2.12a1,1,0,0,1,0,1.41m-1.42-5.65-9.19-9.2a3,3,0,0,0-4.24.01l-2.25,2.24a1,1,0,0,1-1.41-1.42l4.17-4.16,4.84-1.21L40.07,40.8ZM48,36.54l-5.05,4.31L28.76,26.66,31.41,24H48Z" fill="#231f20"/>
          <path id="Trazado_986645" data-name="Trazado 986645" d="M47,42a1,1,0,0,0-1,1V58H35a1,1,0,0,0,0,2H47a1,1,0,0,0,1-1V43a1,1,0,0,0-1-1" fill="#231f20"/>
          <path id="Trazado_986646" data-name="Trazado 986646" d="M3,21a1,1,0,0,0,1-1V2H46V20a1,1,0,0,0,2,0V1a1,1,0,0,0-1-1H3A1,1,0,0,0,2,1V20a1,1,0,0,0,1,1" fill="#231f20"/>
          <path id="Trazado_986647" data-name="Trazado 986647" d="M17,58H4V40a1,1,0,0,0-2,0V59a1,1,0,0,0,1,1H17a1,1,0,0,0,0-2" fill="#231f20"/>
          <path id="Trazado_986648" data-name="Trazado 986648" d="M17,6H33a1,1,0,0,0,0-2H17a1,1,0,0,0,0,2" fill="#231f20"/>
          <path id="Trazado_986649" data-name="Trazado 986649" d="M17,10H33a1,1,0,0,0,0-2H17a1,1,0,0,0,0,2" fill="#231f20"/>
          <path id="Trazado_986650" data-name="Trazado 986650" d="M41,12H9a1,1,0,0,0,0,2H41a1,1,0,0,0,0-2" fill="#231f20"/>
          <path id="Trazado_986651" data-name="Trazado 986651" d="M41,16H9a1,1,0,0,0,0,2H41a1,1,0,0,0,0-2" fill="#231f20"/>
        </g>
      </g>
    </g>
  </g>
</svg>
