<svg xmlns="http://www.w3.org/2000/svg" xmlns:xlink="http://www.w3.org/1999/xlink" width="108" height="108" viewBox="0 0 108 108">
  <defs>
    <filter id="Trazado_982538" x="0" y="0" width="108" height="108" filterUnits="userSpaceOnUse">
      <feOffset dy="3" input="SourceAlpha"/>
      <feGaussianBlur stdDeviation="3" result="blur"/>
      <feFlood flood-opacity="0.161"/>
      <feComposite operator="in" in2="blur"/>
      <feComposite in="SourceGraphic"/>
    </filter>
    <clipPath id="clip-path">
      <rect id="Rectángulo_408344" data-name="Rectángulo 408344" width="60" height="60.042" transform="translate(0 0)" fill="none"/>
    </clipPath>
  </defs>
  <g id="Grupo_1151737" data-name="Grupo 1151737" transform="translate(9 6)">
    <g id="Grupo_1150893" data-name="Grupo 1150893">
      <g transform="matrix(1, 0, 0, 1, -9, -6)" filter="url(#Trazado_982538)">
        <g id="Trazado_982538-2" data-name="Trazado 982538" transform="translate(9 6)" fill="#f3f3f3">
          <path d="M 45 88.5 C 39.12687683105469 88.5 33.43022537231445 87.35007476806641 28.06830024719238 85.08217620849609 C 22.88852500915527 82.89131164550781 18.23629951477051 79.75458526611328 14.2408504486084 75.75914764404297 C 10.24541282653809 71.76370239257812 7.108687400817871 67.11147308349609 4.917825222015381 61.93170166015625 C 2.649924993515015 56.56977462768555 1.5 50.87312316894531 1.5 45 C 1.5 39.12687683105469 2.649924993515015 33.43022537231445 4.917825222015381 28.06830024719238 C 7.108687400817871 22.88852500915527 10.24541282653809 18.23629951477051 14.2408504486084 14.2408504486084 C 18.23629951477051 10.24541282653809 22.88852500915527 7.108687400817871 28.06830024719238 4.917825222015381 C 33.43022537231445 2.649924993515015 39.12687683105469 1.5 45 1.5 C 50.87312316894531 1.5 56.56977462768555 2.649924993515015 61.93170166015625 4.917825222015381 C 67.11147308349609 7.108687400817871 71.76370239257812 10.24541282653809 75.75914764404297 14.2408504486084 C 79.75458526611328 18.23629951477051 82.89131164550781 22.88852500915527 85.08217620849609 28.06830024719238 C 87.35007476806641 33.43022537231445 88.5 39.12687683105469 88.5 45 C 88.5 50.87312316894531 87.35007476806641 56.56977462768555 85.08217620849609 61.93170166015625 C 82.89131164550781 67.11147308349609 79.75458526611328 71.76370239257812 75.75914764404297 75.75914764404297 C 71.76370239257812 79.75458526611328 67.11147308349609 82.89131164550781 61.93170166015625 85.08217620849609 C 56.56977462768555 87.35007476806641 50.87312316894531 88.5 45 88.5 Z" stroke="none"/>
          <path d="M 45 3 C 39.32871246337891 3 33.82865524291992 4.110054016113281 28.65262985229492 6.299339294433594 C 23.65165710449219 8.414573669433594 19.15968322753906 11.44334411621094 15.301513671875 15.301513671875 C 11.44334411621094 19.15968322753906 8.414573669433594 23.65165710449219 6.299339294433594 28.65262985229492 C 4.110054016113281 33.82865524291992 3 39.32871246337891 3 45 C 3 50.67128753662109 4.110054016113281 56.17134475708008 6.299339294433594 61.34737396240234 C 8.414573669433594 66.34834289550781 11.44334411621094 70.84031677246094 15.301513671875 74.698486328125 C 19.15968322753906 78.55665588378906 23.65165710449219 81.58542633056641 28.65262985229492 83.70066070556641 C 33.82865524291992 85.88994598388672 39.32871246337891 87 45 87 C 50.67128753662109 87 56.17134475708008 85.88994598388672 61.34737396240234 83.70066070556641 C 66.34834289550781 81.58542633056641 70.84031677246094 78.55665588378906 74.698486328125 74.698486328125 C 78.55665588378906 70.84031677246094 81.58542633056641 66.34834289550781 83.70066070556641 61.34737396240234 C 85.88994598388672 56.17134475708008 87 50.67128753662109 87 45 C 87 39.32871246337891 85.88994598388672 33.82865524291992 83.70066070556641 28.65262985229492 C 81.58542633056641 23.65165710449219 78.55665588378906 19.15968322753906 74.698486328125 15.301513671875 C 70.84031677246094 11.44334411621094 66.34834289550781 8.414573669433594 61.34737396240234 6.299339294433594 C 56.17134475708008 4.110054016113281 50.67128753662109 3 45 3 M 45 0 C 69.85281372070312 0 90 20.14718627929688 90 45 C 90 69.85281372070312 69.85281372070312 90 45 90 C 20.14718627929688 90 0 69.85281372070312 0 45 C 0 20.14718627929688 20.14718627929688 0 45 0 Z" stroke="none" fill="#fd7940"/>
        </g>
      </g>
      <g id="Grupo_1151819" data-name="Grupo 1151819" transform="translate(15.5 13.979)">
        <rect id="Rectángulo_408336" data-name="Rectángulo 408336" width="8" height="22" transform="translate(5 33.042)" fill="#ed1c24"/>
        <rect id="Rectángulo_408337" data-name="Rectángulo 408337" width="8" height="28" transform="translate(19 27.042)" fill="#006df0"/>
        <rect id="Rectángulo_408338" data-name="Rectángulo 408338" width="8" height="34" transform="translate(33 21.042)" fill="#ffcd00"/>
        <rect id="Rectángulo_408339" data-name="Rectángulo 408339" width="8" height="42" transform="translate(47 13.042)" fill="#5eac24"/>
        <rect id="Rectángulo_408340" data-name="Rectángulo 408340" width="4" height="22" transform="translate(9 33.042)" fill="#d51920"/>
        <rect id="Rectángulo_408341" data-name="Rectángulo 408341" width="4" height="28" transform="translate(23 27.042)" fill="#0062d8"/>
        <rect id="Rectángulo_408342" data-name="Rectángulo 408342" width="4" height="34" transform="translate(37 21.042)" fill="#e5b800"/>
        <rect id="Rectángulo_408343" data-name="Rectángulo 408343" width="4" height="42" transform="translate(51 13.042)" fill="#559b20"/>
        <g id="Grupo_1151818" data-name="Grupo 1151818">
          <g id="Grupo_1151817" data-name="Grupo 1151817" clip-path="url(#clip-path)">
            <path id="Trazado_986652" data-name="Trazado 986652" d="M59,54.042H56v-41a1,1,0,0,0-1-1H47a1,1,0,0,0-1,1v41H42v-33a1,1,0,0,0-1-1H33a1,1,0,0,0-1,1v33H28v-27a1,1,0,0,0-1-1H19a1,1,0,0,0-1,1v27H14v-21a1,1,0,0,0-1-1H5a1,1,0,0,0-1,1v21H1a1,1,0,0,0,0,2H59a1,1,0,0,0,0-2m-47,0H6v-20h6Zm14,0H20v-26h6Zm14,0H34v-32h6Zm14,0H48v-40h6Z" fill="#231f20"/>
            <path id="Trazado_986653" data-name="Trazado 986653" d="M6,58.042H5a1,1,0,0,0,0,2H6a1,1,0,0,0,0-2" fill="#231f20"/>
            <path id="Trazado_986654" data-name="Trazado 986654" d="M13,58.042H9a1,1,0,0,0,0,2h4a1,1,0,0,0,0-2" fill="#231f20"/>
            <path id="Trazado_986655" data-name="Trazado 986655" d="M20,58.042H19a1,1,0,0,0,0,2h1a1,1,0,0,0,0-2" fill="#231f20"/>
            <path id="Trazado_986656" data-name="Trazado 986656" d="M27,58.042H23a1,1,0,0,0,0,2h4a1,1,0,0,0,0-2" fill="#231f20"/>
            <path id="Trazado_986657" data-name="Trazado 986657" d="M34,58.042H33a1,1,0,0,0,0,2h1a1,1,0,0,0,0-2" fill="#231f20"/>
            <path id="Trazado_986658" data-name="Trazado 986658" d="M41,58.042H37a1,1,0,0,0,0,2h4a1,1,0,0,0,0-2" fill="#231f20"/>
            <path id="Trazado_986659" data-name="Trazado 986659" d="M48,58.042H47a1,1,0,0,0,0,2h1a1,1,0,0,0,0-2" fill="#231f20"/>
            <path id="Trazado_986660" data-name="Trazado 986660" d="M55,58.042H51a1,1,0,0,0,0,2h4a1,1,0,0,0,0-2" fill="#231f20"/>
            <path id="Trazado_986661" data-name="Trazado 986661" d="M5.242,21.8a1,1,0,0,0,.707-.293l7.778-7.778,5.658,5.657a1,1,0,0,0,1.414,0L29.284,10.9l6.364,6.363a1,1,0,0,0,1.414,0L50.953,3.372,51,6.059a1,1,0,0,0,1,.983h.017A1,1,0,0,0,53,6.024L52.912.983a1,1,0,0,0-1-.983H51.9L46.991.042a1,1,0,0,0,.009,2h.009l2.467-.021L36.355,15.142,29.991,8.778a1,1,0,0,0-1.414,0l-8.485,8.486-5.658-5.657a1,1,0,0,0-1.414,0L4.535,20.092A1,1,0,0,0,5.242,21.8" fill="#231f20"/>
            <path id="Trazado_986662" data-name="Trazado 986662" d="M1,26.042a1,1,0,0,0,.707-.293l1.414-1.414a1,1,0,1,0-1.414-1.414L.293,24.335A1,1,0,0,0,1,26.042" fill="#231f20"/>
          </g>
        </g>
      </g>
    </g>
  </g>
</svg>
