<svg xmlns="http://www.w3.org/2000/svg" width="383.941" height="231.897" viewBox="0 0 383.941 231.897">
  <g id="Grupo_1151830" data-name="Grupo 1151830" transform="translate(-600 -2124.874)">
    <path id="Trazado_986747" data-name="Trazado 986747" d="M63.725,19h-6.68V6.4h6.4V7.732H58.522v4.192h4.553v1.327H58.522v4.412h5.2Zm15.014,0H77.3V13.832a3.9,3.9,0,0,0-.461-2.162A1.75,1.75,0,0,0,75.285,11a1.921,1.921,0,0,0-1.569.844,3.228,3.228,0,0,0-.646,2.021V19H71.629V13.656Q71.629,11,69.581,11a1.9,1.9,0,0,0-1.564.8,3.288,3.288,0,0,0-.615,2.07V19H65.96V10H67.4v1.424h.035a3.058,3.058,0,0,1,2.795-1.635,2.6,2.6,0,0,1,2.549,1.863,3.212,3.212,0,0,1,2.988-1.863q2.971,0,2.971,3.665Zm4.2-1.3h-.035v5.44H81.465V10h1.441v1.582h.035a3.408,3.408,0,0,1,3.111-1.793A3.3,3.3,0,0,1,88.769,11a5.005,5.005,0,0,1,.976,3.239,5.578,5.578,0,0,1-1.1,3.617,3.658,3.658,0,0,1-3.006,1.358A3.011,3.011,0,0,1,82.942,17.7Zm-.035-3.63v1.257a2.676,2.676,0,0,0,.725,1.894A2.587,2.587,0,0,0,87.525,17a4.6,4.6,0,0,0,.743-2.786,3.629,3.629,0,0,0-.694-2.355A2.3,2.3,0,0,0,85.693,11a2.554,2.554,0,0,0-2.021.875A3.211,3.211,0,0,0,82.907,14.069Zm13.836-2.61a1.763,1.763,0,0,0-1.09-.29,1.839,1.839,0,0,0-1.542.87,4.023,4.023,0,0,0-.62,2.373V19H92.049V10h1.441v1.854h.035a3.143,3.143,0,0,1,.94-1.481,2.144,2.144,0,0,1,1.415-.532,2.353,2.353,0,0,1,.861.123Zm8.8,3.4H99.188a3.366,3.366,0,0,0,.809,2.32,2.788,2.788,0,0,0,2.127.817,4.422,4.422,0,0,0,2.795-1V18.35a5.224,5.224,0,0,1-3.138.861,3.8,3.8,0,0,1-3-1.226,5.018,5.018,0,0,1-1.09-3.45,4.921,4.921,0,0,1,1.191-3.423,3.819,3.819,0,0,1,2.958-1.323,3.384,3.384,0,0,1,2.733,1.143,4.764,4.764,0,0,1,.967,3.173Zm-1.477-1.222a2.933,2.933,0,0,0-.6-1.942A2.051,2.051,0,0,0,101.816,11a2.328,2.328,0,0,0-1.731.729,3.31,3.31,0,0,0-.879,1.907Zm3.113,5.036V17.128a4.266,4.266,0,0,0,2.593.87q1.9,0,1.9-1.266a1.1,1.1,0,0,0-.163-.611,1.62,1.62,0,0,0-.439-.444,3.383,3.383,0,0,0-.65-.347q-.374-.154-.8-.321a10.357,10.357,0,0,1-1.05-.479,3.173,3.173,0,0,1-.756-.545,2.028,2.028,0,0,1-.457-.69,2.441,2.441,0,0,1-.154-.905,2.15,2.15,0,0,1,.29-1.121,2.572,2.572,0,0,1,.773-.817,3.607,3.607,0,0,1,1.1-.5,4.893,4.893,0,0,1,1.279-.167,5.164,5.164,0,0,1,2.092.4v1.459a4.077,4.077,0,0,0-2.285-.65,2.671,2.671,0,0,0-.729.092,1.786,1.786,0,0,0-.558.259,1.2,1.2,0,0,0-.36.4,1.053,1.053,0,0,0-.127.514,1.233,1.233,0,0,0,.127.589,1.3,1.3,0,0,0,.374.422,2.855,2.855,0,0,0,.6.334q.352.149.8.325a11.131,11.131,0,0,1,1.072.47,3.678,3.678,0,0,1,.809.545,2.129,2.129,0,0,1,.514.7,2.254,2.254,0,0,1,.18.94,2.217,2.217,0,0,1-.294,1.16,2.523,2.523,0,0,1-.787.817,3.6,3.6,0,0,1-1.134.483,5.6,5.6,0,0,1-1.345.158A5.106,5.106,0,0,1,107.179,18.675ZM121.806,19h-1.441V17.594h-.035a3.018,3.018,0,0,1-2.769,1.617,2.959,2.959,0,0,1-2.1-.712,2.466,2.466,0,0,1-.76-1.89q0-2.522,2.971-2.936l2.7-.378q0-2.294-1.854-2.294a4.431,4.431,0,0,0-2.936,1.107V10.633a5.577,5.577,0,0,1,3.059-.844q3.173,0,3.173,3.357Zm-1.441-4.553-2.171.3a3.525,3.525,0,0,0-1.512.5,1.432,1.432,0,0,0-.51,1.261,1.374,1.374,0,0,0,.47,1.077,1.817,1.817,0,0,0,1.252.417,2.314,2.314,0,0,0,1.771-.751,2.685,2.685,0,0,0,.7-1.9Zm3.614,4.228V17.128a4.266,4.266,0,0,0,2.593.87q1.9,0,1.9-1.266a1.1,1.1,0,0,0-.163-.611,1.62,1.62,0,0,0-.439-.444,3.383,3.383,0,0,0-.65-.347q-.374-.154-.8-.321a10.357,10.357,0,0,1-1.05-.479,3.173,3.173,0,0,1-.756-.545,2.028,2.028,0,0,1-.457-.69,2.441,2.441,0,0,1-.154-.905,2.15,2.15,0,0,1,.29-1.121,2.572,2.572,0,0,1,.773-.817,3.607,3.607,0,0,1,1.1-.5,4.893,4.893,0,0,1,1.279-.167,5.164,5.164,0,0,1,2.092.4v1.459a4.077,4.077,0,0,0-2.285-.65,2.671,2.671,0,0,0-.729.092,1.786,1.786,0,0,0-.558.259,1.2,1.2,0,0,0-.36.4,1.053,1.053,0,0,0-.127.514,1.233,1.233,0,0,0,.127.589,1.3,1.3,0,0,0,.374.422,2.855,2.855,0,0,0,.6.334q.352.149.8.325a11.131,11.131,0,0,1,1.072.47,3.678,3.678,0,0,1,.809.545,2.129,2.129,0,0,1,.514.7,2.254,2.254,0,0,1,.18.94,2.217,2.217,0,0,1-.294,1.16,2.523,2.523,0,0,1-.787.817,3.6,3.6,0,0,1-1.134.483,5.6,5.6,0,0,1-1.345.158A5.106,5.106,0,0,1,123.978,18.675Zm8.685.519a.933.933,0,0,1-.69-.29.955.955,0,0,1-.286-.694.969.969,0,0,1,.286-.7.926.926,0,0,1,.69-.294.95.95,0,0,1,.7.294.962.962,0,0,1,.29.7.947.947,0,0,1-.29.694A.958.958,0,0,1,132.664,19.193ZM29.207,45.139a8.428,8.428,0,0,1-4.219,1.072,5.765,5.765,0,0,1-4.364-1.74,6.383,6.383,0,0,1-1.666-4.605,6.554,6.554,0,0,1,1.85-4.8A6.307,6.307,0,0,1,25.5,33.186a7.979,7.979,0,0,1,3.454.668v1.635a6.633,6.633,0,0,0-3.621-.967,4.524,4.524,0,0,0-3.472,1.459,5.336,5.336,0,0,0-1.354,3.779,5.339,5.339,0,0,0,1.257,3.757,4.405,4.405,0,0,0,3.41,1.367,5.269,5.269,0,0,0,2.558-.589V40.762h-2.76V39.426h4.236Zm9.969-3.278H32.821a3.366,3.366,0,0,0,.809,2.32A2.788,2.788,0,0,0,35.757,45a4.422,4.422,0,0,0,2.795-1V45.35a5.224,5.224,0,0,1-3.138.861,3.8,3.8,0,0,1-3-1.226,5.018,5.018,0,0,1-1.09-3.45,4.921,4.921,0,0,1,1.191-3.423,3.819,3.819,0,0,1,2.958-1.323,3.384,3.384,0,0,1,2.733,1.143,4.764,4.764,0,0,1,.967,3.173ZM37.7,40.639a2.933,2.933,0,0,0-.6-1.942A2.051,2.051,0,0,0,35.449,38a2.328,2.328,0,0,0-1.731.729,3.31,3.31,0,0,0-.879,1.907Zm8.351-2.18a1.763,1.763,0,0,0-1.09-.29,1.839,1.839,0,0,0-1.542.87,4.023,4.023,0,0,0-.62,2.373V46H41.357V37H42.8v1.854h.035a3.143,3.143,0,0,1,.94-1.481,2.144,2.144,0,0,1,1.415-.532,2.353,2.353,0,0,1,.861.123Zm8.8,3.4H48.5a3.366,3.366,0,0,0,.809,2.32A2.788,2.788,0,0,0,51.431,45a4.422,4.422,0,0,0,2.795-1V45.35a5.224,5.224,0,0,1-3.138.861,3.8,3.8,0,0,1-3-1.226A5.018,5.018,0,0,1,47,41.535a4.921,4.921,0,0,1,1.191-3.423,3.819,3.819,0,0,1,2.958-1.323,3.384,3.384,0,0,1,2.733,1.143A4.764,4.764,0,0,1,54.85,41.1Zm-1.477-1.222a2.933,2.933,0,0,0-.6-1.942A2.051,2.051,0,0,0,51.124,38a2.328,2.328,0,0,0-1.731.729,3.31,3.31,0,0,0-.879,1.907ZM64.5,46H63.061V40.867Q63.061,38,60.969,38a2.269,2.269,0,0,0-1.789.813,3.013,3.013,0,0,0-.708,2.052V46H57.032V37h1.441v1.494h.035a3.248,3.248,0,0,1,2.953-1.705,2.753,2.753,0,0,1,2.259.954A4.248,4.248,0,0,1,64.5,40.5Zm8.852-.413a4.684,4.684,0,0,1-2.461.624,4.074,4.074,0,0,1-3.107-1.252A4.539,4.539,0,0,1,66.6,41.711a4.99,4.99,0,0,1,1.274-3.573,4.458,4.458,0,0,1,3.4-1.349,4.735,4.735,0,0,1,2.092.439v1.477a3.665,3.665,0,0,0-2.145-.7,2.9,2.9,0,0,0-2.263.989,3.752,3.752,0,0,0-.883,2.6,3.573,3.573,0,0,0,.831,2.5A2.863,2.863,0,0,0,71.14,45a3.613,3.613,0,0,0,2.215-.782Zm2.92-10.872a.913.913,0,0,1-.659-.264.89.89,0,0,1-.272-.668.923.923,0,0,1,.932-.94.931.931,0,0,1,.672.268.939.939,0,0,1,0,1.332A.923.923,0,0,1,76.275,34.715ZM76.978,46H75.536V37h1.441Zm9.362,0H84.9V44.594h-.035a3.018,3.018,0,0,1-2.769,1.617,2.959,2.959,0,0,1-2.1-.712,2.466,2.466,0,0,1-.76-1.89q0-2.522,2.971-2.936l2.7-.378Q84.9,38,83.044,38a4.431,4.431,0,0,0-2.936,1.107V37.633a5.577,5.577,0,0,1,3.059-.844q3.173,0,3.173,3.357ZM84.9,41.447l-2.171.3a3.525,3.525,0,0,0-1.512.5,1.432,1.432,0,0,0-.51,1.261,1.374,1.374,0,0,0,.47,1.077A1.817,1.817,0,0,0,82.429,45a2.314,2.314,0,0,0,1.771-.751,2.685,2.685,0,0,0,.7-1.9Zm3.614,4.228V44.128a4.266,4.266,0,0,0,2.593.87Q93,45,93,43.732a1.1,1.1,0,0,0-.163-.611,1.62,1.62,0,0,0-.439-.444,3.383,3.383,0,0,0-.65-.347q-.374-.154-.8-.321a10.357,10.357,0,0,1-1.05-.479,3.173,3.173,0,0,1-.756-.545,2.028,2.028,0,0,1-.457-.69,2.441,2.441,0,0,1-.154-.905,2.15,2.15,0,0,1,.29-1.121,2.572,2.572,0,0,1,.773-.817,3.607,3.607,0,0,1,1.1-.5,4.893,4.893,0,0,1,1.279-.167,5.164,5.164,0,0,1,2.092.4v1.459A4.077,4.077,0,0,0,91.782,38a2.671,2.671,0,0,0-.729.092,1.786,1.786,0,0,0-.558.259,1.2,1.2,0,0,0-.36.4,1.053,1.053,0,0,0-.127.514,1.233,1.233,0,0,0,.127.589,1.3,1.3,0,0,0,.374.422,2.855,2.855,0,0,0,.6.334q.352.149.8.325a11.131,11.131,0,0,1,1.072.47,3.678,3.678,0,0,1,.809.545,2.129,2.129,0,0,1,.514.7,2.254,2.254,0,0,1,.18.94,2.217,2.217,0,0,1-.294,1.16,2.523,2.523,0,0,1-.787.817,3.6,3.6,0,0,1-1.134.483,5.6,5.6,0,0,1-1.345.158A5.106,5.106,0,0,1,88.513,45.675Zm16.9,3.19h-1.283a11.232,11.232,0,0,1-2.725-7.673,11.658,11.658,0,0,1,2.725-7.8h1.3a11.845,11.845,0,0,0-2.76,7.778A11.638,11.638,0,0,0,105.409,48.865Zm5.829-2.953a2.779,2.779,0,0,1-1.345.281q-2.364,0-2.364-2.637V38.23h-1.547V37h1.547V34.8l1.441-.466V37h2.268v1.23H108.97V43.3a2.1,2.1,0,0,0,.308,1.292,1.228,1.228,0,0,0,1.02.387,1.515,1.515,0,0,0,.94-.3Zm5.688.3a4.175,4.175,0,0,1-3.186-1.261,4.672,4.672,0,0,1-1.191-3.344,4.867,4.867,0,0,1,1.239-3.542,4.455,4.455,0,0,1,3.349-1.274,4.037,4.037,0,0,1,3.142,1.239,4.914,4.914,0,0,1,1.129,3.437,4.835,4.835,0,0,1-1.217,3.45A4.265,4.265,0,0,1,116.926,46.211ZM117.031,38a2.742,2.742,0,0,0-2.2.945,3.88,3.88,0,0,0-.809,2.606,3.67,3.67,0,0,0,.817,2.522,2.778,2.778,0,0,0,2.188.923,2.635,2.635,0,0,0,2.149-.905,3.928,3.928,0,0,0,.751-2.575,4,4,0,0,0-.751-2.6A2.623,2.623,0,0,0,117.031,38Zm19.461,8h-1.441V40.832a3.9,3.9,0,0,0-.461-2.162A1.75,1.75,0,0,0,133.038,38a1.921,1.921,0,0,0-1.569.844,3.228,3.228,0,0,0-.646,2.021V46h-1.441V40.656q0-2.654-2.048-2.654a1.9,1.9,0,0,0-1.564.8,3.288,3.288,0,0,0-.615,2.07V46h-1.441V37h1.441v1.424h.035a3.058,3.058,0,0,1,2.795-1.635,2.6,2.6,0,0,1,2.549,1.863,3.212,3.212,0,0,1,2.988-1.863q2.971,0,2.971,3.665Zm9.169,0H144.22V44.594h-.035a3.018,3.018,0,0,1-2.769,1.617,2.959,2.959,0,0,1-2.1-.712,2.466,2.466,0,0,1-.76-1.89q0-2.522,2.971-2.936l2.7-.378q0-2.294-1.854-2.294a4.431,4.431,0,0,0-2.936,1.107V37.633a5.577,5.577,0,0,1,3.059-.844q3.173,0,3.173,3.357Zm-1.441-4.553-2.171.3a3.525,3.525,0,0,0-1.512.5,1.432,1.432,0,0,0-.51,1.261,1.374,1.374,0,0,0,.47,1.077A1.817,1.817,0,0,0,141.75,45a2.314,2.314,0,0,0,1.771-.751,2.685,2.685,0,0,0,.7-1.9ZM160.993,46h-1.441V44.471h-.035a3.327,3.327,0,0,1-3.094,1.74A3.362,3.362,0,0,1,153.711,45a4.958,4.958,0,0,1-1.015-3.292,5.394,5.394,0,0,1,1.125-3.577,3.71,3.71,0,0,1,3-1.345,2.885,2.885,0,0,1,2.7,1.459h.035V32.676h1.441Zm-1.441-4.069V40.6a2.575,2.575,0,0,0-.721-1.846A2.417,2.417,0,0,0,157,38a2.489,2.489,0,0,0-2.074.967,4.237,4.237,0,0,0-.756,2.672A3.81,3.81,0,0,0,154.9,44.1a2.37,2.37,0,0,0,1.947.9,2.462,2.462,0,0,0,1.956-.87A3.242,3.242,0,0,0,159.551,41.931Zm11.595-.07h-6.354a3.366,3.366,0,0,0,.809,2.32,2.788,2.788,0,0,0,2.127.817,4.422,4.422,0,0,0,2.795-1V45.35a5.224,5.224,0,0,1-3.138.861,3.8,3.8,0,0,1-3-1.226,5.018,5.018,0,0,1-1.09-3.45,4.921,4.921,0,0,1,1.191-3.423,3.819,3.819,0,0,1,2.958-1.323,3.384,3.384,0,0,1,2.733,1.143,4.764,4.764,0,0,1,.967,3.173Zm-1.477-1.222a2.933,2.933,0,0,0-.6-1.942A2.051,2.051,0,0,0,167.419,38a2.328,2.328,0,0,0-1.731.729,3.31,3.31,0,0,0-.879,1.907ZM60.182,73H58.74V71.471h-.035a3.327,3.327,0,0,1-3.094,1.74A3.362,3.362,0,0,1,52.9,72a4.958,4.958,0,0,1-1.015-3.292,5.394,5.394,0,0,1,1.125-3.577,3.71,3.71,0,0,1,3-1.345,2.885,2.885,0,0,1,2.7,1.459h.035V59.676h1.441ZM58.74,68.931V67.6a2.575,2.575,0,0,0-.721-1.846A2.417,2.417,0,0,0,56.191,65a2.489,2.489,0,0,0-2.074.967,4.237,4.237,0,0,0-.756,2.672,3.81,3.81,0,0,0,.725,2.457,2.37,2.37,0,0,0,1.947.9,2.462,2.462,0,0,0,1.956-.87A3.242,3.242,0,0,0,58.74,68.931Zm11.595-.07H63.98a3.366,3.366,0,0,0,.809,2.32A2.788,2.788,0,0,0,66.916,72a4.422,4.422,0,0,0,2.795-1V72.35a5.224,5.224,0,0,1-3.138.861,3.8,3.8,0,0,1-3-1.226,5.018,5.018,0,0,1-1.09-3.45,4.921,4.921,0,0,1,1.191-3.423,3.819,3.819,0,0,1,2.958-1.323,3.384,3.384,0,0,1,2.733,1.143,4.764,4.764,0,0,1,.967,3.173Zm-1.477-1.222a2.933,2.933,0,0,0-.6-1.942A2.051,2.051,0,0,0,66.608,65a2.328,2.328,0,0,0-1.731.729A3.31,3.31,0,0,0,64,67.639Zm9.793,4.948a4.684,4.684,0,0,1-2.461.624,4.074,4.074,0,0,1-3.107-1.252A4.539,4.539,0,0,1,71.9,68.711a4.99,4.99,0,0,1,1.274-3.573,4.458,4.458,0,0,1,3.4-1.349,4.735,4.735,0,0,1,2.092.439v1.477a3.665,3.665,0,0,0-2.145-.7,2.9,2.9,0,0,0-2.263.989,3.752,3.752,0,0,0-.883,2.6,3.573,3.573,0,0,0,.831,2.5A2.863,2.863,0,0,0,76.436,72a3.613,3.613,0,0,0,2.215-.782Zm2.92-10.872a.913.913,0,0,1-.659-.264.89.89,0,0,1-.272-.668.923.923,0,0,1,.932-.94.931.931,0,0,1,.672.268.939.939,0,0,1,0,1.332A.923.923,0,0,1,81.571,61.715ZM82.274,73H80.833V64h1.441Zm2.375-.325V71.128a4.266,4.266,0,0,0,2.593.87q1.9,0,1.9-1.266a1.1,1.1,0,0,0-.163-.611,1.62,1.62,0,0,0-.439-.444,3.383,3.383,0,0,0-.65-.347q-.374-.154-.8-.321a10.357,10.357,0,0,1-1.05-.479,3.173,3.173,0,0,1-.756-.545,2.028,2.028,0,0,1-.457-.69,2.441,2.441,0,0,1-.154-.905,2.15,2.15,0,0,1,.29-1.121,2.572,2.572,0,0,1,.773-.817,3.607,3.607,0,0,1,1.1-.5,4.893,4.893,0,0,1,1.279-.167,5.164,5.164,0,0,1,2.092.4v1.459A4.077,4.077,0,0,0,87.918,65a2.671,2.671,0,0,0-.729.092,1.786,1.786,0,0,0-.558.259,1.2,1.2,0,0,0-.36.4,1.053,1.053,0,0,0-.127.514,1.233,1.233,0,0,0,.127.589,1.3,1.3,0,0,0,.374.422,2.855,2.855,0,0,0,.6.334q.352.149.8.325a11.131,11.131,0,0,1,1.072.47,3.678,3.678,0,0,1,.809.545,2.129,2.129,0,0,1,.514.7,2.254,2.254,0,0,1,.18.94,2.217,2.217,0,0,1-.294,1.16,2.523,2.523,0,0,1-.787.817,3.6,3.6,0,0,1-1.134.483,5.6,5.6,0,0,1-1.345.158A5.106,5.106,0,0,1,84.649,72.675Zm8.923-10.96a.913.913,0,0,1-.659-.264.89.89,0,0,1-.272-.668.923.923,0,0,1,.932-.94.931.931,0,0,1,.672.268.939.939,0,0,1,0,1.332A.923.923,0,0,1,93.572,61.715ZM94.275,73H92.833V64h1.441Zm6.681.211A4.175,4.175,0,0,1,97.77,71.95a4.672,4.672,0,0,1-1.191-3.344,4.867,4.867,0,0,1,1.239-3.542,4.455,4.455,0,0,1,3.349-1.274,4.037,4.037,0,0,1,3.142,1.239,4.914,4.914,0,0,1,1.129,3.437,4.835,4.835,0,0,1-1.217,3.45A4.265,4.265,0,0,1,100.956,73.211ZM101.062,65a2.742,2.742,0,0,0-2.2.945,3.88,3.88,0,0,0-.809,2.606,3.67,3.67,0,0,0,.817,2.522,2.778,2.778,0,0,0,2.188.923,2.635,2.635,0,0,0,2.149-.905,3.928,3.928,0,0,0,.751-2.575,4,4,0,0,0-.751-2.6A2.623,2.623,0,0,0,101.062,65Zm14.152,8h-1.441V67.867q0-2.865-2.092-2.865a2.269,2.269,0,0,0-1.789.813,3.013,3.013,0,0,0-.708,2.052V73h-1.441V64h1.441v1.494h.035a3.248,3.248,0,0,1,2.953-1.705,2.753,2.753,0,0,1,2.259.954,4.248,4.248,0,0,1,.782,2.755Zm9.951-4.14H118.81a3.366,3.366,0,0,0,.809,2.32,2.788,2.788,0,0,0,2.127.817,4.422,4.422,0,0,0,2.795-1V72.35a5.224,5.224,0,0,1-3.138.861,3.8,3.8,0,0,1-3-1.226,5.018,5.018,0,0,1-1.09-3.45,4.921,4.921,0,0,1,1.191-3.423,3.819,3.819,0,0,1,2.958-1.323,3.384,3.384,0,0,1,2.733,1.143,4.764,4.764,0,0,1,.967,3.173Zm-1.477-1.222a2.933,2.933,0,0,0-.6-1.942A2.051,2.051,0,0,0,121.438,65a2.328,2.328,0,0,0-1.731.729,3.31,3.31,0,0,0-.879,1.907Zm3.113,5.036V71.128a4.266,4.266,0,0,0,2.593.87q1.9,0,1.9-1.266a1.1,1.1,0,0,0-.163-.611,1.62,1.62,0,0,0-.439-.444,3.383,3.383,0,0,0-.65-.347q-.374-.154-.8-.321a10.357,10.357,0,0,1-1.05-.479,3.173,3.173,0,0,1-.756-.545,2.028,2.028,0,0,1-.457-.69,2.441,2.441,0,0,1-.154-.905,2.15,2.15,0,0,1,.29-1.121,2.572,2.572,0,0,1,.773-.817,3.607,3.607,0,0,1,1.1-.5,4.893,4.893,0,0,1,1.279-.167,5.164,5.164,0,0,1,2.092.4v1.459a4.077,4.077,0,0,0-2.285-.65,2.671,2.671,0,0,0-.729.092,1.786,1.786,0,0,0-.558.259,1.2,1.2,0,0,0-.36.4,1.053,1.053,0,0,0-.127.514,1.233,1.233,0,0,0,.127.589,1.3,1.3,0,0,0,.374.422,2.855,2.855,0,0,0,.6.334q.352.149.8.325a11.131,11.131,0,0,1,1.072.47,3.678,3.678,0,0,1,.809.545,2.129,2.129,0,0,1,.514.7,2.254,2.254,0,0,1,.18.94,2.217,2.217,0,0,1-.294,1.16,2.523,2.523,0,0,1-.787.817,3.6,3.6,0,0,1-1.134.483,5.6,5.6,0,0,1-1.345.158A5.106,5.106,0,0,1,126.8,72.675Zm8.22,3.19h-1.283a11.638,11.638,0,0,0,2.742-7.69,11.845,11.845,0,0,0-2.76-7.778h1.3a11.611,11.611,0,0,1,2.742,7.8A11.188,11.188,0,0,1,135.021,75.865Z" transform="translate(810 2118.478)" fill="#0b0a0a"/>
    <path id="Trazado_986748" data-name="Trazado 986748" d="M18.431,19V6.4h3.48q6.662,0,6.662,6.144a6.191,6.191,0,0,1-1.85,4.689A6.863,6.863,0,0,1,21.771,19ZM19.908,7.732v9.932h1.881a5.338,5.338,0,0,0,3.858-1.327,4.975,4.975,0,0,0,1.38-3.762q0-4.843-5.15-4.843ZM31.6,7.715a.913.913,0,0,1-.659-.264.89.89,0,0,1-.272-.668.923.923,0,0,1,.932-.94.931.931,0,0,1,.672.268.939.939,0,0,1,0,1.332A.923.923,0,0,1,31.6,7.715ZM32.3,19H30.861V10H32.3Zm9.362,0H40.223V17.594h-.035a3.018,3.018,0,0,1-2.769,1.617,2.959,2.959,0,0,1-2.1-.712,2.466,2.466,0,0,1-.76-1.89q0-2.522,2.971-2.936l2.7-.378Q40.223,11,38.368,11a4.431,4.431,0,0,0-2.936,1.107V10.633a5.577,5.577,0,0,1,3.059-.844q3.173,0,3.173,3.357Zm-1.441-4.553-2.171.3a3.525,3.525,0,0,0-1.512.5,1.432,1.432,0,0,0-.51,1.261,1.374,1.374,0,0,0,.47,1.077A1.817,1.817,0,0,0,37.753,18a2.314,2.314,0,0,0,1.771-.751,2.685,2.685,0,0,0,.7-1.9Zm11.841,3.832q0,4.957-4.746,4.957A6.372,6.372,0,0,1,44.4,22.6V21.162a5.993,5.993,0,0,0,2.9.844q3.322,0,3.322-3.533v-.984h-.035a3.641,3.641,0,0,1-5.8.523,4.8,4.8,0,0,1-1.024-3.221,5.6,5.6,0,0,1,1.1-3.647,3.685,3.685,0,0,1,3.019-1.354,2.934,2.934,0,0,1,2.7,1.459h.035V10h1.441Zm-1.441-3.349V13.6a2.575,2.575,0,0,0-.725-1.837A2.387,2.387,0,0,0,48.091,11,2.5,2.5,0,0,0,46,11.973a4.335,4.335,0,0,0-.756,2.72,3.721,3.721,0,0,0,.725,2.4,2.343,2.343,0,0,0,1.92.9,2.509,2.509,0,0,0,1.973-.861A3.21,3.21,0,0,0,50.622,14.931ZM62.454,19H61.012V13.867Q61.012,11,58.921,11a2.269,2.269,0,0,0-1.789.813,3.013,3.013,0,0,0-.708,2.052V19H54.983V10h1.441v1.494h.035a3.248,3.248,0,0,1,2.953-1.705,2.753,2.753,0,0,1,2.259.954,4.248,4.248,0,0,1,.782,2.755Zm6.479.211a4.175,4.175,0,0,1-3.186-1.261,4.672,4.672,0,0,1-1.191-3.344A4.867,4.867,0,0,1,65.8,11.063a4.455,4.455,0,0,1,3.349-1.274,4.037,4.037,0,0,1,3.142,1.239,4.914,4.914,0,0,1,1.129,3.437,4.835,4.835,0,0,1-1.217,3.45A4.265,4.265,0,0,1,68.933,19.211ZM69.039,11a2.742,2.742,0,0,0-2.2.945,3.88,3.88,0,0,0-.809,2.606,3.67,3.67,0,0,0,.817,2.522A2.778,2.778,0,0,0,69.039,18a2.635,2.635,0,0,0,2.149-.905,3.928,3.928,0,0,0,.751-2.575,4,4,0,0,0-.751-2.6A2.623,2.623,0,0,0,69.039,11Zm2.109-5.59-2.3,2.883H67.729l1.96-2.883Zm4.027,13.263V17.128a4.266,4.266,0,0,0,2.593.87q1.9,0,1.9-1.266a1.1,1.1,0,0,0-.163-.611,1.62,1.62,0,0,0-.439-.444,3.383,3.383,0,0,0-.65-.347q-.374-.154-.8-.321a10.357,10.357,0,0,1-1.05-.479,3.173,3.173,0,0,1-.756-.545,2.028,2.028,0,0,1-.457-.69,2.441,2.441,0,0,1-.154-.905,2.15,2.15,0,0,1,.29-1.121,2.572,2.572,0,0,1,.773-.817,3.607,3.607,0,0,1,1.1-.5,4.893,4.893,0,0,1,1.279-.167,5.164,5.164,0,0,1,2.092.4v1.459A4.077,4.077,0,0,0,78.445,11a2.671,2.671,0,0,0-.729.092,1.786,1.786,0,0,0-.558.259,1.2,1.2,0,0,0-.36.4,1.053,1.053,0,0,0-.127.514,1.233,1.233,0,0,0,.127.589,1.3,1.3,0,0,0,.374.422,2.855,2.855,0,0,0,.6.334q.352.149.8.325a11.131,11.131,0,0,1,1.072.47,3.678,3.678,0,0,1,.809.545,2.129,2.129,0,0,1,.514.7,2.254,2.254,0,0,1,.18.94,2.217,2.217,0,0,1-.294,1.16,2.523,2.523,0,0,1-.787.817,3.6,3.6,0,0,1-1.134.483,5.6,5.6,0,0,1-1.345.158A5.106,5.106,0,0,1,75.175,18.675Zm12.359.237a2.779,2.779,0,0,1-1.345.281q-2.364,0-2.364-2.637V11.23H82.279V10h1.547V7.8l1.441-.466V10h2.268v1.23H85.267V16.3a2.1,2.1,0,0,0,.308,1.292,1.228,1.228,0,0,0,1.02.387,1.515,1.515,0,0,0,.94-.3ZM90.2,7.715a.913.913,0,0,1-.659-.264.89.89,0,0,1-.272-.668.923.923,0,0,1,.932-.94.931.931,0,0,1,.672.268.939.939,0,0,1,0,1.332A.923.923,0,0,1,90.2,7.715ZM90.9,19H89.461V10H90.9Zm9.055-.413a4.684,4.684,0,0,1-2.461.624,4.074,4.074,0,0,1-3.107-1.252,4.539,4.539,0,0,1-1.182-3.248,4.99,4.99,0,0,1,1.274-3.573,4.458,4.458,0,0,1,3.4-1.349,4.735,4.735,0,0,1,2.092.439v1.477A3.665,3.665,0,0,0,97.83,11a2.9,2.9,0,0,0-2.263.989,3.752,3.752,0,0,0-.883,2.6,3.573,3.573,0,0,0,.831,2.5A2.863,2.863,0,0,0,97.742,18a3.613,3.613,0,0,0,2.215-.782Zm5.943.624a4.175,4.175,0,0,1-3.186-1.261,4.672,4.672,0,0,1-1.191-3.344,4.867,4.867,0,0,1,1.239-3.542,4.455,4.455,0,0,1,3.349-1.274,4.037,4.037,0,0,1,3.142,1.239,4.914,4.914,0,0,1,1.129,3.437,4.835,4.835,0,0,1-1.217,3.45A4.265,4.265,0,0,1,105.9,19.211ZM106.006,11a2.742,2.742,0,0,0-2.2.945A3.88,3.88,0,0,0,103,14.553a3.67,3.67,0,0,0,.817,2.522,2.778,2.778,0,0,0,2.188.923,2.635,2.635,0,0,0,2.149-.905,3.928,3.928,0,0,0,.751-2.575,4,4,0,0,0-.751-2.6A2.623,2.623,0,0,0,106.006,11Zm12.352-3.287a.913.913,0,0,1-.659-.264.89.89,0,0,1-.272-.668.923.923,0,0,1,.932-.94.931.931,0,0,1,.672.268.939.939,0,0,1,0,1.332A.923.923,0,0,1,118.358,7.715Zm.7,11.285H117.62V10h1.441Zm10.39,0H128.01V13.867q0-2.865-2.092-2.865a2.269,2.269,0,0,0-1.789.813,3.013,3.013,0,0,0-.708,2.052V19h-1.441V10h1.441v1.494h.035a3.248,3.248,0,0,1,2.953-1.705,2.753,2.753,0,0,1,2.259.954,4.248,4.248,0,0,1,.782,2.755Zm6.892-.088a2.779,2.779,0,0,1-1.345.281q-2.364,0-2.364-2.637V11.23h-1.547V10h1.547V7.8l1.441-.466V10h2.268v1.23h-2.268V16.3a2.1,2.1,0,0,0,.308,1.292,1.228,1.228,0,0,0,1.02.387,1.515,1.515,0,0,0,.94-.3Zm9.16-4.052h-6.354a3.366,3.366,0,0,0,.809,2.32,2.788,2.788,0,0,0,2.127.817,4.422,4.422,0,0,0,2.795-1V18.35a5.224,5.224,0,0,1-3.138.861,3.8,3.8,0,0,1-3-1.226,5.018,5.018,0,0,1-1.09-3.45,4.921,4.921,0,0,1,1.191-3.423A3.819,3.819,0,0,1,141.8,9.789a3.384,3.384,0,0,1,2.733,1.143A4.764,4.764,0,0,1,145.5,14.1Zm-1.477-1.222a2.933,2.933,0,0,0-.6-1.942A2.051,2.051,0,0,0,141.777,11a2.328,2.328,0,0,0-1.731.729,3.31,3.31,0,0,0-.879,1.907Zm8.351-2.18a1.763,1.763,0,0,0-1.09-.29,1.839,1.839,0,0,0-1.542.87,4.023,4.023,0,0,0-.62,2.373V19h-1.441V10h1.441v1.854h.035a3.143,3.143,0,0,1,.94-1.481,2.144,2.144,0,0,1,1.415-.532,2.353,2.353,0,0,1,.861.123ZM161.416,19h-1.441V13.867q0-2.865-2.092-2.865a2.269,2.269,0,0,0-1.789.813,3.013,3.013,0,0,0-.708,2.052V19h-1.441V10h1.441v1.494h.035a3.248,3.248,0,0,1,2.953-1.705,2.753,2.753,0,0,1,2.259.954,4.248,4.248,0,0,1,.782,2.755Zm6.479.211a4.175,4.175,0,0,1-3.186-1.261,4.672,4.672,0,0,1-1.191-3.344,4.867,4.867,0,0,1,1.239-3.542,4.455,4.455,0,0,1,3.349-1.274,4.037,4.037,0,0,1,3.142,1.239,4.914,4.914,0,0,1,1.129,3.437,4.835,4.835,0,0,1-1.217,3.45A4.265,4.265,0,0,1,167.9,19.211ZM168,11a2.742,2.742,0,0,0-2.2.945,3.88,3.88,0,0,0-.809,2.606,3.67,3.67,0,0,0,.817,2.522A2.778,2.778,0,0,0,168,18a2.635,2.635,0,0,0,2.149-.905,3.928,3.928,0,0,0,.751-2.575,4,4,0,0,0-.751-2.6A2.623,2.623,0,0,0,168,11Z" transform="translate(810 2250.771)" fill="#0b0a0a"/>
    <path id="Trazado_986749" data-name="Trazado 986749" d="M16.866,19V6.4h3.48q6.662,0,6.662,6.144a6.191,6.191,0,0,1-1.85,4.689A6.863,6.863,0,0,1,20.206,19ZM18.343,7.732v9.932h1.881a5.338,5.338,0,0,0,3.858-1.327,4.975,4.975,0,0,0,1.38-3.762q0-4.843-5.15-4.843Zm11.691-.018a.913.913,0,0,1-.659-.264.89.89,0,0,1-.272-.668.923.923,0,0,1,.932-.94.931.931,0,0,1,.672.268.939.939,0,0,1,0,1.332A.923.923,0,0,1,30.034,7.715ZM30.737,19H29.3V10h1.441ZM40.1,19H38.658V17.594h-.035a3.018,3.018,0,0,1-2.769,1.617,2.959,2.959,0,0,1-2.1-.712,2.466,2.466,0,0,1-.76-1.89q0-2.522,2.971-2.936l2.7-.378Q38.658,11,36.8,11a4.431,4.431,0,0,0-2.936,1.107V10.633a5.577,5.577,0,0,1,3.059-.844q3.173,0,3.173,3.357Zm-1.441-4.553-2.171.3a3.525,3.525,0,0,0-1.512.5,1.432,1.432,0,0,0-.51,1.261,1.374,1.374,0,0,0,.47,1.077A1.817,1.817,0,0,0,36.188,18a2.314,2.314,0,0,0,1.771-.751,2.685,2.685,0,0,0,.7-1.9ZM50.5,18.279q0,4.957-4.746,4.957a6.372,6.372,0,0,1-2.918-.633V21.162a5.993,5.993,0,0,0,2.9.844q3.322,0,3.322-3.533v-.984h-.035a3.641,3.641,0,0,1-5.8.523A4.8,4.8,0,0,1,42.2,14.79a5.6,5.6,0,0,1,1.1-3.647,3.685,3.685,0,0,1,3.019-1.354,2.934,2.934,0,0,1,2.7,1.459h.035V10H50.5Zm-1.441-3.349V13.6a2.575,2.575,0,0,0-.725-1.837A2.387,2.387,0,0,0,46.526,11a2.5,2.5,0,0,0-2.092.971,4.335,4.335,0,0,0-.756,2.72,3.721,3.721,0,0,0,.725,2.4,2.343,2.343,0,0,0,1.92.9,2.509,2.509,0,0,0,1.973-.861A3.21,3.21,0,0,0,49.057,14.931ZM60.889,19H59.448V13.867Q59.448,11,57.356,11a2.269,2.269,0,0,0-1.789.813,3.013,3.013,0,0,0-.708,2.052V19H53.418V10H54.86v1.494H54.9a3.248,3.248,0,0,1,2.953-1.705,2.753,2.753,0,0,1,2.259.954,4.248,4.248,0,0,1,.782,2.755Zm6.479.211a4.175,4.175,0,0,1-3.186-1.261,4.672,4.672,0,0,1-1.191-3.344,4.867,4.867,0,0,1,1.239-3.542,4.455,4.455,0,0,1,3.349-1.274,4.037,4.037,0,0,1,3.142,1.239,4.914,4.914,0,0,1,1.129,3.437,4.835,4.835,0,0,1-1.217,3.45A4.265,4.265,0,0,1,67.369,19.211ZM67.474,11a2.742,2.742,0,0,0-2.2.945,3.88,3.88,0,0,0-.809,2.606,3.67,3.67,0,0,0,.817,2.522A2.778,2.778,0,0,0,67.474,18a2.635,2.635,0,0,0,2.149-.905,3.928,3.928,0,0,0,.751-2.575,4,4,0,0,0-.751-2.6A2.623,2.623,0,0,0,67.474,11Zm2.109-5.59-2.3,2.883H66.164l1.96-2.883Zm4.027,13.263V17.128A4.266,4.266,0,0,0,76.2,18q1.9,0,1.9-1.266a1.1,1.1,0,0,0-.163-.611,1.62,1.62,0,0,0-.439-.444,3.383,3.383,0,0,0-.65-.347q-.374-.154-.8-.321a10.357,10.357,0,0,1-1.05-.479,3.173,3.173,0,0,1-.756-.545,2.028,2.028,0,0,1-.457-.69,2.441,2.441,0,0,1-.154-.905,2.15,2.15,0,0,1,.29-1.121,2.572,2.572,0,0,1,.773-.817,3.607,3.607,0,0,1,1.1-.5,4.893,4.893,0,0,1,1.279-.167,5.164,5.164,0,0,1,2.092.4v1.459A4.077,4.077,0,0,0,76.88,11a2.671,2.671,0,0,0-.729.092,1.786,1.786,0,0,0-.558.259,1.2,1.2,0,0,0-.36.4,1.053,1.053,0,0,0-.127.514,1.233,1.233,0,0,0,.127.589,1.3,1.3,0,0,0,.374.422,2.855,2.855,0,0,0,.6.334q.352.149.8.325a11.131,11.131,0,0,1,1.072.47,3.678,3.678,0,0,1,.809.545,2.129,2.129,0,0,1,.514.7,2.254,2.254,0,0,1,.18.94,2.217,2.217,0,0,1-.294,1.16,2.523,2.523,0,0,1-.787.817,3.6,3.6,0,0,1-1.134.483,5.6,5.6,0,0,1-1.345.158A5.106,5.106,0,0,1,73.611,18.675Zm12.359.237a2.779,2.779,0,0,1-1.345.281q-2.364,0-2.364-2.637V11.23H80.714V10h1.547V7.8L83.7,7.337V10H85.97v1.23H83.7V16.3a2.1,2.1,0,0,0,.308,1.292,1.228,1.228,0,0,0,1.02.387,1.515,1.515,0,0,0,.94-.3Zm2.665-11.2a.913.913,0,0,1-.659-.264.89.89,0,0,1-.272-.668.923.923,0,0,1,.932-.94.931.931,0,0,1,.672.268.939.939,0,0,1,0,1.332A.923.923,0,0,1,88.635,7.715ZM89.338,19H87.9V10h1.441Zm9.055-.413a4.684,4.684,0,0,1-2.461.624,4.074,4.074,0,0,1-3.107-1.252,4.539,4.539,0,0,1-1.182-3.248,4.99,4.99,0,0,1,1.274-3.573,4.458,4.458,0,0,1,3.4-1.349,4.735,4.735,0,0,1,2.092.439v1.477a3.665,3.665,0,0,0-2.145-.7A2.9,2.9,0,0,0,94,11.991a3.752,3.752,0,0,0-.883,2.6,3.573,3.573,0,0,0,.831,2.5A2.863,2.863,0,0,0,96.177,18a3.613,3.613,0,0,0,2.215-.782Zm5.943.624a4.175,4.175,0,0,1-3.186-1.261,4.672,4.672,0,0,1-1.191-3.344,4.867,4.867,0,0,1,1.239-3.542,4.455,4.455,0,0,1,3.349-1.274,4.037,4.037,0,0,1,3.142,1.239,4.914,4.914,0,0,1,1.129,3.437,4.835,4.835,0,0,1-1.217,3.45A4.265,4.265,0,0,1,104.336,19.211ZM104.441,11a2.742,2.742,0,0,0-2.2.945,3.88,3.88,0,0,0-.809,2.606,3.67,3.67,0,0,0,.817,2.522,2.778,2.778,0,0,0,2.188.923,2.635,2.635,0,0,0,2.149-.905,3.928,3.928,0,0,0,.751-2.575,4,4,0,0,0-.751-2.6A2.623,2.623,0,0,0,104.441,11Zm18.847,3.858h-6.354a3.366,3.366,0,0,0,.809,2.32,2.788,2.788,0,0,0,2.127.817,4.422,4.422,0,0,0,2.795-1V18.35a5.224,5.224,0,0,1-3.138.861,3.8,3.8,0,0,1-3-1.226,5.018,5.018,0,0,1-1.09-3.45,4.921,4.921,0,0,1,1.191-3.423,3.819,3.819,0,0,1,2.958-1.323,3.384,3.384,0,0,1,2.733,1.143,4.764,4.764,0,0,1,.967,3.173Zm-1.477-1.222a2.933,2.933,0,0,0-.6-1.942A2.051,2.051,0,0,0,119.562,11a2.328,2.328,0,0,0-1.731.729,3.31,3.31,0,0,0-.879,1.907ZM132.044,10l-3.023,4.553L131.991,19h-1.679l-1.767-2.918q-.167-.272-.4-.686h-.035q-.044.079-.413.686L125.9,19h-1.661l3.067-4.412L124.371,10h1.679l1.74,3.076q.193.343.378.7h.035L130.453,10Zm5.864,8.912a2.779,2.779,0,0,1-1.345.281q-2.364,0-2.364-2.637V11.23h-1.547V10H134.2V7.8l1.441-.466V10h2.268v1.23h-2.268V16.3a2.1,2.1,0,0,0,.308,1.292,1.228,1.228,0,0,0,1.02.387,1.515,1.515,0,0,0,.94-.3Zm9.16-4.052h-6.354a3.366,3.366,0,0,0,.809,2.32,2.788,2.788,0,0,0,2.127.817,4.422,4.422,0,0,0,2.795-1V18.35a5.224,5.224,0,0,1-3.138.861,3.8,3.8,0,0,1-3-1.226,5.018,5.018,0,0,1-1.09-3.45,4.921,4.921,0,0,1,1.191-3.423,3.819,3.819,0,0,1,2.958-1.323,3.384,3.384,0,0,1,2.733,1.143,4.764,4.764,0,0,1,.967,3.173Zm-1.477-1.222a2.933,2.933,0,0,0-.6-1.942A2.051,2.051,0,0,0,143.342,11a2.328,2.328,0,0,0-1.731.729,3.31,3.31,0,0,0-.879,1.907Zm8.351-2.18a1.763,1.763,0,0,0-1.09-.29,1.839,1.839,0,0,0-1.542.87,4.023,4.023,0,0,0-.62,2.373V19H149.25V10h1.441v1.854h.035a3.143,3.143,0,0,1,.94-1.481,2.144,2.144,0,0,1,1.415-.532,2.353,2.353,0,0,1,.861.123ZM162.98,19h-1.441V13.867q0-2.865-2.092-2.865a2.269,2.269,0,0,0-1.789.813,3.013,3.013,0,0,0-.708,2.052V19h-1.441V10h1.441v1.494h.035a3.248,3.248,0,0,1,2.953-1.705,2.753,2.753,0,0,1,2.259.954,4.248,4.248,0,0,1,.782,2.755Zm6.479.211a4.175,4.175,0,0,1-3.186-1.261,4.672,4.672,0,0,1-1.191-3.344,4.867,4.867,0,0,1,1.239-3.542,4.455,4.455,0,0,1,3.349-1.274,4.037,4.037,0,0,1,3.142,1.239,4.914,4.914,0,0,1,1.129,3.437,4.835,4.835,0,0,1-1.217,3.45A4.265,4.265,0,0,1,169.459,19.211ZM169.565,11a2.742,2.742,0,0,0-2.2.945,3.88,3.88,0,0,0-.809,2.606,3.67,3.67,0,0,0,.817,2.522,2.778,2.778,0,0,0,2.188.923,2.635,2.635,0,0,0,2.149-.905,3.928,3.928,0,0,0,.751-2.575,4,4,0,0,0-.751-2.6A2.623,2.623,0,0,0,169.565,11Z" transform="translate(810 2333.438)" fill="#0b0a0a"/>
    <path id="Trazado_986744" data-name="Trazado 986744" d="M95,0A95,95,0,1,1,0,95,95,95,0,0,1,95,0Z" transform="translate(600 2166.771)" fill="#a4f1d6"/>
    <path id="Trazado_986745" data-name="Trazado 986745" d="M69,0c38.108,0,69,31.116,69,69.5S107.108,139,69,139,0,107.884,0,69.5,30.892,0,69,0Z" transform="translate(626 2191.771)" fill="#01899b"/>
    <path id="Trazado_986746" data-name="Trazado 986746" d="M42,0C65.2,0,84,18.58,84,41.5S65.2,83,42,83,0,64.42,0,41.5,18.8,0,42,0Z" transform="translate(653 2219.771)" fill="#2e5bb6"/>
    <path id="Trazado_986409" data-name="Trazado 986409" d="M3832,2152.206h-114.02V2256.5" transform="translate(-3022 4.771)" fill="none" stroke="#ee9865" stroke-width="2"/>
    <path id="Trazado_986410" data-name="Trazado 986410" d="M3779,2287.771h-61.02" transform="translate(-2969 -23.435)" fill="none" stroke="#ee9865" stroke-width="2"/>
    <path id="Trazado_986411" data-name="Trazado 986411" d="M3832,2278.579h-114.02" transform="translate(-3022 65.859)" fill="none" stroke="#ee9865" stroke-width="2"/>
  </g>
</svg>
