<svg xmlns="http://www.w3.org/2000/svg" xmlns:xlink="http://www.w3.org/1999/xlink" width="108" height="108" viewBox="0 0 108 108">
  <defs>
    <filter id="Fondo" x="0" y="0" width="108" height="108" filterUnits="userSpaceOnUse">
      <feOffset dy="3" input="SourceAlpha"/>
      <feGaussianBlur stdDeviation="3" result="blur"/>
      <feFlood flood-opacity="0.161"/>
      <feComposite operator="in" in2="blur"/>
      <feComposite in="SourceGraphic"/>
    </filter>
    <clipPath id="clip-path">
      <rect id="Rectángulo_408290" data-name="Rectángulo 408290" width="54.961" height="54.461" fill="none"/>
    </clipPath>
  </defs>
  <g id="Grupo_1151829" data-name="Grupo 1151829" transform="translate(-1565.781 -5133.207)">
    <g id="Grupo_1151828" data-name="Grupo 1151828">
      <g id="Icono" transform="translate(1574.282 4444.207)">
        <g transform="matrix(1, 0, 0, 1, -8.5, 689)" filter="url(#Fondo)">
          <g id="Fondo-2" data-name="Fondo" transform="translate(9 6)" fill="#e6d567" stroke="#bca724" stroke-width="3">
            <circle cx="45" cy="45" r="45" stroke="none"/>
            <circle cx="45" cy="45" r="43.5" fill="none"/>
          </g>
        </g>
      </g>
    </g>
    <g id="Grupo_1151795" data-name="Grupo 1151795" transform="translate(1591.802 5158.151)">
      <g id="Grupo_1151794" data-name="Grupo 1151794" transform="translate(0 0)" clip-path="url(#clip-path)">
        <path id="Trazado_986489" data-name="Trazado 986489" d="M9.389,16.613H14.87A1.833,1.833,0,0,1,16.7,18.44v1.827a1.833,1.833,0,0,1-1.827,1.827H3.907A1.833,1.833,0,0,1,2.08,20.267V18.44a1.833,1.833,0,0,1,1.827-1.827H9.389Z" transform="translate(-0.18 -1.436)" fill="#ffa733"/>
        <path id="Trazado_986490" data-name="Trazado 986490" d="M9.389,22.613H14.87A1.833,1.833,0,0,1,16.7,24.44v1.827a1.833,1.833,0,0,1-1.827,1.827H3.907A1.833,1.833,0,0,1,2.08,26.267V24.44a1.833,1.833,0,0,1,1.827-1.827H9.389Z" transform="translate(-0.18 -1.955)" fill="#ee8700"/>
        <path id="Trazado_986491" data-name="Trazado 986491" d="M9.389,28.613H14.87A1.833,1.833,0,0,1,16.7,30.44v1.827a1.833,1.833,0,0,1-1.827,1.827H3.907A1.833,1.833,0,0,1,2.08,32.267V30.44a1.833,1.833,0,0,1,1.827-1.827H9.389Z" transform="translate(-0.18 -2.473)" fill="#ffa733"/>
        <path id="Trazado_986492" data-name="Trazado 986492" d="M9.389,34.613H14.87A1.833,1.833,0,0,1,16.7,36.44v1.827a1.833,1.833,0,0,1-1.827,1.827H3.907A1.833,1.833,0,0,1,2.08,38.267V36.44a1.833,1.833,0,0,1,1.827-1.827H9.389Z" transform="translate(-0.18 -2.992)" fill="#ee8700"/>
        <path id="Trazado_986493" data-name="Trazado 986493" d="M9.389,40.613H14.87A1.833,1.833,0,0,1,16.7,42.44v1.827a1.833,1.833,0,0,1-1.827,1.827H3.907A1.833,1.833,0,0,1,2.08,44.267V42.44a1.833,1.833,0,0,1,1.827-1.827H9.389Z" transform="translate(-0.18 -3.51)" fill="#ffa733"/>
        <path id="Trazado_986494" data-name="Trazado 986494" d="M9.389,52.613H14.87A1.833,1.833,0,0,1,16.7,54.44v1.827a1.833,1.833,0,0,1-1.827,1.827H3.907A1.833,1.833,0,0,1,2.08,56.267V54.44a1.833,1.833,0,0,1,1.827-1.827H9.389Z" transform="translate(-0.18 -4.547)" fill="#ffa733"/>
        <path id="Trazado_986495" data-name="Trazado 986495" d="M9.389,46.613H14.87A1.833,1.833,0,0,1,16.7,48.44v1.827a1.833,1.833,0,0,1-1.827,1.827H3.907A1.833,1.833,0,0,1,2.08,50.267V48.44a1.833,1.833,0,0,1,1.827-1.827H9.389Z" transform="translate(-0.18 -4.029)" fill="#ee8700"/>
        <path id="Trazado_986496" data-name="Trazado 986496" d="M9.389,10.613H14.87A1.833,1.833,0,0,1,16.7,12.44v1.827a1.833,1.833,0,0,1-1.827,1.827H3.907A1.833,1.833,0,0,1,2.08,14.267V12.44a1.833,1.833,0,0,1,1.827-1.827H9.389Z" transform="translate(-0.18 -0.918)" fill="#ee8700"/>
        <path id="Trazado_986497" data-name="Trazado 986497" d="M18.375,1.341l-.621,1.608a5.466,5.466,0,0,1-5.966,3.444L10.08,6.128,10.7,4.52a5.472,5.472,0,0,1,5.966-3.453Z" transform="translate(-0.871 -0.087)" fill="#00ccb3"/>
        <path id="Trazado_986498" data-name="Trazado 986498" d="M8.674,4.52,9.3,6.128l-1.708.265A5.466,5.466,0,0,1,1.621,2.949L1,1.341l1.708-.274A5.472,5.472,0,0,1,8.674,4.52" transform="translate(-0.086 -0.087)" fill="#00ccb3"/>
        <path id="Trazado_986499" data-name="Trazado 986499" d="M49.389,16.613H54.87A1.833,1.833,0,0,1,56.7,18.44v1.827a1.833,1.833,0,0,1-1.827,1.827H43.907a1.833,1.833,0,0,1-1.827-1.827V18.44a1.833,1.833,0,0,1,1.827-1.827h5.481Z" transform="translate(-3.637 -1.436)" fill="#ffa733"/>
        <path id="Trazado_986500" data-name="Trazado 986500" d="M49.389,22.613H54.87A1.833,1.833,0,0,1,56.7,24.44v1.827a1.833,1.833,0,0,1-1.827,1.827H43.907a1.833,1.833,0,0,1-1.827-1.827V24.44a1.833,1.833,0,0,1,1.827-1.827h5.481Z" transform="translate(-3.637 -1.955)" fill="#ee8700"/>
        <path id="Trazado_986501" data-name="Trazado 986501" d="M49.389,28.613H54.87A1.833,1.833,0,0,1,56.7,30.44v1.827a1.833,1.833,0,0,1-1.827,1.827H43.907a1.833,1.833,0,0,1-1.827-1.827V30.44a1.833,1.833,0,0,1,1.827-1.827h5.481Z" transform="translate(-3.637 -2.473)" fill="#ffa733"/>
        <path id="Trazado_986502" data-name="Trazado 986502" d="M49.389,34.613H54.87A1.833,1.833,0,0,1,56.7,36.44v1.827a1.833,1.833,0,0,1-1.827,1.827H43.907a1.833,1.833,0,0,1-1.827-1.827V36.44a1.833,1.833,0,0,1,1.827-1.827h5.481Z" transform="translate(-3.637 -2.992)" fill="#ee8700"/>
        <path id="Trazado_986503" data-name="Trazado 986503" d="M49.389,40.613H54.87A1.833,1.833,0,0,1,56.7,42.44v1.827a1.833,1.833,0,0,1-1.827,1.827H43.907a1.833,1.833,0,0,1-1.827-1.827V42.44a1.833,1.833,0,0,1,1.827-1.827h5.481Z" transform="translate(-3.637 -3.51)" fill="#ffa733"/>
        <path id="Trazado_986504" data-name="Trazado 986504" d="M49.389,52.613H54.87A1.833,1.833,0,0,1,56.7,54.44v1.827a1.833,1.833,0,0,1-1.827,1.827H43.907a1.833,1.833,0,0,1-1.827-1.827V54.44a1.833,1.833,0,0,1,1.827-1.827h5.481Z" transform="translate(-3.637 -4.547)" fill="#ffa733"/>
        <path id="Trazado_986505" data-name="Trazado 986505" d="M49.389,46.613H54.87A1.833,1.833,0,0,1,56.7,48.44v1.827a1.833,1.833,0,0,1-1.827,1.827H43.907a1.833,1.833,0,0,1-1.827-1.827V48.44a1.833,1.833,0,0,1,1.827-1.827h5.481Z" transform="translate(-3.637 -4.029)" fill="#ee8700"/>
        <path id="Trazado_986506" data-name="Trazado 986506" d="M49.389,10.613H54.87A1.833,1.833,0,0,1,56.7,12.44v1.827a1.833,1.833,0,0,1-1.827,1.827H43.907a1.833,1.833,0,0,1-1.827-1.827V12.44a1.833,1.833,0,0,1,1.827-1.827h5.481Z" transform="translate(-3.637 -0.918)" fill="#ee8700"/>
        <path id="Trazado_986507" data-name="Trazado 986507" d="M58.375,1.341l-.621,1.608a5.466,5.466,0,0,1-5.966,3.444L50.08,6.128,50.7,4.52a5.472,5.472,0,0,1,5.966-3.453Z" transform="translate(-4.328 -0.087)" fill="#00ccb3"/>
        <path id="Trazado_986508" data-name="Trazado 986508" d="M48.674,4.52,49.3,6.128l-1.708.265a5.466,5.466,0,0,1-5.966-3.444L41,1.341l1.708-.274A5.472,5.472,0,0,1,48.674,4.52" transform="translate(-3.543 -0.087)" fill="#00ccb3"/>
        <path id="Trazado_986509" data-name="Trazado 986509" d="M36.611,38.181l-5.481,4.568V40.009H21.08V36.354H31.129V33.613Z" transform="translate(-1.822 -2.905)" fill="#ffa733"/>
        <path id="Trazado_986510" data-name="Trazado 986510" d="M37.611,17.354v3.654H27.561v2.741L22.08,19.181l5.481-4.568v2.741Z" transform="translate(-1.908 -1.263)" fill="#ffa733"/>
        <path id="Trazado_986511" data-name="Trazado 986511" d="M58.3.8A.941.941,0,0,0,57.65.35L55.942.076A6.425,6.425,0,0,0,49.209,3.62,6.425,6.425,0,0,0,42.476.076L40.767.35A.941.941,0,0,0,40.119.8a.91.91,0,0,0-.055.786l.612,1.608a6.447,6.447,0,0,0,5.984,4.1,5.992,5.992,0,0,0,.987-.082l.649-.1V8.782H43.727a2.749,2.749,0,0,0-2.741,2.741V13.35a2.717,2.717,0,0,0,.713,1.827A2.717,2.717,0,0,0,40.987,17v1.827a2.717,2.717,0,0,0,.713,1.827,2.717,2.717,0,0,0-.713,1.827v1.827A2.717,2.717,0,0,0,41.7,26.14a2.717,2.717,0,0,0-.713,1.827v1.827a2.717,2.717,0,0,0,.713,1.827,2.717,2.717,0,0,0-.713,1.827v1.827A2.717,2.717,0,0,0,41.7,37.1a2.717,2.717,0,0,0-.713,1.827v1.827a2.717,2.717,0,0,0,.713,1.827,2.717,2.717,0,0,0-.713,1.827v1.827a2.717,2.717,0,0,0,.713,1.827,2.717,2.717,0,0,0-.713,1.827V51.72a2.749,2.749,0,0,0,2.741,2.741H54.69a2.749,2.749,0,0,0,2.741-2.741V49.893a2.717,2.717,0,0,0-.713-1.827,2.717,2.717,0,0,0,.713-1.827V44.412a2.717,2.717,0,0,0-.713-1.827,2.717,2.717,0,0,0,.713-1.827V38.93a2.717,2.717,0,0,0-.713-1.827,2.717,2.717,0,0,0,.713-1.827V33.449a2.717,2.717,0,0,0-.713-1.827,2.717,2.717,0,0,0,.713-1.827V27.967a2.717,2.717,0,0,0-.713-1.827,2.717,2.717,0,0,0,.713-1.827V22.486a2.717,2.717,0,0,0-.713-1.827,2.717,2.717,0,0,0,.713-1.827V17a2.717,2.717,0,0,0-.713-1.827,2.717,2.717,0,0,0,.713-1.827V11.523A2.749,2.749,0,0,0,54.69,8.782H50.122V7.11l.649.1a5.992,5.992,0,0,0,.987.082,6.447,6.447,0,0,0,5.984-4.1l.612-1.608A.91.91,0,0,0,58.3.8M47.363,5.411a4.6,4.6,0,0,1-4.979-2.878l-.21-.557.585-.091a4.593,4.593,0,0,1,4.979,2.878l.21.557ZM55.6,51.72a.916.916,0,0,1-.914.914H43.727a.916.916,0,0,1-.914-.914V49.893a.916.916,0,0,1,.914-.914h.914v1.827h1.827V48.98H48.3v1.827h1.827V48.98H51.95v1.827h1.827V48.98h.914a.916.916,0,0,1,.914.914Zm0-5.481a.916.916,0,0,1-.914.914H43.727a.916.916,0,0,1-.914-.914V44.412a.916.916,0,0,1,.914-.914h.914v1.827h1.827V43.5H48.3v1.827h1.827V43.5H51.95v1.827h1.827V43.5h.914a.916.916,0,0,1,.914.914Zm0-5.481a.916.916,0,0,1-.914.914H43.727a.916.916,0,0,1-.914-.914V38.93a.916.916,0,0,1,.914-.914h.914v1.827h1.827V38.017H48.3v1.827h1.827V38.017H51.95v1.827h1.827V38.017h.914a.916.916,0,0,1,.914.914Zm0-5.481a.916.916,0,0,1-.914.914H43.727a.916.916,0,0,1-.914-.914V33.449a.916.916,0,0,1,.914-.914h.914v1.827h1.827V32.535H48.3v1.827h1.827V32.535H51.95v1.827h1.827V32.535h.914a.916.916,0,0,1,.914.914Zm0-5.481a.916.916,0,0,1-.914.914H43.727a.916.916,0,0,1-.914-.914V27.967a.916.916,0,0,1,.914-.914h.914v1.827h1.827V27.054H48.3v1.827h1.827V27.054H51.95v1.827h1.827V27.054h.914a.916.916,0,0,1,.914.914Zm0-5.481a.916.916,0,0,1-.914.914H43.727a.916.916,0,0,1-.914-.914V22.486a.916.916,0,0,1,.914-.914h.914V23.4h1.827V21.572H48.3V23.4h1.827V21.572H51.95V23.4h1.827V21.572h.914a.916.916,0,0,1,.914.914Zm0-5.481a.916.916,0,0,1-.914.914H43.727a.916.916,0,0,1-.914-.914V17a.916.916,0,0,1,.914-.914h.914v1.827h1.827V16.091H48.3v1.827h1.827V16.091H51.95v1.827h1.827V16.091h.914A.916.916,0,0,1,55.6,17ZM51.95,10.609v1.827h1.827V10.609h.914a.916.916,0,0,1,.914.914V13.35a.916.916,0,0,1-.914.914H43.727a.916.916,0,0,1-.914-.914V11.523a.916.916,0,0,1,.914-.914h.914v1.827h1.827V10.609H48.3v1.827h1.827V10.609Zm4.084-8.076a4.587,4.587,0,0,1-4.979,2.878L50.47,5.32l.21-.557a4.587,4.587,0,0,1,4.979-2.878l.585.091Z" transform="translate(-3.457 0)"/>
        <path id="Trazado_986512" data-name="Trazado 986512" d="M18.3.8A.941.941,0,0,0,17.65.35L15.942.076A6.425,6.425,0,0,0,9.209,3.62,6.431,6.431,0,0,0,2.476.076L.767.35A.941.941,0,0,0,.119.8a.91.91,0,0,0-.055.786L.676,3.191a6.447,6.447,0,0,0,5.984,4.1,5.992,5.992,0,0,0,.987-.082l.649-.1V8.782H3.727A2.749,2.749,0,0,0,.987,11.523V13.35A2.717,2.717,0,0,0,1.7,15.177,2.717,2.717,0,0,0,.987,17v1.827A2.717,2.717,0,0,0,1.7,20.659a2.717,2.717,0,0,0-.713,1.827v1.827A2.717,2.717,0,0,0,1.7,26.14a2.717,2.717,0,0,0-.713,1.827v1.827A2.717,2.717,0,0,0,1.7,31.622a2.717,2.717,0,0,0-.713,1.827v1.827A2.717,2.717,0,0,0,1.7,37.1,2.717,2.717,0,0,0,.987,38.93v1.827A2.717,2.717,0,0,0,1.7,42.585a2.717,2.717,0,0,0-.713,1.827v1.827A2.717,2.717,0,0,0,1.7,48.066a2.717,2.717,0,0,0-.713,1.827V51.72a2.749,2.749,0,0,0,2.741,2.741H14.69a2.749,2.749,0,0,0,2.741-2.741V49.893a2.717,2.717,0,0,0-.713-1.827,2.717,2.717,0,0,0,.713-1.827V44.412a2.717,2.717,0,0,0-.713-1.827,2.717,2.717,0,0,0,.713-1.827V38.93a2.717,2.717,0,0,0-.713-1.827,2.717,2.717,0,0,0,.713-1.827V33.449a2.717,2.717,0,0,0-.713-1.827,2.717,2.717,0,0,0,.713-1.827V27.967a2.717,2.717,0,0,0-.713-1.827,2.717,2.717,0,0,0,.713-1.827V22.486a2.717,2.717,0,0,0-.713-1.827,2.717,2.717,0,0,0,.713-1.827V17a2.717,2.717,0,0,0-.713-1.827,2.717,2.717,0,0,0,.713-1.827V11.523A2.749,2.749,0,0,0,14.69,8.782H10.122V7.11l.649.1a5.992,5.992,0,0,0,.987.082,6.447,6.447,0,0,0,5.984-4.1l.612-1.608A.91.91,0,0,0,18.3.8M7.363,5.411A4.6,4.6,0,0,1,2.384,2.533l-.21-.557.585-.091A4.593,4.593,0,0,1,7.738,4.762l.21.557ZM15.6,51.72a.916.916,0,0,1-.914.914H3.727a.916.916,0,0,1-.914-.914V49.893a.916.916,0,0,1,.914-.914h.914v1.827H6.468V48.98H8.3v1.827h1.827V48.98H11.95v1.827h1.827V48.98h.914a.916.916,0,0,1,.914.914Zm0-5.481a.916.916,0,0,1-.914.914H3.727a.916.916,0,0,1-.914-.914V44.412a.916.916,0,0,1,.914-.914h.914v1.827H6.468V43.5H8.3v1.827h1.827V43.5H11.95v1.827h1.827V43.5h.914a.916.916,0,0,1,.914.914Zm0-5.481a.916.916,0,0,1-.914.914H3.727a.916.916,0,0,1-.914-.914V38.93a.916.916,0,0,1,.914-.914h.914v1.827H6.468V38.017H8.3v1.827h1.827V38.017H11.95v1.827h1.827V38.017h.914a.916.916,0,0,1,.914.914Zm0-5.481a.916.916,0,0,1-.914.914H3.727a.916.916,0,0,1-.914-.914V33.449a.916.916,0,0,1,.914-.914h.914v1.827H6.468V32.535H8.3v1.827h1.827V32.535H11.95v1.827h1.827V32.535h.914a.916.916,0,0,1,.914.914Zm0-5.481a.916.916,0,0,1-.914.914H3.727a.916.916,0,0,1-.914-.914V27.967a.916.916,0,0,1,.914-.914h.914v1.827H6.468V27.054H8.3v1.827h1.827V27.054H11.95v1.827h1.827V27.054h.914a.916.916,0,0,1,.914.914Zm0-5.481a.916.916,0,0,1-.914.914H3.727a.916.916,0,0,1-.914-.914V22.486a.916.916,0,0,1,.914-.914h.914V23.4H6.468V21.572H8.3V23.4h1.827V21.572H11.95V23.4h1.827V21.572h.914a.916.916,0,0,1,.914.914Zm0-5.481a.916.916,0,0,1-.914.914H3.727a.916.916,0,0,1-.914-.914V17a.916.916,0,0,1,.914-.914h.914v1.827H6.468V16.091H8.3v1.827h1.827V16.091H11.95v1.827h1.827V16.091h.914A.916.916,0,0,1,15.6,17ZM11.95,10.609v1.827h1.827V10.609h.914a.916.916,0,0,1,.914.914V13.35a.916.916,0,0,1-.914.914H3.727a.916.916,0,0,1-.914-.914V11.523a.916.916,0,0,1,.914-.914h.914v1.827H6.468V10.609H8.3v1.827h1.827V10.609Zm4.084-8.076a4.587,4.587,0,0,1-4.979,2.878L10.47,5.32l.21-.557a4.587,4.587,0,0,1,4.979-2.878l.585.091Z" transform="translate(0 0)"/>
        <path id="Trazado_986513" data-name="Trazado 986513" d="M28.389,14.527a.913.913,0,0,0-1.5-.7l-5.481,4.568a.913.913,0,0,0,0,1.4l5.481,4.568a.913.913,0,0,0,1.5-.7V21.835h9.136V20.008H27.475a.914.914,0,0,0-.914.914v.79l-3.141-2.617,3.141-2.617v.79a.914.914,0,0,0,.914.914H37.524V16.354H28.389Z" transform="translate(-1.822 -1.177)"/>
        <path id="Trazado_986514" data-name="Trazado 986514" d="M31.714,32.825a.913.913,0,0,0-1.5.7v1.827H21.08v1.827H31.129a.914.914,0,0,0,.914-.914v-.79l3.141,2.617-3.141,2.617v-.79a.914.914,0,0,0-.914-.914H21.08v1.827h9.136v1.827a.913.913,0,0,0,1.5.7L37.2,38.8a.913.913,0,0,0,0-1.4Z" transform="translate(-1.822 -2.819)"/>
      </g>
    </g>
  </g>
</svg>
