<svg xmlns="http://www.w3.org/2000/svg" width="610" height="560.7" viewBox="0 0 610 560.7">
  <g id="Grupo_1151830" data-name="Grupo 1151830" transform="translate(-554 -10507.947)">
    <path id="Trazado_986400" data-name="Trazado 986400" d="M104.778,28.527l-3.8.006A76.99,76.99,0,0,0,34.326,143.982l1.893,3.291a2,2,0,0,1,.192.456l82.745,143.322,151.38-87.659.226-174.927H105.239a1.772,1.772,0,0,1-.461.063" transform="translate(554.982 10509.108)" fill="#98cfd6"/>
    <path id="Trazado_986401" data-name="Trazado 986401" d="M489.584,28.527l3.8.006a76.99,76.99,0,0,1,66.655,115.448l-1.893,3.291a2.041,2.041,0,0,0-.19.456L475.205,291.051l-151.38-87.659L323.6,28.464H489.122a1.78,1.78,0,0,0,.462.063" transform="translate(567.199 10509.108)" fill="#bfcde9"/>
    <path id="Trazado_986402" data-name="Trazado 986402" d="M367.654,484.033l-1.9,3.286a76.99,76.99,0,0,1-133.308,0l-1.9-3.285a1.961,1.961,0,0,0-.3-.392L147.492,340.319l151.6-87.268,151.6,87.268L367.94,483.664a1.859,1.859,0,0,0-.286.369" transform="translate(560.016 10518.269)" fill="#fadfd0"/>
    <path id="Trazado_986403" data-name="Trazado 986403" d="M292.488,9.03a2.287,2.287,0,0,0-2.292,2.286l-.264,204.83L114.66,317.641,18.851,151.7a2.21,2.21,0,0,0-.221-.527l-2.191-3.81A89.142,89.142,0,0,1,93.614,13.687l4.4-.007a2.071,2.071,0,0,0,.535-.073H254.93v9.257l22.117-11.431L254.93,0V9.029H98.049a2.075,2.075,0,0,0-.542.072l-3.9.006A93.722,93.722,0,0,0,12.47,149.643l1.929,3.352a2.312,2.312,0,0,0,.223.534l97.22,168.387a2.288,2.288,0,0,0,3.129.836l178.4-103.3a2.286,2.286,0,0,0,1.141-1.977l.267-206.148a2.29,2.29,0,0,0-2.287-2.292" transform="translate(554 10507.947)" fill="#01899b"/>
    <path id="Trazado_986404" data-name="Trazado 986404" d="M301.625,226.5a2.293,2.293,0,0,0-2.285,0L120.679,329.34a2.289,2.289,0,1,0,2.283,3.969L300.482,231.121,476.016,332.165,380.208,498.111a2.271,2.271,0,0,0-.345.453l-2.206,3.8a89.141,89.141,0,0,1-154.35,0l-2.2-3.8a2.087,2.087,0,0,0-.331-.426L142.58,362.7l8.016-4.629-20.958-13.438,1.156,24.87,7.822-4.514,78.44,135.865a2.1,2.1,0,0,0,.333.433l1.956,3.373a93.721,93.721,0,0,0,162.274,0l1.942-3.349a2.255,2.255,0,0,0,.349-.458l97.218-168.387a2.289,2.289,0,0,0-.841-3.129Z" transform="translate(558.875 10517.173)" fill="#ee9865"/>
    <path id="Trazado_986405" data-name="Trazado 986405" d="M504.04,8.367l-3.871-.007a2.306,2.306,0,0,0-.574-.073H305.161a2.288,2.288,0,0,0-2.29,2.293l.266,206.148a2.294,2.294,0,0,0,1.142,1.979l178.4,103.3a2.292,2.292,0,0,0,3.129-.835v0a2.289,2.289,0,0,0-.835-3.125L307.715,215.4l-.261-202.539h191.61a2.307,2.307,0,0,0,.569.073l4.4.007a89.141,89.141,0,0,1,77.176,133.672l-2.191,3.808a2.155,2.155,0,0,0-.2.5L502.18,283.655l-7.919-4.571L493.1,303.954l20.959-13.438-7.918-4.572,76.882-133.162a2.025,2.025,0,0,0,.205-.5l1.945-3.379A93.719,93.719,0,0,0,504.04,8.367" transform="translate(566.354 10508.285)" fill="#2e5bb6"/>
    <path id="Trazado_986744" data-name="Trazado 986744" d="M30.669,18.693V24H27.2V8.6h5.436q5.822,0,5.822,4.909a4.71,4.71,0,0,1-1.67,3.754,6.618,6.618,0,0,1-4.463,1.434Zm0-7.434v4.8h1.364q2.771,0,2.771-2.428,0-2.374-2.771-2.374Zm16.887,4.8a2.945,2.945,0,0,0-1.429-.333,2.058,2.058,0,0,0-1.729.811,3.538,3.538,0,0,0-.623,2.208V24H40.38V13h3.395v2.041h.043a2.937,2.937,0,0,1,2.9-2.234,2.186,2.186,0,0,1,.838.129Zm11.376,3.405H51.756q.172,2.4,3.019,2.4A5.893,5.893,0,0,0,57.965,21v2.449A8.381,8.381,0,0,1,54,24.269a5.58,5.58,0,0,1-4.136-1.477,5.58,5.58,0,0,1-1.472-4.12,5.887,5.887,0,0,1,1.59-4.34,5.3,5.3,0,0,1,3.91-1.6,4.807,4.807,0,0,1,3.722,1.429,5.5,5.5,0,0,1,1.316,3.878Zm-3.147-2.084q0-2.363-1.912-2.363a1.826,1.826,0,0,0-1.413.677,3.072,3.072,0,0,0-.725,1.687Zm4.447,6.327V20.96a7.227,7.227,0,0,0,1.67.752,5.538,5.538,0,0,0,1.574.247,3.375,3.375,0,0,0,1.423-.247.8.8,0,0,0,.521-.752.7.7,0,0,0-.236-.537,2.2,2.2,0,0,0-.607-.376,6.888,6.888,0,0,0-.811-.29q-.44-.129-.849-.29a8.131,8.131,0,0,1-1.155-.532,3.338,3.338,0,0,1-.838-.661,2.6,2.6,0,0,1-.516-.87,3.472,3.472,0,0,1-.177-1.171,3.014,3.014,0,0,1,.4-1.59,3.29,3.29,0,0,1,1.074-1.09,4.908,4.908,0,0,1,1.536-.623,8.01,8.01,0,0,1,1.8-.2,9.984,9.984,0,0,1,1.482.113,11.064,11.064,0,0,1,1.482.328v2.621a5.357,5.357,0,0,0-1.38-.564,5.823,5.823,0,0,0-1.445-.188,3.2,3.2,0,0,0-.628.059,2.07,2.07,0,0,0-.521.172.957.957,0,0,0-.354.29.668.668,0,0,0-.129.4.744.744,0,0,0,.193.516,1.679,1.679,0,0,0,.5.371,4.984,4.984,0,0,0,.693.279q.381.124.757.252a9.847,9.847,0,0,1,1.225.516,3.916,3.916,0,0,1,.94.655,2.573,2.573,0,0,1,.6.881,3.524,3.524,0,0,1-.215,2.874,3.4,3.4,0,0,1-1.128,1.128,5.115,5.115,0,0,1-1.622.634,8.992,8.992,0,0,1-1.907.2A9.83,9.83,0,0,1,60.232,23.71ZM81.083,24H77.7V22.324h-.054a3.839,3.839,0,0,1-3.362,1.944q-3.824,0-3.824-4.63V13h3.384v6.338q0,2.331,1.848,2.331a1.828,1.828,0,0,0,1.461-.639,2.577,2.577,0,0,0,.548-1.735V13h3.384Zm6.295-1.278h-.043V29.06H83.94V13h3.395v1.654h.043a4.32,4.32,0,0,1,6.837-.457,6.243,6.243,0,0,1,1.166,3.991A6.767,6.767,0,0,1,94.021,22.6a4.431,4.431,0,0,1-3.615,1.665A3.425,3.425,0,0,1,87.377,22.722Zm-.1-4.512v.881a2.8,2.8,0,0,0,.6,1.858,1.958,1.958,0,0,0,1.579.72,2.081,2.081,0,0,0,1.8-.9,4.331,4.331,0,0,0,.639-2.541q0-2.9-2.256-2.9a2.118,2.118,0,0,0-1.7.79A3.149,3.149,0,0,0,87.281,18.21ZM108.035,24h-3.384V22.324H104.6a3.839,3.839,0,0,1-3.362,1.944q-3.824,0-3.824-4.63V13h3.384v6.338q0,2.331,1.848,2.331a1.828,1.828,0,0,0,1.461-.639,2.577,2.577,0,0,0,.548-1.735V13h3.384Zm12.74-4.533H113.6q.172,2.4,3.019,2.4a5.893,5.893,0,0,0,3.19-.859v2.449a8.381,8.381,0,0,1-3.964.816,5.58,5.58,0,0,1-4.136-1.477,5.58,5.58,0,0,1-1.472-4.12,5.887,5.887,0,0,1,1.59-4.34,5.3,5.3,0,0,1,3.91-1.6,4.807,4.807,0,0,1,3.722,1.429,5.5,5.5,0,0,1,1.316,3.878Zm-3.147-2.084q0-2.363-1.912-2.363a1.826,1.826,0,0,0-1.413.677,3.072,3.072,0,0,0-.725,1.687Zm4.447,6.327V20.96a7.227,7.227,0,0,0,1.67.752,5.539,5.539,0,0,0,1.574.247,3.375,3.375,0,0,0,1.423-.247.8.8,0,0,0,.521-.752.7.7,0,0,0-.236-.537,2.2,2.2,0,0,0-.607-.376,6.888,6.888,0,0,0-.811-.29q-.44-.129-.849-.29a8.131,8.131,0,0,1-1.155-.532,3.338,3.338,0,0,1-.838-.661,2.6,2.6,0,0,1-.516-.87,3.472,3.472,0,0,1-.177-1.171,3.014,3.014,0,0,1,.4-1.59,3.29,3.29,0,0,1,1.074-1.09,4.908,4.908,0,0,1,1.536-.623,8.01,8.01,0,0,1,1.8-.2,9.984,9.984,0,0,1,1.482.113,11.065,11.065,0,0,1,1.482.328v2.621a5.357,5.357,0,0,0-1.38-.564,5.823,5.823,0,0,0-1.445-.188,3.2,3.2,0,0,0-.628.059,2.07,2.07,0,0,0-.521.172.957.957,0,0,0-.354.29.668.668,0,0,0-.129.4.744.744,0,0,0,.193.516,1.679,1.679,0,0,0,.5.371,4.984,4.984,0,0,0,.693.279q.381.124.757.252a9.847,9.847,0,0,1,1.225.516,3.916,3.916,0,0,1,.94.655,2.573,2.573,0,0,1,.6.881,3.524,3.524,0,0,1-.215,2.874,3.4,3.4,0,0,1-1.128,1.128,5.115,5.115,0,0,1-1.622.634,8.992,8.992,0,0,1-1.907.2A9.83,9.83,0,0,1,122.075,23.71Zm17.048.161a5.017,5.017,0,0,1-2.267.4q-3.588,0-3.588-3.728V15.5h-1.783V13h1.783V10.626l3.384-.967V13h2.471v2.5h-2.471V19.95q0,1.719,1.364,1.719a2.3,2.3,0,0,0,1.106-.312Zm7.068.4a5.913,5.913,0,0,1-4.324-1.542,5.589,5.589,0,0,1-1.574-4.184,5.589,5.589,0,0,1,1.633-4.27,6.17,6.17,0,0,1,4.415-1.542,5.842,5.842,0,0,1,4.3,1.542A5.48,5.48,0,0,1,152.2,18.35a5.816,5.816,0,0,1-1.606,4.329A5.979,5.979,0,0,1,146.191,24.269Zm.086-8.937a2.264,2.264,0,0,0-1.869.827,3.647,3.647,0,0,0-.666,2.342q0,3.169,2.557,3.169,2.438,0,2.438-3.255Q148.737,15.331,146.277,15.331ZM171.231,24h-3.395V22.485h-.043a3.806,3.806,0,0,1-3.405,1.783,4.17,4.17,0,0,1-3.319-1.456,6.025,6.025,0,0,1-1.257-4.066,6.558,6.558,0,0,1,1.386-4.372,4.52,4.52,0,0,1,3.631-1.644,3.089,3.089,0,0,1,2.965,1.525h.043V7.715h3.395Zm-3.33-5.35v-.827a2.6,2.6,0,0,0-.623-1.783,2.2,2.2,0,0,0-3.384.177,4.115,4.115,0,0,0-.634,2.433,3.561,3.561,0,0,0,.612,2.234,2.174,2.174,0,0,0,3.378-.043A3.448,3.448,0,0,0,167.9,18.65Zm16.07.816H176.8q.172,2.4,3.019,2.4A5.893,5.893,0,0,0,183,21v2.449a8.381,8.381,0,0,1-3.964.816,5.58,5.58,0,0,1-4.136-1.477,5.58,5.58,0,0,1-1.472-4.12,5.887,5.887,0,0,1,1.59-4.34,5.3,5.3,0,0,1,3.91-1.6,4.807,4.807,0,0,1,3.722,1.429,5.5,5.5,0,0,1,1.316,3.878Zm-3.147-2.084q0-2.363-1.912-2.363a1.826,1.826,0,0,0-1.413.677,3.072,3.072,0,0,0-.725,1.687ZM83.4,39.4l-4.093,11H75.443l-3.9-11h3.631l1.912,6.778a9.9,9.9,0,0,1,.376,1.955h.043a11.1,11.1,0,0,1,.4-1.891L79.858,39.4Zm11.118,6.467H87.345q.172,2.4,3.019,2.4a5.893,5.893,0,0,0,3.19-.859v2.449a8.381,8.381,0,0,1-3.964.816,5.12,5.12,0,0,1-5.607-5.6,5.887,5.887,0,0,1,1.59-4.34,5.3,5.3,0,0,1,3.91-1.6,4.807,4.807,0,0,1,3.722,1.429,5.5,5.5,0,0,1,1.316,3.878Zm-3.147-2.084q0-2.363-1.912-2.363a1.826,1.826,0,0,0-1.413.677,3.072,3.072,0,0,0-.725,1.687ZM107.165,50.4h-3.384V44.288q0-2.557-1.826-2.557a1.812,1.812,0,0,0-1.45.677,2.578,2.578,0,0,0-.569,1.719V50.4H96.541v-11h3.395v1.74h.043a3.89,3.89,0,0,1,3.534-2.009q3.652,0,3.652,4.533Zm9.335-.129a5.017,5.017,0,0,1-2.267.4q-3.588,0-3.588-3.728V41.9h-1.783V39.4h1.783V37.026l3.384-.967V39.4H116.5v2.5h-2.471V46.35q0,1.719,1.364,1.719a2.3,2.3,0,0,0,1.106-.312Zm11.064.129h-3.212V48.821h-.043a3.585,3.585,0,0,1-3.276,1.848,3.427,3.427,0,0,1-2.519-.908,3.253,3.253,0,0,1-.918-2.422q0-3.2,3.792-3.7l2.986-.4q0-1.8-1.955-1.8a6.673,6.673,0,0,0-3.738,1.171V40.055a8.41,8.41,0,0,1,1.939-.645,10.192,10.192,0,0,1,2.24-.279q4.705,0,4.705,4.694Zm-3.19-4.469V45.19l-2,.258q-1.654.215-1.654,1.493a1.234,1.234,0,0,0,.4.951,1.548,1.548,0,0,0,1.09.371,2.01,2.01,0,0,0,1.558-.661A2.386,2.386,0,0,0,124.374,45.931Zm5.156,4.179V47.36a7.227,7.227,0,0,0,1.67.752,5.538,5.538,0,0,0,1.574.247,3.375,3.375,0,0,0,1.423-.247.8.8,0,0,0,.521-.752.7.7,0,0,0-.236-.537,2.2,2.2,0,0,0-.607-.376,6.887,6.887,0,0,0-.811-.29q-.44-.129-.849-.29a8.132,8.132,0,0,1-1.155-.532,3.338,3.338,0,0,1-.838-.661,2.6,2.6,0,0,1-.516-.87,3.472,3.472,0,0,1-.177-1.171,3.014,3.014,0,0,1,.4-1.59,3.29,3.29,0,0,1,1.074-1.09,4.908,4.908,0,0,1,1.536-.623,8.009,8.009,0,0,1,1.8-.2,9.984,9.984,0,0,1,1.482.113,11.065,11.065,0,0,1,1.482.328v2.621a5.357,5.357,0,0,0-1.38-.564,5.823,5.823,0,0,0-1.445-.188,3.2,3.2,0,0,0-.628.059,2.07,2.07,0,0,0-.521.172.957.957,0,0,0-.354.29.668.668,0,0,0-.129.4.744.744,0,0,0,.193.516,1.679,1.679,0,0,0,.5.371,4.985,4.985,0,0,0,.693.279q.381.124.757.252a9.846,9.846,0,0,1,1.225.516,3.916,3.916,0,0,1,.94.655,2.573,2.573,0,0,1,.6.881,3.524,3.524,0,0,1-.215,2.874,3.4,3.4,0,0,1-1.128,1.128,5.115,5.115,0,0,1-1.622.634,8.992,8.992,0,0,1-1.907.2A9.83,9.83,0,0,1,129.53,50.11Z" transform="translate(603 10614.645)" fill="#212429"/>
    <path id="Trazado_986745" data-name="Trazado 986745" d="M30.669,18.693V24H27.2V8.6h5.436q5.822,0,5.822,4.909a4.71,4.71,0,0,1-1.67,3.754,6.618,6.618,0,0,1-4.463,1.434Zm0-7.434v4.8h1.364q2.771,0,2.771-2.428,0-2.374-2.771-2.374Zm16.887,4.8a2.945,2.945,0,0,0-1.429-.333,2.058,2.058,0,0,0-1.729.811,3.538,3.538,0,0,0-.623,2.208V24H40.38V13h3.395v2.041h.043a2.937,2.937,0,0,1,2.9-2.234,2.186,2.186,0,0,1,.838.129Zm11.376,3.405H51.756q.172,2.4,3.019,2.4A5.893,5.893,0,0,0,57.965,21v2.449A8.381,8.381,0,0,1,54,24.269a5.58,5.58,0,0,1-4.136-1.477,5.58,5.58,0,0,1-1.472-4.12,5.887,5.887,0,0,1,1.59-4.34,5.3,5.3,0,0,1,3.91-1.6,4.807,4.807,0,0,1,3.722,1.429,5.5,5.5,0,0,1,1.316,3.878Zm-3.147-2.084q0-2.363-1.912-2.363a1.826,1.826,0,0,0-1.413.677,3.072,3.072,0,0,0-.725,1.687Zm4.447,6.327V20.96a7.227,7.227,0,0,0,1.67.752,5.538,5.538,0,0,0,1.574.247,3.375,3.375,0,0,0,1.423-.247.8.8,0,0,0,.521-.752.7.7,0,0,0-.236-.537,2.2,2.2,0,0,0-.607-.376,6.888,6.888,0,0,0-.811-.29q-.44-.129-.849-.29a8.131,8.131,0,0,1-1.155-.532,3.338,3.338,0,0,1-.838-.661,2.6,2.6,0,0,1-.516-.87,3.472,3.472,0,0,1-.177-1.171,3.014,3.014,0,0,1,.4-1.59,3.29,3.29,0,0,1,1.074-1.09,4.908,4.908,0,0,1,1.536-.623,8.01,8.01,0,0,1,1.8-.2,9.984,9.984,0,0,1,1.482.113,11.064,11.064,0,0,1,1.482.328v2.621a5.357,5.357,0,0,0-1.38-.564,5.823,5.823,0,0,0-1.445-.188,3.2,3.2,0,0,0-.628.059,2.07,2.07,0,0,0-.521.172.957.957,0,0,0-.354.29.668.668,0,0,0-.129.4.744.744,0,0,0,.193.516,1.679,1.679,0,0,0,.5.371,4.984,4.984,0,0,0,.693.279q.381.124.757.252a9.847,9.847,0,0,1,1.225.516,3.916,3.916,0,0,1,.94.655,2.573,2.573,0,0,1,.6.881,3.524,3.524,0,0,1-.215,2.874,3.4,3.4,0,0,1-1.128,1.128,5.115,5.115,0,0,1-1.622.634,8.992,8.992,0,0,1-1.907.2A9.83,9.83,0,0,1,60.232,23.71ZM81.083,24H77.7V22.324h-.054a3.839,3.839,0,0,1-3.362,1.944q-3.824,0-3.824-4.63V13h3.384v6.338q0,2.331,1.848,2.331a1.828,1.828,0,0,0,1.461-.639,2.577,2.577,0,0,0,.548-1.735V13h3.384Zm6.295-1.278h-.043V29.06H83.94V13h3.395v1.654h.043a4.32,4.32,0,0,1,6.837-.457,6.243,6.243,0,0,1,1.166,3.991A6.767,6.767,0,0,1,94.021,22.6a4.431,4.431,0,0,1-3.615,1.665A3.425,3.425,0,0,1,87.377,22.722Zm-.1-4.512v.881a2.8,2.8,0,0,0,.6,1.858,1.958,1.958,0,0,0,1.579.72,2.081,2.081,0,0,0,1.8-.9,4.331,4.331,0,0,0,.639-2.541q0-2.9-2.256-2.9a2.118,2.118,0,0,0-1.7.79A3.149,3.149,0,0,0,87.281,18.21ZM108.035,24h-3.384V22.324H104.6a3.839,3.839,0,0,1-3.362,1.944q-3.824,0-3.824-4.63V13h3.384v6.338q0,2.331,1.848,2.331a1.828,1.828,0,0,0,1.461-.639,2.577,2.577,0,0,0,.548-1.735V13h3.384Zm12.74-4.533H113.6q.172,2.4,3.019,2.4a5.893,5.893,0,0,0,3.19-.859v2.449a8.381,8.381,0,0,1-3.964.816,5.58,5.58,0,0,1-4.136-1.477,5.58,5.58,0,0,1-1.472-4.12,5.887,5.887,0,0,1,1.59-4.34,5.3,5.3,0,0,1,3.91-1.6,4.807,4.807,0,0,1,3.722,1.429,5.5,5.5,0,0,1,1.316,3.878Zm-3.147-2.084q0-2.363-1.912-2.363a1.826,1.826,0,0,0-1.413.677,3.072,3.072,0,0,0-.725,1.687Zm4.447,6.327V20.96a7.227,7.227,0,0,0,1.67.752,5.539,5.539,0,0,0,1.574.247,3.375,3.375,0,0,0,1.423-.247.8.8,0,0,0,.521-.752.7.7,0,0,0-.236-.537,2.2,2.2,0,0,0-.607-.376,6.888,6.888,0,0,0-.811-.29q-.44-.129-.849-.29a8.131,8.131,0,0,1-1.155-.532,3.338,3.338,0,0,1-.838-.661,2.6,2.6,0,0,1-.516-.87,3.472,3.472,0,0,1-.177-1.171,3.014,3.014,0,0,1,.4-1.59,3.29,3.29,0,0,1,1.074-1.09,4.908,4.908,0,0,1,1.536-.623,8.01,8.01,0,0,1,1.8-.2,9.984,9.984,0,0,1,1.482.113,11.065,11.065,0,0,1,1.482.328v2.621a5.357,5.357,0,0,0-1.38-.564,5.823,5.823,0,0,0-1.445-.188,3.2,3.2,0,0,0-.628.059,2.07,2.07,0,0,0-.521.172.957.957,0,0,0-.354.29.668.668,0,0,0-.129.4.744.744,0,0,0,.193.516,1.679,1.679,0,0,0,.5.371,4.984,4.984,0,0,0,.693.279q.381.124.757.252a9.847,9.847,0,0,1,1.225.516,3.916,3.916,0,0,1,.94.655,2.573,2.573,0,0,1,.6.881,3.524,3.524,0,0,1-.215,2.874,3.4,3.4,0,0,1-1.128,1.128,5.115,5.115,0,0,1-1.622.634,8.992,8.992,0,0,1-1.907.2A9.83,9.83,0,0,1,122.075,23.71Zm17.048.161a5.017,5.017,0,0,1-2.267.4q-3.588,0-3.588-3.728V15.5h-1.783V13h1.783V10.626l3.384-.967V13h2.471v2.5h-2.471V19.95q0,1.719,1.364,1.719a2.3,2.3,0,0,0,1.106-.312Zm7.068.4a5.913,5.913,0,0,1-4.324-1.542,5.589,5.589,0,0,1-1.574-4.184,5.589,5.589,0,0,1,1.633-4.27,6.17,6.17,0,0,1,4.415-1.542,5.842,5.842,0,0,1,4.3,1.542A5.48,5.48,0,0,1,152.2,18.35a5.816,5.816,0,0,1-1.606,4.329A5.979,5.979,0,0,1,146.191,24.269Zm.086-8.937a2.264,2.264,0,0,0-1.869.827,3.647,3.647,0,0,0-.666,2.342q0,3.169,2.557,3.169,2.438,0,2.438-3.255Q148.737,15.331,146.277,15.331ZM171.231,24h-3.395V22.485h-.043a3.806,3.806,0,0,1-3.405,1.783,4.17,4.17,0,0,1-3.319-1.456,6.025,6.025,0,0,1-1.257-4.066,6.558,6.558,0,0,1,1.386-4.372,4.52,4.52,0,0,1,3.631-1.644,3.089,3.089,0,0,1,2.965,1.525h.043V7.715h3.395Zm-3.33-5.35v-.827a2.6,2.6,0,0,0-.623-1.783,2.2,2.2,0,0,0-3.384.177,4.115,4.115,0,0,0-.634,2.433,3.561,3.561,0,0,0,.612,2.234,2.174,2.174,0,0,0,3.378-.043A3.448,3.448,0,0,0,167.9,18.65Zm16.07.816H176.8q.172,2.4,3.019,2.4A5.893,5.893,0,0,0,183,21v2.449a8.381,8.381,0,0,1-3.964.816,5.58,5.58,0,0,1-4.136-1.477,5.58,5.58,0,0,1-1.472-4.12,5.887,5.887,0,0,1,1.59-4.34,5.3,5.3,0,0,1,3.91-1.6,4.807,4.807,0,0,1,3.722,1.429,5.5,5.5,0,0,1,1.316,3.878Zm-3.147-2.084q0-2.363-1.912-2.363a1.826,1.826,0,0,0-1.413.677,3.072,3.072,0,0,0-.725,1.687ZM51.461,49.122h-.043V55.46H48.023V39.4h3.395v1.654h.043A4.32,4.32,0,0,1,58.3,40.6a6.243,6.243,0,0,1,1.166,3.991A6.767,6.767,0,0,1,58.1,49a4.431,4.431,0,0,1-3.615,1.665A3.425,3.425,0,0,1,51.461,49.122Zm-.1-4.512v.881a2.8,2.8,0,0,0,.6,1.858,1.958,1.958,0,0,0,1.579.72,2.081,2.081,0,0,0,1.8-.9,4.331,4.331,0,0,0,.639-2.541q0-2.9-2.256-2.9a2.118,2.118,0,0,0-1.7.79A3.149,3.149,0,0,0,51.364,44.61Zm17.478-2.148a2.945,2.945,0,0,0-1.429-.333,2.058,2.058,0,0,0-1.729.811,3.538,3.538,0,0,0-.623,2.208V50.4H61.666v-11h3.395v2.041H65.1A2.937,2.937,0,0,1,68,39.207a2.186,2.186,0,0,1,.838.129Zm6.735,8.207a5.913,5.913,0,0,1-4.324-1.542,5.589,5.589,0,0,1-1.574-4.184,5.589,5.589,0,0,1,1.633-4.27,6.17,6.17,0,0,1,4.415-1.542,5.842,5.842,0,0,1,4.3,1.542,5.479,5.479,0,0,1,1.558,4.077,5.816,5.816,0,0,1-1.606,4.329A5.979,5.979,0,0,1,75.577,50.669Zm.086-8.937a2.264,2.264,0,0,0-1.869.827,3.647,3.647,0,0,0-.666,2.342q0,3.169,2.557,3.169,2.438,0,2.438-3.255Q78.123,41.731,75.663,41.731ZM94.548,50.4H91.153V48.885H91.11a3.806,3.806,0,0,1-3.405,1.783,4.17,4.17,0,0,1-3.319-1.456,6.025,6.025,0,0,1-1.257-4.066,6.558,6.558,0,0,1,1.386-4.372,4.52,4.52,0,0,1,3.631-1.644,3.089,3.089,0,0,1,2.965,1.525h.043V34.115h3.395Zm-3.33-5.35v-.827a2.6,2.6,0,0,0-.623-1.783,2.2,2.2,0,0,0-3.384.177,4.116,4.116,0,0,0-.634,2.433,3.561,3.561,0,0,0,.612,2.234,2.174,2.174,0,0,0,3.378-.043A3.448,3.448,0,0,0,91.218,45.05Zm16.64,5.35h-3.384V48.724h-.054a3.839,3.839,0,0,1-3.362,1.944q-3.824,0-3.824-4.63V39.4h3.384v6.338q0,2.331,1.848,2.331a1.828,1.828,0,0,0,1.461-.639,2.577,2.577,0,0,0,.548-1.735V39.4h3.384Zm11.193-.4a6.712,6.712,0,0,1-3.319.666,5.614,5.614,0,0,1-4.1-1.536,5.305,5.305,0,0,1-1.568-3.964,5.845,5.845,0,0,1,1.681-4.42,6.213,6.213,0,0,1,4.5-1.617,5.768,5.768,0,0,1,2.814.516v2.879a3.87,3.87,0,0,0-2.374-.795,3.128,3.128,0,0,0-2.315.854,3.187,3.187,0,0,0-.854,2.358,3.135,3.135,0,0,0,.816,2.293,3,3,0,0,0,2.245.833,4.48,4.48,0,0,0,2.481-.795Zm10.56,0a6.712,6.712,0,0,1-3.319.666,5.614,5.614,0,0,1-4.1-1.536,5.305,5.305,0,0,1-1.568-3.964,5.845,5.845,0,0,1,1.681-4.42,6.213,6.213,0,0,1,4.5-1.617,5.768,5.768,0,0,1,2.814.516v2.879a3.87,3.87,0,0,0-2.374-.795,3.128,3.128,0,0,0-2.315.854,3.187,3.187,0,0,0-.854,2.358,3.135,3.135,0,0,0,.816,2.293,3,3,0,0,0,2.245.833,4.48,4.48,0,0,0,2.481-.795Zm3.942-12.343a1.983,1.983,0,0,1-1.407-.51A1.644,1.644,0,0,1,131.6,35.9a1.586,1.586,0,0,1,.548-1.246,2.3,2.3,0,0,1,2.82,0,1.593,1.593,0,0,1,.542,1.246,1.638,1.638,0,0,1-.542,1.268A2.016,2.016,0,0,1,133.553,37.66Zm1.676,12.74h-3.395v-11h3.395Zm8.1.269A5.913,5.913,0,0,1,139,49.127a5.589,5.589,0,0,1-1.574-4.184,5.589,5.589,0,0,1,1.633-4.27,6.17,6.17,0,0,1,4.415-1.542,5.842,5.842,0,0,1,4.3,1.542,5.48,5.48,0,0,1,1.558,4.077,5.816,5.816,0,0,1-1.606,4.329A5.979,5.979,0,0,1,143.328,50.669Zm.086-8.937a2.264,2.264,0,0,0-1.869.827,3.647,3.647,0,0,0-.666,2.342q0,3.169,2.557,3.169,2.438,0,2.438-3.255Q145.874,41.731,143.414,41.731Zm3.642-7.541-3.362,3.47h-2.449l2.793-3.47ZM162.148,50.4h-3.384V44.288q0-2.557-1.826-2.557a1.812,1.812,0,0,0-1.45.677,2.578,2.578,0,0,0-.569,1.719V50.4h-3.395v-11h3.395v1.74h.043a3.89,3.89,0,0,1,3.534-2.009q3.652,0,3.652,4.533Z" transform="translate(906 10614.645)" fill="#212429"/>
    <path id="Trazado_986746" data-name="Trazado 986746" d="M30.669,18.693V24H27.2V8.6h5.436q5.822,0,5.822,4.909a4.71,4.71,0,0,1-1.67,3.754,6.618,6.618,0,0,1-4.463,1.434Zm0-7.434v4.8h1.364q2.771,0,2.771-2.428,0-2.374-2.771-2.374Zm16.887,4.8a2.945,2.945,0,0,0-1.429-.333,2.058,2.058,0,0,0-1.729.811,3.538,3.538,0,0,0-.623,2.208V24H40.38V13h3.395v2.041h.043a2.937,2.937,0,0,1,2.9-2.234,2.186,2.186,0,0,1,.838.129Zm11.376,3.405H51.756q.172,2.4,3.019,2.4A5.893,5.893,0,0,0,57.965,21v2.449A8.381,8.381,0,0,1,54,24.269a5.58,5.58,0,0,1-4.136-1.477,5.58,5.58,0,0,1-1.472-4.12,5.887,5.887,0,0,1,1.59-4.34,5.3,5.3,0,0,1,3.91-1.6,4.807,4.807,0,0,1,3.722,1.429,5.5,5.5,0,0,1,1.316,3.878Zm-3.147-2.084q0-2.363-1.912-2.363a1.826,1.826,0,0,0-1.413.677,3.072,3.072,0,0,0-.725,1.687Zm4.447,6.327V20.96a7.227,7.227,0,0,0,1.67.752,5.538,5.538,0,0,0,1.574.247,3.375,3.375,0,0,0,1.423-.247.8.8,0,0,0,.521-.752.7.7,0,0,0-.236-.537,2.2,2.2,0,0,0-.607-.376,6.888,6.888,0,0,0-.811-.29q-.44-.129-.849-.29a8.131,8.131,0,0,1-1.155-.532,3.338,3.338,0,0,1-.838-.661,2.6,2.6,0,0,1-.516-.87,3.472,3.472,0,0,1-.177-1.171,3.014,3.014,0,0,1,.4-1.59,3.29,3.29,0,0,1,1.074-1.09,4.908,4.908,0,0,1,1.536-.623,8.01,8.01,0,0,1,1.8-.2,9.984,9.984,0,0,1,1.482.113,11.064,11.064,0,0,1,1.482.328v2.621a5.357,5.357,0,0,0-1.38-.564,5.823,5.823,0,0,0-1.445-.188,3.2,3.2,0,0,0-.628.059,2.07,2.07,0,0,0-.521.172.957.957,0,0,0-.354.29.668.668,0,0,0-.129.4.744.744,0,0,0,.193.516,1.679,1.679,0,0,0,.5.371,4.984,4.984,0,0,0,.693.279q.381.124.757.252a9.847,9.847,0,0,1,1.225.516,3.916,3.916,0,0,1,.94.655,2.573,2.573,0,0,1,.6.881,3.524,3.524,0,0,1-.215,2.874,3.4,3.4,0,0,1-1.128,1.128,5.115,5.115,0,0,1-1.622.634,8.992,8.992,0,0,1-1.907.2A9.83,9.83,0,0,1,60.232,23.71ZM81.083,24H77.7V22.324h-.054a3.839,3.839,0,0,1-3.362,1.944q-3.824,0-3.824-4.63V13h3.384v6.338q0,2.331,1.848,2.331a1.828,1.828,0,0,0,1.461-.639,2.577,2.577,0,0,0,.548-1.735V13h3.384Zm6.295-1.278h-.043V29.06H83.94V13h3.395v1.654h.043a4.32,4.32,0,0,1,6.837-.457,6.243,6.243,0,0,1,1.166,3.991A6.767,6.767,0,0,1,94.021,22.6a4.431,4.431,0,0,1-3.615,1.665A3.425,3.425,0,0,1,87.377,22.722Zm-.1-4.512v.881a2.8,2.8,0,0,0,.6,1.858,1.958,1.958,0,0,0,1.579.72,2.081,2.081,0,0,0,1.8-.9,4.331,4.331,0,0,0,.639-2.541q0-2.9-2.256-2.9a2.118,2.118,0,0,0-1.7.79A3.149,3.149,0,0,0,87.281,18.21ZM108.035,24h-3.384V22.324H104.6a3.839,3.839,0,0,1-3.362,1.944q-3.824,0-3.824-4.63V13h3.384v6.338q0,2.331,1.848,2.331a1.828,1.828,0,0,0,1.461-.639,2.577,2.577,0,0,0,.548-1.735V13h3.384Zm12.74-4.533H113.6q.172,2.4,3.019,2.4a5.893,5.893,0,0,0,3.19-.859v2.449a8.381,8.381,0,0,1-3.964.816,5.58,5.58,0,0,1-4.136-1.477,5.58,5.58,0,0,1-1.472-4.12,5.887,5.887,0,0,1,1.59-4.34,5.3,5.3,0,0,1,3.91-1.6,4.807,4.807,0,0,1,3.722,1.429,5.5,5.5,0,0,1,1.316,3.878Zm-3.147-2.084q0-2.363-1.912-2.363a1.826,1.826,0,0,0-1.413.677,3.072,3.072,0,0,0-.725,1.687Zm4.447,6.327V20.96a7.227,7.227,0,0,0,1.67.752,5.539,5.539,0,0,0,1.574.247,3.375,3.375,0,0,0,1.423-.247.8.8,0,0,0,.521-.752.7.7,0,0,0-.236-.537,2.2,2.2,0,0,0-.607-.376,6.888,6.888,0,0,0-.811-.29q-.44-.129-.849-.29a8.131,8.131,0,0,1-1.155-.532,3.338,3.338,0,0,1-.838-.661,2.6,2.6,0,0,1-.516-.87,3.472,3.472,0,0,1-.177-1.171,3.014,3.014,0,0,1,.4-1.59,3.29,3.29,0,0,1,1.074-1.09,4.908,4.908,0,0,1,1.536-.623,8.01,8.01,0,0,1,1.8-.2,9.984,9.984,0,0,1,1.482.113,11.065,11.065,0,0,1,1.482.328v2.621a5.357,5.357,0,0,0-1.38-.564,5.823,5.823,0,0,0-1.445-.188,3.2,3.2,0,0,0-.628.059,2.07,2.07,0,0,0-.521.172.957.957,0,0,0-.354.29.668.668,0,0,0-.129.4.744.744,0,0,0,.193.516,1.679,1.679,0,0,0,.5.371,4.984,4.984,0,0,0,.693.279q.381.124.757.252a9.847,9.847,0,0,1,1.225.516,3.916,3.916,0,0,1,.94.655,2.573,2.573,0,0,1,.6.881,3.524,3.524,0,0,1-.215,2.874,3.4,3.4,0,0,1-1.128,1.128,5.115,5.115,0,0,1-1.622.634,8.992,8.992,0,0,1-1.907.2A9.83,9.83,0,0,1,122.075,23.71Zm17.048.161a5.017,5.017,0,0,1-2.267.4q-3.588,0-3.588-3.728V15.5h-1.783V13h1.783V10.626l3.384-.967V13h2.471v2.5h-2.471V19.95q0,1.719,1.364,1.719a2.3,2.3,0,0,0,1.106-.312Zm7.068.4a5.913,5.913,0,0,1-4.324-1.542,5.589,5.589,0,0,1-1.574-4.184,5.589,5.589,0,0,1,1.633-4.27,6.17,6.17,0,0,1,4.415-1.542,5.842,5.842,0,0,1,4.3,1.542A5.48,5.48,0,0,1,152.2,18.35a5.816,5.816,0,0,1-1.606,4.329A5.979,5.979,0,0,1,146.191,24.269Zm.086-8.937a2.264,2.264,0,0,0-1.869.827,3.647,3.647,0,0,0-.666,2.342q0,3.169,2.557,3.169,2.438,0,2.438-3.255Q148.737,15.331,146.277,15.331ZM171.231,24h-3.395V22.485h-.043a3.806,3.806,0,0,1-3.405,1.783,4.17,4.17,0,0,1-3.319-1.456,6.025,6.025,0,0,1-1.257-4.066,6.558,6.558,0,0,1,1.386-4.372,4.52,4.52,0,0,1,3.631-1.644,3.089,3.089,0,0,1,2.965,1.525h.043V7.715h3.395Zm-3.33-5.35v-.827a2.6,2.6,0,0,0-.623-1.783,2.2,2.2,0,0,0-3.384.177,4.115,4.115,0,0,0-.634,2.433,3.561,3.561,0,0,0,.612,2.234,2.174,2.174,0,0,0,3.378-.043A3.448,3.448,0,0,0,167.9,18.65Zm16.07.816H176.8q.172,2.4,3.019,2.4A5.893,5.893,0,0,0,183,21v2.449a8.381,8.381,0,0,1-3.964.816,5.58,5.58,0,0,1-4.136-1.477,5.58,5.58,0,0,1-1.472-4.12,5.887,5.887,0,0,1,1.59-4.34,5.3,5.3,0,0,1,3.91-1.6,4.807,4.807,0,0,1,3.722,1.429,5.5,5.5,0,0,1,1.316,3.878Zm-3.147-2.084q0-2.363-1.912-2.363a1.826,1.826,0,0,0-1.413.677,3.072,3.072,0,0,0-.725,1.687ZM26.19,49.143a6.223,6.223,0,0,1-1.772,4.743,7.183,7.183,0,0,1-5.135,1.681,8.139,8.139,0,0,1-3.523-.634V52.076a6.747,6.747,0,0,0,3.427.988,3.691,3.691,0,0,0,2.664-.908,3.257,3.257,0,0,0,.945-2.465v-.87h-.043a3.791,3.791,0,0,1-3.427,1.848,4.122,4.122,0,0,1-3.341-1.482,6.012,6.012,0,0,1-1.235-3.975,6.7,6.7,0,0,1,1.375-4.437,4.489,4.489,0,0,1,3.62-1.644,3.341,3.341,0,0,1,3.008,1.547H22.8V39.4H26.19Zm-3.352-4.028v-.87a2.674,2.674,0,0,0-.618-1.778,2,2,0,0,0-1.606-.736,2.076,2.076,0,0,0-1.772.881,4.142,4.142,0,0,0-.645,2.481,3.5,3.5,0,0,0,.612,2.175,2,2,0,0,0,1.676.8,2.077,2.077,0,0,0,1.7-.811A3.325,3.325,0,0,0,22.838,45.115ZM38.178,50.4H34.966V48.821h-.043a3.585,3.585,0,0,1-3.276,1.848,3.427,3.427,0,0,1-2.519-.908,3.253,3.253,0,0,1-.918-2.422q0-3.2,3.792-3.7l2.986-.4q0-1.8-1.955-1.8a6.673,6.673,0,0,0-3.738,1.171V40.055a8.41,8.41,0,0,1,1.939-.645,10.192,10.192,0,0,1,2.24-.279q4.705,0,4.705,4.694Zm-3.19-4.469V45.19l-2,.258q-1.654.215-1.654,1.493a1.234,1.234,0,0,0,.4.951,1.548,1.548,0,0,0,1.09.371,2.01,2.01,0,0,0,1.558-.661A2.386,2.386,0,0,0,34.988,45.931Zm5.156,4.179V47.36a7.227,7.227,0,0,0,1.67.752,5.538,5.538,0,0,0,1.574.247,3.375,3.375,0,0,0,1.423-.247.8.8,0,0,0,.521-.752.7.7,0,0,0-.236-.537,2.2,2.2,0,0,0-.607-.376,6.887,6.887,0,0,0-.811-.29q-.44-.129-.849-.29a8.131,8.131,0,0,1-1.155-.532,3.338,3.338,0,0,1-.838-.661,2.6,2.6,0,0,1-.516-.87,3.472,3.472,0,0,1-.177-1.171,3.014,3.014,0,0,1,.4-1.59,3.29,3.29,0,0,1,1.074-1.09,4.908,4.908,0,0,1,1.536-.623,8.009,8.009,0,0,1,1.8-.2,9.984,9.984,0,0,1,1.482.113,11.064,11.064,0,0,1,1.482.328v2.621a5.356,5.356,0,0,0-1.38-.564,5.823,5.823,0,0,0-1.445-.188,3.2,3.2,0,0,0-.628.059,2.07,2.07,0,0,0-.521.172.957.957,0,0,0-.354.29.668.668,0,0,0-.129.4.744.744,0,0,0,.193.516,1.679,1.679,0,0,0,.5.371,4.984,4.984,0,0,0,.693.279q.381.124.757.252a9.846,9.846,0,0,1,1.225.516,3.916,3.916,0,0,1,.94.655,2.573,2.573,0,0,1,.6.881,3.524,3.524,0,0,1-.215,2.874,3.4,3.4,0,0,1-1.128,1.128,5.115,5.115,0,0,1-1.622.634,8.992,8.992,0,0,1-1.907.2A9.83,9.83,0,0,1,40.144,50.11Zm17.048.161a5.017,5.017,0,0,1-2.267.4q-3.588,0-3.588-3.728V41.9H49.554V39.4h1.783V37.026l3.384-.967V39.4h2.471v2.5H54.721V46.35q0,1.719,1.364,1.719a2.3,2.3,0,0,0,1.106-.312Zm7.068.4a5.913,5.913,0,0,1-4.324-1.542,5.589,5.589,0,0,1-1.574-4.184A5.589,5.589,0,0,1,60,40.673a6.17,6.17,0,0,1,4.415-1.542,5.842,5.842,0,0,1,4.3,1.542,5.479,5.479,0,0,1,1.558,4.077,5.816,5.816,0,0,1-1.606,4.329A5.979,5.979,0,0,1,64.26,50.669Zm.086-8.937a2.264,2.264,0,0,0-1.869.827,3.647,3.647,0,0,0-.666,2.342q0,3.169,2.557,3.169,2.438,0,2.438-3.255Q66.806,41.731,64.346,41.731Zm7.4,8.379V47.36a7.227,7.227,0,0,0,1.67.752,5.538,5.538,0,0,0,1.574.247,3.375,3.375,0,0,0,1.423-.247.8.8,0,0,0,.521-.752.7.7,0,0,0-.236-.537,2.2,2.2,0,0,0-.607-.376,6.888,6.888,0,0,0-.811-.29q-.44-.129-.849-.29a8.131,8.131,0,0,1-1.155-.532,3.338,3.338,0,0,1-.838-.661,2.6,2.6,0,0,1-.516-.87,3.472,3.472,0,0,1-.177-1.171,3.014,3.014,0,0,1,.4-1.59,3.29,3.29,0,0,1,1.074-1.09,4.908,4.908,0,0,1,1.536-.623,8.009,8.009,0,0,1,1.8-.2,9.984,9.984,0,0,1,1.482.113,11.064,11.064,0,0,1,1.482.328v2.621a5.356,5.356,0,0,0-1.38-.564,5.823,5.823,0,0,0-1.445-.188,3.2,3.2,0,0,0-.628.059,2.07,2.07,0,0,0-.521.172.957.957,0,0,0-.354.29.668.668,0,0,0-.129.4.744.744,0,0,0,.193.516,1.679,1.679,0,0,0,.5.371,4.984,4.984,0,0,0,.693.279q.381.124.757.252a9.846,9.846,0,0,1,1.225.516,3.916,3.916,0,0,1,.94.655,2.573,2.573,0,0,1,.6.881,3.524,3.524,0,0,1-.215,2.874,3.4,3.4,0,0,1-1.128,1.128,5.115,5.115,0,0,1-1.622.634,8.992,8.992,0,0,1-1.907.2A9.83,9.83,0,0,1,71.748,50.11Zm21.71.559a5.913,5.913,0,0,1-4.324-1.542,5.589,5.589,0,0,1-1.574-4.184,5.589,5.589,0,0,1,1.633-4.27,6.17,6.17,0,0,1,4.415-1.542,5.842,5.842,0,0,1,4.3,1.542,5.479,5.479,0,0,1,1.558,4.077,5.816,5.816,0,0,1-1.606,4.329A5.979,5.979,0,0,1,93.458,50.669Zm.086-8.937a2.264,2.264,0,0,0-1.869.827,3.647,3.647,0,0,0-.666,2.342q0,3.169,2.557,3.169Q96,48.069,96,44.814,96,41.731,93.543,41.731ZM105.1,49.122h-.043V55.46h-3.395V39.4h3.395v1.654h.043a4.32,4.32,0,0,1,6.837-.457,6.243,6.243,0,0,1,1.166,3.991A6.767,6.767,0,0,1,111.746,49a4.431,4.431,0,0,1-3.615,1.665A3.425,3.425,0,0,1,105.1,49.122Zm-.1-4.512v.881a2.8,2.8,0,0,0,.6,1.858,1.958,1.958,0,0,0,1.579.72,2.081,2.081,0,0,0,1.8-.9,4.331,4.331,0,0,0,.639-2.541q0-2.9-2.256-2.9a2.118,2.118,0,0,0-1.7.79A3.149,3.149,0,0,0,105.005,44.61Zm20.185,1.257h-7.176q.172,2.4,3.019,2.4a5.893,5.893,0,0,0,3.19-.859v2.449a8.381,8.381,0,0,1-3.964.816,5.12,5.12,0,0,1-5.607-5.6,5.887,5.887,0,0,1,1.59-4.34,5.3,5.3,0,0,1,3.91-1.6,4.807,4.807,0,0,1,3.722,1.429,5.5,5.5,0,0,1,1.316,3.878Zm-3.147-2.084q0-2.363-1.912-2.363a1.826,1.826,0,0,0-1.413.677,3.072,3.072,0,0,0-.725,1.687Zm12.343-1.321a2.945,2.945,0,0,0-1.429-.333,2.058,2.058,0,0,0-1.729.811,3.538,3.538,0,0,0-.623,2.208V50.4h-3.395v-11H130.6v2.041h.043a2.937,2.937,0,0,1,2.9-2.234,2.186,2.186,0,0,1,.838.129ZM145.117,50.4H141.9V48.821h-.043a3.585,3.585,0,0,1-3.276,1.848,3.427,3.427,0,0,1-2.519-.908,3.253,3.253,0,0,1-.918-2.422q0-3.2,3.792-3.7l2.986-.4q0-1.8-1.955-1.8a6.673,6.673,0,0,0-3.738,1.171V40.055a8.41,8.41,0,0,1,1.939-.645,10.192,10.192,0,0,1,2.24-.279q4.705,0,4.705,4.694Zm-3.19-4.469V45.19l-2,.258q-1.654.215-1.654,1.493a1.234,1.234,0,0,0,.4.951,1.548,1.548,0,0,0,1.09.371,2.01,2.01,0,0,0,1.558-.661A2.386,2.386,0,0,0,141.926,45.931Zm12.525,4.34a5.017,5.017,0,0,1-2.267.4q-3.588,0-3.588-3.728V41.9h-1.783V39.4H148.6V37.026l3.384-.967V39.4h2.471v2.5h-2.471V46.35q0,1.719,1.364,1.719a2.3,2.3,0,0,0,1.106-.312Zm3.631-12.611a1.983,1.983,0,0,1-1.407-.51,1.644,1.644,0,0,1-.548-1.251,1.586,1.586,0,0,1,.548-1.246,2.3,2.3,0,0,1,2.82,0,1.593,1.593,0,0,1,.542,1.246,1.638,1.638,0,0,1-.542,1.268A2.016,2.016,0,0,1,158.083,37.66Zm1.676,12.74h-3.395v-11h3.395Zm13.331-11L169,50.4h-3.867l-3.9-11h3.631l1.912,6.778a9.9,9.9,0,0,1,.376,1.955h.043a11.1,11.1,0,0,1,.4-1.891l1.955-6.843Zm6.478,11.269a5.913,5.913,0,0,1-4.324-1.542,5.589,5.589,0,0,1-1.574-4.184,5.589,5.589,0,0,1,1.633-4.27,6.17,6.17,0,0,1,4.415-1.542,5.842,5.842,0,0,1,4.3,1.542,5.48,5.48,0,0,1,1.558,4.077,5.816,5.816,0,0,1-1.606,4.329A5.979,5.979,0,0,1,179.567,50.669Zm.086-8.937a2.264,2.264,0,0,0-1.869.827,3.647,3.647,0,0,0-.666,2.342q0,3.169,2.557,3.169,2.438,0,2.438-3.255Q182.113,41.731,179.653,41.731Zm7.4,8.379V47.36a7.227,7.227,0,0,0,1.67.752,5.538,5.538,0,0,0,1.574.247,3.375,3.375,0,0,0,1.423-.247.8.8,0,0,0,.521-.752.7.7,0,0,0-.236-.537,2.2,2.2,0,0,0-.607-.376,6.887,6.887,0,0,0-.811-.29q-.44-.129-.849-.29a8.132,8.132,0,0,1-1.155-.532,3.338,3.338,0,0,1-.838-.661,2.6,2.6,0,0,1-.516-.87,3.472,3.472,0,0,1-.177-1.171,3.014,3.014,0,0,1,.4-1.59,3.29,3.29,0,0,1,1.074-1.09,4.908,4.908,0,0,1,1.536-.623,8.009,8.009,0,0,1,1.8-.2,9.984,9.984,0,0,1,1.482.113,11.065,11.065,0,0,1,1.482.328v2.621a5.357,5.357,0,0,0-1.38-.564,5.823,5.823,0,0,0-1.445-.188,3.2,3.2,0,0,0-.628.059,2.07,2.07,0,0,0-.521.172.957.957,0,0,0-.354.29.668.668,0,0,0-.129.4.744.744,0,0,0,.193.516,1.679,1.679,0,0,0,.5.371,4.985,4.985,0,0,0,.693.279q.381.124.757.252a9.846,9.846,0,0,1,1.225.516,3.916,3.916,0,0,1,.94.655,2.573,2.573,0,0,1,.6.881,3.524,3.524,0,0,1-.215,2.874,3.4,3.4,0,0,1-1.128,1.128,5.115,5.115,0,0,1-1.622.634,8.992,8.992,0,0,1-1.907.2A9.83,9.83,0,0,1,187.054,50.11Z" transform="translate(754 10878.645)" fill="#212429"/>
  </g>
</svg>
