<svg xmlns="http://www.w3.org/2000/svg" xmlns:xlink="http://www.w3.org/1999/xlink" width="108" height="108" viewBox="0 0 108 108">
  <defs>
    <filter id="Fondo" x="0" y="0" width="108" height="108" filterUnits="userSpaceOnUse">
      <feOffset dy="3" input="SourceAlpha"/>
      <feGaussianBlur stdDeviation="3" result="blur"/>
      <feFlood flood-opacity="0.161"/>
      <feComposite operator="in" in2="blur"/>
      <feComposite in="SourceGraphic"/>
    </filter>
    <clipPath id="clip-path">
      <rect id="Rectángulo_408275" data-name="Rectángulo 408275" width="60" height="60" fill="none"/>
    </clipPath>
  </defs>
  <g id="Icono" transform="translate(-325.719 -689)">
    <g transform="matrix(1, 0, 0, 1, 325.72, 689)" filter="url(#Fondo)">
      <g id="Fondo-2" data-name="Fondo" transform="translate(9 6)" fill="#e6d567">
        <path d="M 45 88.5 C 39.12687683105469 88.5 33.43022537231445 87.35007476806641 28.06830024719238 85.08217620849609 C 22.88852500915527 82.89131164550781 18.23629951477051 79.75458526611328 14.2408504486084 75.75914764404297 C 10.24541282653809 71.76370239257812 7.108687400817871 67.11147308349609 4.917825222015381 61.93170166015625 C 2.649924993515015 56.56977462768555 1.5 50.87312316894531 1.5 45 C 1.5 39.12687683105469 2.649924993515015 33.43022537231445 4.917825222015381 28.06830024719238 C 7.108687400817871 22.88852500915527 10.24541282653809 18.23629951477051 14.2408504486084 14.2408504486084 C 18.23629951477051 10.24541282653809 22.88852500915527 7.108687400817871 28.06830024719238 4.917825222015381 C 33.43022537231445 2.649924993515015 39.12687683105469 1.5 45 1.5 C 50.87312316894531 1.5 56.56977462768555 2.649924993515015 61.93170166015625 4.917825222015381 C 67.11147308349609 7.108687400817871 71.76370239257812 10.24541282653809 75.75914764404297 14.2408504486084 C 79.75458526611328 18.23629951477051 82.89131164550781 22.88852500915527 85.08217620849609 28.06830024719238 C 87.35007476806641 33.43022537231445 88.5 39.12687683105469 88.5 45 C 88.5 50.87312316894531 87.35007476806641 56.56977462768555 85.08217620849609 61.93170166015625 C 82.89131164550781 67.11147308349609 79.75458526611328 71.76370239257812 75.75914764404297 75.75914764404297 C 71.76370239257812 79.75458526611328 67.11147308349609 82.89131164550781 61.93170166015625 85.08217620849609 C 56.56977462768555 87.35007476806641 50.87312316894531 88.5 45 88.5 Z" stroke="none"/>
        <path d="M 45 3 C 39.32871246337891 3 33.82865524291992 4.110054016113281 28.65262985229492 6.299339294433594 C 23.65165710449219 8.414573669433594 19.15968322753906 11.44334411621094 15.301513671875 15.301513671875 C 11.44334411621094 19.15968322753906 8.414573669433594 23.65165710449219 6.299339294433594 28.65262985229492 C 4.110054016113281 33.82865524291992 3 39.32871246337891 3 45 C 3 50.67128753662109 4.110054016113281 56.17134475708008 6.299339294433594 61.34737396240234 C 8.414573669433594 66.34834289550781 11.44334411621094 70.84031677246094 15.301513671875 74.698486328125 C 19.15968322753906 78.55665588378906 23.65165710449219 81.58542633056641 28.65262985229492 83.70066070556641 C 33.82865524291992 85.88994598388672 39.32871246337891 87 45 87 C 50.67128753662109 87 56.17134475708008 85.88994598388672 61.34737396240234 83.70066070556641 C 66.34834289550781 81.58542633056641 70.84031677246094 78.55665588378906 74.698486328125 74.698486328125 C 78.55665588378906 70.84031677246094 81.58542633056641 66.34834289550781 83.70066070556641 61.34737396240234 C 85.88994598388672 56.17134475708008 87 50.67128753662109 87 45 C 87 39.32871246337891 85.88994598388672 33.82865524291992 83.70066070556641 28.65262985229492 C 81.58542633056641 23.65165710449219 78.55665588378906 19.15968322753906 74.698486328125 15.301513671875 C 70.84031677246094 11.44334411621094 66.34834289550781 8.414573669433594 61.34737396240234 6.299339294433594 C 56.17134475708008 4.110054016113281 50.67128753662109 3 45 3 M 45 0 C 69.85281372070312 0 90 20.14718627929688 90 45 C 90 69.85281372070312 69.85281372070312 90 45 90 C 20.14718627929688 90 0 69.85281372070312 0 45 C 0 20.14718627929688 20.14718627929688 0 45 0 Z" stroke="none" fill="#bca724"/>
      </g>
    </g>
    <g id="Grupo_1151788" data-name="Grupo 1151788" transform="translate(349.72 709.293)">
      <g id="Grupo_1151784" data-name="Grupo 1151784" clip-path="url(#clip-path)">
        <path id="Trazado_986417" data-name="Trazado 986417" d="M49,28A21,21,0,1,0,19.812,47.318,1.974,1.974,0,0,1,21,49.141V51H35V49.141a1.977,1.977,0,0,1,1.191-1.825A20.979,20.979,0,0,0,49,28" fill="#ff9811"/>
        <path id="Trazado_986418" data-name="Trazado 986418" d="M26.841,7.031c-.1,0-.2.024-.3.031a20.983,20.983,0,0,1,6.654,40.254A1.977,1.977,0,0,0,32,49.141V51h3V49.141a1.977,1.977,0,0,1,1.191-1.825,20.989,20.989,0,0,0-9.35-40.285" fill="#e5890f"/>
        <rect id="Rectángulo_408272" data-name="Rectángulo 408272" width="33" height="26" transform="translate(26 16)" fill="#91dc5a"/>
        <path id="Trazado_986419" data-name="Trazado 986419" d="M28,46a2,2,0,0,0,2-2V42H26v2a2,2,0,0,0,2,2" fill="#808285"/>
        <path id="Trazado_986420" data-name="Trazado 986420" d="M52,42h7V35a7,7,0,0,0-7,7" fill="#4e901e"/>
        <path id="Trazado_986421" data-name="Trazado 986421" d="M28,12a2,2,0,0,0-2,2v2h4V14a2,2,0,0,0-2-2" fill="#808285"/>
        <path id="Trazado_986422" data-name="Trazado 986422" d="M59,23V16H52a7,7,0,0,0,7,7" fill="#4e901e"/>
        <rect id="Rectángulo_408273" data-name="Rectángulo 408273" width="2" height="26" transform="translate(57 16)" fill="#83c651"/>
        <path id="Trazado_986423" data-name="Trazado 986423" d="M57,35.293V42h2V35a7.02,7.02,0,0,0-2,.293" fill="#46821b"/>
        <path id="Trazado_986424" data-name="Trazado 986424" d="M57,16v6.707A7.02,7.02,0,0,0,59,23V16Z" fill="#46821b"/>
        <rect id="Rectángulo_408274" data-name="Rectángulo 408274" width="14" height="4" transform="translate(21 51)" fill="#58595b"/>
        <path id="Trazado_986425" data-name="Trazado 986425" d="M21,57a2,2,0,0,0,2,2H33a2,2,0,0,0,2-2V55H21Z" fill="#a7a9ac"/>
        <path id="Trazado_986426" data-name="Trazado 986426" d="M37,21a8,8,0,1,0,8,8,8,8,0,0,0-8-8" fill="#4e901e"/>
        <path id="Trazado_986427" data-name="Trazado 986427" d="M28,4a1,1,0,0,0,1-1V1a1,1,0,0,0-2,0V3a1,1,0,0,0,1,1" fill="#231f20"/>
        <path id="Trazado_986428" data-name="Trazado 986428" d="M14.634,6.849a1,1,0,1,0,1.732-1l-1-1.732a1,1,0,1,0-1.732,1Z" fill="#231f20"/>
        <path id="Trazado_986429" data-name="Trazado 986429" d="M4.117,15.366l1.732,1a1,1,0,1,0,1-1.732l-1.732-1a1,1,0,1,0-1,1.732" fill="#231f20"/>
        <path id="Trazado_986430" data-name="Trazado 986430" d="M4,28a1,1,0,0,0-1-1H1a1,1,0,0,0,0,2H3a1,1,0,0,0,1-1" fill="#231f20"/>
        <path id="Trazado_986431" data-name="Trazado 986431" d="M5.85,39.634l-1.732,1a1,1,0,1,0,1,1.732l1.732-1a1,1,0,0,0-1-1.732" fill="#231f20"/>
        <path id="Trazado_986432" data-name="Trazado 986432" d="M16,48.785a1,1,0,0,0-1.366.366l-1,1.732a1,1,0,1,0,1.732,1l1-1.732A1,1,0,0,0,16,48.785" fill="#231f20"/>
        <path id="Trazado_986433" data-name="Trazado 986433" d="M41.366,49.151a1,1,0,0,0-1.732,1l1,1.732a1,1,0,1,0,1.732-1Z" fill="#231f20"/>
        <path id="Trazado_986434" data-name="Trazado 986434" d="M40,7.215a1,1,0,0,0,1.366-.366l1-1.732a1,1,0,0,0-1.732-1l-1,1.732A1,1,0,0,0,40,7.215" fill="#231f20"/>
        <path id="Trazado_986435" data-name="Trazado 986435" d="M37,20a9,9,0,1,0,9,9,9.01,9.01,0,0,0-9-9m0,16a7,7,0,1,1,7-7,7.008,7.008,0,0,1-7,7" fill="#231f20"/>
        <path id="Trazado_986436" data-name="Trazado 986436" d="M38,35V34a3,3,0,0,0,0-6H36a1,1,0,0,1,0-2h2a1,1,0,0,1,1,1,1,1,0,0,0,2,0,3,3,0,0,0-3-3V23a1,1,0,0,0-2,0v1a3,3,0,0,0,0,6h2a1,1,0,0,1,0,2H36a1,1,0,0,1-1-1,1,1,0,0,0-2,0,3,3,0,0,0,3,3v1a1,1,0,0,0,2,0" fill="#231f20"/>
        <path id="Trazado_986437" data-name="Trazado 986437" d="M59,15H45.68a22.149,22.149,0,0,0-16.5-8.97,22,22,0,0,0-9.76,42.23.97.97,0,0,1,.58.9V57a3.009,3.009,0,0,0,3,3H33a3.009,3.009,0,0,0,3-3V49.16a.97.97,0,0,1,.58-.9A22.352,22.352,0,0,0,44.08,43H59a1,1,0,0,0,1-1V16a1,1,0,0,0-1-1M34,57a1,1,0,0,1-1,1H23a1,1,0,0,1-1-1V56H34Zm0-3H22V52H34Zm1.8-7.58A2.967,2.967,0,0,0,34,49.16V50H22v-.84a2.967,2.967,0,0,0-1.8-2.74A19.988,19.988,0,1,1,43.12,15H31V14a3,3,0,0,0-6,0V44a3,3,0,0,0,6,0V43H41.22a20.184,20.184,0,0,1-5.42,3.42M29,14v1H27V14a1,1,0,0,1,2,0M27,43h2v1a1,1,0,0,1-2,0Zm31-2H53.09A5.992,5.992,0,0,1,58,36.09Zm0-6.93A8,8,0,0,0,51.07,41H27V17H51.07A8,8,0,0,0,58,23.93Zm0-12.16A5.992,5.992,0,0,1,53.09,17H58Z" fill="#231f20"/>
        <path id="Trazado_986438" data-name="Trazado 986438" d="M54,30a1,1,0,0,0,0-2H50a1,1,0,0,0,0,2Z" fill="#231f20"/>
      </g>
    </g>
  </g>
</svg>
