<svg xmlns="http://www.w3.org/2000/svg" xmlns:xlink="http://www.w3.org/1999/xlink" width="108" height="108" viewBox="0 0 108 108">
  <defs>
    <filter id="Fondo" x="0" y="0" width="108" height="108" filterUnits="userSpaceOnUse">
      <feOffset dy="3" input="SourceAlpha"/>
      <feGaussianBlur stdDeviation="3" result="blur"/>
      <feFlood flood-opacity="0.161"/>
      <feComposite operator="in" in2="blur"/>
      <feComposite in="SourceGraphic"/>
    </filter>
    <clipPath id="clip-path">
      <rect id="Rect치ngulo_408277" data-name="Rect치ngulo 408277" width="34" height="60.003" transform="translate(0 0)" fill="none"/>
    </clipPath>
  </defs>
  <g id="Icono" transform="translate(-325.719 -689)">
    <g transform="matrix(1, 0, 0, 1, 325.72, 689)" filter="url(#Fondo)">
      <g id="Fondo-2" data-name="Fondo" transform="translate(9 6)" fill="#e6d567">
        <path d="M 45 88.5 C 39.12687683105469 88.5 33.43022537231445 87.35007476806641 28.06830024719238 85.08217620849609 C 22.88852500915527 82.89131164550781 18.23629951477051 79.75458526611328 14.2408504486084 75.75914764404297 C 10.24541282653809 71.76370239257812 7.108687400817871 67.11147308349609 4.917825222015381 61.93170166015625 C 2.649924993515015 56.56977462768555 1.5 50.87312316894531 1.5 45 C 1.5 39.12687683105469 2.649924993515015 33.43022537231445 4.917825222015381 28.06830024719238 C 7.108687400817871 22.88852500915527 10.24541282653809 18.23629951477051 14.2408504486084 14.2408504486084 C 18.23629951477051 10.24541282653809 22.88852500915527 7.108687400817871 28.06830024719238 4.917825222015381 C 33.43022537231445 2.649924993515015 39.12687683105469 1.5 45 1.5 C 50.87312316894531 1.5 56.56977462768555 2.649924993515015 61.93170166015625 4.917825222015381 C 67.11147308349609 7.108687400817871 71.76370239257812 10.24541282653809 75.75914764404297 14.2408504486084 C 79.75458526611328 18.23629951477051 82.89131164550781 22.88852500915527 85.08217620849609 28.06830024719238 C 87.35007476806641 33.43022537231445 88.5 39.12687683105469 88.5 45 C 88.5 50.87312316894531 87.35007476806641 56.56977462768555 85.08217620849609 61.93170166015625 C 82.89131164550781 67.11147308349609 79.75458526611328 71.76370239257812 75.75914764404297 75.75914764404297 C 71.76370239257812 79.75458526611328 67.11147308349609 82.89131164550781 61.93170166015625 85.08217620849609 C 56.56977462768555 87.35007476806641 50.87312316894531 88.5 45 88.5 Z" stroke="none"/>
        <path d="M 45 3 C 39.32871246337891 3 33.82865524291992 4.110054016113281 28.65262985229492 6.299339294433594 C 23.65165710449219 8.414573669433594 19.15968322753906 11.44334411621094 15.301513671875 15.301513671875 C 11.44334411621094 19.15968322753906 8.414573669433594 23.65165710449219 6.299339294433594 28.65262985229492 C 4.110054016113281 33.82865524291992 3 39.32871246337891 3 45 C 3 50.67128753662109 4.110054016113281 56.17134475708008 6.299339294433594 61.34737396240234 C 8.414573669433594 66.34834289550781 11.44334411621094 70.84031677246094 15.301513671875 74.698486328125 C 19.15968322753906 78.55665588378906 23.65165710449219 81.58542633056641 28.65262985229492 83.70066070556641 C 33.82865524291992 85.88994598388672 39.32871246337891 87 45 87 C 50.67128753662109 87 56.17134475708008 85.88994598388672 61.34737396240234 83.70066070556641 C 66.34834289550781 81.58542633056641 70.84031677246094 78.55665588378906 74.698486328125 74.698486328125 C 78.55665588378906 70.84031677246094 81.58542633056641 66.34834289550781 83.70066070556641 61.34737396240234 C 85.88994598388672 56.17134475708008 87 50.67128753662109 87 45 C 87 39.32871246337891 85.88994598388672 33.82865524291992 83.70066070556641 28.65262985229492 C 81.58542633056641 23.65165710449219 78.55665588378906 19.15968322753906 74.698486328125 15.301513671875 C 70.84031677246094 11.44334411621094 66.34834289550781 8.414573669433594 61.34737396240234 6.299339294433594 C 56.17134475708008 4.110054016113281 50.67128753662109 3 45 3 M 45 0 C 69.85281372070312 0 90 20.14718627929688 90 45 C 90 69.85281372070312 69.85281372070312 90 45 90 C 20.14718627929688 90 0 69.85281372070312 0 45 C 0 20.14718627929688 20.14718627929688 0 45 0 Z" stroke="none" fill="#bca724"/>
      </g>
    </g>
    <g id="Grupo_1151787" data-name="Grupo 1151787" transform="translate(362.72 709.999)">
      <g id="Grupo_1151786" data-name="Grupo 1151786" clip-path="url(#clip-path)">
        <path id="Trazado_986439" data-name="Trazado 986439" d="M33,15V57a2.006,2.006,0,0,1-2,2H3a2.006,2.006,0,0,1-2-2V15a2.006,2.006,0,0,1,2-2H31a2.006,2.006,0,0,1,2,2" fill="#6d6e71"/>
        <path id="Trazado_986440" data-name="Trazado 986440" d="M31,13V45A12.035,12.035,0,0,1,19,57H1a2.006,2.006,0,0,0,2,2H31a2.006,2.006,0,0,0,2-2V15a2.006,2.006,0,0,0-2-2" fill="#58595b"/>
        <path id="Trazado_986441" data-name="Trazado 986441" d="M29,13V31a2.006,2.006,0,0,1-2,2H7a2.006,2.006,0,0,1-2-2V13a2.006,2.006,0,0,1,2-2H27a2.006,2.006,0,0,1,2,2" fill="#d80027"/>
        <path id="Trazado_986442" data-name="Trazado 986442" d="M23,3l-3-2-3,2-3-2-3,2L8,1V21H26V1Z" fill="#ff9811"/>
        <path id="Trazado_986443" data-name="Trazado 986443" d="M9,51H7a2,2,0,0,0,0,4H9a2,2,0,0,0,0-4" fill="#ffcd00"/>
        <path id="Trazado_986444" data-name="Trazado 986444" d="M18,51H16a2,2,0,0,0,0,4h2a2,2,0,0,0,0-4" fill="#ffcd00"/>
        <path id="Trazado_986445" data-name="Trazado 986445" d="M27,51H25a2,2,0,0,0,0,4h2a2,2,0,0,0,0-4" fill="#ffcd00"/>
        <path id="Trazado_986446" data-name="Trazado 986446" d="M9,44H7a2,2,0,0,0,0,4H9a2,2,0,0,0,0-4" fill="#ffcd00"/>
        <path id="Trazado_986447" data-name="Trazado 986447" d="M18,44H16a2,2,0,0,0,0,4h2a2,2,0,0,0,0-4" fill="#ffcd00"/>
        <path id="Trazado_986448" data-name="Trazado 986448" d="M27,44H25a2,2,0,0,0,0,4h2a2,2,0,0,0,0-4" fill="#ffcd00"/>
        <path id="Trazado_986449" data-name="Trazado 986449" d="M9,37H7a2,2,0,0,0,0,4H9a2,2,0,0,0,0-4" fill="#ffcd00"/>
        <path id="Trazado_986450" data-name="Trazado 986450" d="M18,37H16a2,2,0,0,0,0,4h2a2,2,0,0,0,0-4" fill="#ffcd00"/>
        <path id="Trazado_986451" data-name="Trazado 986451" d="M27,37H25a2,2,0,0,0,0,4h2a2,2,0,0,0,0-4" fill="#ffcd00"/>
        <rect id="Rect치ngulo_408276" data-name="Rect치ngulo 408276" width="18" height="6" transform="translate(8 24.003)" fill="#7ed63e"/>
        <path id="Trazado_986452" data-name="Trazado 986452" d="M9,50H7a3,3,0,0,0,0,6H9a3,3,0,0,0,0-6m0,4H7a1,1,0,0,1,0-2H9a1,1,0,0,1,0,2" fill="#231f20"/>
        <path id="Trazado_986453" data-name="Trazado 986453" d="M18,50H16a3,3,0,0,0,0,6h2a3,3,0,0,0,0-6m0,4H16a1,1,0,0,1,0-2h2a1,1,0,0,1,0,2" fill="#231f20"/>
        <path id="Trazado_986454" data-name="Trazado 986454" d="M27,50H25a3,3,0,0,0,0,6h2a3,3,0,0,0,0-6m0,4H25a1,1,0,0,1,0-2h2a1,1,0,0,1,0,2" fill="#231f20"/>
        <path id="Trazado_986455" data-name="Trazado 986455" d="M9,43H7a3,3,0,0,0,0,6H9a3,3,0,0,0,0-6m0,4H7a1,1,0,0,1,0-2H9a1,1,0,0,1,0,2" fill="#231f20"/>
        <path id="Trazado_986456" data-name="Trazado 986456" d="M18,43H16a3,3,0,0,0,0,6h2a3,3,0,0,0,0-6m0,4H16a1,1,0,0,1,0-2h2a1,1,0,0,1,0,2" fill="#231f20"/>
        <path id="Trazado_986457" data-name="Trazado 986457" d="M27,43H25a3,3,0,0,0,0,6h2a3,3,0,0,0,0-6m0,4H25a1,1,0,0,1,0-2h2a1,1,0,0,1,0,2" fill="#231f20"/>
        <path id="Trazado_986458" data-name="Trazado 986458" d="M9,36H7a3,3,0,0,0,0,6H9a3,3,0,0,0,0-6m0,4H7a1,1,0,0,1,0-2H9a1,1,0,0,1,0,2" fill="#231f20"/>
        <path id="Trazado_986459" data-name="Trazado 986459" d="M18,36H16a3,3,0,0,0,0,6h2a3,3,0,0,0,0-6m0,4H16a1,1,0,0,1,0-2h2a1,1,0,0,1,0,2" fill="#231f20"/>
        <path id="Trazado_986460" data-name="Trazado 986460" d="M27,36H25a3,3,0,0,0,0,6h2a3,3,0,0,0,0-6m0,4H25a1,1,0,0,1,0-2h2a1,1,0,0,1,0,2" fill="#231f20"/>
        <path id="Trazado_986461" data-name="Trazado 986461" d="M18,15H16a1,1,0,0,1-1-1,1,1,0,0,0-2,0,3,3,0,0,0,3,3v1a1,1,0,1,0,2,0V17a3,3,0,0,0,0-6H16a1,1,0,0,1,0-2h2a1,1,0,0,1,1,1,1,1,0,0,0,2,0,3,3,0,0,0-3-3V6a1,1,0,0,0-2,0V7a3,3,0,0,0,0,6h2a1,1,0,0,1,0,2" fill="#231f20"/>
        <path id="Trazado_986462" data-name="Trazado 986462" d="M8,31H26a1,1,0,0,0,1-1V24a1,1,0,0,0-1-1H8a1,1,0,0,0-1,1v6a1,1,0,0,0,1,1m1-6H25v4H9Z" fill="#231f20"/>
        <path id="Trazado_986463" data-name="Trazado 986463" d="M31,12H29.82A3.01,3.01,0,0,0,27,10V1c0-.03-.02-.06-.02-.09a.585.585,0,0,0-.04-.19,1.066,1.066,0,0,0-.07-.19c-.02-.03-.02-.06-.04-.08a.435.435,0,0,0-.06-.07l-.15-.15a1.3,1.3,0,0,0-.15-.1,1.336,1.336,0,0,0-.18-.07,1.18,1.18,0,0,0-.2-.04C26.06.023,26.03,0,26,0a.292.292,0,0,0-.09.02.711.711,0,0,0-.2.04,1.336,1.336,0,0,0-.18.07c-.03.02-.06.02-.08.04L23,1.8,20.54.173a.963.963,0,0,0-1.1,0L16.99,1.8,14.55.173a.979.979,0,0,0-1.11,0L11,1.8,8.56.173c-.03-.02-.06-.02-.09-.04a1.336,1.336,0,0,0-.18-.07.711.711,0,0,0-.2-.04C8.06.023,8.03,0,8,0s-.06.02-.09.02a1.18,1.18,0,0,0-.2.04,1.336,1.336,0,0,0-.18.07,1.3,1.3,0,0,0-.15.1,1,1,0,0,0-.14.15.435.435,0,0,0-.07.06c-.02.03-.02.06-.04.09a1.335,1.335,0,0,0-.07.18.711.711,0,0,0-.04.2C7.02.943,7,.973,7,1v9a3.01,3.01,0,0,0-2.82,2H3a3.009,3.009,0,0,0-3,3V57a3.009,3.009,0,0,0,3,3H31a3.009,3.009,0,0,0,3-3V15a3.009,3.009,0,0,0-3-3M9,2.873l1.44.96a.979.979,0,0,0,1.11,0L13.99,2.2l2.45,1.63a.991.991,0,0,0,.55.17,1.023,1.023,0,0,0,.56-.17L19.99,2.2l2.45,1.63a.979.979,0,0,0,1.11,0L25,2.873V20H9ZM6,13a1,1,0,0,1,1-1v9a1,1,0,0,0,1,1H26a1,1,0,0,0,1-1V12a1,1,0,0,1,1,1V31a1,1,0,0,1-1,1H7a1,1,0,0,1-1-1ZM32,57a1,1,0,0,1-1,1H3a1,1,0,0,1-1-1V15a1,1,0,0,1,1-1H4V31a3.009,3.009,0,0,0,3,3H27a3.009,3.009,0,0,0,3-3V14h1a1,1,0,0,1,1,1Z" fill="#231f20"/>
      </g>
    </g>
  </g>
</svg>
