<svg xmlns="http://www.w3.org/2000/svg" width="610" height="392.087" viewBox="0 0 610 392.087">
  <g id="Grupo_1151826" data-name="Grupo 1151826" transform="translate(-495 -3586.025)">
    <g id="Grupo_1151825" data-name="Grupo 1151825">
      <path id="Trazado_986396" data-name="Trazado 986396" d="M518,4059.793h95" transform="translate(492 -82.681)" fill="none" stroke="#01899b" stroke-width="2" stroke-dasharray="10"/>
      <g id="Grupo_1151824" data-name="Grupo 1151824">
        <g id="Grupo_1151823" data-name="Grupo 1151823">
          <g id="Trazado_986703" data-name="Trazado 986703" transform="translate(3 3757.526)" fill="#d4ddf0">
            <path d="M 543.939208984375 81.92985534667969 L 493.6092834472656 42.00029373168945 L 543.939208984375 2.069875478744507 L 543.939208984375 21.99960136413574 L 543.939208984375 22.99960136413574 L 544.939208984375 22.99960136413574 L 681.0003051757812 22.99960136413574 L 681.0003051757812 61.00010299682617 L 544.939208984375 61.00010299682617 L 543.939208984375 61.00010299682617 L 543.939208984375 62.00010299682617 L 543.939208984375 81.92985534667969 Z" stroke="none"/>
            <path d="M 542.939208984375 79.86003112792969 L 542.939208984375 60.00010299682617 L 680.0003051757812 60.00010299682617 L 680.0003051757812 23.99960136413574 L 542.939208984375 23.99960136413574 L 542.939208984375 4.139750003814697 L 495.2182312011719 42.00029373168945 L 542.939208984375 79.86003112792969 M 544.939208984375 83.99970245361328 L 492.0003051757812 42.00030136108398 L 544.939208984375 1.226806602971919e-06 L 544.939208984375 21.99960136413574 L 682.0003051757812 21.99960136413574 L 682.0003051757812 62.00010299682617 L 544.939208984375 62.00010299682617 L 544.939208984375 83.99970245361328 Z" stroke="none" fill="#01899b"/>
          </g>
          <g id="Trazado_986704" data-name="Trazado 986704" transform="translate(1105 3841.526) rotate(180)" fill="#d4ddf0">
            <path d="M 51.93889999389648 81.92987823486328 L 1.608964443206787 41.99943542480469 L 51.93889999389648 2.069850444793701 L 51.93889999389648 21.9996280670166 L 51.93889999389648 22.9996280670166 L 52.93889999389648 22.9996280670166 L 189 22.9996280670166 L 189 61.00015258789062 L 52.93889999389648 61.00015258789062 L 51.93889999389648 61.00015258789062 L 51.93889999389648 62.00015258789062 L 51.93889999389648 81.92987823486328 Z" stroke="none"/>
            <path d="M 50.93890380859375 4.139678955078125 L 3.217910766601562 41.99943542480469 L 50.93890380859375 79.86000061035156 L 50.93890380859375 60.00012969970703 L 188 60.00012969970703 L 188 23.99960327148438 L 50.93890380859375 23.99960327148438 L 50.93890380859375 4.139678955078125 M 52.93890380859375 0 L 52.93890380859375 21.99960327148438 L 190 21.99960327148438 L 190 62.00012969970703 L 52.93890380859375 62.00012969970703 L 52.93890380859375 83.999755859375 L 0 41.99942779541016 L 52.93890380859375 0 Z" stroke="none" fill="#01899b"/>
          </g>
          <g id="Trazado_986705" data-name="Trazado 986705" transform="translate(758 3873.429) rotate(-90)" fill="#fadfd0">
            <path d="M 38.81661987304688 81.49139404296875 L 1.377946019172668 41.99943161010742 L 38.81661987304688 2.508319854736328 L 38.81661987304688 21.99962425231934 L 38.81661987304688 22.99962425231934 L 39.81661987304688 22.99962425231934 L 141.903564453125 22.99962425231934 L 141.903564453125 61.00014877319336 L 39.81661987304688 61.00014877319336 L 38.81661987304688 61.00014877319336 L 38.81661987304688 62.00014877319336 L 38.81661987304688 81.49139404296875 Z" stroke="none"/>
            <path d="M 37.81661987304688 5.016632080078125 L 2.755889892578125 41.99943161010742 L 37.81661987304688 78.98304748535156 L 37.81661987304688 60.00013732910156 L 140.903564453125 60.00013732910156 L 140.903564453125 23.99961853027344 L 37.81661987304688 23.99961853027344 L 37.81661987304688 5.016632080078125 M 39.81661987304688 0 L 39.81661987304688 21.99961853027344 L 142.903564453125 21.99961853027344 L 142.903564453125 62.00013732910156 L 39.81661987304688 62.00013732910156 L 39.81661987304688 83.999755859375 L 0 41.99941635131836 L 39.81661987304688 0 Z" stroke="none" fill="#01899b"/>
          </g>
          <path id="Trazado_986706" data-name="Trazado 986706" d="M58.271,17h-2.75l-.8-2.492H50.74L49.951,17H47.216L51.294,5.8h2.992Zm-4.125-4.43L52.943,8.8A4.907,4.907,0,0,1,52.755,7.8h-.062a4.273,4.273,0,0,1-.2.977l-1.219,3.8ZM66.913,5.8l-3.648,7.219V17H60.741V13.063L57.187,5.8H60.07l1.8,4.18q.047.117.258.914h.031a4.07,4.07,0,0,1,.242-.883L64.241,5.8ZM74.9,17H68.18V5.8h6.461V7.852H70.7v2.492h3.664v2.047H70.7v2.563h4.2Zm11.2,0H83.2l-1.742-2.883q-.2-.328-.375-.586a3.255,3.255,0,0,0-.363-.441,1.445,1.445,0,0,0-.383-.281.972.972,0,0,0-.434-.1h-.68V17H76.7V5.8h4q4.078,0,4.078,3.047a3.155,3.155,0,0,1-.18,1.082,3.006,3.006,0,0,1-.508.895,3.219,3.219,0,0,1-.793.688,4.089,4.089,0,0,1-1.035.453v.031a1.606,1.606,0,0,1,.484.254,3.469,3.469,0,0,1,.453.41,5.722,5.722,0,0,1,.418.5q.2.27.363.527ZM79.221,7.688V10.8h1.094a1.813,1.813,0,0,0,1.3-.469,1.564,1.564,0,0,0,.5-1.18q0-1.469-1.758-1.469Z" transform="translate(547 3789.526)" fill="#212429"/>
          <path id="Trazado_986707" data-name="Trazado 986707" d="M40.483,17H37.951V12.438H33.311V17H30.787V5.8h2.523v4.469h4.641V5.8h2.531Zm5.088,0H43.047V5.8H45.57Zm2.033-.43v-2.5a4.8,4.8,0,0,0,1.477.855,4.746,4.746,0,0,0,1.609.285,3.569,3.569,0,0,0,.832-.086,1.949,1.949,0,0,0,.594-.238,1.039,1.039,0,0,0,.355-.359.9.9,0,0,0,.117-.449.971.971,0,0,0-.187-.586,2.018,2.018,0,0,0-.512-.477,5.347,5.347,0,0,0-.77-.422q-.445-.2-.961-.414A4.9,4.9,0,0,1,48.2,10.844a2.917,2.917,0,0,1-.645-1.906,3.036,3.036,0,0,1,.352-1.5A2.986,2.986,0,0,1,48.865,6.4a4.291,4.291,0,0,1,1.4-.6,7.206,7.206,0,0,1,1.688-.191,10.15,10.15,0,0,1,1.551.105,6.1,6.1,0,0,1,1.246.324V8.375a3.768,3.768,0,0,0-.613-.344,4.859,4.859,0,0,0-.684-.246,5.214,5.214,0,0,0-.7-.145,4.949,4.949,0,0,0-.66-.047,3.443,3.443,0,0,0-.781.082,2,2,0,0,0-.594.23,1.147,1.147,0,0,0-.375.355.843.843,0,0,0-.133.465.888.888,0,0,0,.148.5,1.7,1.7,0,0,0,.422.422,4.477,4.477,0,0,0,.664.391q.391.191.883.395a9.837,9.837,0,0,1,1.207.6,4.291,4.291,0,0,1,.918.715,2.785,2.785,0,0,1,.586.91,3.216,3.216,0,0,1,.2,1.191,3.191,3.191,0,0,1-.355,1.574,2.886,2.886,0,0,1-.965,1.031,4.184,4.184,0,0,1-1.418.566A8.2,8.2,0,0,1,50.8,17.2a9.492,9.492,0,0,1-1.754-.156A5.3,5.3,0,0,1,47.6,16.57ZM64.956,7.852h-3.2V17H59.23V7.852H56.05V5.8h8.906Zm5.65,9.344a5.215,5.215,0,0,1-3.922-1.566,5.624,5.624,0,0,1-1.516-4.082,6.026,6.026,0,0,1,1.539-4.3,5.328,5.328,0,0,1,4.078-1.641,5.085,5.085,0,0,1,3.879,1.57,5.79,5.79,0,0,1,1.48,4.141,5.929,5.929,0,0,1-1.535,4.258A5.269,5.269,0,0,1,70.606,17.2Zm.109-9.414a2.54,2.54,0,0,0-2.109,1,4.153,4.153,0,0,0-.781,2.637,4.077,4.077,0,0,0,.781,2.633,2.7,2.7,0,0,0,4.117.027,4.032,4.032,0,0,0,.766-2.613,4.369,4.369,0,0,0-.742-2.711A2.42,2.42,0,0,0,70.716,7.781ZM87.4,17h-2.9l-1.742-2.883q-.2-.328-.375-.586a3.255,3.255,0,0,0-.363-.441,1.445,1.445,0,0,0-.383-.281.972.972,0,0,0-.434-.1h-.68V17H78.006V5.8h4q4.078,0,4.078,3.047a3.155,3.155,0,0,1-.18,1.082,3.006,3.006,0,0,1-.508.895,3.219,3.219,0,0,1-.793.688,4.089,4.089,0,0,1-1.035.453v.031a1.606,1.606,0,0,1,.484.254,3.469,3.469,0,0,1,.453.41,5.722,5.722,0,0,1,.418.5q.2.27.363.527ZM80.53,7.688V10.8h1.094a1.813,1.813,0,0,0,1.3-.469,1.564,1.564,0,0,0,.5-1.18q0-1.469-1.758-1.469ZM90.977,17H88.453V5.8h2.523Zm12.4,0h-2.75l-.8-2.492H95.845L95.056,17H92.322L96.4,5.8h2.992Zm-4.125-4.43L98.049,8.8A4.908,4.908,0,0,1,97.861,7.8H97.8a4.273,4.273,0,0,1-.2.977l-1.219,3.8Z" transform="translate(523.5 3912.526)" fill="#212429"/>
          <path id="Trazado_986708" data-name="Trazado 986708" d="M31.9,13.141V17H29.373V5.8h3.953q4.234,0,4.234,3.57a3.426,3.426,0,0,1-1.215,2.73A4.813,4.813,0,0,1,33.1,13.141Zm0-5.406v3.492h.992q2.016,0,2.016-1.766,0-1.727-2.016-1.727ZM48.6,17H45.7l-1.742-2.883q-.2-.328-.375-.586a3.255,3.255,0,0,0-.363-.441,1.445,1.445,0,0,0-.383-.281.972.972,0,0,0-.434-.1h-.68V17H39.2V5.8h4q4.078,0,4.078,3.047a3.155,3.155,0,0,1-.18,1.082,3.006,3.006,0,0,1-.508.895,3.219,3.219,0,0,1-.793.688,4.089,4.089,0,0,1-1.035.453v.031a1.606,1.606,0,0,1,.484.254,3.468,3.468,0,0,1,.453.41,5.723,5.723,0,0,1,.418.5q.2.27.363.527ZM41.726,7.688V10.8H42.82a1.813,1.813,0,0,0,1.3-.469,1.564,1.564,0,0,0,.5-1.18q0-1.469-1.758-1.469ZM56.369,17H49.65V5.8h6.461V7.852H52.173v2.492h3.664v2.047H52.173v2.563h4.2Zm1.283-.43v-2.5a4.8,4.8,0,0,0,1.477.855,4.746,4.746,0,0,0,1.609.285,3.569,3.569,0,0,0,.832-.086,1.949,1.949,0,0,0,.594-.238,1.039,1.039,0,0,0,.355-.359.9.9,0,0,0,.117-.449.971.971,0,0,0-.187-.586,2.018,2.018,0,0,0-.512-.477,5.347,5.347,0,0,0-.77-.422q-.445-.2-.961-.414a4.9,4.9,0,0,1-1.957-1.336A2.917,2.917,0,0,1,57.6,8.938a3.036,3.036,0,0,1,.352-1.5A2.986,2.986,0,0,1,58.913,6.4a4.291,4.291,0,0,1,1.4-.6A7.206,7.206,0,0,1,62,5.609a10.15,10.15,0,0,1,1.551.105,6.1,6.1,0,0,1,1.246.324V8.375a3.768,3.768,0,0,0-.613-.344,4.859,4.859,0,0,0-.684-.246,5.214,5.214,0,0,0-.7-.145,4.949,4.949,0,0,0-.66-.047,3.443,3.443,0,0,0-.781.082,2,2,0,0,0-.594.23,1.147,1.147,0,0,0-.375.355.843.843,0,0,0-.133.465.888.888,0,0,0,.148.5,1.7,1.7,0,0,0,.422.422,4.477,4.477,0,0,0,.664.391q.391.191.883.395a9.837,9.837,0,0,1,1.207.6,4.291,4.291,0,0,1,.918.715,2.785,2.785,0,0,1,.586.91,3.216,3.216,0,0,1,.2,1.191,3.191,3.191,0,0,1-.355,1.574,2.886,2.886,0,0,1-.965,1.031,4.184,4.184,0,0,1-1.418.566,8.2,8.2,0,0,1-1.707.172,9.492,9.492,0,0,1-1.754-.156A5.3,5.3,0,0,1,57.652,16.57Zm16.2.43H67.138V5.8H73.6V7.852H69.661v2.492h3.664v2.047H69.661v2.563h4.2Zm11.877,0H83.186L78.569,9.961a10.178,10.178,0,0,1-.562-.93h-.031q.062.594.063,1.813V17H75.655V5.8h2.719l4.445,6.82q.3.461.563.914h.031a11.979,11.979,0,0,1-.062-1.539V5.8h2.383ZM96.164,7.852h-3.2V17H90.438V7.852h-3.18V5.8h8.906ZM104.392,17H97.674V5.8h6.461V7.852H100.2v2.492h3.664v2.047H100.2v2.563h4.2Z" transform="translate(733.5 3912.526)" fill="#212429"/>
          <path id="Trazado_986709" data-name="Trazado 986709" d="M42.625,7.852H38.672V10.6H42.3v2.047H38.672V17H36.148V5.8h6.477Zm10.978,4.3q0,5.047-4.7,5.047-4.563,0-4.562-4.93V5.8h2.531v6.5q0,2.719,2.125,2.719,2.086,0,2.086-2.625V5.8H53.6Zm10.306-4.3h-3.2V17H58.183V7.852H55V5.8h8.906Zm10.642,4.3q0,5.047-4.7,5.047-4.562,0-4.562-4.93V5.8h2.531v6.5q0,2.719,2.125,2.719,2.086,0,2.086-2.625V5.8h2.523ZM86.389,17h-2.9l-1.742-2.883q-.2-.328-.375-.586a3.255,3.255,0,0,0-.363-.441,1.445,1.445,0,0,0-.383-.281.972.972,0,0,0-.434-.1h-.68V17H76.991V5.8h4q4.078,0,4.078,3.047a3.155,3.155,0,0,1-.18,1.082,3.006,3.006,0,0,1-.508.895,3.219,3.219,0,0,1-.793.688,4.089,4.089,0,0,1-1.035.453v.031a1.606,1.606,0,0,1,.484.254,3.469,3.469,0,0,1,.453.41,5.722,5.722,0,0,1,.418.5q.2.27.363.527ZM79.514,7.688V10.8h1.094a1.813,1.813,0,0,0,1.3-.469,1.564,1.564,0,0,0,.5-1.18q0-1.469-1.758-1.469Zm12.5,9.508a5.215,5.215,0,0,1-3.922-1.566,5.624,5.624,0,0,1-1.516-4.082,6.026,6.026,0,0,1,1.539-4.3A5.328,5.328,0,0,1,92.2,5.609a5.085,5.085,0,0,1,3.879,1.57,5.79,5.79,0,0,1,1.48,4.141,5.929,5.929,0,0,1-1.535,4.258A5.269,5.269,0,0,1,92.016,17.2Zm.109-9.414a2.54,2.54,0,0,0-2.109,1,4.153,4.153,0,0,0-.781,2.637,4.077,4.077,0,0,0,.781,2.633,2.7,2.7,0,0,0,4.117.027,4.032,4.032,0,0,0,.766-2.613,4.369,4.369,0,0,0-.742-2.711A2.42,2.42,0,0,0,92.125,7.781Z" transform="translate(943.5 3912.526)" fill="#212429"/>
          <path id="Trazado_986710" data-name="Trazado 986710" d="M43.371,17H40.879V10.3q0-1.086.094-2.4H40.91a11.8,11.8,0,0,1-.352,1.484L37.933,17H35.871L33.2,9.461A14.67,14.67,0,0,1,32.848,7.9h-.07q.1,1.656.1,2.906V17H30.605V5.8h3.7l2.289,6.641a9.35,9.35,0,0,1,.4,1.6h.047a16.127,16.127,0,0,1,.445-1.617L39.769,5.8h3.6Zm12.4,0h-2.75l-.8-2.492H48.24L47.451,17H44.716L48.794,5.8h2.992Zm-4.125-4.43L50.443,8.8A4.907,4.907,0,0,1,50.255,7.8h-.062a4.273,4.273,0,0,1-.2.977l-1.219,3.8ZM67.249,17H64.7L60.085,9.961a10.18,10.18,0,0,1-.562-.93h-.031q.063.594.063,1.813V17H57.171V5.8H59.89l4.445,6.82q.3.461.563.914h.031a11.979,11.979,0,0,1-.062-1.539V5.8h2.383ZM65.312,2.328a2.844,2.844,0,0,1-.434,1.691,1.385,1.385,0,0,1-1.184.6,2.8,2.8,0,0,1-1.312-.336,2.631,2.631,0,0,0-.961-.367q-.625,0-.625.844h-1.1a2.867,2.867,0,0,1,.43-1.687,1.394,1.394,0,0,1,1.2-.6,2.674,2.674,0,0,1,1.313.383,2.2,2.2,0,0,0,.938.344q.609,0,.609-.867ZM79.665,17h-2.75l-.8-2.492H72.134L71.345,17H68.61L72.688,5.8H75.68ZM75.54,12.57,74.337,8.8A4.908,4.908,0,0,1,74.149,7.8h-.062a4.273,4.273,0,0,1-.2.977l-1.219,3.8ZM91.143,17H88.6L83.979,9.961a10.178,10.178,0,0,1-.562-.93h-.031q.062.594.063,1.813V17H81.065V5.8h2.719l4.445,6.82q.3.461.563.914h.031a11.979,11.979,0,0,1-.062-1.539V5.8h2.383Zm12.416,0h-2.75l-.8-2.492H96.027L95.238,17H92.5L96.582,5.8h2.992Zm-4.125-4.43L98.231,8.8A4.908,4.908,0,0,1,98.043,7.8h-.062a4.273,4.273,0,0,1-.2.977l-1.219,3.8Z" transform="translate(921 3789.526)" fill="#212429"/>
          <path id="Trazado_986711" data-name="Trazado 986711" d="M14.848,17H12.316V12.438H7.676V17H5.152V5.8H7.676v4.469h4.641V5.8h2.531ZM9.95,41.2a5.215,5.215,0,0,1-3.922-1.566,5.624,5.624,0,0,1-1.516-4.082,6.026,6.026,0,0,1,1.539-4.3,5.328,5.328,0,0,1,4.078-1.641,5.085,5.085,0,0,1,3.879,1.57,5.79,5.79,0,0,1,1.48,4.141,5.929,5.929,0,0,1-1.535,4.258A5.269,5.269,0,0,1,9.95,41.2Zm.109-9.414a2.54,2.54,0,0,0-2.109,1,4.153,4.153,0,0,0-.781,2.637,4.077,4.077,0,0,0,.781,2.633A2.5,2.5,0,0,0,10,39.016a2.528,2.528,0,0,0,2.07-.941,4.032,4.032,0,0,0,.766-2.613,4.369,4.369,0,0,0-.742-2.711A2.42,2.42,0,0,0,10.059,31.781ZM14.871,53.8l-3.648,7.219V65H8.7V61.063L5.145,53.8H8.027l1.8,4.18q.047.117.258.914h.031a4.07,4.07,0,0,1,.242-.883L12.2,53.8Z" transform="translate(790 3756.526)" fill="#212429"/>
          <path id="Trazado_986394" data-name="Trazado 986394" d="M98,4018.248v33.363H518v-33.363" transform="translate(492 -74.681)" fill="none" stroke="#01899b" stroke-width="2"/>
          <path id="Trazado_986397" data-name="Trazado 986397" d="M98,4018.248v33.363H518v-33.363" transform="translate(492 -415.085)" fill="none" stroke="#01899b" stroke-width="2"/>
          <path id="Trazado_986395" data-name="Trazado 986395" d="M308,4018.248v33.363" transform="translate(492 -74.681)" fill="none" stroke="#01899b" stroke-width="2"/>
          <g id="Trazado_986414" data-name="Trazado 986414" transform="translate(495 3586.025)" fill="#fbeadf">
            <path d="M 95 100 C 82.24874877929688 100 69.88127136230469 98.6729736328125 58.24107360839844 96.05582427978516 C 52.65200042724609 94.79917144775391 47.26259994506836 93.24424743652344 42.22259902954102 91.43424987792969 C 37.23714828491211 89.64382171630859 32.55097579956055 87.58869934082031 28.29425048828125 85.32589721679688 C 24.04759979248047 83.06847381591797 20.19479942321777 80.58657836914062 16.84287452697754 77.94915008544922 C 13.47257518768311 75.29724884033203 10.58087539672852 72.46607208251953 8.248100280761719 69.53424835205078 C 3.438600063323975 63.48972320556641 1 57.08567428588867 1 50.5 C 1 43.91432571411133 3.438600063323975 37.51027679443359 8.248100280761719 31.46574974060059 C 10.58087539672852 28.5339241027832 13.47257518768311 25.70274925231934 16.84287452697754 23.05084991455078 C 20.19479942321777 20.41342544555664 24.04759979248047 17.9315242767334 28.29425048828125 15.67409992218018 C 32.55097579956055 13.41129970550537 37.23714828491211 11.35617542266846 42.22259902954102 9.565750122070312 C 47.26259994506836 7.755750179290771 52.65200042724609 6.200825214385986 58.24107360839844 4.944174766540527 C 69.88127136230469 2.327024936676025 82.24874877929688 1 95 1 C 107.7512512207031 1 120.1187286376953 2.327024936676025 131.7589263916016 4.944174766540527 C 137.3480072021484 6.200825214385986 142.7373962402344 7.755750179290771 147.7774047851562 9.565750122070312 C 152.7628479003906 11.35617542266846 157.4490203857422 13.41129970550537 161.7057495117188 15.67409992218018 C 165.952392578125 17.9315242767334 169.8052062988281 20.41342544555664 173.1571197509766 23.05084991455078 C 176.5274200439453 25.70274925231934 179.4191284179688 28.5339241027832 181.7519073486328 31.46574974060059 C 186.5614013671875 37.51027679443359 189 43.91432571411133 189 50.5 C 189 57.08567428588867 186.5614013671875 63.48972320556641 181.7519073486328 69.53424835205078 C 179.4191284179688 72.46607208251953 176.5274200439453 75.29724884033203 173.1571197509766 77.94915008544922 C 169.8052062988281 80.58657836914062 165.952392578125 83.06847381591797 161.7057495117188 85.32589721679688 C 157.4490203857422 87.58869934082031 152.7628479003906 89.64382171630859 147.7774047851562 91.43424987792969 C 142.7373962402344 93.24424743652344 137.3480072021484 94.79917144775391 131.7589263916016 96.05582427978516 C 120.1187286376953 98.6729736328125 107.7512512207031 100 95 100 Z" stroke="none"/>
            <path d="M 95 2 C 82.32242584228516 2 70.02874755859375 3.318824768066406 58.46044921875 5.919822692871094 C 52.91142272949219 7.167449951171875 47.56195068359375 8.710777282714844 42.56057739257812 10.50689697265625 C 37.62013244628906 12.28115081787109 32.9781494140625 14.31674957275391 28.76362609863281 16.55709838867188 C 24.56930541992188 18.78672790527344 20.76663208007812 21.23594665527344 17.46124267578125 23.83674621582031 C 14.15170288085938 26.44082641601562 11.31523132324219 29.21707153320312 9.030593872070312 32.08837127685547 C 4.36541748046875 37.9515266418457 2 44.14609909057617 2 50.5 C 2 56.85390090942383 4.36541748046875 63.0484733581543 9.030593872070312 68.91162109375 C 11.31523132324219 71.78292846679688 14.15170288085938 74.55917358398438 17.46124267578125 77.16325378417969 C 20.76663208007812 79.76405334472656 24.56930541992188 82.21327209472656 28.76362609863281 84.44290161132812 C 32.9781494140625 86.68325042724609 37.62013244628906 88.71884918212891 42.56057739257812 90.49310302734375 C 47.56195068359375 92.28922271728516 52.91142272949219 93.83255004882812 58.46044921875 95.08017730712891 C 70.02874755859375 97.68117523193359 82.32242584228516 99 95 99 C 107.6775741577148 99 119.9712524414062 97.68117523193359 131.53955078125 95.08017730712891 C 137.0885772705078 93.83255004882812 142.4380493164062 92.28922271728516 147.4394226074219 90.49310302734375 C 152.3798828125 88.71884918212891 157.0218505859375 86.68325042724609 161.2363739013672 84.44290161132812 C 165.4306945800781 82.21327209472656 169.2333679199219 79.76405334472656 172.5387573242188 77.16325378417969 C 175.8482971191406 74.55917358398438 178.6847686767578 71.78292846679688 180.9694061279297 68.91162109375 C 185.6345825195312 63.0484733581543 188 56.85390090942383 188 50.5 C 188 44.14609909057617 185.6345825195312 37.9515266418457 180.9694061279297 32.08837127685547 C 178.6847686767578 29.21707153320312 175.8482971191406 26.44082641601562 172.5387573242188 23.83674621582031 C 169.2333679199219 21.23594665527344 165.4306945800781 18.78672790527344 161.2363739013672 16.55709838867188 C 157.0218505859375 14.31674957275391 152.3798828125 12.28115081787109 147.4394226074219 10.50689697265625 C 142.4380493164062 8.710777282714844 137.0885772705078 7.167449951171875 131.53955078125 5.919822692871094 C 119.9712524414062 3.318824768066406 107.6775741577148 2 95 2 M 95 0 C 147.467041015625 0 190 22.60962677001953 190 50.5 C 190 78.39037322998047 147.467041015625 101 95 101 C 42.53294372558594 101 0 78.39037322998047 0 50.5 C 0 22.60962677001953 42.53294372558594 0 95 0 Z" stroke="none" fill="#01899b"/>
          </g>
          <g id="Trazado_986415" data-name="Trazado 986415" transform="translate(705 3586.025)" fill="#fbeadf">
            <path d="M 95 100 C 82.24874877929688 100 69.88127136230469 98.6729736328125 58.24107360839844 96.05582427978516 C 52.65200042724609 94.79917144775391 47.26259994506836 93.24424743652344 42.22259902954102 91.43424987792969 C 37.23714828491211 89.64382171630859 32.55097579956055 87.58869934082031 28.29425048828125 85.32589721679688 C 24.04759979248047 83.06847381591797 20.19479942321777 80.58657836914062 16.84287452697754 77.94915008544922 C 13.47257518768311 75.29724884033203 10.58087539672852 72.46607208251953 8.248100280761719 69.53424835205078 C 3.438600063323975 63.48972320556641 1 57.08567428588867 1 50.5 C 1 43.91432571411133 3.438600063323975 37.51027679443359 8.248100280761719 31.46574974060059 C 10.58087539672852 28.5339241027832 13.47257518768311 25.70274925231934 16.84287452697754 23.05084991455078 C 20.19479942321777 20.41342544555664 24.04759979248047 17.9315242767334 28.29425048828125 15.67409992218018 C 32.55097579956055 13.41129970550537 37.23714828491211 11.35617542266846 42.22259902954102 9.565750122070312 C 47.26259994506836 7.755750179290771 52.65200042724609 6.200825214385986 58.24107360839844 4.944174766540527 C 69.88127136230469 2.327024936676025 82.24874877929688 1 95 1 C 107.7512512207031 1 120.1187286376953 2.327024936676025 131.7589263916016 4.944174766540527 C 137.3480072021484 6.200825214385986 142.7373962402344 7.755750179290771 147.7774047851562 9.565750122070312 C 152.7628479003906 11.35617542266846 157.4490203857422 13.41129970550537 161.7057495117188 15.67409992218018 C 165.952392578125 17.9315242767334 169.8052062988281 20.41342544555664 173.1571197509766 23.05084991455078 C 176.5274200439453 25.70274925231934 179.4191284179688 28.5339241027832 181.7519073486328 31.46574974060059 C 186.5614013671875 37.51027679443359 189 43.91432571411133 189 50.5 C 189 57.08567428588867 186.5614013671875 63.48972320556641 181.7519073486328 69.53424835205078 C 179.4191284179688 72.46607208251953 176.5274200439453 75.29724884033203 173.1571197509766 77.94915008544922 C 169.8052062988281 80.58657836914062 165.952392578125 83.06847381591797 161.7057495117188 85.32589721679688 C 157.4490203857422 87.58869934082031 152.7628479003906 89.64382171630859 147.7774047851562 91.43424987792969 C 142.7373962402344 93.24424743652344 137.3480072021484 94.79917144775391 131.7589263916016 96.05582427978516 C 120.1187286376953 98.6729736328125 107.7512512207031 100 95 100 Z" stroke="none"/>
            <path d="M 95 2 C 82.32242584228516 2 70.02874755859375 3.318824768066406 58.46044921875 5.919822692871094 C 52.91142272949219 7.167449951171875 47.56195068359375 8.710777282714844 42.56057739257812 10.50689697265625 C 37.62013244628906 12.28115081787109 32.9781494140625 14.31674957275391 28.76362609863281 16.55709838867188 C 24.56930541992188 18.78672790527344 20.76663208007812 21.23594665527344 17.46124267578125 23.83674621582031 C 14.15170288085938 26.44082641601562 11.31523132324219 29.21707153320312 9.030593872070312 32.08837127685547 C 4.36541748046875 37.9515266418457 2 44.14609909057617 2 50.5 C 2 56.85390090942383 4.36541748046875 63.0484733581543 9.030593872070312 68.91162109375 C 11.31523132324219 71.78292846679688 14.15170288085938 74.55917358398438 17.46124267578125 77.16325378417969 C 20.76663208007812 79.76405334472656 24.56930541992188 82.21327209472656 28.76362609863281 84.44290161132812 C 32.9781494140625 86.68325042724609 37.62013244628906 88.71884918212891 42.56057739257812 90.49310302734375 C 47.56195068359375 92.28922271728516 52.91142272949219 93.83255004882812 58.46044921875 95.08017730712891 C 70.02874755859375 97.68117523193359 82.32242584228516 99 95 99 C 107.6775741577148 99 119.9712524414062 97.68117523193359 131.53955078125 95.08017730712891 C 137.0885772705078 93.83255004882812 142.4380493164062 92.28922271728516 147.4394226074219 90.49310302734375 C 152.3798828125 88.71884918212891 157.0218505859375 86.68325042724609 161.2363739013672 84.44290161132812 C 165.4306945800781 82.21327209472656 169.2333679199219 79.76405334472656 172.5387573242188 77.16325378417969 C 175.8482971191406 74.55917358398438 178.6847686767578 71.78292846679688 180.9694061279297 68.91162109375 C 185.6345825195312 63.0484733581543 188 56.85390090942383 188 50.5 C 188 44.14609909057617 185.6345825195312 37.9515266418457 180.9694061279297 32.08837127685547 C 178.6847686767578 29.21707153320312 175.8482971191406 26.44082641601562 172.5387573242188 23.83674621582031 C 169.2333679199219 21.23594665527344 165.4306945800781 18.78672790527344 161.2363739013672 16.55709838867188 C 157.0218505859375 14.31674957275391 152.3798828125 12.28115081787109 147.4394226074219 10.50689697265625 C 142.4380493164062 8.710777282714844 137.0885772705078 7.167449951171875 131.53955078125 5.919822692871094 C 119.9712524414062 3.318824768066406 107.6775741577148 2 95 2 M 95 0 C 147.467041015625 0 190 22.60962677001953 190 50.5 C 190 78.39037322998047 147.467041015625 101 95 101 C 42.53294372558594 101 0 78.39037322998047 0 50.5 C 0 22.60962677001953 42.53294372558594 0 95 0 Z" stroke="none" fill="#01899b"/>
          </g>
          <g id="Trazado_986416" data-name="Trazado 986416" transform="translate(915 3586.025)" fill="#fbeadf">
            <path d="M 95 100 C 82.24874877929688 100 69.88127136230469 98.6729736328125 58.24107360839844 96.05582427978516 C 52.65200042724609 94.79917144775391 47.26259994506836 93.24424743652344 42.22259902954102 91.43424987792969 C 37.23714828491211 89.64382171630859 32.55097579956055 87.58869934082031 28.29425048828125 85.32589721679688 C 24.04759979248047 83.06847381591797 20.19479942321777 80.58657836914062 16.84287452697754 77.94915008544922 C 13.47257518768311 75.29724884033203 10.58087539672852 72.46607208251953 8.248100280761719 69.53424835205078 C 3.438600063323975 63.48972320556641 1 57.08567428588867 1 50.5 C 1 43.91432571411133 3.438600063323975 37.51027679443359 8.248100280761719 31.46574974060059 C 10.58087539672852 28.5339241027832 13.47257518768311 25.70274925231934 16.84287452697754 23.05084991455078 C 20.19479942321777 20.41342544555664 24.04759979248047 17.9315242767334 28.29425048828125 15.67409992218018 C 32.55097579956055 13.41129970550537 37.23714828491211 11.35617542266846 42.22259902954102 9.565750122070312 C 47.26259994506836 7.755750179290771 52.65200042724609 6.200825214385986 58.24107360839844 4.944174766540527 C 69.88127136230469 2.327024936676025 82.24874877929688 1 95 1 C 107.7512512207031 1 120.1187286376953 2.327024936676025 131.7589263916016 4.944174766540527 C 137.3480072021484 6.200825214385986 142.7373962402344 7.755750179290771 147.7774047851562 9.565750122070312 C 152.7628479003906 11.35617542266846 157.4490203857422 13.41129970550537 161.7057495117188 15.67409992218018 C 165.952392578125 17.9315242767334 169.8052062988281 20.41342544555664 173.1571197509766 23.05084991455078 C 176.5274200439453 25.70274925231934 179.4191284179688 28.5339241027832 181.7519073486328 31.46574974060059 C 186.5614013671875 37.51027679443359 189 43.91432571411133 189 50.5 C 189 57.08567428588867 186.5614013671875 63.48972320556641 181.7519073486328 69.53424835205078 C 179.4191284179688 72.46607208251953 176.5274200439453 75.29724884033203 173.1571197509766 77.94915008544922 C 169.8052062988281 80.58657836914062 165.952392578125 83.06847381591797 161.7057495117188 85.32589721679688 C 157.4490203857422 87.58869934082031 152.7628479003906 89.64382171630859 147.7774047851562 91.43424987792969 C 142.7373962402344 93.24424743652344 137.3480072021484 94.79917144775391 131.7589263916016 96.05582427978516 C 120.1187286376953 98.6729736328125 107.7512512207031 100 95 100 Z" stroke="none"/>
            <path d="M 95 2 C 82.32242584228516 2 70.02874755859375 3.318824768066406 58.46044921875 5.919822692871094 C 52.91142272949219 7.167449951171875 47.56195068359375 8.710777282714844 42.56057739257812 10.50689697265625 C 37.62013244628906 12.28115081787109 32.9781494140625 14.31674957275391 28.76362609863281 16.55709838867188 C 24.56930541992188 18.78672790527344 20.76663208007812 21.23594665527344 17.46124267578125 23.83674621582031 C 14.15170288085938 26.44082641601562 11.31523132324219 29.21707153320312 9.030593872070312 32.08837127685547 C 4.36541748046875 37.9515266418457 2 44.14609909057617 2 50.5 C 2 56.85390090942383 4.36541748046875 63.0484733581543 9.030593872070312 68.91162109375 C 11.31523132324219 71.78292846679688 14.15170288085938 74.55917358398438 17.46124267578125 77.16325378417969 C 20.76663208007812 79.76405334472656 24.56930541992188 82.21327209472656 28.76362609863281 84.44290161132812 C 32.9781494140625 86.68325042724609 37.62013244628906 88.71884918212891 42.56057739257812 90.49310302734375 C 47.56195068359375 92.28922271728516 52.91142272949219 93.83255004882812 58.46044921875 95.08017730712891 C 70.02874755859375 97.68117523193359 82.32242584228516 99 95 99 C 107.6775741577148 99 119.9712524414062 97.68117523193359 131.53955078125 95.08017730712891 C 137.0885772705078 93.83255004882812 142.4380493164062 92.28922271728516 147.4394226074219 90.49310302734375 C 152.3798828125 88.71884918212891 157.0218505859375 86.68325042724609 161.2363739013672 84.44290161132812 C 165.4306945800781 82.21327209472656 169.2333679199219 79.76405334472656 172.5387573242188 77.16325378417969 C 175.8482971191406 74.55917358398438 178.6847686767578 71.78292846679688 180.9694061279297 68.91162109375 C 185.6345825195312 63.0484733581543 188 56.85390090942383 188 50.5 C 188 44.14609909057617 185.6345825195312 37.9515266418457 180.9694061279297 32.08837127685547 C 178.6847686767578 29.21707153320312 175.8482971191406 26.44082641601562 172.5387573242188 23.83674621582031 C 169.2333679199219 21.23594665527344 165.4306945800781 18.78672790527344 161.2363739013672 16.55709838867188 C 157.0218505859375 14.31674957275391 152.3798828125 12.28115081787109 147.4394226074219 10.50689697265625 C 142.4380493164062 8.710777282714844 137.0885772705078 7.167449951171875 131.53955078125 5.919822692871094 C 119.9712524414062 3.318824768066406 107.6775741577148 2 95 2 M 95 0 C 147.467041015625 0 190 22.60962677001953 190 50.5 C 190 78.39037322998047 147.467041015625 101 95 101 C 42.53294372558594 101 0 78.39037322998047 0 50.5 C 0 22.60962677001953 42.53294372558594 0 95 0 Z" stroke="none" fill="#01899b"/>
          </g>
          <path id="Trazado_986712" data-name="Trazado 986712" d="M27.562,17V5.8H31.64a5.093,5.093,0,0,1,2.883.688A2.211,2.211,0,0,1,35.53,8.422a2.293,2.293,0,0,1-.613,1.586,3.222,3.222,0,0,1-1.566.945v.031a3.1,3.1,0,0,1,1.91.883,2.469,2.469,0,0,1,.715,1.789,2.99,2.99,0,0,1-1.1,2.441,4.61,4.61,0,0,1-3.008.9Zm2.523-9.344v2.656h1.109a1.849,1.849,0,0,0,1.23-.379,1.291,1.291,0,0,0,.449-1.043q0-1.234-1.844-1.234Zm0,4.531v2.953h1.367a2.1,2.1,0,0,0,1.371-.406,1.357,1.357,0,0,0,.5-1.109,1.266,1.266,0,0,0-.488-1.055,2.16,2.16,0,0,0-1.363-.383ZM47.673,17h-2.75l-.8-2.492H40.141L39.352,17H36.618L40.7,5.8h2.992Zm-4.125-4.43L42.344,8.8A4.907,4.907,0,0,1,42.157,7.8h-.062a4.273,4.273,0,0,1-.2.977l-1.219,3.8ZM55.744,17H49.073V5.8H51.6v9.156h4.148Zm11.713,0h-2.75l-.8-2.492H59.926L59.137,17H56.4L60.48,5.8h2.992Zm-4.125-4.43L62.129,8.8A4.907,4.907,0,0,1,61.941,7.8h-.062a4.273,4.273,0,0,1-.2.977l-1.219,3.8ZM78.935,17H76.388L71.771,9.961a10.178,10.178,0,0,1-.562-.93h-.031q.062.594.063,1.813V17H68.857V5.8h2.719l4.445,6.82q.3.461.563.914h.031a11.979,11.979,0,0,1-.062-1.539V5.8h2.383Zm10.6-.4a7.388,7.388,0,0,1-3.2.594,5.4,5.4,0,0,1-4.055-1.516A5.54,5.54,0,0,1,80.8,11.641a5.919,5.919,0,0,1,1.66-4.359,5.807,5.807,0,0,1,4.309-1.672,8.058,8.058,0,0,1,2.766.414v2.43a4.9,4.9,0,0,0-2.562-.672,3.4,3.4,0,0,0-2.547.992,3.682,3.682,0,0,0-.969,2.688,3.611,3.611,0,0,0,.914,2.59,3.229,3.229,0,0,0,2.461.965,5.249,5.249,0,0,0,2.7-.719ZM98.2,17H91.485V5.8h6.461V7.852H94.009v2.492h3.664v2.047H94.009v2.563h4.2ZM31.134,41H28.6V36.438H23.962V41H21.439V29.8h2.523v4.469H28.6V29.8h2.531Zm5.088,0H33.7V29.8h2.523Zm2.033-.43v-2.5a4.8,4.8,0,0,0,1.477.855,4.746,4.746,0,0,0,1.609.285,3.569,3.569,0,0,0,.832-.086,1.949,1.949,0,0,0,.594-.238,1.039,1.039,0,0,0,.355-.359.9.9,0,0,0,.117-.449.971.971,0,0,0-.187-.586,2.018,2.018,0,0,0-.512-.477,5.347,5.347,0,0,0-.77-.422q-.445-.2-.961-.414a4.9,4.9,0,0,1-1.957-1.336,2.917,2.917,0,0,1-.645-1.906,3.036,3.036,0,0,1,.352-1.5,2.986,2.986,0,0,1,.957-1.035,4.291,4.291,0,0,1,1.4-.6,7.206,7.206,0,0,1,1.688-.191,10.15,10.15,0,0,1,1.551.105,6.1,6.1,0,0,1,1.246.324v2.336a3.768,3.768,0,0,0-.613-.344,4.859,4.859,0,0,0-.684-.246,5.214,5.214,0,0,0-.7-.145,4.949,4.949,0,0,0-.66-.047,3.443,3.443,0,0,0-.781.082,2,2,0,0,0-.594.23,1.147,1.147,0,0,0-.375.355.843.843,0,0,0-.133.465.888.888,0,0,0,.148.5,1.7,1.7,0,0,0,.422.422,4.477,4.477,0,0,0,.664.391q.391.191.883.395a9.837,9.837,0,0,1,1.207.6,4.291,4.291,0,0,1,.918.715,2.785,2.785,0,0,1,.586.91,3.634,3.634,0,0,1-.152,2.766,2.886,2.886,0,0,1-.965,1.031,4.184,4.184,0,0,1-1.418.566,8.2,8.2,0,0,1-1.707.172,9.492,9.492,0,0,1-1.754-.156A5.3,5.3,0,0,1,38.255,40.57Zm17.353-8.719h-3.2V41H49.881V31.852H46.7V29.8h8.906ZM61.289,41.2a5.215,5.215,0,0,1-3.922-1.566,5.624,5.624,0,0,1-1.516-4.082,6.026,6.026,0,0,1,1.539-4.3,5.328,5.328,0,0,1,4.078-1.641,5.085,5.085,0,0,1,3.879,1.57,5.79,5.79,0,0,1,1.48,4.141,5.929,5.929,0,0,1-1.535,4.258A5.269,5.269,0,0,1,61.289,41.2Zm.109-9.414a2.54,2.54,0,0,0-2.109,1,4.153,4.153,0,0,0-.781,2.637,4.077,4.077,0,0,0,.781,2.633,2.7,2.7,0,0,0,4.117.027,4.032,4.032,0,0,0,.766-2.613,4.369,4.369,0,0,0-.742-2.711A2.42,2.42,0,0,0,61.4,31.781Zm2.547-5.547L61.5,28.758H59.719l2.031-2.523ZM78.08,41h-2.9l-1.742-2.883q-.2-.328-.375-.586a3.255,3.255,0,0,0-.363-.441,1.445,1.445,0,0,0-.383-.281.972.972,0,0,0-.434-.1H71.2V41H68.681V29.8h4q4.078,0,4.078,3.047a3.155,3.155,0,0,1-.18,1.082,3.006,3.006,0,0,1-.508.895,3.219,3.219,0,0,1-.793.688,4.09,4.09,0,0,1-1.035.453v.031a1.606,1.606,0,0,1,.484.254,3.469,3.469,0,0,1,.453.41,5.722,5.722,0,0,1,.418.5q.2.27.363.527ZM71.2,31.688V34.8H72.3a1.813,1.813,0,0,0,1.3-.469,1.564,1.564,0,0,0,.5-1.18q0-1.469-1.758-1.469ZM81.652,41H79.128V29.8h2.523Zm10.58-.4a7.388,7.388,0,0,1-3.2.594,5.4,5.4,0,0,1-4.055-1.516A5.54,5.54,0,0,1,83.5,35.641a5.919,5.919,0,0,1,1.66-4.359,5.807,5.807,0,0,1,4.309-1.672,8.058,8.058,0,0,1,2.766.414v2.43a4.9,4.9,0,0,0-2.562-.672,3.4,3.4,0,0,0-2.547.992,3.682,3.682,0,0,0-.969,2.688,3.611,3.611,0,0,0,.914,2.59,3.229,3.229,0,0,0,2.461.965,5.249,5.249,0,0,0,2.7-.719Zm6.494.594A5.215,5.215,0,0,1,94.8,39.629a5.624,5.624,0,0,1-1.516-4.082,6.026,6.026,0,0,1,1.539-4.3A5.328,5.328,0,0,1,98.9,29.609a5.085,5.085,0,0,1,3.879,1.57,5.79,5.79,0,0,1,1.48,4.141,5.929,5.929,0,0,1-1.535,4.258A5.269,5.269,0,0,1,98.725,41.2Zm.109-9.414a2.54,2.54,0,0,0-2.109,1,4.153,4.153,0,0,0-.781,2.637,4.077,4.077,0,0,0,.781,2.633,2.7,2.7,0,0,0,4.117.027,4.032,4.032,0,0,0,.766-2.613,4.369,4.369,0,0,0-.742-2.711A2.42,2.42,0,0,0,98.835,31.781Z" transform="translate(527.5 3614.525)" fill="#212429"/>
          <path id="Trazado_986713" data-name="Trazado 986713" d="M27.562,17V5.8H31.64a5.093,5.093,0,0,1,2.883.688A2.211,2.211,0,0,1,35.53,8.422a2.293,2.293,0,0,1-.613,1.586,3.222,3.222,0,0,1-1.566.945v.031a3.1,3.1,0,0,1,1.91.883,2.469,2.469,0,0,1,.715,1.789,2.99,2.99,0,0,1-1.1,2.441,4.61,4.61,0,0,1-3.008.9Zm2.523-9.344v2.656h1.109a1.849,1.849,0,0,0,1.23-.379,1.291,1.291,0,0,0,.449-1.043q0-1.234-1.844-1.234Zm0,4.531v2.953h1.367a2.1,2.1,0,0,0,1.371-.406,1.357,1.357,0,0,0,.5-1.109,1.266,1.266,0,0,0-.488-1.055,2.16,2.16,0,0,0-1.363-.383ZM47.673,17h-2.75l-.8-2.492H40.141L39.352,17H36.618L40.7,5.8h2.992Zm-4.125-4.43L42.344,8.8A4.907,4.907,0,0,1,42.157,7.8h-.062a4.273,4.273,0,0,1-.2.977l-1.219,3.8ZM55.744,17H49.073V5.8H51.6v9.156h4.148Zm11.713,0h-2.75l-.8-2.492H59.926L59.137,17H56.4L60.48,5.8h2.992Zm-4.125-4.43L62.129,8.8A4.907,4.907,0,0,1,61.941,7.8h-.062a4.273,4.273,0,0,1-.2.977l-1.219,3.8ZM78.935,17H76.388L71.771,9.961a10.178,10.178,0,0,1-.562-.93h-.031q.062.594.063,1.813V17H68.857V5.8h2.719l4.445,6.82q.3.461.563.914h.031a11.979,11.979,0,0,1-.062-1.539V5.8h2.383Zm10.6-.4a7.388,7.388,0,0,1-3.2.594,5.4,5.4,0,0,1-4.055-1.516A5.54,5.54,0,0,1,80.8,11.641a5.919,5.919,0,0,1,1.66-4.359,5.807,5.807,0,0,1,4.309-1.672,8.058,8.058,0,0,1,2.766.414v2.43a4.9,4.9,0,0,0-2.562-.672,3.4,3.4,0,0,0-2.547.992,3.682,3.682,0,0,0-.969,2.688,3.611,3.611,0,0,0,.914,2.59,3.229,3.229,0,0,0,2.461.965,5.249,5.249,0,0,0,2.7-.719ZM98.2,17H91.485V5.8h6.461V7.852H94.009v2.492h3.664v2.047H94.009v2.563h4.2ZM31.134,41H28.6V36.438H23.962V41H21.439V29.8h2.523v4.469H28.6V29.8h2.531Zm5.088,0H33.7V29.8h2.523Zm2.033-.43v-2.5a4.8,4.8,0,0,0,1.477.855,4.746,4.746,0,0,0,1.609.285,3.569,3.569,0,0,0,.832-.086,1.949,1.949,0,0,0,.594-.238,1.039,1.039,0,0,0,.355-.359.9.9,0,0,0,.117-.449.971.971,0,0,0-.187-.586,2.018,2.018,0,0,0-.512-.477,5.347,5.347,0,0,0-.77-.422q-.445-.2-.961-.414a4.9,4.9,0,0,1-1.957-1.336,2.917,2.917,0,0,1-.645-1.906,3.036,3.036,0,0,1,.352-1.5,2.986,2.986,0,0,1,.957-1.035,4.291,4.291,0,0,1,1.4-.6,7.206,7.206,0,0,1,1.688-.191,10.15,10.15,0,0,1,1.551.105,6.1,6.1,0,0,1,1.246.324v2.336a3.768,3.768,0,0,0-.613-.344,4.859,4.859,0,0,0-.684-.246,5.214,5.214,0,0,0-.7-.145,4.949,4.949,0,0,0-.66-.047,3.443,3.443,0,0,0-.781.082,2,2,0,0,0-.594.23,1.147,1.147,0,0,0-.375.355.843.843,0,0,0-.133.465.888.888,0,0,0,.148.5,1.7,1.7,0,0,0,.422.422,4.477,4.477,0,0,0,.664.391q.391.191.883.395a9.837,9.837,0,0,1,1.207.6,4.291,4.291,0,0,1,.918.715,2.785,2.785,0,0,1,.586.91,3.634,3.634,0,0,1-.152,2.766,2.886,2.886,0,0,1-.965,1.031,4.184,4.184,0,0,1-1.418.566,8.2,8.2,0,0,1-1.707.172,9.492,9.492,0,0,1-1.754-.156A5.3,5.3,0,0,1,38.255,40.57Zm17.353-8.719h-3.2V41H49.881V31.852H46.7V29.8h8.906ZM61.289,41.2a5.215,5.215,0,0,1-3.922-1.566,5.624,5.624,0,0,1-1.516-4.082,6.026,6.026,0,0,1,1.539-4.3,5.328,5.328,0,0,1,4.078-1.641,5.085,5.085,0,0,1,3.879,1.57,5.79,5.79,0,0,1,1.48,4.141,5.929,5.929,0,0,1-1.535,4.258A5.269,5.269,0,0,1,61.289,41.2Zm.109-9.414a2.54,2.54,0,0,0-2.109,1,4.153,4.153,0,0,0-.781,2.637,4.077,4.077,0,0,0,.781,2.633,2.7,2.7,0,0,0,4.117.027,4.032,4.032,0,0,0,.766-2.613,4.369,4.369,0,0,0-.742-2.711A2.42,2.42,0,0,0,61.4,31.781Zm2.547-5.547L61.5,28.758H59.719l2.031-2.523ZM78.08,41h-2.9l-1.742-2.883q-.2-.328-.375-.586a3.255,3.255,0,0,0-.363-.441,1.445,1.445,0,0,0-.383-.281.972.972,0,0,0-.434-.1H71.2V41H68.681V29.8h4q4.078,0,4.078,3.047a3.155,3.155,0,0,1-.18,1.082,3.006,3.006,0,0,1-.508.895,3.219,3.219,0,0,1-.793.688,4.09,4.09,0,0,1-1.035.453v.031a1.606,1.606,0,0,1,.484.254,3.469,3.469,0,0,1,.453.41,5.722,5.722,0,0,1,.418.5q.2.27.363.527ZM71.2,31.688V34.8H72.3a1.813,1.813,0,0,0,1.3-.469,1.564,1.564,0,0,0,.5-1.18q0-1.469-1.758-1.469ZM81.652,41H79.128V29.8h2.523Zm10.58-.4a7.388,7.388,0,0,1-3.2.594,5.4,5.4,0,0,1-4.055-1.516A5.54,5.54,0,0,1,83.5,35.641a5.919,5.919,0,0,1,1.66-4.359,5.807,5.807,0,0,1,4.309-1.672,8.058,8.058,0,0,1,2.766.414v2.43a4.9,4.9,0,0,0-2.562-.672,3.4,3.4,0,0,0-2.547.992,3.682,3.682,0,0,0-.969,2.688,3.611,3.611,0,0,0,.914,2.59,3.229,3.229,0,0,0,2.461.965,5.249,5.249,0,0,0,2.7-.719Zm6.494.594A5.215,5.215,0,0,1,94.8,39.629a5.624,5.624,0,0,1-1.516-4.082,6.026,6.026,0,0,1,1.539-4.3A5.328,5.328,0,0,1,98.9,29.609a5.085,5.085,0,0,1,3.879,1.57,5.79,5.79,0,0,1,1.48,4.141,5.929,5.929,0,0,1-1.535,4.258A5.269,5.269,0,0,1,98.725,41.2Zm.109-9.414a2.54,2.54,0,0,0-2.109,1,4.153,4.153,0,0,0-.781,2.637,4.077,4.077,0,0,0,.781,2.633,2.7,2.7,0,0,0,4.117.027,4.032,4.032,0,0,0,.766-2.613,4.369,4.369,0,0,0-.742-2.711A2.42,2.42,0,0,0,98.835,31.781Z" transform="translate(737.5 3614.525)" fill="#212429"/>
          <path id="Trazado_986714" data-name="Trazado 986714" d="M27.562,17V5.8H31.64a5.093,5.093,0,0,1,2.883.688A2.211,2.211,0,0,1,35.53,8.422a2.293,2.293,0,0,1-.613,1.586,3.222,3.222,0,0,1-1.566.945v.031a3.1,3.1,0,0,1,1.91.883,2.469,2.469,0,0,1,.715,1.789,2.99,2.99,0,0,1-1.1,2.441,4.61,4.61,0,0,1-3.008.9Zm2.523-9.344v2.656h1.109a1.849,1.849,0,0,0,1.23-.379,1.291,1.291,0,0,0,.449-1.043q0-1.234-1.844-1.234Zm0,4.531v2.953h1.367a2.1,2.1,0,0,0,1.371-.406,1.357,1.357,0,0,0,.5-1.109,1.266,1.266,0,0,0-.488-1.055,2.16,2.16,0,0,0-1.363-.383ZM47.673,17h-2.75l-.8-2.492H40.141L39.352,17H36.618L40.7,5.8h2.992Zm-4.125-4.43L42.344,8.8A4.907,4.907,0,0,1,42.157,7.8h-.062a4.273,4.273,0,0,1-.2.977l-1.219,3.8ZM55.744,17H49.073V5.8H51.6v9.156h4.148Zm11.713,0h-2.75l-.8-2.492H59.926L59.137,17H56.4L60.48,5.8h2.992Zm-4.125-4.43L62.129,8.8A4.907,4.907,0,0,1,61.941,7.8h-.062a4.273,4.273,0,0,1-.2.977l-1.219,3.8ZM78.935,17H76.388L71.771,9.961a10.178,10.178,0,0,1-.562-.93h-.031q.062.594.063,1.813V17H68.857V5.8h2.719l4.445,6.82q.3.461.563.914h.031a11.979,11.979,0,0,1-.062-1.539V5.8h2.383Zm10.6-.4a7.388,7.388,0,0,1-3.2.594,5.4,5.4,0,0,1-4.055-1.516A5.54,5.54,0,0,1,80.8,11.641a5.919,5.919,0,0,1,1.66-4.359,5.807,5.807,0,0,1,4.309-1.672,8.058,8.058,0,0,1,2.766.414v2.43a4.9,4.9,0,0,0-2.562-.672,3.4,3.4,0,0,0-2.547.992,3.682,3.682,0,0,0-.969,2.688,3.611,3.611,0,0,0,.914,2.59,3.229,3.229,0,0,0,2.461.965,5.249,5.249,0,0,0,2.7-.719ZM98.2,17H91.485V5.8h6.461V7.852H94.009v2.492h3.664v2.047H94.009v2.563h4.2Zm-83.7,20.141V41H11.985V29.8h3.953q4.234,0,4.234,3.57a3.426,3.426,0,0,1-1.215,2.73,4.813,4.813,0,0,1-3.246,1.043Zm0-5.406v3.492H15.5q2.016,0,2.016-1.766,0-1.727-2.016-1.727ZM31.213,41h-2.9l-1.742-2.883q-.2-.328-.375-.586a3.255,3.255,0,0,0-.363-.441,1.445,1.445,0,0,0-.383-.281.972.972,0,0,0-.434-.1h-.68V41H21.815V29.8h4q4.078,0,4.078,3.047a3.155,3.155,0,0,1-.18,1.082,3.006,3.006,0,0,1-.508.895,3.219,3.219,0,0,1-.793.688,4.09,4.09,0,0,1-1.035.453v.031a1.606,1.606,0,0,1,.484.254,3.469,3.469,0,0,1,.453.41,5.722,5.722,0,0,1,.418.5q.2.27.363.527Zm-6.875-9.312V34.8h1.094a1.813,1.813,0,0,0,1.3-.469,1.564,1.564,0,0,0,.5-1.18q0-1.469-1.758-1.469ZM36.84,41.2a5.215,5.215,0,0,1-3.922-1.566A5.624,5.624,0,0,1,31.4,35.547a6.026,6.026,0,0,1,1.539-4.3,5.328,5.328,0,0,1,4.078-1.641A5.085,5.085,0,0,1,40.9,31.18a5.789,5.789,0,0,1,1.48,4.141,5.929,5.929,0,0,1-1.535,4.258A5.269,5.269,0,0,1,36.84,41.2Zm.109-9.414a2.54,2.54,0,0,0-2.109,1,4.153,4.153,0,0,0-.781,2.637,4.077,4.077,0,0,0,.781,2.633,2.7,2.7,0,0,0,4.117.027,4.032,4.032,0,0,0,.766-2.613,4.369,4.369,0,0,0-.742-2.711A2.42,2.42,0,0,0,36.949,31.781ZM52.365,29.8l-3.648,7.219V41H46.193V37.063L42.638,29.8h2.883l1.8,4.18q.047.117.258.914h.031a4.07,4.07,0,0,1,.242-.883L49.693,29.8ZM60.351,41H53.632V29.8h6.461v2.055H56.155v2.492H59.82v2.047H56.155v2.563h4.2Zm9.83-.4a7.388,7.388,0,0,1-3.2.594,5.4,5.4,0,0,1-4.055-1.516,5.54,5.54,0,0,1-1.477-4.039,5.919,5.919,0,0,1,1.66-4.359,5.807,5.807,0,0,1,4.309-1.672,8.058,8.058,0,0,1,2.766.414v2.43a4.9,4.9,0,0,0-2.562-.672,3.4,3.4,0,0,0-2.547.992,3.682,3.682,0,0,0-.969,2.688,3.611,3.611,0,0,0,.914,2.59,3.229,3.229,0,0,0,2.461.965,5.249,5.249,0,0,0,2.7-.719ZM80,31.852h-3.2V41H74.276V31.852H71.1V29.8H80ZM90.246,41H87.5l-.8-2.492H82.715L81.926,41H79.191L83.27,29.8h2.992Zm-4.125-4.43-1.2-3.766a4.908,4.908,0,0,1-.187-1.008h-.062a4.273,4.273,0,0,1-.2.977l-1.219,3.8ZM91.646,41V29.8h3.969q5.969,0,5.969,5.461a5.522,5.522,0,0,1-1.629,4.18A6.007,6.007,0,0,1,95.615,41Zm2.523-9.148v7.1h1.25a3.378,3.378,0,0,0,2.574-.984,3.735,3.735,0,0,0,.934-2.68A3.388,3.388,0,0,0,98,32.77a3.529,3.529,0,0,0-2.6-.918ZM108.179,41.2a5.215,5.215,0,0,1-3.922-1.566,5.624,5.624,0,0,1-1.516-4.082,6.026,6.026,0,0,1,1.539-4.3,5.328,5.328,0,0,1,4.078-1.641,5.085,5.085,0,0,1,3.879,1.57,5.79,5.79,0,0,1,1.48,4.141,5.929,5.929,0,0,1-1.535,4.258A5.269,5.269,0,0,1,108.179,41.2Zm.109-9.414a2.54,2.54,0,0,0-2.109,1,4.153,4.153,0,0,0-.781,2.637,4.077,4.077,0,0,0,.781,2.633,2.7,2.7,0,0,0,4.117.027,4.032,4.032,0,0,0,.766-2.613,4.369,4.369,0,0,0-.742-2.711A2.42,2.42,0,0,0,108.288,31.781Z" transform="translate(947.5 3614.525)" fill="#212429"/>
        </g>
      </g>
    </g>
  </g>
</svg>
