<svg xmlns="http://www.w3.org/2000/svg" width="525" height="405" viewBox="0 0 525 405">
  <g id="Grupo_1151831" data-name="Grupo 1151831" transform="translate(-495 -3191)">
    <path id="Trazado_986750" data-name="Trazado 986750" d="M0,0H525V405H0Z" transform="translate(495 3191)" fill="#fdf4ee"/>
    <path id="Trazado_986751" data-name="Trazado 986751" d="M23.647,19h-6.68V6.4h6.4V7.732H18.444v4.192H23v1.327H18.444v4.412h5.2ZM33.527,7.732H29.889V19H28.412V7.732h-3.63V6.4h8.745ZM44.032,19H42.4l-1.336-3.533H35.718L34.461,19H32.817L37.651,6.4h1.529Zm-3.454-4.86L38.6,8.77a5.142,5.142,0,0,1-.193-.844h-.035a4.708,4.708,0,0,1-.2.844l-1.96,5.37Zm6.787.1V19H45.888V6.4h3.463a4.571,4.571,0,0,1,3.133.984A3.515,3.515,0,0,1,53.6,10.158a3.82,3.82,0,0,1-1.235,2.936,4.718,4.718,0,0,1-3.335,1.143Zm0-6.5V12.9h1.547a3.458,3.458,0,0,0,2.333-.7,2.474,2.474,0,0,0,.8-1.973q0-2.5-2.953-2.5ZM64.5,19H62.862l-1.336-3.533H56.182L54.925,19H53.282L58.116,6.4h1.529Zm-3.454-4.86L59.065,8.77a5.142,5.142,0,0,1-.193-.844h-.035a4.708,4.708,0,0,1-.2.844l-1.96,5.37Zm4.722,4.351V16.75a3.38,3.38,0,0,0,.716.475,5.8,5.8,0,0,0,.879.356,7,7,0,0,0,.927.224,5.17,5.17,0,0,0,.861.079,3.374,3.374,0,0,0,2.035-.505,1.9,1.9,0,0,0,.448-2.342,2.525,2.525,0,0,0-.62-.69,6.148,6.148,0,0,0-.936-.6q-.541-.286-1.165-.6-.659-.334-1.23-.677a5.332,5.332,0,0,1-.993-.756,3.153,3.153,0,0,1-.664-.936,2.9,2.9,0,0,1-.242-1.226,2.883,2.883,0,0,1,.378-1.5A3.242,3.242,0,0,1,67.153,7a4.5,4.5,0,0,1,1.4-.615,6.419,6.419,0,0,1,1.6-.2,6.147,6.147,0,0,1,2.716.448V8.295a4.923,4.923,0,0,0-2.865-.773,4.712,4.712,0,0,0-.967.1,2.731,2.731,0,0,0-.861.33,1.908,1.908,0,0,0-.615.589,1.563,1.563,0,0,0-.237.879,1.809,1.809,0,0,0,.18.835,2.046,2.046,0,0,0,.532.642,5.3,5.3,0,0,0,.857.563q.505.272,1.165.6.677.334,1.283.7a5.865,5.865,0,0,1,1.063.817,3.632,3.632,0,0,1,.725.993,2.792,2.792,0,0,1,.268,1.248,3.165,3.165,0,0,1-.365,1.578,2.993,2.993,0,0,1-.984,1.05,4.3,4.3,0,0,1-1.428.584,7.822,7.822,0,0,1-1.705.18,6.948,6.948,0,0,1-.738-.048q-.439-.048-.9-.141a7.315,7.315,0,0,1-.866-.229A2.694,2.694,0,0,1,65.764,18.49ZM90.606,19H88.971l-1.336-3.533H82.291L81.034,19H79.391L84.225,6.4h1.529Zm-3.454-4.86L85.174,8.77a5.142,5.142,0,0,1-.193-.844h-.035a4.708,4.708,0,0,1-.2.844l-1.96,5.37Zm20,4.86h-1.635l-1.336-3.533H98.836L97.579,19H95.935l4.834-12.6H102.3ZM103.7,14.14l-1.978-5.37a5.142,5.142,0,0,1-.193-.844h-.035a4.708,4.708,0,0,1-.2.844l-1.96,5.37Zm4.722,4.351V16.75a3.38,3.38,0,0,0,.716.475,5.8,5.8,0,0,0,.879.356,7,7,0,0,0,.927.224,5.17,5.17,0,0,0,.861.079,3.374,3.374,0,0,0,2.035-.505,1.9,1.9,0,0,0,.448-2.342,2.525,2.525,0,0,0-.62-.69,6.148,6.148,0,0,0-.936-.6q-.541-.286-1.165-.6-.659-.334-1.23-.677a5.332,5.332,0,0,1-.993-.756,3.153,3.153,0,0,1-.664-.936,2.9,2.9,0,0,1-.242-1.226,2.883,2.883,0,0,1,.378-1.5A3.242,3.242,0,0,1,109.806,7a4.5,4.5,0,0,1,1.4-.615,6.419,6.419,0,0,1,1.6-.2,6.147,6.147,0,0,1,2.716.448V8.295a4.923,4.923,0,0,0-2.865-.773,4.712,4.712,0,0,0-.967.1,2.731,2.731,0,0,0-.861.33,1.908,1.908,0,0,0-.615.589,1.563,1.563,0,0,0-.237.879,1.809,1.809,0,0,0,.18.835,2.046,2.046,0,0,0,.532.642,5.3,5.3,0,0,0,.857.563q.505.272,1.165.6.677.334,1.283.7a5.865,5.865,0,0,1,1.063.817,3.632,3.632,0,0,1,.725.993,2.792,2.792,0,0,1,.268,1.248,3.165,3.165,0,0,1-.365,1.578,2.993,2.993,0,0,1-.984,1.05,4.3,4.3,0,0,1-1.428.584,7.822,7.822,0,0,1-1.705.18,6.948,6.948,0,0,1-.738-.048q-.439-.048-.9-.141a7.315,7.315,0,0,1-.866-.229A2.694,2.694,0,0,1,108.418,18.49Zm16.833.51h-6.68V6.4h6.4V7.732h-4.922v4.192H124.6v1.327h-4.553v4.412h5.2Zm11.849-.861a8.428,8.428,0,0,1-4.219,1.072,5.765,5.765,0,0,1-4.364-1.74,6.383,6.383,0,0,1-1.666-4.605,6.554,6.554,0,0,1,1.85-4.8,6.307,6.307,0,0,1,4.689-1.876,7.979,7.979,0,0,1,3.454.668V8.488a6.634,6.634,0,0,0-3.621-.967,4.524,4.524,0,0,0-3.472,1.459A5.336,5.336,0,0,0,128.4,12.76a5.339,5.339,0,0,0,1.257,3.757,4.405,4.405,0,0,0,3.41,1.367,5.269,5.269,0,0,0,2.558-.589V13.762h-2.76V12.426H137.1ZM149.248,13.9q0,5.309-4.79,5.309-4.588,0-4.588-5.106V6.4h1.477v7.611q0,3.876,3.27,3.876,3.155,0,3.155-3.744V6.4h1.477Zm4.625,5.1H152.4V6.4h1.477Zm12.35,0h-1.758l-2.109-3.533a7.7,7.7,0,0,0-.562-.839,3.207,3.207,0,0,0-.558-.567,1.933,1.933,0,0,0-.615-.321,2.53,2.53,0,0,0-.743-.1h-1.213V19h-1.477V6.4h3.762a5.361,5.361,0,0,1,1.525.207,3.412,3.412,0,0,1,1.213.628,2.92,2.92,0,0,1,.8,1.05,3.483,3.483,0,0,1,.29,1.472,3.545,3.545,0,0,1-.2,1.208,3.156,3.156,0,0,1-.562.98,3.41,3.41,0,0,1-.879.734,4.487,4.487,0,0,1-1.156.47v.035a2.658,2.658,0,0,1,.549.321,3.023,3.023,0,0,1,.444.426,5.646,5.646,0,0,1,.417.558q.207.312.461.725ZM158.665,7.732V12.3h2a3.039,3.039,0,0,0,1.024-.167,2.37,2.37,0,0,0,.813-.479,2.172,2.172,0,0,0,.536-.765,2.56,2.56,0,0,0,.193-1.015A1.976,1.976,0,0,0,162.58,8.3a2.813,2.813,0,0,0-1.894-.567ZM179.569,19h-6.68V6.4h6.4V7.732h-4.922v4.192h4.553v1.327h-4.553v4.412h5.2Zm12.588,0h-1.811L183.86,8.954a4.2,4.2,0,0,1-.4-.791H183.4a12.976,12.976,0,0,1,.07,1.731V19H182V6.4h1.916l6.311,9.888q.4.615.51.844h.035a13.335,13.335,0,0,1-.088-1.854V6.4h1.477Zm14.778,0H200.4V6.4h1.477V17.664h5.063Zm12.219,0h-1.635l-1.336-3.533h-5.344L209.582,19h-1.644l4.834-12.6H214.3ZM215.7,14.14l-1.978-5.37a5.142,5.142,0,0,1-.193-.844h-.035a4.708,4.708,0,0,1-.2.844l-1.96,5.37ZM232.622,19h-6.68V6.4h6.4V7.732h-4.922v4.192h4.553v1.327h-4.553v4.412h5.2Zm8.967,0h-6.539V6.4h1.477V17.664h5.063Zm12.219,0h-1.635l-1.336-3.533h-5.344L244.236,19h-1.644l4.834-12.6h1.529Zm-3.454-4.86-1.978-5.37a5.142,5.142,0,0,1-.193-.844h-.035a4.708,4.708,0,0,1-.2.844l-1.96,5.37Zm5.31,4.86V6.4h3.586a3.919,3.919,0,0,1,2.593.8,2.585,2.585,0,0,1,.958,2.083,3.065,3.065,0,0,1-.58,1.863,3.128,3.128,0,0,1-1.6,1.125V12.3a3.206,3.206,0,0,1,2.039.962,2.96,2.96,0,0,1,.765,2.114A3.3,3.3,0,0,1,262.264,18a4.318,4.318,0,0,1-2.927,1ZM257.14,7.732V11.8h1.512a2.871,2.871,0,0,0,1.907-.584,2.035,2.035,0,0,0,.694-1.648q0-1.837-2.417-1.837Zm0,5.4v4.535h2a3,3,0,0,0,2.017-.615,2.107,2.107,0,0,0,.716-1.687q0-2.232-3.041-2.232Zm13.924,6.082a5.532,5.532,0,0,1-4.293-1.767,6.552,6.552,0,0,1-1.613-4.6A6.943,6.943,0,0,1,266.8,8a5.74,5.74,0,0,1,4.474-1.811,5.408,5.408,0,0,1,4.206,1.758,6.576,6.576,0,0,1,1.6,4.6,6.965,6.965,0,0,1-1.635,4.878A5.634,5.634,0,0,1,271.064,19.211Zm.105-11.689a4.063,4.063,0,0,0-3.226,1.433,5.546,5.546,0,0,0-1.239,3.762,5.585,5.585,0,0,0,1.208,3.749,3.941,3.941,0,0,0,3.151,1.419,4.138,4.138,0,0,0,3.27-1.354,5.532,5.532,0,0,0,1.2-3.788,5.78,5.78,0,0,0-1.16-3.858A3.978,3.978,0,0,0,271.169,7.521ZM288.591,19h-1.758l-2.109-3.533a7.7,7.7,0,0,0-.562-.839,3.207,3.207,0,0,0-.558-.567,1.933,1.933,0,0,0-.615-.321,2.53,2.53,0,0,0-.743-.1h-1.213V19h-1.477V6.4h3.762a5.361,5.361,0,0,1,1.525.207,3.412,3.412,0,0,1,1.213.628,2.92,2.92,0,0,1,.8,1.05,3.483,3.483,0,0,1,.29,1.472,3.545,3.545,0,0,1-.2,1.208,3.156,3.156,0,0,1-.562.98,3.41,3.41,0,0,1-.879.734,4.487,4.487,0,0,1-1.156.47v.035a2.658,2.658,0,0,1,.549.321,3.023,3.023,0,0,1,.444.426,5.646,5.646,0,0,1,.417.558q.207.312.461.725ZM281.032,7.732V12.3h2a3.039,3.039,0,0,0,1.024-.167,2.37,2.37,0,0,0,.813-.479,2.172,2.172,0,0,0,.536-.765,2.56,2.56,0,0,0,.193-1.015,1.976,1.976,0,0,0-.655-1.578,2.813,2.813,0,0,0-1.894-.567ZM300.08,19h-1.635l-1.336-3.533h-5.344L290.508,19h-1.644L293.7,6.4h1.529Zm-3.454-4.86-1.978-5.37a5.142,5.142,0,0,1-.193-.844h-.035a4.708,4.708,0,0,1-.2.844l-1.96,5.37Zm13.537,4.333a7.392,7.392,0,0,1-3.48.738,5.613,5.613,0,0,1-4.307-1.731,6.389,6.389,0,0,1-1.617-4.544,6.7,6.7,0,0,1,1.819-4.887,6.175,6.175,0,0,1,4.614-1.863,7.4,7.4,0,0,1,2.971.519V8.277a6.024,6.024,0,0,0-2.988-.756,4.585,4.585,0,0,0-3.52,1.45,5.463,5.463,0,0,0-1.349,3.876,5.2,5.2,0,0,0,1.261,3.669,4.292,4.292,0,0,0,3.309,1.367,6.208,6.208,0,0,0,3.287-.844Zm4.045.527h-1.477V6.4h1.477Zm8.4.211a5.532,5.532,0,0,1-4.293-1.767,6.552,6.552,0,0,1-1.613-4.6A6.943,6.943,0,0,1,318.34,8a5.74,5.74,0,0,1,4.474-1.811,5.408,5.408,0,0,1,4.206,1.758,6.576,6.576,0,0,1,1.6,4.6,6.965,6.965,0,0,1-1.635,4.878A5.634,5.634,0,0,1,322.6,19.211Zm.105-11.689a4.063,4.063,0,0,0-3.226,1.433,5.546,5.546,0,0,0-1.239,3.762,5.585,5.585,0,0,0,1.208,3.749,3.941,3.941,0,0,0,3.151,1.419,4.138,4.138,0,0,0,3.27-1.354,5.532,5.532,0,0,0,1.2-3.788,5.78,5.78,0,0,0-1.16-3.858A3.978,3.978,0,0,0,322.708,7.521Zm2.2-5.168-2.3,2.883h-1.116l1.96-2.883ZM341.255,19h-1.811L332.958,8.954a4.2,4.2,0,0,1-.4-.791H332.5a12.976,12.976,0,0,1,.07,1.731V19h-1.477V6.4h1.916l6.311,9.888q.4.615.51.844h.035a13.335,13.335,0,0,1-.088-1.854V6.4h1.477Zm8.239,0V6.4h3.48q6.662,0,6.662,6.144a6.191,6.191,0,0,1-1.85,4.689A6.863,6.863,0,0,1,352.834,19ZM350.97,7.732v9.932h1.881a5.338,5.338,0,0,0,3.858-1.327,4.975,4.975,0,0,0,1.38-3.762q0-4.843-5.15-4.843ZM368.8,19h-6.68V6.4h6.4V7.732h-4.922v4.192h4.553v1.327h-4.553v4.412h5.2Zm8.837-4.764V19h-1.477V6.4h3.463a4.571,4.571,0,0,1,3.133.984,3.515,3.515,0,0,1,1.112,2.777,3.82,3.82,0,0,1-1.235,2.936,4.718,4.718,0,0,1-3.335,1.143Zm0-6.5V12.9h1.547a3.458,3.458,0,0,0,2.333-.7,2.474,2.474,0,0,0,.8-1.973q0-2.5-2.953-2.5ZM395.275,19h-1.758l-2.109-3.533a7.7,7.7,0,0,0-.562-.839,3.207,3.207,0,0,0-.558-.567,1.933,1.933,0,0,0-.615-.321,2.53,2.53,0,0,0-.743-.1h-1.213V19h-1.477V6.4H390a5.361,5.361,0,0,1,1.525.207,3.412,3.412,0,0,1,1.213.628,2.92,2.92,0,0,1,.8,1.05,3.483,3.483,0,0,1,.29,1.472,3.545,3.545,0,0,1-.2,1.208,3.156,3.156,0,0,1-.562.98,3.41,3.41,0,0,1-.879.734,4.487,4.487,0,0,1-1.156.47v.035a2.658,2.658,0,0,1,.549.321,3.023,3.023,0,0,1,.444.426,5.646,5.646,0,0,1,.417.558q.207.312.461.725ZM387.716,7.732V12.3h2a3.039,3.039,0,0,0,1.024-.167,2.37,2.37,0,0,0,.813-.479,2.172,2.172,0,0,0,.536-.765,2.56,2.56,0,0,0,.193-1.015,1.976,1.976,0,0,0-.655-1.578,2.813,2.813,0,0,0-1.894-.567ZM403.688,19h-6.68V6.4h6.4V7.732h-4.922v4.192h4.553v1.327h-4.553v4.412h5.2Zm1.839-.51V16.75a3.38,3.38,0,0,0,.716.475,5.8,5.8,0,0,0,.879.356,7,7,0,0,0,.927.224,5.17,5.17,0,0,0,.861.079,3.374,3.374,0,0,0,2.035-.505,1.9,1.9,0,0,0,.448-2.342,2.525,2.525,0,0,0-.62-.69,6.148,6.148,0,0,0-.936-.6q-.541-.286-1.165-.6-.659-.334-1.23-.677a5.332,5.332,0,0,1-.993-.756,3.153,3.153,0,0,1-.664-.936,2.9,2.9,0,0,1-.242-1.226,2.883,2.883,0,0,1,.378-1.5A3.242,3.242,0,0,1,406.915,7a4.5,4.5,0,0,1,1.4-.615,6.419,6.419,0,0,1,1.6-.2,6.147,6.147,0,0,1,2.716.448V8.295a4.923,4.923,0,0,0-2.865-.773,4.712,4.712,0,0,0-.967.1,2.731,2.731,0,0,0-.861.33,1.908,1.908,0,0,0-.615.589,1.563,1.563,0,0,0-.237.879,1.809,1.809,0,0,0,.18.835,2.046,2.046,0,0,0,.532.642,5.3,5.3,0,0,0,.857.563q.505.272,1.165.6.677.334,1.283.7a5.865,5.865,0,0,1,1.063.817,3.632,3.632,0,0,1,.725.993,2.792,2.792,0,0,1,.268,1.248A3.165,3.165,0,0,1,412.8,17.4a2.993,2.993,0,0,1-.984,1.05,4.3,4.3,0,0,1-1.428.584,7.822,7.822,0,0,1-1.705.18,6.948,6.948,0,0,1-.738-.048q-.439-.048-.9-.141a7.315,7.315,0,0,1-.866-.229A2.694,2.694,0,0,1,405.526,18.49ZM424.9,13.9q0,5.309-4.79,5.309-4.588,0-4.588-5.106V6.4H417v7.611q0,3.876,3.27,3.876,3.155,0,3.155-3.744V6.4H424.9Zm4.625.334V19h-1.477V6.4h3.463a4.571,4.571,0,0,1,3.133.984,3.515,3.515,0,0,1,1.112,2.777,3.82,3.82,0,0,1-1.235,2.936,4.718,4.718,0,0,1-3.335,1.143Zm0-6.5V12.9h1.547a3.458,3.458,0,0,0,2.333-.7,2.474,2.474,0,0,0,.8-1.973q0-2.5-2.953-2.5ZM447.35,13.9q0,5.309-4.79,5.309-4.588,0-4.588-5.106V6.4h1.477v7.611q0,3.876,3.27,3.876,3.155,0,3.155-3.744V6.4h1.477Zm9.828,5.1H450.5V6.4h6.4V7.732h-4.922v4.192h4.553v1.327h-4.553v4.412h5.2Zm1.839-.51V16.75a3.38,3.38,0,0,0,.716.475,5.8,5.8,0,0,0,.879.356,7,7,0,0,0,.927.224,5.17,5.17,0,0,0,.861.079,3.374,3.374,0,0,0,2.035-.505,1.9,1.9,0,0,0,.448-2.342,2.525,2.525,0,0,0-.62-.69,6.148,6.148,0,0,0-.936-.6q-.541-.286-1.165-.6-.659-.334-1.23-.677a5.332,5.332,0,0,1-.993-.756,3.153,3.153,0,0,1-.664-.936,2.9,2.9,0,0,1-.242-1.226,2.883,2.883,0,0,1,.378-1.5A3.242,3.242,0,0,1,460.405,7a4.5,4.5,0,0,1,1.4-.615,6.419,6.419,0,0,1,1.6-.2,6.147,6.147,0,0,1,2.716.448V8.295a4.923,4.923,0,0,0-2.865-.773,4.712,4.712,0,0,0-.967.1,2.731,2.731,0,0,0-.861.33,1.908,1.908,0,0,0-.615.589,1.563,1.563,0,0,0-.237.879,1.809,1.809,0,0,0,.18.835,2.046,2.046,0,0,0,.532.642,5.3,5.3,0,0,0,.857.563q.505.272,1.165.6.677.334,1.283.7a5.865,5.865,0,0,1,1.063.817,3.632,3.632,0,0,1,.725.993,2.792,2.792,0,0,1,.268,1.248,3.165,3.165,0,0,1-.365,1.578,2.993,2.993,0,0,1-.984,1.05,4.3,4.3,0,0,1-1.428.584,7.822,7.822,0,0,1-1.705.18,6.948,6.948,0,0,1-.738-.048q-.439-.048-.9-.141a7.315,7.315,0,0,1-.866-.229A2.694,2.694,0,0,1,459.017,18.49ZM476.623,7.732h-3.639V19h-1.477V7.732h-3.63V6.4h8.745Zm6.224,11.479a5.532,5.532,0,0,1-4.293-1.767,6.552,6.552,0,0,1-1.613-4.6A6.943,6.943,0,0,1,478.585,8a5.74,5.74,0,0,1,4.474-1.811,5.408,5.408,0,0,1,4.206,1.758,6.576,6.576,0,0,1,1.6,4.6,6.965,6.965,0,0,1-1.635,4.878A5.634,5.634,0,0,1,482.847,19.211Zm.105-11.689a4.063,4.063,0,0,0-3.226,1.433,5.546,5.546,0,0,0-1.239,3.762,5.585,5.585,0,0,0,1.208,3.749,3.941,3.941,0,0,0,3.151,1.419,4.138,4.138,0,0,0,3.27-1.354,5.532,5.532,0,0,0,1.2-3.788,5.78,5.78,0,0,0-1.16-3.858A3.978,3.978,0,0,0,482.953,7.521Z" transform="translate(505 3222.706)" fill="#212429"/>
    <path id="Trazado_986752" data-name="Trazado 986752" d="M3.129-4.764V0H1.652V-12.6H5.115a4.571,4.571,0,0,1,3.133.984A3.515,3.515,0,0,1,9.36-8.842,3.82,3.82,0,0,1,8.125-5.906,4.718,4.718,0,0,1,4.79-4.764Zm0-6.5V-6.1H4.676a3.458,3.458,0,0,0,2.333-.7,2.474,2.474,0,0,0,.8-1.973q0-2.5-2.953-2.5ZM20.77,0H19.013L16.9-3.533a7.7,7.7,0,0,0-.562-.839,3.207,3.207,0,0,0-.558-.567,1.933,1.933,0,0,0-.615-.321,2.53,2.53,0,0,0-.743-.1H13.212V0H11.735V-12.6H15.5a5.361,5.361,0,0,1,1.525.207,3.412,3.412,0,0,1,1.213.628,2.92,2.92,0,0,1,.8,1.05,3.483,3.483,0,0,1,.29,1.472,3.545,3.545,0,0,1-.2,1.208,3.156,3.156,0,0,1-.562.98,3.41,3.41,0,0,1-.879.734,4.487,4.487,0,0,1-1.156.47v.035a2.658,2.658,0,0,1,.549.321,3.023,3.023,0,0,1,.444.426,5.646,5.646,0,0,1,.417.558q.207.312.461.725ZM13.212-11.268V-6.7h2a3.039,3.039,0,0,0,1.024-.167,2.37,2.37,0,0,0,.813-.479,2.172,2.172,0,0,0,.536-.765,2.56,2.56,0,0,0,.193-1.015,1.976,1.976,0,0,0-.655-1.578,2.813,2.813,0,0,0-1.894-.567ZM29.183,0H22.5V-12.6h6.4v1.336H23.98v4.192h4.553v1.327H23.98v4.412h5.2Zm3.9,0H31.611V-12.6h1.477ZM46.563,0H44.752L38.266-10.046a4.2,4.2,0,0,1-.4-.791h-.053a12.976,12.976,0,0,1,.07,1.731V0H36.4V-12.6h1.916l6.311,9.888q.4.615.51.844h.035a13.335,13.335,0,0,1-.088-1.854V-12.6h1.477Zm4.783,0H49.869V-12.6h1.477ZM63.239-.527a7.392,7.392,0,0,1-3.48.738,5.613,5.613,0,0,1-4.307-1.731,6.389,6.389,0,0,1-1.617-4.544,6.7,6.7,0,0,1,1.819-4.887,6.175,6.175,0,0,1,4.614-1.863,7.4,7.4,0,0,1,2.971.519v1.573a6.024,6.024,0,0,0-2.988-.756,4.585,4.585,0,0,0-3.52,1.45,5.463,5.463,0,0,0-1.349,3.876,5.2,5.2,0,0,0,1.261,3.669,4.292,4.292,0,0,0,3.309,1.367,6.208,6.208,0,0,0,3.287-.844ZM67.284,0H65.808V-12.6h1.477ZM80.355,0H78.72L77.385-3.533H72.041L70.784,0H69.14l4.834-12.6H75.5ZM76.9-4.86l-1.978-5.37a5.142,5.142,0,0,1-.193-.844H74.7a4.708,4.708,0,0,1-.2.844l-1.96,5.37ZM90.438-.527a7.392,7.392,0,0,1-3.48.738,5.613,5.613,0,0,1-4.307-1.731,6.389,6.389,0,0,1-1.617-4.544,6.7,6.7,0,0,1,1.819-4.887,6.175,6.175,0,0,1,4.614-1.863,7.4,7.4,0,0,1,2.971.519v1.573a6.024,6.024,0,0,0-2.988-.756,4.585,4.585,0,0,0-3.52,1.45,5.463,5.463,0,0,0-1.349,3.876,5.2,5.2,0,0,0,1.261,3.669,4.292,4.292,0,0,0,3.309,1.367,6.208,6.208,0,0,0,3.287-.844ZM94.483,0H93.006V-12.6h1.477Zm8.4.211a5.532,5.532,0,0,1-4.293-1.767,6.552,6.552,0,0,1-1.613-4.6A6.943,6.943,0,0,1,98.616-11a5.74,5.74,0,0,1,4.474-1.811,5.408,5.408,0,0,1,4.206,1.758,6.576,6.576,0,0,1,1.6,4.6,6.965,6.965,0,0,1-1.635,4.878A5.634,5.634,0,0,1,102.878.211Zm.105-11.689a4.063,4.063,0,0,0-3.226,1.433,5.546,5.546,0,0,0-1.239,3.762,5.585,5.585,0,0,0,1.208,3.749,3.941,3.941,0,0,0,3.151,1.419,4.138,4.138,0,0,0,3.27-1.354,5.532,5.532,0,0,0,1.2-3.788,5.78,5.78,0,0,0-1.16-3.858A3.978,3.978,0,0,0,102.984-11.479Zm2.2-5.168-2.3,2.883h-1.116l1.96-2.883ZM121.53,0H119.72l-6.486-10.046a4.2,4.2,0,0,1-.4-.791h-.053a12.976,12.976,0,0,1,.07,1.731V0H111.37V-12.6h1.916L119.6-2.716q.4.615.51.844h.035a13.335,13.335,0,0,1-.088-1.854V-12.6h1.477Z" transform="translate(505 3331.706)" fill="#212429"/>
    <path id="Trazado_986753" data-name="Trazado 986753" d="M8.332,0H1.652V-12.6h6.4v1.336H3.129v4.192H7.682v1.327H3.129v4.412h5.2ZM17.3,0H10.76V-12.6h1.477V-1.336H17.3ZM29.517,0H27.883L26.547-3.533H21.2L19.946,0H18.3l4.834-12.6h1.529ZM26.063-4.86l-1.978-5.37a5.142,5.142,0,0,1-.193-.844h-.035a4.708,4.708,0,0,1-.2.844L21.7-4.86ZM31.374,0V-12.6h3.586a3.919,3.919,0,0,1,2.593.8,2.585,2.585,0,0,1,.958,2.083,3.065,3.065,0,0,1-.58,1.863,3.128,3.128,0,0,1-1.6,1.125V-6.7a3.207,3.207,0,0,1,2.039.962,2.96,2.96,0,0,1,.765,2.114A3.3,3.3,0,0,1,37.974-1a4.318,4.318,0,0,1-2.927,1ZM32.85-11.268V-7.2h1.512a2.871,2.871,0,0,0,1.907-.584,2.035,2.035,0,0,0,.694-1.648q0-1.837-2.417-1.837Zm0,5.4v4.535h2a3,3,0,0,0,2.017-.615,2.107,2.107,0,0,0,.716-1.687q0-2.232-3.041-2.232ZM46.774.211A5.532,5.532,0,0,1,42.48-1.556a6.552,6.552,0,0,1-1.613-4.6A6.943,6.943,0,0,1,42.511-11a5.74,5.74,0,0,1,4.474-1.811,5.408,5.408,0,0,1,4.206,1.758,6.576,6.576,0,0,1,1.6,4.6,6.965,6.965,0,0,1-1.635,4.878A5.634,5.634,0,0,1,46.774.211Zm.105-11.689a4.063,4.063,0,0,0-3.226,1.433,5.546,5.546,0,0,0-1.239,3.762,5.585,5.585,0,0,0,1.208,3.749,3.941,3.941,0,0,0,3.151,1.419,4.138,4.138,0,0,0,3.27-1.354,5.532,5.532,0,0,0,1.2-3.788,5.78,5.78,0,0,0-1.16-3.858A3.978,3.978,0,0,0,46.879-11.479ZM64.3,0H62.543L60.434-3.533a7.7,7.7,0,0,0-.562-.839,3.207,3.207,0,0,0-.558-.567A1.933,1.933,0,0,0,58.7-5.26a2.53,2.53,0,0,0-.743-.1H56.742V0H55.266V-12.6h3.762a5.361,5.361,0,0,1,1.525.207,3.412,3.412,0,0,1,1.213.628,2.92,2.92,0,0,1,.8,1.05,3.483,3.483,0,0,1,.29,1.472,3.545,3.545,0,0,1-.2,1.208,3.156,3.156,0,0,1-.562.98,3.41,3.41,0,0,1-.879.734,4.487,4.487,0,0,1-1.156.47v.035a2.658,2.658,0,0,1,.549.321,3.023,3.023,0,0,1,.444.426,5.646,5.646,0,0,1,.417.558q.207.312.461.725ZM56.742-11.268V-6.7h2a3.039,3.039,0,0,0,1.024-.167,2.37,2.37,0,0,0,.813-.479,2.172,2.172,0,0,0,.536-.765,2.56,2.56,0,0,0,.193-1.015,1.976,1.976,0,0,0-.655-1.578,2.813,2.813,0,0,0-1.894-.567ZM75.79,0H74.155L72.819-3.533H67.476L66.219,0H64.575l4.834-12.6h1.529ZM72.336-4.86l-1.978-5.37a5.142,5.142,0,0,1-.193-.844H70.13a4.708,4.708,0,0,1-.2.844l-1.96,5.37ZM85.873-.527a7.392,7.392,0,0,1-3.48.738,5.613,5.613,0,0,1-4.307-1.731,6.389,6.389,0,0,1-1.617-4.544,6.7,6.7,0,0,1,1.819-4.887A6.175,6.175,0,0,1,82.9-12.814a7.4,7.4,0,0,1,2.971.519v1.573a6.024,6.024,0,0,0-2.988-.756,4.585,4.585,0,0,0-3.52,1.45,5.463,5.463,0,0,0-1.349,3.876,5.2,5.2,0,0,0,1.261,3.669,4.292,4.292,0,0,0,3.309,1.367,6.208,6.208,0,0,0,3.287-.844ZM89.918,0H88.441V-12.6h1.477Zm8.4.211A5.532,5.532,0,0,1,94.02-1.556a6.552,6.552,0,0,1-1.613-4.6A6.943,6.943,0,0,1,94.05-11a5.74,5.74,0,0,1,4.474-1.811,5.408,5.408,0,0,1,4.206,1.758,6.576,6.576,0,0,1,1.6,4.6,6.965,6.965,0,0,1-1.635,4.878A5.634,5.634,0,0,1,98.313.211Zm.105-11.689a4.063,4.063,0,0,0-3.226,1.433,5.546,5.546,0,0,0-1.239,3.762,5.585,5.585,0,0,0,1.208,3.749,3.941,3.941,0,0,0,3.151,1.419,4.138,4.138,0,0,0,3.27-1.354,5.532,5.532,0,0,0,1.2-3.788,5.78,5.78,0,0,0-1.16-3.858A3.978,3.978,0,0,0,98.419-11.479Zm2.2-5.168-2.3,2.883H97.2l1.96-2.883ZM116.965,0h-1.811l-6.486-10.046a4.2,4.2,0,0,1-.4-.791h-.053a12.976,12.976,0,0,1,.07,1.731V0h-1.477V-12.6h1.916l6.311,9.888q.4.615.51.844h.035a13.335,13.335,0,0,1-.088-1.854V-12.6h1.477Z" transform="translate(526 3373.706)" fill="#212429"/>
    <path id="Trazado_986754" data-name="Trazado 986754" d="M8.332,0H1.652V-12.6h6.4v1.336H3.129v4.192H7.682v1.327H3.129v4.412h5.2Zm5.653-4.518a5.633,5.633,0,0,1-.949,3.485A3.033,3.033,0,0,1,10.5.211,3,3,0,0,1,9.283,0V-1.459a2.052,2.052,0,0,0,1.23.343q2,0,2-3.384v-8.1h1.477ZM23.866,0h-6.68V-12.6h6.4v1.336H18.663v4.192h4.553v1.327H18.663v4.412h5.2ZM34.872-.527a7.392,7.392,0,0,1-3.48.738,5.613,5.613,0,0,1-4.307-1.731,6.389,6.389,0,0,1-1.617-4.544,6.7,6.7,0,0,1,1.819-4.887A6.175,6.175,0,0,1,31.9-12.814a7.4,7.4,0,0,1,2.971.519v1.573a6.024,6.024,0,0,0-2.988-.756,4.585,4.585,0,0,0-3.52,1.45,5.463,5.463,0,0,0-1.349,3.876,5.2,5.2,0,0,0,1.261,3.669,4.292,4.292,0,0,0,3.309,1.367,6.208,6.208,0,0,0,3.287-.844ZM46.66-5.1q0,5.309-4.79,5.309-4.588,0-4.588-5.106V-12.6h1.477v7.611q0,3.876,3.27,3.876,3.155,0,3.155-3.744V-12.6H46.66ZM58.386-.527a7.392,7.392,0,0,1-3.48.738A5.613,5.613,0,0,1,50.6-1.521a6.389,6.389,0,0,1-1.617-4.544A6.7,6.7,0,0,1,50.8-10.951a6.175,6.175,0,0,1,4.614-1.863,7.4,7.4,0,0,1,2.971.519v1.573a6.024,6.024,0,0,0-2.988-.756,4.585,4.585,0,0,0-3.52,1.45,5.463,5.463,0,0,0-1.349,3.876A5.2,5.2,0,0,0,51.79-2.483,4.292,4.292,0,0,0,55.1-1.116a6.208,6.208,0,0,0,3.287-.844ZM62.431,0H60.954V-12.6h1.477Zm8.4.211a5.532,5.532,0,0,1-4.293-1.767,6.552,6.552,0,0,1-1.613-4.6A6.943,6.943,0,0,1,66.563-11a5.74,5.74,0,0,1,4.474-1.811,5.408,5.408,0,0,1,4.206,1.758,6.576,6.576,0,0,1,1.6,4.6A6.965,6.965,0,0,1,75.2-1.582,5.634,5.634,0,0,1,70.826.211Zm.105-11.689a4.063,4.063,0,0,0-3.226,1.433,5.546,5.546,0,0,0-1.239,3.762,5.585,5.585,0,0,0,1.208,3.749,3.941,3.941,0,0,0,3.151,1.419A4.138,4.138,0,0,0,74.1-2.47a5.532,5.532,0,0,0,1.2-3.788,5.78,5.78,0,0,0-1.16-3.858A3.978,3.978,0,0,0,70.932-11.479Zm2.2-5.168-2.3,2.883H69.71l1.96-2.883ZM89.478,0H87.668L81.181-10.046a4.2,4.2,0,0,1-.4-.791h-.053a12.976,12.976,0,0,1,.07,1.731V0H79.318V-12.6h1.916l6.311,9.888q.4.615.51.844h.035A13.335,13.335,0,0,1,88-3.727V-12.6h1.477Z" transform="translate(542 3415.706)" fill="#212429"/>
    <path id="Trazado_986755" data-name="Trazado 986755" d="M10.23-.527A7.392,7.392,0,0,1,6.75.211,5.613,5.613,0,0,1,2.443-1.521,6.389,6.389,0,0,1,.826-6.064a6.7,6.7,0,0,1,1.819-4.887A6.175,6.175,0,0,1,7.26-12.814a7.4,7.4,0,0,1,2.971.519v1.573a6.024,6.024,0,0,0-2.988-.756,4.585,4.585,0,0,0-3.52,1.45A5.463,5.463,0,0,0,2.373-6.152,5.2,5.2,0,0,0,3.634-2.483,4.292,4.292,0,0,0,6.943-1.116,6.208,6.208,0,0,0,10.23-1.96ZM17.4.211A5.532,5.532,0,0,1,13.1-1.556a6.552,6.552,0,0,1-1.613-4.6A6.943,6.943,0,0,1,13.133-11a5.74,5.74,0,0,1,4.474-1.811,5.408,5.408,0,0,1,4.206,1.758,6.576,6.576,0,0,1,1.6,4.6,6.965,6.965,0,0,1-1.635,4.878A5.634,5.634,0,0,1,17.4.211ZM17.5-11.479a4.063,4.063,0,0,0-3.226,1.433,5.546,5.546,0,0,0-1.239,3.762,5.585,5.585,0,0,0,1.208,3.749A3.941,3.941,0,0,0,17.4-1.116a4.138,4.138,0,0,0,3.27-1.354,5.532,5.532,0,0,0,1.2-3.788,5.78,5.78,0,0,0-1.16-3.858A3.978,3.978,0,0,0,17.5-11.479ZM36.048,0H34.237L27.751-10.046a4.2,4.2,0,0,1-.4-.791h-.053a12.976,12.976,0,0,1,.07,1.731V0H25.887V-12.6H27.8l6.311,9.888q.4.615.51.844h.035a13.334,13.334,0,0,1-.088-1.854V-12.6h1.477Zm10.76-11.268H43.168V0H41.692V-11.268h-3.63V-12.6h8.745ZM57.822,0H56.064L53.954-3.533a7.7,7.7,0,0,0-.562-.839,3.207,3.207,0,0,0-.558-.567,1.933,1.933,0,0,0-.615-.321,2.53,2.53,0,0,0-.743-.1H50.263V0H48.786V-12.6h3.762a5.361,5.361,0,0,1,1.525.207,3.412,3.412,0,0,1,1.213.628,2.92,2.92,0,0,1,.8,1.05,3.483,3.483,0,0,1,.29,1.472,3.545,3.545,0,0,1-.2,1.208,3.156,3.156,0,0,1-.562.98,3.41,3.41,0,0,1-.879.734,4.487,4.487,0,0,1-1.156.47v.035a2.658,2.658,0,0,1,.549.321,3.023,3.023,0,0,1,.444.426A5.646,5.646,0,0,1,55-4.513q.207.312.461.725ZM50.263-11.268V-6.7h2a3.039,3.039,0,0,0,1.024-.167,2.37,2.37,0,0,0,.813-.479,2.172,2.172,0,0,0,.536-.765,2.56,2.56,0,0,0,.193-1.015,1.976,1.976,0,0,0-.655-1.578,2.813,2.813,0,0,0-1.894-.567ZM64.459.211a5.532,5.532,0,0,1-4.293-1.767,6.552,6.552,0,0,1-1.613-4.6A6.943,6.943,0,0,1,60.2-11a5.74,5.74,0,0,1,4.474-1.811,5.408,5.408,0,0,1,4.206,1.758,6.576,6.576,0,0,1,1.6,4.6,6.965,6.965,0,0,1-1.635,4.878A5.634,5.634,0,0,1,64.459.211Zm.105-11.689a4.063,4.063,0,0,0-3.226,1.433A5.546,5.546,0,0,0,60.1-6.284a5.585,5.585,0,0,0,1.208,3.749,3.941,3.941,0,0,0,3.151,1.419,4.138,4.138,0,0,0,3.27-1.354,5.532,5.532,0,0,0,1.2-3.788,5.78,5.78,0,0,0-1.16-3.858A3.978,3.978,0,0,0,64.565-11.479ZM79.49,0H72.951V-12.6h1.477V-1.336H79.49Z" transform="translate(590 3457.706)" fill="#212429"/>
    <path id="Trazado_986756" data-name="Trazado 986756" d="M8.332,0H1.652V-12.6h6.4v1.336H3.129v4.192H7.682v1.327H3.129v4.412h5.2Zm11.8-12.6L15.462,0H13.836L9.265-12.6h1.644L14.4-2.61a5.934,5.934,0,0,1,.255,1.116h.035a5.475,5.475,0,0,1,.29-1.134l3.56-9.976ZM30.642,0H29.008L27.672-3.533H22.328L21.071,0H19.427l4.834-12.6h1.529ZM27.188-4.86l-1.978-5.37a5.142,5.142,0,0,1-.193-.844h-.035a4.708,4.708,0,0,1-.2.844L22.82-4.86ZM39.038,0H32.5V-12.6h1.477V-1.336h5.063Zm10.8-5.1q0,5.309-4.79,5.309-4.588,0-4.588-5.106V-12.6H41.94v7.611q0,3.876,3.27,3.876,3.155,0,3.155-3.744V-12.6h1.477ZM62.306,0H60.671L59.335-3.533H53.991L52.735,0H51.091l4.834-12.6h1.529ZM58.852-4.86l-1.978-5.37a5.142,5.142,0,0,1-.193-.844h-.035a4.708,4.708,0,0,1-.2.844l-1.96,5.37ZM72.389-.527a7.392,7.392,0,0,1-3.48.738A5.613,5.613,0,0,1,64.6-1.521a6.389,6.389,0,0,1-1.617-4.544A6.7,6.7,0,0,1,64.8-10.951a6.175,6.175,0,0,1,4.614-1.863,7.4,7.4,0,0,1,2.971.519v1.573a6.024,6.024,0,0,0-2.988-.756,4.585,4.585,0,0,0-3.52,1.45,5.463,5.463,0,0,0-1.349,3.876,5.2,5.2,0,0,0,1.261,3.669A4.292,4.292,0,0,0,69.1-1.116a6.208,6.208,0,0,0,3.287-.844ZM76.433,0H74.957V-12.6h1.477Zm8.4.211a5.532,5.532,0,0,1-4.293-1.767,6.552,6.552,0,0,1-1.613-4.6A6.943,6.943,0,0,1,80.566-11a5.74,5.74,0,0,1,4.474-1.811,5.408,5.408,0,0,1,4.206,1.758,6.576,6.576,0,0,1,1.6,4.6,6.965,6.965,0,0,1-1.635,4.878A5.634,5.634,0,0,1,84.829.211Zm.105-11.689a4.063,4.063,0,0,0-3.226,1.433,5.546,5.546,0,0,0-1.239,3.762,5.585,5.585,0,0,0,1.208,3.749,3.941,3.941,0,0,0,3.151,1.419A4.138,4.138,0,0,0,88.1-2.47a5.532,5.532,0,0,0,1.2-3.788,5.78,5.78,0,0,0-1.16-3.858A3.978,3.978,0,0,0,84.934-11.479Zm2.2-5.168-2.3,2.883H83.713l1.96-2.883ZM103.481,0H101.67L95.184-10.046a4.2,4.2,0,0,1-.4-.791h-.053a12.976,12.976,0,0,1,.07,1.731V0H93.321V-12.6h1.916l6.311,9.888q.4.615.51.844h.035A13.335,13.335,0,0,1,102-3.727V-12.6h1.477Z" transform="translate(610 3499.706)" fill="#212429"/>
    <path id="Trazado_986757" data-name="Trazado 986757" d="M3.129-4.764V0H1.652V-12.6H5.115a4.571,4.571,0,0,1,3.133.984A3.515,3.515,0,0,1,9.36-8.842,3.82,3.82,0,0,1,8.125-5.906,4.718,4.718,0,0,1,4.79-4.764Zm0-6.5V-6.1H4.676a3.458,3.458,0,0,0,2.333-.7,2.474,2.474,0,0,0,.8-1.973q0-2.5-2.953-2.5ZM20.77,0H19.013L16.9-3.533a7.7,7.7,0,0,0-.562-.839,3.207,3.207,0,0,0-.558-.567,1.933,1.933,0,0,0-.615-.321,2.53,2.53,0,0,0-.743-.1H13.212V0H11.735V-12.6H15.5a5.361,5.361,0,0,1,1.525.207,3.412,3.412,0,0,1,1.213.628,2.92,2.92,0,0,1,.8,1.05,3.483,3.483,0,0,1,.29,1.472,3.545,3.545,0,0,1-.2,1.208,3.156,3.156,0,0,1-.562.98,3.41,3.41,0,0,1-.879.734,4.487,4.487,0,0,1-1.156.47v.035a2.658,2.658,0,0,1,.549.321,3.023,3.023,0,0,1,.444.426,5.646,5.646,0,0,1,.417.558q.207.312.461.725ZM13.212-11.268V-6.7h2a3.039,3.039,0,0,0,1.024-.167,2.37,2.37,0,0,0,.813-.479,2.172,2.172,0,0,0,.536-.765,2.56,2.56,0,0,0,.193-1.015,1.976,1.976,0,0,0-.655-1.578,2.813,2.813,0,0,0-1.894-.567ZM29.183,0H22.5V-12.6h6.4v1.336H23.98v4.192h4.553v1.327H23.98v4.412h5.2Zm3.9,0H31.611V-12.6h1.477ZM46.563,0H44.752L38.266-10.046a4.2,4.2,0,0,1-.4-.791h-.053a12.976,12.976,0,0,1,.07,1.731V0H36.4V-12.6h1.916l6.311,9.888q.4.615.51.844h.035a13.335,13.335,0,0,1-.088-1.854V-12.6h1.477Zm4.783,0H49.869V-12.6h1.477ZM63.239-.527a7.392,7.392,0,0,1-3.48.738,5.613,5.613,0,0,1-4.307-1.731,6.389,6.389,0,0,1-1.617-4.544,6.7,6.7,0,0,1,1.819-4.887,6.175,6.175,0,0,1,4.614-1.863,7.4,7.4,0,0,1,2.971.519v1.573a6.024,6.024,0,0,0-2.988-.756,4.585,4.585,0,0,0-3.52,1.45,5.463,5.463,0,0,0-1.349,3.876,5.2,5.2,0,0,0,1.261,3.669,4.292,4.292,0,0,0,3.309,1.367,6.208,6.208,0,0,0,3.287-.844ZM67.284,0H65.808V-12.6h1.477ZM80.355,0H78.72L77.385-3.533H72.041L70.784,0H69.14l4.834-12.6H75.5ZM76.9-4.86l-1.978-5.37a5.142,5.142,0,0,1-.193-.844H74.7a4.708,4.708,0,0,1-.2.844l-1.96,5.37ZM90.438-.527a7.392,7.392,0,0,1-3.48.738,5.613,5.613,0,0,1-4.307-1.731,6.389,6.389,0,0,1-1.617-4.544,6.7,6.7,0,0,1,1.819-4.887,6.175,6.175,0,0,1,4.614-1.863,7.4,7.4,0,0,1,2.971.519v1.573a6.024,6.024,0,0,0-2.988-.756,4.585,4.585,0,0,0-3.52,1.45,5.463,5.463,0,0,0-1.349,3.876,5.2,5.2,0,0,0,1.261,3.669,4.292,4.292,0,0,0,3.309,1.367,6.208,6.208,0,0,0,3.287-.844ZM94.483,0H93.006V-12.6h1.477Zm8.4.211a5.532,5.532,0,0,1-4.293-1.767,6.552,6.552,0,0,1-1.613-4.6A6.943,6.943,0,0,1,98.616-11a5.74,5.74,0,0,1,4.474-1.811,5.408,5.408,0,0,1,4.206,1.758,6.576,6.576,0,0,1,1.6,4.6,6.965,6.965,0,0,1-1.635,4.878A5.634,5.634,0,0,1,102.878.211Zm.105-11.689a4.063,4.063,0,0,0-3.226,1.433,5.546,5.546,0,0,0-1.239,3.762,5.585,5.585,0,0,0,1.208,3.749,3.941,3.941,0,0,0,3.151,1.419,4.138,4.138,0,0,0,3.27-1.354,5.532,5.532,0,0,0,1.2-3.788,5.78,5.78,0,0,0-1.16-3.858A3.978,3.978,0,0,0,102.984-11.479Zm2.2-5.168-2.3,2.883h-1.116l1.96-2.883ZM121.53,0H119.72l-6.486-10.046a4.2,4.2,0,0,1-.4-.791h-.053a12.976,12.976,0,0,1,.07,1.731V0H111.37V-12.6h1.916L119.6-2.716q.4.615.51.844h.035a13.335,13.335,0,0,1-.088-1.854V-12.6h1.477Z" transform="translate(773 3499.706)" fill="#212429"/>
    <path id="Trazado_986758" data-name="Trazado 986758" d="M8.332,0H1.652V-12.6h6.4v1.336H3.129v4.192H7.682v1.327H3.129v4.412h5.2ZM17.3,0H10.76V-12.6h1.477V-1.336H17.3ZM29.517,0H27.883L26.547-3.533H21.2L19.946,0H18.3l4.834-12.6h1.529ZM26.063-4.86l-1.978-5.37a5.142,5.142,0,0,1-.193-.844h-.035a4.708,4.708,0,0,1-.2.844L21.7-4.86ZM31.374,0V-12.6h3.586a3.919,3.919,0,0,1,2.593.8,2.585,2.585,0,0,1,.958,2.083,3.065,3.065,0,0,1-.58,1.863,3.128,3.128,0,0,1-1.6,1.125V-6.7a3.207,3.207,0,0,1,2.039.962,2.96,2.96,0,0,1,.765,2.114A3.3,3.3,0,0,1,37.974-1a4.318,4.318,0,0,1-2.927,1ZM32.85-11.268V-7.2h1.512a2.871,2.871,0,0,0,1.907-.584,2.035,2.035,0,0,0,.694-1.648q0-1.837-2.417-1.837Zm0,5.4v4.535h2a3,3,0,0,0,2.017-.615,2.107,2.107,0,0,0,.716-1.687q0-2.232-3.041-2.232ZM46.774.211A5.532,5.532,0,0,1,42.48-1.556a6.552,6.552,0,0,1-1.613-4.6A6.943,6.943,0,0,1,42.511-11a5.74,5.74,0,0,1,4.474-1.811,5.408,5.408,0,0,1,4.206,1.758,6.576,6.576,0,0,1,1.6,4.6,6.965,6.965,0,0,1-1.635,4.878A5.634,5.634,0,0,1,46.774.211Zm.105-11.689a4.063,4.063,0,0,0-3.226,1.433,5.546,5.546,0,0,0-1.239,3.762,5.585,5.585,0,0,0,1.208,3.749,3.941,3.941,0,0,0,3.151,1.419,4.138,4.138,0,0,0,3.27-1.354,5.532,5.532,0,0,0,1.2-3.788,5.78,5.78,0,0,0-1.16-3.858A3.978,3.978,0,0,0,46.879-11.479ZM64.3,0H62.543L60.434-3.533a7.7,7.7,0,0,0-.562-.839,3.207,3.207,0,0,0-.558-.567A1.933,1.933,0,0,0,58.7-5.26a2.53,2.53,0,0,0-.743-.1H56.742V0H55.266V-12.6h3.762a5.361,5.361,0,0,1,1.525.207,3.412,3.412,0,0,1,1.213.628,2.92,2.92,0,0,1,.8,1.05,3.483,3.483,0,0,1,.29,1.472,3.545,3.545,0,0,1-.2,1.208,3.156,3.156,0,0,1-.562.98,3.41,3.41,0,0,1-.879.734,4.487,4.487,0,0,1-1.156.47v.035a2.658,2.658,0,0,1,.549.321,3.023,3.023,0,0,1,.444.426,5.646,5.646,0,0,1,.417.558q.207.312.461.725ZM56.742-11.268V-6.7h2a3.039,3.039,0,0,0,1.024-.167,2.37,2.37,0,0,0,.813-.479,2.172,2.172,0,0,0,.536-.765,2.56,2.56,0,0,0,.193-1.015,1.976,1.976,0,0,0-.655-1.578,2.813,2.813,0,0,0-1.894-.567ZM75.79,0H74.155L72.819-3.533H67.476L66.219,0H64.575l4.834-12.6h1.529ZM72.336-4.86l-1.978-5.37a5.142,5.142,0,0,1-.193-.844H70.13a4.708,4.708,0,0,1-.2.844l-1.96,5.37ZM85.873-.527a7.392,7.392,0,0,1-3.48.738,5.613,5.613,0,0,1-4.307-1.731,6.389,6.389,0,0,1-1.617-4.544,6.7,6.7,0,0,1,1.819-4.887A6.175,6.175,0,0,1,82.9-12.814a7.4,7.4,0,0,1,2.971.519v1.573a6.024,6.024,0,0,0-2.988-.756,4.585,4.585,0,0,0-3.52,1.45,5.463,5.463,0,0,0-1.349,3.876,5.2,5.2,0,0,0,1.261,3.669,4.292,4.292,0,0,0,3.309,1.367,6.208,6.208,0,0,0,3.287-.844ZM89.918,0H88.441V-12.6h1.477Zm8.4.211A5.532,5.532,0,0,1,94.02-1.556a6.552,6.552,0,0,1-1.613-4.6A6.943,6.943,0,0,1,94.05-11a5.74,5.74,0,0,1,4.474-1.811,5.408,5.408,0,0,1,4.206,1.758,6.576,6.576,0,0,1,1.6,4.6,6.965,6.965,0,0,1-1.635,4.878A5.634,5.634,0,0,1,98.313.211Zm.105-11.689a4.063,4.063,0,0,0-3.226,1.433,5.546,5.546,0,0,0-1.239,3.762,5.585,5.585,0,0,0,1.208,3.749,3.941,3.941,0,0,0,3.151,1.419,4.138,4.138,0,0,0,3.27-1.354,5.532,5.532,0,0,0,1.2-3.788,5.78,5.78,0,0,0-1.16-3.858A3.978,3.978,0,0,0,98.419-11.479Zm2.2-5.168-2.3,2.883H97.2l1.96-2.883ZM116.965,0h-1.811l-6.486-10.046a4.2,4.2,0,0,1-.4-.791h-.053a12.976,12.976,0,0,1,.07,1.731V0h-1.477V-12.6h1.916l6.311,9.888q.4.615.51.844h.035a13.335,13.335,0,0,1-.088-1.854V-12.6h1.477Z" transform="translate(820 3457.706)" fill="#212429"/>
    <path id="Trazado_986759" data-name="Trazado 986759" d="M8.332,0H1.652V-12.6h6.4v1.336H3.129v4.192H7.682v1.327H3.129v4.412h5.2Zm5.653-4.518a5.633,5.633,0,0,1-.949,3.485A3.033,3.033,0,0,1,10.5.211,3,3,0,0,1,9.283,0V-1.459a2.052,2.052,0,0,0,1.23.343q2,0,2-3.384v-8.1h1.477ZM23.866,0h-6.68V-12.6h6.4v1.336H18.663v4.192h4.553v1.327H18.663v4.412h5.2ZM34.872-.527a7.392,7.392,0,0,1-3.48.738,5.613,5.613,0,0,1-4.307-1.731,6.389,6.389,0,0,1-1.617-4.544,6.7,6.7,0,0,1,1.819-4.887A6.175,6.175,0,0,1,31.9-12.814a7.4,7.4,0,0,1,2.971.519v1.573a6.024,6.024,0,0,0-2.988-.756,4.585,4.585,0,0,0-3.52,1.45,5.463,5.463,0,0,0-1.349,3.876,5.2,5.2,0,0,0,1.261,3.669,4.292,4.292,0,0,0,3.309,1.367,6.208,6.208,0,0,0,3.287-.844ZM46.66-5.1q0,5.309-4.79,5.309-4.588,0-4.588-5.106V-12.6h1.477v7.611q0,3.876,3.27,3.876,3.155,0,3.155-3.744V-12.6H46.66ZM58.386-.527a7.392,7.392,0,0,1-3.48.738A5.613,5.613,0,0,1,50.6-1.521a6.389,6.389,0,0,1-1.617-4.544A6.7,6.7,0,0,1,50.8-10.951a6.175,6.175,0,0,1,4.614-1.863,7.4,7.4,0,0,1,2.971.519v1.573a6.024,6.024,0,0,0-2.988-.756,4.585,4.585,0,0,0-3.52,1.45,5.463,5.463,0,0,0-1.349,3.876A5.2,5.2,0,0,0,51.79-2.483,4.292,4.292,0,0,0,55.1-1.116a6.208,6.208,0,0,0,3.287-.844ZM62.431,0H60.954V-12.6h1.477Zm8.4.211a5.532,5.532,0,0,1-4.293-1.767,6.552,6.552,0,0,1-1.613-4.6A6.943,6.943,0,0,1,66.563-11a5.74,5.74,0,0,1,4.474-1.811,5.408,5.408,0,0,1,4.206,1.758,6.576,6.576,0,0,1,1.6,4.6A6.965,6.965,0,0,1,75.2-1.582,5.634,5.634,0,0,1,70.826.211Zm.105-11.689a4.063,4.063,0,0,0-3.226,1.433,5.546,5.546,0,0,0-1.239,3.762,5.585,5.585,0,0,0,1.208,3.749,3.941,3.941,0,0,0,3.151,1.419A4.138,4.138,0,0,0,74.1-2.47a5.532,5.532,0,0,0,1.2-3.788,5.78,5.78,0,0,0-1.16-3.858A3.978,3.978,0,0,0,70.932-11.479Zm2.2-5.168-2.3,2.883H69.71l1.96-2.883ZM89.478,0H87.668L81.181-10.046a4.2,4.2,0,0,1-.4-.791h-.053a12.976,12.976,0,0,1,.07,1.731V0H79.318V-12.6h1.916l6.311,9.888q.4.615.51.844h.035A13.335,13.335,0,0,1,88-3.727V-12.6h1.477Z" transform="translate(862 3415.706)" fill="#212429"/>
    <path id="Trazado_986760" data-name="Trazado 986760" d="M10.23-.527A7.392,7.392,0,0,1,6.75.211,5.613,5.613,0,0,1,2.443-1.521,6.389,6.389,0,0,1,.826-6.064a6.7,6.7,0,0,1,1.819-4.887A6.175,6.175,0,0,1,7.26-12.814a7.4,7.4,0,0,1,2.971.519v1.573a6.024,6.024,0,0,0-2.988-.756,4.585,4.585,0,0,0-3.52,1.45A5.463,5.463,0,0,0,2.373-6.152,5.2,5.2,0,0,0,3.634-2.483,4.292,4.292,0,0,0,6.943-1.116,6.208,6.208,0,0,0,10.23-1.96ZM17.4.211A5.532,5.532,0,0,1,13.1-1.556a6.552,6.552,0,0,1-1.613-4.6A6.943,6.943,0,0,1,13.133-11a5.74,5.74,0,0,1,4.474-1.811,5.408,5.408,0,0,1,4.206,1.758,6.576,6.576,0,0,1,1.6,4.6,6.965,6.965,0,0,1-1.635,4.878A5.634,5.634,0,0,1,17.4.211ZM17.5-11.479a4.063,4.063,0,0,0-3.226,1.433,5.546,5.546,0,0,0-1.239,3.762,5.585,5.585,0,0,0,1.208,3.749A3.941,3.941,0,0,0,17.4-1.116a4.138,4.138,0,0,0,3.27-1.354,5.532,5.532,0,0,0,1.2-3.788,5.78,5.78,0,0,0-1.16-3.858A3.978,3.978,0,0,0,17.5-11.479ZM36.048,0H34.237L27.751-10.046a4.2,4.2,0,0,1-.4-.791h-.053a12.976,12.976,0,0,1,.07,1.731V0H25.887V-12.6H27.8l6.311,9.888q.4.615.51.844h.035a13.334,13.334,0,0,1-.088-1.854V-12.6h1.477Zm10.76-11.268H43.168V0H41.692V-11.268h-3.63V-12.6h8.745ZM57.822,0H56.064L53.954-3.533a7.7,7.7,0,0,0-.562-.839,3.207,3.207,0,0,0-.558-.567,1.933,1.933,0,0,0-.615-.321,2.53,2.53,0,0,0-.743-.1H50.263V0H48.786V-12.6h3.762a5.361,5.361,0,0,1,1.525.207,3.412,3.412,0,0,1,1.213.628,2.92,2.92,0,0,1,.8,1.05,3.483,3.483,0,0,1,.29,1.472,3.545,3.545,0,0,1-.2,1.208,3.156,3.156,0,0,1-.562.98,3.41,3.41,0,0,1-.879.734,4.487,4.487,0,0,1-1.156.47v.035a2.658,2.658,0,0,1,.549.321,3.023,3.023,0,0,1,.444.426A5.646,5.646,0,0,1,55-4.513q.207.312.461.725ZM50.263-11.268V-6.7h2a3.039,3.039,0,0,0,1.024-.167,2.37,2.37,0,0,0,.813-.479,2.172,2.172,0,0,0,.536-.765,2.56,2.56,0,0,0,.193-1.015,1.976,1.976,0,0,0-.655-1.578,2.813,2.813,0,0,0-1.894-.567ZM64.459.211a5.532,5.532,0,0,1-4.293-1.767,6.552,6.552,0,0,1-1.613-4.6A6.943,6.943,0,0,1,60.2-11a5.74,5.74,0,0,1,4.474-1.811,5.408,5.408,0,0,1,4.206,1.758,6.576,6.576,0,0,1,1.6,4.6,6.965,6.965,0,0,1-1.635,4.878A5.634,5.634,0,0,1,64.459.211Zm.105-11.689a4.063,4.063,0,0,0-3.226,1.433A5.546,5.546,0,0,0,60.1-6.284a5.585,5.585,0,0,0,1.208,3.749,3.941,3.941,0,0,0,3.151,1.419,4.138,4.138,0,0,0,3.27-1.354,5.532,5.532,0,0,0,1.2-3.788,5.78,5.78,0,0,0-1.16-3.858A3.978,3.978,0,0,0,64.565-11.479ZM79.49,0H72.951V-12.6h1.477V-1.336H79.49Z" transform="translate(895 3373.706)" fill="#212429"/>
    <path id="Trazado_986761" data-name="Trazado 986761" d="M8.332,0H1.652V-12.6h6.4v1.336H3.129v4.192H7.682v1.327H3.129v4.412h5.2Zm11.8-12.6L15.462,0H13.836L9.265-12.6h1.644L14.4-2.61a5.934,5.934,0,0,1,.255,1.116h.035a5.475,5.475,0,0,1,.29-1.134l3.56-9.976ZM30.642,0H29.008L27.672-3.533H22.328L21.071,0H19.427l4.834-12.6h1.529ZM27.188-4.86l-1.978-5.37a5.142,5.142,0,0,1-.193-.844h-.035a4.708,4.708,0,0,1-.2.844L22.82-4.86ZM39.038,0H32.5V-12.6h1.477V-1.336h5.063Zm10.8-5.1q0,5.309-4.79,5.309-4.588,0-4.588-5.106V-12.6H41.94v7.611q0,3.876,3.27,3.876,3.155,0,3.155-3.744V-12.6h1.477ZM62.306,0H60.671L59.335-3.533H53.991L52.735,0H51.091l4.834-12.6h1.529ZM58.852-4.86l-1.978-5.37a5.142,5.142,0,0,1-.193-.844h-.035a4.708,4.708,0,0,1-.2.844l-1.96,5.37ZM72.389-.527a7.392,7.392,0,0,1-3.48.738A5.613,5.613,0,0,1,64.6-1.521a6.389,6.389,0,0,1-1.617-4.544A6.7,6.7,0,0,1,64.8-10.951a6.175,6.175,0,0,1,4.614-1.863,7.4,7.4,0,0,1,2.971.519v1.573a6.024,6.024,0,0,0-2.988-.756,4.585,4.585,0,0,0-3.52,1.45,5.463,5.463,0,0,0-1.349,3.876,5.2,5.2,0,0,0,1.261,3.669A4.292,4.292,0,0,0,69.1-1.116a6.208,6.208,0,0,0,3.287-.844ZM76.433,0H74.957V-12.6h1.477Zm8.4.211a5.532,5.532,0,0,1-4.293-1.767,6.552,6.552,0,0,1-1.613-4.6A6.943,6.943,0,0,1,80.566-11a5.74,5.74,0,0,1,4.474-1.811,5.408,5.408,0,0,1,4.206,1.758,6.576,6.576,0,0,1,1.6,4.6,6.965,6.965,0,0,1-1.635,4.878A5.634,5.634,0,0,1,84.829.211Zm.105-11.689a4.063,4.063,0,0,0-3.226,1.433,5.546,5.546,0,0,0-1.239,3.762,5.585,5.585,0,0,0,1.208,3.749,3.941,3.941,0,0,0,3.151,1.419A4.138,4.138,0,0,0,88.1-2.47a5.532,5.532,0,0,0,1.2-3.788,5.78,5.78,0,0,0-1.16-3.858A3.978,3.978,0,0,0,84.934-11.479Zm2.2-5.168-2.3,2.883H83.713l1.96-2.883ZM103.481,0H101.67L95.184-10.046a4.2,4.2,0,0,1-.4-.791h-.053a12.976,12.976,0,0,1,.07,1.731V0H93.321V-12.6h1.916l6.311,9.888q.4.615.51.844h.035A13.335,13.335,0,0,1,102-3.727V-12.6h1.477Z" transform="translate(895 3331.706)" fill="#212429"/>
    <g id="Grupo_1151724" data-name="Grupo 1151724" transform="translate(-191.405 14.661) rotate(-7)">
      <path id="Trazado_986412" data-name="Trazado 986412" d="M3675.336,3389l6.964,19.154" transform="translate(-3337)" fill="none" stroke="#0d1b36" stroke-width="1"/>
      <g id="Polígono_33" data-name="Polígono 33" transform="translate(350.693 3407.417) rotate(158)" fill="#0d1b36">
        <path d="M 9.097874641418457 7.5 L 0.9021250009536743 7.5 L 5 0.9434000253677368 L 9.097874641418457 7.5 Z" stroke="none"/>
        <path d="M 5 1.886799812316895 L 1.80424976348877 7 L 8.19575023651123 7 L 5 1.886799812316895 M 5 0 L 10 8 L 0 8 L 5 0 Z" stroke="none" fill="#0d1b36"/>
      </g>
    </g>
    <g id="Grupo_1151731" data-name="Grupo 1151731" transform="translate(865.733 3486.508) rotate(-168)">
      <path id="Trazado_986412-2" data-name="Trazado 986412" d="M3682.3,3389l-6.964,19.154" transform="translate(-3669.944 -3389)" fill="none" stroke="#0d1b36" stroke-width="1"/>
      <g id="Polígono_33-2" data-name="Polígono 33" transform="translate(9.272 22.163) rotate(-158)" fill="#0d1b36">
        <path d="M 9.097874641418457 7.5 L 0.9021250009536743 7.5 L 5 0.9434000253677368 L 9.097874641418457 7.5 Z" stroke="none"/>
        <path d="M 5 1.886799812316895 L 1.80424976348877 7 L 8.19575023651123 7 L 5 1.886799812316895 M 5 0 L 10 8 L 0 8 L 5 0 Z" stroke="none" fill="#0d1b36"/>
      </g>
    </g>
    <g id="Grupo_1151725" data-name="Grupo 1151725" transform="translate(-171.839 55.812) rotate(-7)">
      <path id="Trazado_986412-3" data-name="Trazado 986412" d="M3675.336,3389l6.964,19.154" transform="translate(-3337)" fill="none" stroke="#0d1b36" stroke-width="1"/>
      <g id="Polígono_33-3" data-name="Polígono 33" transform="translate(350.693 3407.417) rotate(158)" fill="#0d1b36">
        <path d="M 9.097874641418457 7.5 L 0.9021250009536743 7.5 L 5 0.9434000253677368 L 9.097874641418457 7.5 Z" stroke="none"/>
        <path d="M 5 1.886799812316895 L 1.80424976348877 7 L 8.19575023651123 7 L 5 1.886799812316895 M 5 0 L 10 8 L 0 8 L 5 0 Z" stroke="none" fill="#0d1b36"/>
      </g>
    </g>
    <g id="Grupo_1151730" data-name="Grupo 1151730" transform="translate(895.71 3442.034) rotate(-168)">
      <path id="Trazado_986412-4" data-name="Trazado 986412" d="M3682.3,3389l-6.964,19.154" transform="translate(-3669.944 -3389)" fill="none" stroke="#0d1b36" stroke-width="1"/>
      <g id="Polígono_33-4" data-name="Polígono 33" transform="translate(9.272 22.163) rotate(-158)" fill="#0d1b36">
        <path d="M 9.097874641418457 7.5 L 0.9021250009536743 7.5 L 5 0.9434000253677368 L 9.097874641418457 7.5 Z" stroke="none"/>
        <path d="M 5 1.886799812316895 L 1.80424976348877 7 L 8.19575023651123 7 L 5 1.886799812316895 M 5 0 L 10 8 L 0 8 L 5 0 Z" stroke="none" fill="#0d1b36"/>
      </g>
    </g>
    <g id="Grupo_1151726" data-name="Grupo 1151726" transform="translate(-147.741 97.176) rotate(-7)">
      <path id="Trazado_986412-5" data-name="Trazado 986412" d="M3675.336,3389l6.964,19.154" transform="translate(-3337)" fill="none" stroke="#0d1b36" stroke-width="1"/>
      <g id="Polígono_33-5" data-name="Polígono 33" transform="translate(350.693 3407.417) rotate(158)" fill="#0d1b36">
        <path d="M 9.097874641418457 7.5 L 0.9021250009536743 7.5 L 5 0.9434000253677368 L 9.097874641418457 7.5 Z" stroke="none"/>
        <path d="M 5 1.886799812316895 L 1.80424976348877 7 L 8.19575023651123 7 L 5 1.886799812316895 M 5 0 L 10 8 L 0 8 L 5 0 Z" stroke="none" fill="#0d1b36"/>
      </g>
    </g>
    <g id="Grupo_1151729" data-name="Grupo 1151729" transform="translate(922.311 3398.072) rotate(-168)">
      <path id="Trazado_986412-6" data-name="Trazado 986412" d="M3682.3,3389l-6.964,19.154" transform="translate(-3669.944 -3389)" fill="none" stroke="#0d1b36" stroke-width="1"/>
      <g id="Polígono_33-6" data-name="Polígono 33" transform="translate(9.272 22.163) rotate(-158)" fill="#0d1b36">
        <path d="M 9.097874641418457 7.5 L 0.9021250009536743 7.5 L 5 0.9434000253677368 L 9.097874641418457 7.5 Z" stroke="none"/>
        <path d="M 5 1.886799812316895 L 1.80424976348877 7 L 8.19575023651123 7 L 5 1.886799812316895 M 5 0 L 10 8 L 0 8 L 5 0 Z" stroke="none" fill="#0d1b36"/>
      </g>
    </g>
    <g id="Grupo_1151727" data-name="Grupo 1151727" transform="translate(-122.528 139.411) rotate(-7)">
      <path id="Trazado_986412-7" data-name="Trazado 986412" d="M3675.336,3389l6.964,19.154" transform="translate(-3337)" fill="none" stroke="#0d1b36" stroke-width="1"/>
      <g id="Polígono_33-7" data-name="Polígono 33" transform="translate(350.693 3407.417) rotate(158)" fill="#0d1b36">
        <path d="M 9.097874641418457 7.5 L 0.9021250009536743 7.5 L 5 0.9434000253677368 L 9.097874641418457 7.5 Z" stroke="none"/>
        <path d="M 5 1.886799812316895 L 1.80424976348877 7 L 8.19575023651123 7 L 5 1.886799812316895 M 5 0 L 10 8 L 0 8 L 5 0 Z" stroke="none" fill="#0d1b36"/>
      </g>
    </g>
    <g id="Grupo_1151728" data-name="Grupo 1151728" transform="translate(952.784 3355.716) rotate(-168)">
      <path id="Trazado_986412-8" data-name="Trazado 986412" d="M3682.3,3389l-6.964,19.154" transform="translate(-3669.944 -3389)" fill="none" stroke="#0d1b36" stroke-width="1"/>
      <g id="Polígono_33-8" data-name="Polígono 33" transform="translate(9.272 22.163) rotate(-158)" fill="#0d1b36">
        <path d="M 9.097874641418457 7.5 L 0.9021250009536743 7.5 L 5 0.9434000253677368 L 9.097874641418457 7.5 Z" stroke="none"/>
        <path d="M 5 1.886799812316895 L 1.80424976348877 7 L 8.19575023651123 7 L 5 1.886799812316895 M 5 0 L 10 8 L 0 8 L 5 0 Z" stroke="none" fill="#0d1b36"/>
      </g>
    </g>
    <g id="Grupo_1151732" data-name="Grupo 1151732" transform="translate(220 -52.294)">
      <path id="Trazado_986413" data-name="Trazado 986413" d="M3768.41,3562.009s53.629,54.579,99.215,54.579,90.092-54.579,90.092-54.579" transform="translate(-3337)" fill="none" stroke="#0d1b36" stroke-width="1"/>
      <g id="Polígono_34" data-name="Polígono 34" transform="translate(619.973 3553.906) rotate(31)" fill="#0d1b36">
        <path d="M 9.097874641418457 7.5 L 0.9021250009536743 7.5 L 5 0.9434000253677368 L 9.097874641418457 7.5 Z" stroke="none"/>
        <path d="M 5 1.886799812316895 L 1.80424976348877 7 L 8.19575023651123 7 L 5 1.886799812316895 M 5 0 L 10 8 L 0 8 L 5 0 Z" stroke="none" fill="#0d1b36"/>
      </g>
    </g>
  </g>
</svg>
